<svg width="149" height="152" viewBox="0 0 149 152" fill="none" xmlns="http://www.w3.org/2000/svg">
<g id="Group">
<g id="a">
<g id="Group_2" style="mix-blend-mode:multiply">
<path id="Vector" fill-rule="evenodd" clip-rule="evenodd" d="M11.4241 99.0271C11.299 99.0611 11.1285 99.1519 11.083 99.2654C11.0148 99.4696 11.0148 99.7079 10.9693 100.173C10.6965 100.774 11.3672 101.33 11.6287 102.011C11.6628 102.091 11.9584 102.181 12.0152 102.125C12.5836 101.637 13.1293 101.126 13.6522 100.593C13.7318 100.513 13.7318 100.275 13.675 100.173C13.1293 99.4015 12.5154 98.7434 11.4354 99.0157L11.4241 99.0271Z" fill="#5FB01C"/>
<path id="Vector_2" fill-rule="evenodd" clip-rule="evenodd" d="M9.11604 101.161C8.96826 100.651 8.559 100.299 7.93376 100.378C7.79734 100.424 7.63818 100.435 7.53587 100.526C7.50177 100.56 7.54724 100.787 7.62682 100.855C8.09291 101.275 8.38848 101.74 8.25206 102.409C8.19522 102.693 8.22933 102.999 8.2748 103.294C8.28617 103.397 8.46806 103.533 8.59311 103.533C9.16152 103.578 9.79813 102.818 9.51393 102.387C9.24109 101.99 9.24109 101.581 9.11604 101.173V101.161Z" fill="#5FB01C"/>
<path id="Vector_3" fill-rule="evenodd" clip-rule="evenodd" d="M16.6198 105.779C16.5061 105.632 16.3811 105.371 16.131 105.507C15.9491 105.609 15.6763 105.938 15.699 105.972C16.0855 106.494 15.5285 106.891 15.574 107.356C15.574 107.413 15.6535 107.47 15.7331 107.572C15.8923 107.481 16.0628 107.379 16.2333 107.288C17.0632 106.823 17.1541 106.471 16.6198 105.779Z" fill="#5FB01C"/>
<path id="Vector_4" fill-rule="evenodd" clip-rule="evenodd" d="M6.72875 94.1588C6.64917 94.1361 6.45591 94.2722 6.44454 94.3517C6.39907 94.5672 6.43318 94.7942 6.43318 95.0211H6.47865C6.47865 95.3161 6.45591 95.6225 6.47865 95.9175C6.50139 96.1104 6.6378 96.1784 6.75148 96.1104C7.16074 95.8494 7.3881 95.4976 7.354 94.9984C7.33126 94.6921 7.03569 94.2268 6.72875 94.1588Z" fill="#5FB01C"/>
<path id="Vector_5" fill-rule="evenodd" clip-rule="evenodd" d="M43.7458 124.779C43.7458 124.779 43.7458 124.655 43.7003 124.609C43.2229 123.974 42.4839 123.86 41.8587 123.531C41.7223 123.735 41.5972 123.838 41.5745 123.962C41.5631 124.087 41.6313 124.314 41.7109 124.325C41.8928 124.371 42.0747 124.428 42.2452 124.473C42.3248 124.575 42.4157 124.666 42.5635 124.757C42.6204 124.689 42.5976 124.621 42.5635 124.564C42.8364 124.655 43.0978 124.757 43.3479 124.904C43.4275 124.95 43.6094 124.825 43.7344 124.768L43.7458 124.779Z" fill="#5FB01C"/>
<path id="Vector_6" fill-rule="evenodd" clip-rule="evenodd" d="M10.2306 104.484C9.9805 104.405 9.65082 104.643 9.62808 104.938C9.57124 105.483 9.71903 105.778 10.0601 105.8C10.2988 105.823 10.8672 105.437 10.9127 105.222C10.9695 105.029 10.5716 104.598 10.2306 104.484Z" fill="#5FB01C"/>
<path id="Vector_7" fill-rule="evenodd" clip-rule="evenodd" d="M14.563 102.886C14.563 102.886 14.4607 102.795 14.4152 102.75C14.3697 102.807 14.2788 102.863 14.2788 102.92C14.2674 103.499 14.256 104.066 14.2674 104.645C14.2674 104.702 14.3356 104.804 14.3811 104.815C14.4266 104.826 14.5061 104.758 14.563 104.713C15.1428 104.248 15.1655 104.134 14.8017 103.465C14.6994 103.283 14.6426 103.068 14.5516 102.875L14.563 102.886Z" fill="#5FB01C"/>
<path id="Vector_8" fill-rule="evenodd" clip-rule="evenodd" d="M11.87 97.4643C11.87 97.4076 11.7791 97.2941 11.7336 97.3055C11.3926 97.3395 11.006 97.8955 11.0515 98.2926C11.0515 98.3607 11.1425 98.4174 11.1879 98.4742C11.4949 98.4288 11.9155 97.8274 11.87 97.4643Z" fill="#5FB01C"/>
<path id="Vector_9" fill-rule="evenodd" clip-rule="evenodd" d="M11.9941 106.991C11.9372 107.184 11.8463 107.377 12.085 107.536C12.176 107.479 12.3692 107.4 12.3579 107.366C12.301 107.184 12.2101 107.014 12.1305 106.844C12.085 106.889 12.0054 106.935 11.9941 106.991Z" fill="#5FB01C"/>
<path id="Vector_10" fill-rule="evenodd" clip-rule="evenodd" d="M48.3807 135.362C48.5057 135.362 48.6422 135.26 48.7672 135.203C48.6422 135.147 48.5171 135.033 48.392 135.033C48.3579 135.033 48.3238 135.056 48.2784 135.067C48.0624 134.942 47.7782 134.818 47.71 134.942C47.8236 135.01 47.8691 135.09 47.8123 135.181C47.9714 135.249 48.1192 135.294 48.2329 135.305C48.2897 135.328 48.3352 135.362 48.392 135.362H48.3807Z" fill="#5FB01C"/>
<path id="Vector_11" fill-rule="evenodd" clip-rule="evenodd" d="M22.5768 31.7893C22.4973 31.8347 22.4745 31.9709 22.4404 32.0844C22.5541 32.0503 22.6792 32.039 22.736 31.9595C22.8269 31.8461 22.7133 31.7099 22.5882 31.7893H22.5768Z" fill="#5FB01C"/>
<path id="Vector_12" fill-rule="evenodd" clip-rule="evenodd" d="M22.4423 32.0781C22.4423 32.0781 22.3955 32.0781 22.3838 32.0898V32.1363H22.4306C22.4306 32.1363 22.4423 32.0898 22.454 32.0781H22.4423Z" fill="#5FB01C"/>
<path id="Vector_13" fill-rule="evenodd" clip-rule="evenodd" d="M22.0897 32.4286C22.1011 32.4853 22.2603 32.508 22.3739 32.5534C22.3739 32.4172 22.3739 32.2924 22.3739 32.1562C22.2148 32.1789 22.0329 32.2016 22.0897 32.4399V32.4286Z" fill="#5FB01C"/>
<path id="Vector_14" fill-rule="evenodd" clip-rule="evenodd" d="M22.3721 32.5469V32.6051H22.3955C22.3955 32.6051 22.3955 32.5702 22.4072 32.5585C22.3955 32.5585 22.3721 32.5585 22.3604 32.5469H22.3721Z" fill="#5FB01C"/>
<path id="Vector_15" fill-rule="evenodd" clip-rule="evenodd" d="M7.03647 45.0079C7.03647 45.0079 7.01374 45.144 7.03647 45.1554C7.12742 45.2008 7.22973 45.2348 7.32068 45.2689C7.29794 45.1214 7.28657 44.9625 7.03647 45.0079Z" fill="#5FB01C"/>
<path id="Vector_16" fill-rule="evenodd" clip-rule="evenodd" d="M7.32129 45.2656C7.32129 45.2656 7.32129 45.3225 7.33269 45.3453C7.35548 45.3453 7.37828 45.3453 7.40108 45.3453C7.40108 45.3225 7.38968 45.3111 7.38968 45.2884C7.36688 45.2884 7.35548 45.277 7.33269 45.2656H7.32129Z" fill="#5FB01C"/>
<path id="Vector_17" fill-rule="evenodd" clip-rule="evenodd" d="M5.29647 48.44L5.45563 48.2925C5.37605 48.0769 5.26237 48.0655 5.16005 48.2811C5.14869 48.3038 5.251 48.3946 5.29647 48.44Z" fill="#5FB01C"/>
<path id="Vector_18" fill-rule="evenodd" clip-rule="evenodd" d="M3.86626 50.4637C3.80942 50.4751 3.77532 50.6339 3.74121 50.7474C3.86626 50.7474 4.00268 50.7474 4.12773 50.7474C4.09362 50.5886 4.08226 50.407 3.86626 50.4637Z" fill="#5FB01C"/>
<path id="Vector_19" fill-rule="evenodd" clip-rule="evenodd" d="M3.28514 51.2031H3.22754C3.22754 51.2031 3.22754 51.249 3.22754 51.2833C3.25058 51.2833 3.27362 51.2604 3.29665 51.2604C3.29665 51.2375 3.29665 51.226 3.29665 51.2146L3.28514 51.2031Z" fill="#5FB01C"/>
<path id="Vector_20" fill-rule="evenodd" clip-rule="evenodd" d="M3.68011 50.8082C3.44138 50.8423 3.30496 50.9671 3.28223 51.2053C3.41864 51.2053 3.54369 51.2053 3.68011 51.2053C3.68011 51.0692 3.68011 50.933 3.68011 50.7969V50.8082Z" fill="#5FB01C"/>
<path id="Vector_21" fill-rule="evenodd" clip-rule="evenodd" d="M3.21751 51.2812C3.12657 51.3153 3.03562 51.3493 2.94468 51.3947C2.92194 51.3947 2.94468 51.5309 2.94468 51.5309C3.17204 51.5649 3.19477 51.4288 3.20614 51.2812H3.21751Z" fill="#5FB01C"/>
<path id="Vector_22" fill-rule="evenodd" clip-rule="evenodd" d="M29.9327 121.667C29.9327 121.667 30.0577 121.588 30.0577 121.542C30.0577 121.497 29.9895 121.452 29.944 121.406L29.8076 121.599L29.9213 121.667H29.9327Z" fill="#5FB01C"/>
<path id="Vector_23" fill-rule="evenodd" clip-rule="evenodd" d="M37.0586 123.798C37.1268 123.968 37.2291 124.002 37.3087 123.889C37.3314 123.855 37.3087 123.798 37.3201 123.741C37.2746 123.719 37.2177 123.662 37.195 123.673C37.1382 123.696 37.0472 123.775 37.0586 123.798Z" fill="#5FB01C"/>
<path id="Vector_24" fill-rule="evenodd" clip-rule="evenodd" d="M45.2783 134.273C45.2783 134.273 45.3579 134.375 45.392 134.42L45.5512 134.284L45.4147 134.125C45.4147 134.125 45.2897 134.216 45.2783 134.261V134.273Z" fill="#5FB01C"/>
<path id="Vector_25" fill-rule="evenodd" clip-rule="evenodd" d="M53.7599 135.191C53.7599 135.191 53.6689 135.044 53.6462 135.055C53.4416 135.123 53.4302 135.237 53.6235 135.339C53.6348 135.339 53.7144 135.248 53.7599 135.203V135.191Z" fill="#5FB01C"/>
<path id="Vector_26" fill-rule="evenodd" clip-rule="evenodd" d="M127.313 19.4153C127.54 19.0409 127.415 18.519 126.892 17.9062C126.494 18.2239 127.245 18.9161 127.313 19.4153Z" fill="#5FB01C"/>
<path id="Vector_27" fill-rule="evenodd" clip-rule="evenodd" d="M75.5286 0.610851C74.6192 0.531426 76.6314 0.372577 75.5514 0.179688C75.5741 0.497387 74.6419 0.20238 74.2554 0.270459C74.0622 0.622198 75.324 0.928551 75.5286 0.610851Z" fill="#5FB01C"/>
<path id="Vector_28" fill-rule="evenodd" clip-rule="evenodd" d="M45.5871 3.21875C44.9277 3.43433 44.8595 3.72934 45.0641 4.04704C45.7235 3.83146 45.7917 3.53645 45.5871 3.21875Z" fill="#5FB01C"/>
<path id="Vector_29" fill-rule="evenodd" clip-rule="evenodd" d="M84.7715 1.29414C84.294 1.33953 83.9644 1.49838 83.4301 1.47568C83.4414 1.15799 80.2356 0.431814 79.6104 0.942403C81.2815 1.18068 82.8048 1.37357 84.3395 1.65723C85.1125 1.79338 85.8856 1.92954 86.7041 2.0657C87.5112 2.22455 88.3411 2.39474 89.2392 2.57629C88.8868 2.0657 88.0342 1.90685 87.1361 1.78204C86.238 1.66857 85.3058 1.64588 84.7601 1.29414H84.7715Z" fill="#5FB01C"/>
<path id="Vector_30" fill-rule="evenodd" clip-rule="evenodd" d="M78.939 0.0091864C78.075 -0.0702385 78.0068 0.394965 77.0973 0.270154C77.427 0.633239 76.3925 0.746703 77.0519 0.848821C77.3815 0.372272 78.5525 0.451697 78.939 0.0091864Z" fill="#5FB01C"/>
<path id="Vector_31" fill-rule="evenodd" clip-rule="evenodd" d="M3.80789 50.0912C4.06935 49.036 4.39903 48.3779 4.63776 47.7992C4.45587 47.7538 4.18303 48.3779 3.98978 48.9906C3.78515 49.6033 3.73968 50.216 3.80789 50.0912Z" fill="#5FB01C"/>
<path id="Vector_32" fill-rule="evenodd" clip-rule="evenodd" d="M38.3112 18.5608C38.7091 18.2885 38.8796 18.5041 39.323 18.1637C39.2661 17.8347 38.0497 18.3339 38.3112 18.5608Z" fill="#5FB01C"/>
<path id="Vector_33" fill-rule="evenodd" clip-rule="evenodd" d="M93.0361 5.57831L93.8319 5.85062C94.0479 5.46484 93.093 5.26061 93.0361 5.57831Z" fill="#5FB01C"/>
<path id="Vector_34" fill-rule="evenodd" clip-rule="evenodd" d="M96.5739 2.43815C96.4602 2.30199 95.5621 1.85948 95.3916 2.01833C95.8577 2.09776 96.2215 2.61969 96.5739 2.43815Z" fill="#5FB01C"/>
<path id="Vector_35" fill-rule="evenodd" clip-rule="evenodd" d="M97.2559 6.76931C96.7671 6.57642 96.3578 6.48565 96.085 6.55373C96.4715 6.6218 97.2559 7.16643 97.2559 6.76931Z" fill="#5FB01C"/>
<path id="Vector_36" fill-rule="evenodd" clip-rule="evenodd" d="M99.347 6.57044C99.5516 6.45697 99.1992 6.24139 98.8695 6.11658C98.5285 6.01446 98.2329 6.00312 98.5626 6.23004C98.8013 6.01446 98.915 6.50236 99.347 6.57044Z" fill="#5FB01C"/>
<path id="Vector_37" fill-rule="evenodd" clip-rule="evenodd" d="M99.6533 6.7035C100.324 7.06659 100.483 6.94178 100.892 7.28217C101.131 7.00985 99.6761 6.45388 99.6533 6.7035Z" fill="#5FB01C"/>
<path id="Vector_38" fill-rule="evenodd" clip-rule="evenodd" d="M107.722 10.4932C107.393 10.2095 107.256 10.2095 107.12 9.80105C107.052 9.91451 106.813 9.72162 106.733 9.80105C106.836 9.98259 107.37 10.5953 107.722 10.4932Z" fill="#5FB01C"/>
<path id="Vector_39" fill-rule="evenodd" clip-rule="evenodd" d="M112.556 3.85529C112.147 3.6851 111.351 2.93623 111.306 3.33336C111.783 3.59433 112.397 4.07088 112.556 3.85529Z" fill="#5FB01C"/>
<path id="Vector_40" fill-rule="evenodd" clip-rule="evenodd" d="M112.249 15.4062C112.749 15.792 113.158 16.1778 113.488 16.5522C113.579 16.2799 112.613 15.4403 112.249 15.4062Z" fill="#5FB01C"/>
<path id="Vector_41" fill-rule="evenodd" clip-rule="evenodd" d="M119.366 15.4765C119.719 15.7715 120.037 15.9984 120.287 16.0438C120.151 15.6807 119.594 15.4198 119.366 15.4765Z" fill="#5FB01C"/>
<path id="Vector_42" fill-rule="evenodd" clip-rule="evenodd" d="M121.286 20.9531C120.945 20.6013 120.365 20.2155 120.536 20C120.797 20.1588 121.206 20.7602 121.365 20.624C120.774 19.5801 119.387 19.3078 118.364 18.5703C118.876 19.3646 120.604 20.624 121.286 20.9531Z" fill="#5FB01C"/>
<path id="Vector_43" fill-rule="evenodd" clip-rule="evenodd" d="M133.792 26.1101C134.11 26.5526 134.451 26.337 134.406 26.1101L134.065 25.6562C133.837 25.7357 134.11 26.0534 133.792 26.0988V26.1101Z" fill="#5FB01C"/>
<path id="Vector_44" fill-rule="evenodd" clip-rule="evenodd" d="M136.919 34.4665C136.112 33.7176 136.362 33.2297 135.6 32.4922C135.555 32.8326 136.498 34.7501 136.919 34.4665Z" fill="#5FB01C"/>
<path id="Vector_45" fill-rule="evenodd" clip-rule="evenodd" d="M140.705 41.9796C140.852 41.9002 140.989 41.8889 141.125 41.991C140.614 41.0719 140.477 40.2209 139.909 39.5175C139.977 39.8238 139.352 39.4153 139.159 38.8594C139.068 38.9388 138.897 38.9501 138.977 39.1544C139.625 40.2436 140.511 40.4252 140.705 41.9796Z" fill="#5FB01C"/>
<path id="Vector_46" fill-rule="evenodd" clip-rule="evenodd" d="M141.521 41.4114L141.862 42.2738C142.237 42.4213 141.691 41.0257 141.521 41.4114Z" fill="#5FB01C"/>
<path id="Vector_47" fill-rule="evenodd" clip-rule="evenodd" d="M141.284 43.7424C141.409 43.6516 141.636 43.6629 141.579 43.4247C141.068 43.5949 141.579 42.4035 141.011 42.4716C141.124 42.9254 141.159 43.0729 141.295 43.7424H141.284Z" fill="#5FB01C"/>
<path id="Vector_48" fill-rule="evenodd" clip-rule="evenodd" d="M135.552 112.734C135.222 112.927 135.381 113.188 134.927 113.676C135.052 114.062 135.745 113.699 135.677 113.268C135.529 113.438 135.347 113.563 135.188 113.631C135.131 113.461 135.688 112.893 135.541 112.746L135.552 112.734Z" fill="#5FB01C"/>
<path id="Vector_49" fill-rule="evenodd" clip-rule="evenodd" d="M107.019 138.314C107.724 137.871 108.451 137.542 108.372 137.281C107.86 137.815 106.905 137.962 106.587 138.314C106.792 138.223 106.996 138.144 107.019 138.314Z" fill="#5FB01C"/>
<path id="Vector_50" fill-rule="evenodd" clip-rule="evenodd" d="M89.5809 144.936C90.0015 144.8 90.3426 144.63 90.4222 144.414C89.9447 144.539 89.2512 144.63 89.5809 144.936Z" fill="#5FB01C"/>
<path id="Vector_51" fill-rule="evenodd" clip-rule="evenodd" d="M72.9936 147.746C71.5953 147.939 70.9018 147.871 69.7764 147.939C70.7086 148.143 71.9932 148.29 72.823 147.939C72.482 147.905 72.9026 147.836 73.0049 147.734L72.9936 147.746Z" fill="#5FB01C"/>
<path id="Vector_52" fill-rule="evenodd" clip-rule="evenodd" d="M71.083 147.125C71.4923 146.921 72.1971 146.796 72.5609 146.523C71.6969 146.626 71.2535 146.58 71.083 147.125Z" fill="#5FB01C"/>
<path id="Vector_53" fill-rule="evenodd" clip-rule="evenodd" d="M69.5849 147.173C69.9714 146.946 70.3579 147.524 70.9036 147.218C70.9263 146.98 70.8013 146.821 70.517 146.719C70.0055 146.821 69.5166 146.946 68.8346 146.946C68.9937 147.297 68.8573 147.184 69.0165 147.524C68.7095 147.479 68.5049 147.638 68.8232 147.706C69.0619 147.456 69.9373 147.536 70.1419 147.275C69.9145 147.252 69.6076 147.275 69.5735 147.161L69.5849 147.173Z" fill="#5FB01C"/>
<path id="Vector_54" fill-rule="evenodd" clip-rule="evenodd" d="M66.5264 148.102C67.4699 148.692 66.5718 148.227 67.288 148.136C67.7314 148.079 68.368 148.352 68.6295 148C67.7541 148.091 67.3221 147.909 66.5264 148.102Z" fill="#5FB01C"/>
<path id="Vector_55" fill-rule="evenodd" clip-rule="evenodd" d="M60.626 147.539C61.2626 147.596 62.8996 147.777 62.7291 147.63C61.8765 147.505 61.1034 147.426 60.626 147.539Z" fill="#5FB01C"/>
<path id="Vector_56" fill-rule="evenodd" clip-rule="evenodd" d="M58.0895 146.289C58.5556 146.346 58.692 146.199 59.0331 146.426C59.2718 146.074 57.9645 145.87 58.0895 146.289Z" fill="#5FB01C"/>
<path id="Vector_57" fill-rule="evenodd" clip-rule="evenodd" d="M56.2943 144.442C56.931 144.442 57.0674 144.635 57.4084 144.533C57.2834 144.431 56.1807 144.079 56.2943 144.442Z" fill="#5FB01C"/>
<path id="Vector_58" fill-rule="evenodd" clip-rule="evenodd" d="M54.1338 133.618C54.6226 133.743 55.1115 134.094 55.5434 133.969L55.6116 133.686C54.975 133.527 54.6567 133.674 54.1338 133.618Z" fill="#5FB01C"/>
<path id="Vector_59" fill-rule="evenodd" clip-rule="evenodd" d="M46.7217 135.186C47.3015 135.254 47.5629 135.538 47.8812 135.492C47.7676 135.424 47.7221 135.345 47.7789 135.254C47.2901 135.072 46.7444 134.823 46.7217 135.186Z" fill="#5FB01C"/>
<path id="Vector_60" fill-rule="evenodd" clip-rule="evenodd" d="M43.0869 136.901C43.2574 137.003 43.3029 137.116 43.337 137.23C44.1328 137.309 44.3829 137.411 44.974 137.423C44.2465 137.082 44.1328 137.15 43.6781 136.844C43.8031 137.275 43.0983 136.663 43.0869 136.901Z" fill="#5FB01C"/>
<path id="Vector_61" fill-rule="evenodd" clip-rule="evenodd" d="M40.4834 124.809C40.9609 125.036 41.211 125.274 41.5065 125.512C41.8248 124.775 42.6092 126.329 43.1094 125.762C42.757 125.671 41.9613 125.49 42.2227 125.127C42.8139 125.081 43.5528 126.023 43.7233 125.524C42.7911 125.183 42.1886 124.945 41.5975 124.344C41.9726 125.07 41.0518 124.48 41.3701 125.104C41.0632 124.99 40.5175 124.423 40.4834 124.809Z" fill="#5FB01C"/>
<path id="Vector_62" fill-rule="evenodd" clip-rule="evenodd" d="M23.8833 123.984C23.4514 124.234 24.0539 124.665 24.4177 124.722C23.9629 124.416 24.3267 124.291 23.8833 123.984Z" fill="#5FB01C"/>
<path id="Vector_63" fill-rule="evenodd" clip-rule="evenodd" d="M17.9618 121.437C18.4507 121.584 17.3252 120.234 16.9842 120.109C16.9842 120.529 16.8023 120.892 16.9842 121.38C17.2343 121.335 17.4275 121.085 17.7686 121.38C17.814 121.607 18.9167 122.957 19.0873 122.628C18.7917 122.152 18.3824 121.857 17.9618 121.437Z" fill="#5FB01C"/>
<path id="Vector_64" fill-rule="evenodd" clip-rule="evenodd" d="M45.4834 128.804C45.4834 128.804 45.5066 128.804 45.5182 128.804L45.495 128.781L45.4834 128.804Z" fill="#5FB01C"/>
<path id="Vector_65" fill-rule="evenodd" clip-rule="evenodd" d="M79.3838 142.816V142.895C79.6907 142.827 79.9863 142.748 80.2705 142.68C79.9749 142.725 79.6794 142.77 79.3838 142.816Z" fill="#5FB01C"/>
<path id="Vector_66" fill-rule="evenodd" clip-rule="evenodd" d="M148.945 70.0783C148.82 68.0133 148.695 65.9823 148.581 64.0193C148.547 63.5314 148.513 63.0435 148.479 62.567C148.411 62.0904 148.354 61.6139 148.286 61.1487C148.149 60.2183 148.024 59.3106 147.899 58.4369C147.433 57.7334 147.513 55.0783 146.603 54.477C146.558 53.4218 146.547 53.0473 146.092 52.0829C146.717 52.3552 145.842 50.9483 146.308 51.039C145.887 50.2561 146.058 49.1442 145.614 48.8719C145.83 50.0292 146.285 50.6759 145.933 51.1411C145.762 50.0405 145.194 48.9853 145.41 48.1343C145.08 47.3174 144.137 45.9218 144.262 45.1275C143.818 45.1956 143.989 44.1404 143.557 43.7887C143.375 43.7887 143.432 44.1404 143.295 43.9021C142.852 43.2894 142.909 42.2796 142.488 41.803C142.556 42.0186 142.625 42.2229 142.443 42.2342C142.17 41.7236 142.397 41.6555 142.124 41.1449C141.806 41.213 142.272 41.9619 142.261 42.3136C142.681 42.5519 143.466 44.5602 143.341 44.9006C142.966 44.356 142.67 44.2539 142.727 43.539C142.431 43.5163 142.681 43.9589 142.499 44.0383C142.715 44.617 143.011 44.5148 143.227 45.1502C142.943 45.1275 142.704 44.7871 142.431 44.6623C142.636 45.2977 142.966 44.9914 143.182 45.57C143.079 45.797 142.693 45.1616 142.818 45.7062C142.897 45.7629 142.954 45.831 142.988 45.9104C142.931 45.9218 142.875 45.9331 142.818 45.9558C142.704 46.0126 142.579 46.0806 142.465 46.1374C142.488 46.0579 142.534 46.0012 142.613 45.9672C142.318 45.4906 142.374 45.3885 142.318 44.8893C142.102 44.98 142.272 45.7629 142.397 46.1714C142.147 46.3076 141.897 46.4324 141.636 46.5572C141.613 46.5572 141.567 46.5345 141.522 46.4891C141.476 46.3189 141.42 46.1601 141.363 45.9899C141.351 45.797 141.317 45.6041 141.135 45.4566C140.919 44.946 140.749 44.4468 140.976 44.061C140.374 43.766 139.68 41.44 139.76 40.8159C139.532 40.8613 139.271 40.5549 139.044 40.1918C139.044 40.0557 139.044 39.9309 139.066 39.7947C139.089 39.6132 138.941 39.5451 138.748 39.5905C138.612 39.2501 138.555 38.9778 138.634 38.9324C138.35 38.6714 138.077 38.3991 137.793 38.1041C137.702 37.8772 137.611 37.6503 137.509 37.4233C137.532 37.4233 137.554 37.4347 137.577 37.446C137.225 36.6858 136.861 35.9823 136.474 35.3015L136.452 35.2675C135.61 33.713 134.633 32.204 133.553 30.8084C133.178 30.173 132.791 29.5035 132.382 28.766C132.257 28.8681 132.098 28.8 131.938 28.6412C131.859 27.915 131.109 27.1775 130.495 26.5194C130.347 26.0202 130.108 25.5436 129.801 25.0784C129.824 25.0444 129.847 25.0103 129.892 24.9763C129.676 24.6926 129.585 24.6586 129.517 24.6926C129.426 24.5678 129.324 24.4544 129.233 24.3409C128.824 23.8417 128.369 23.3538 127.948 22.8659C127.505 22.3893 127.084 21.9128 126.755 21.4135C125.731 19.8137 124.708 18.1685 123.549 16.6026C122.355 15.0936 120.991 13.6753 119.206 12.7789C118.854 12.4952 118.831 12.9945 118.513 12.7676C117.467 11.7918 116.08 10.9067 114.682 9.965C113.226 9.11401 111.771 8.18361 110.384 7.38936C108.452 6.18664 106.769 4.65487 104.598 3.84928C103.325 3.41811 102.177 3.11176 101.097 3.02099C100.017 2.94156 99.0163 3.03233 98.0727 3.32734C96.1856 2.53309 93.5141 3.40677 91.8203 2.10193C91.3996 2.15866 91.3542 2.58982 90.6607 2.3629C90.1605 2.26078 90.2173 2.03385 89.9786 1.875C89.8649 2.39694 90.1491 2.3402 89.7513 2.71463C91.2177 2.83945 91.8544 3.10041 93.1844 2.96426C93.5141 3.11176 93.5937 3.30465 94.128 3.42946C97.0837 3.47484 100.608 3.74716 104.325 4.99526C107.895 6.24337 110.862 8.81901 113.477 9.55652C113.954 9.9423 113.442 10.2373 113.738 10.6004C115.17 10.9862 115.75 12.291 117.171 13.1533C118.149 13.8001 119.365 13.8909 120.423 14.7191C121.468 15.5928 122.185 16.4551 122.935 17.3629C123.651 18.2933 124.39 19.2691 125.47 20.3924C125.47 20.4604 125.493 20.5172 125.504 20.5852C124.981 20.1541 124.617 19.7456 123.788 19.1102C123.901 18.906 124.219 19.4052 124.356 19.2917C123.753 18.6677 123.219 18.2819 122.764 17.8848C122.31 17.4877 121.935 17.0679 121.605 16.4325C121.355 16.8182 120.684 16.0467 120.366 16.2282C121.071 16.8977 121.98 17.7373 121.969 18.4408C121.275 18.0663 121.389 17.4423 120.98 17.4196C121.412 18.2365 121.923 18.679 122.526 19.0989C123.128 19.5187 123.731 19.9839 124.413 20.7554C124.322 20.8576 124.208 20.8462 124.083 20.8235C124.435 21.4476 125.14 21.8674 125.663 22.2418C125.777 22.4234 125.913 22.5936 126.038 22.7638C125.947 22.707 125.857 22.6616 125.743 22.6389C125.857 22.8772 126.004 23.1268 126.095 23.3651C125.993 23.3084 125.902 23.2743 125.845 23.2857C125.97 23.4105 126.084 23.5353 126.186 23.6601C126.209 23.7849 126.22 23.9097 126.186 24.0119C125.277 23.5126 124.435 23.2743 123.617 23.0815C123.492 22.8999 123.401 22.7184 123.333 22.5595L123.128 22.7638C123.253 22.8659 123.333 22.9566 123.401 23.0361C123.276 23.0134 123.162 22.9793 123.037 22.9566C122.98 22.8999 122.924 22.8432 122.878 22.7751C122.98 22.673 122.787 22.2078 122.639 22.5255C122.798 22.6843 122.833 22.7978 122.776 22.8886C122.492 22.7184 122.162 22.6162 121.935 22.3893C121.684 22.1397 121.593 21.7426 121.389 21.4589C121.105 21.0731 120.252 21.0731 120.059 21.5156C119.991 21.6631 119.922 21.788 119.843 21.9241C119.581 21.788 119.32 21.6291 119.058 21.4589C119.161 20.9824 119.092 20.4945 118.876 20.0066C118.842 19.9385 118.615 19.9271 118.479 19.9271C118.422 19.9271 118.331 19.9839 118.308 20.0406L118.274 20.12C117.876 19.9498 117.467 19.7229 117.364 19.2464C117.251 19.3712 117.194 19.496 117.239 19.6548C117.546 19.8591 117.842 20.0293 118.194 20.381C118.194 20.415 118.194 20.4491 118.206 20.4604C118.376 20.6306 118.456 20.8235 118.524 21.0164C117.717 20.2449 116.967 19.5981 116.228 19.1102C116.057 18.9967 115.887 18.906 115.727 18.8039L115.796 18.7358L115.659 18.5656C115.659 18.5656 115.568 18.645 115.534 18.6904C115 18.384 114.488 18.1458 113.988 17.9415C113.806 17.76 113.636 17.5784 113.499 17.4196C113.317 17.2834 113.113 17.17 112.908 17.0452C109.907 14.3107 105.974 11.667 101.665 9.72672C96.9587 7.55955 91.8998 6.24337 87.6709 5.78951C86.7046 5.33566 85.7951 4.99526 84.7947 4.79103C83.7943 4.57545 82.7371 4.4166 81.4525 4.4166C80.1452 3.24792 77.576 3.07772 75.075 3.21388C74.4497 3.24792 73.8245 3.28196 73.222 3.316C72.6194 3.36138 72.0283 3.41811 71.4826 3.44081C70.3799 3.47484 69.425 3.44081 68.7202 3.20253C67.5265 4.68891 63.5022 4.32583 62.0925 3.82658C61.922 4.35987 61.3309 4.59814 60.6374 4.68891C59.944 4.79103 59.1368 4.77968 58.5002 4.7343C58.4547 4.53006 59.4324 4.08755 58.4093 4.31448C57.9204 4.37121 57.9659 4.59814 57.7385 4.74564C57.2383 4.51871 56.6131 4.4166 56.3061 4.03082C55.3853 4.15563 55.3285 4.53006 54.4077 4.65487C54.5782 4.31448 54.6691 3.95139 55.2034 3.71312C56.4767 3.20253 56.7609 3.59966 57.4998 3.62235C57.3975 3.27061 56.9314 3.27061 57.6248 3.00964C58.1364 3.82658 59.1709 2.47636 59.9553 3.1458C59.5006 3.25926 59.1482 3.39542 59.0231 3.62235C59.9553 3.2933 61.0921 2.9756 61.9106 2.70329C61.6492 2.74867 61.2627 2.72598 61.6378 2.60117C57.1247 2.43097 52.9071 3.24792 48.9396 4.63218C44.9607 6.02779 41.2206 7.97937 37.4577 10.3054C36.8666 10.2373 36.014 10.6344 35.1841 10.9635C33.1947 12.6427 31.6714 13.6753 32.0124 15.3205C34.4452 13.5618 36.2641 11.9393 40.5954 9.76076C41.6526 9.6246 42.5848 9.78345 43.1305 10.4415C39.9701 12.5293 35.9571 13.7207 33.2402 16.2055C32.8536 16.5686 32.8082 16.8523 32.4217 17.1586C30.0684 19.0308 28.6929 19.7343 27.0445 20.971C23.8387 23.3765 21.1444 26.7463 18.5411 29.7531C17.9727 30.4226 16.8928 30.7176 16.8245 31.8295C17.6089 31.058 18.4161 30.241 19.0868 29.4241C19.7803 28.6185 20.4055 27.8583 20.8034 27.1775C21.6901 26.4627 22.8838 25.4869 24.0206 24.3976C25.2256 23.3765 26.3965 22.2418 27.431 21.4022C28.0222 21.0731 28.5792 20.7327 29.1135 20.3924C29.6592 20.0633 30.1708 19.7343 30.671 19.3939C31.66 18.6904 32.6263 18.0096 33.6153 17.2948C35.5934 15.8651 37.7419 14.4014 40.6863 13.1306C41.3343 13.6526 41.9368 13.176 42.9145 12.7789C43.2328 13.5732 44.0854 13.5505 45.1654 13.1533C45.6656 12.6881 44.5515 12.7903 45.0744 12.4045C45.7906 12.3591 46.4727 12.3591 46.8137 12.8924C46.2453 13.1306 45.6428 13.4824 45.279 13.4257C45.7565 13.9589 46.9956 13.3122 47.3253 14.0837C46.3363 14.617 45.4155 15.2297 44.5287 15.8311C43.6648 16.4778 42.8235 17.1132 42.005 17.76C40.368 19.0762 38.7651 20.3356 36.8893 21.4022C36.1959 21.4135 35.6161 21.1185 34.8658 21.266C34.8544 22.0262 36.355 21.3568 36.878 21.7653C36.4914 22.3326 35.8889 22.8886 35.3433 23.4672C35.1841 23.6488 35.025 23.8303 34.8658 24.0005C34.8317 24.0005 34.7976 24.0232 34.7521 24.0346C34.0473 24.2047 33.2288 24.443 32.9105 25.1805C32.8536 25.3054 32.7854 25.4188 32.7286 25.5323C32.1943 25.9408 31.7055 26.3492 31.2621 26.7577C31.2394 26.7577 31.2166 26.7804 31.1825 26.7917C31.1371 26.8598 31.0802 26.9052 31.0347 26.9619C30.9552 27.0414 30.8528 27.1208 30.7733 27.2115C30.2049 27.6541 29.4773 27.6768 28.7384 27.6654C28.4769 27.6654 28.3405 27.8129 28.2723 28.0512C28.2268 28.1873 28.1586 28.3348 28.0676 28.437C27.8403 28.6866 27.6357 29.1291 27.2037 28.6639C26.8058 28.7547 26.6012 29.061 26.4647 29.3901C26.2146 30.0028 25.8736 30.4339 25.1347 30.3885C24.9982 30.3885 24.8164 30.4339 24.7254 30.5247C24.2138 31.0693 23.4635 31.4097 23.2248 32.1813C23.077 32.6805 22.6678 32.5784 22.3381 32.6351C22.2813 32.7599 22.2358 32.9301 22.1562 32.9642C21.0421 33.3046 20.1895 34.0194 19.3937 34.8363C18.9731 35.2675 18.5866 35.6873 17.9841 35.9256C17.177 36.2546 16.222 36.5497 16.3812 37.7864C16.4039 37.9453 16.1311 38.1495 15.9719 38.3197C15.6991 38.592 15.4263 38.8416 15.1307 39.0912C14.9829 39.2161 14.8465 39.5111 14.6078 39.2274C14.4486 39.0345 14.0393 38.9211 14.3577 38.5353C14.4486 38.4218 14.5168 38.2743 14.5168 38.1268C14.5168 37.9906 14.4259 37.8545 14.3804 37.7297C14.3122 37.7751 14.2553 37.8091 14.1871 37.8545C13.6869 38.2289 13.38 38.7735 13.4141 39.3409C13.4368 39.6359 13.5164 39.8515 13.289 40.0784C12.9139 40.4415 12.5729 40.8613 11.9703 40.8499C11.2428 40.8499 11.7771 41.2471 11.7202 41.4967C11.6066 41.9732 11.3337 42.5973 10.9358 42.8015C10.5266 43.0171 10.2424 43.3008 10.0264 43.6185C10.1173 43.1873 10.2196 42.7561 10.3902 42.3363C11.3224 39.772 13.5733 37.0149 14.4941 34.4733C15.6195 34.0988 14.7214 33.713 15.9606 32.7826C15.8128 32.4536 15.6309 31.8295 15.2671 32.0111C15.108 31.9657 14.9261 32.1132 14.7442 32.2607C14.1985 33.6903 13.3232 34.5186 12.9707 35.8689C10.2765 38.6147 8.74179 41.8825 7.62771 45.4112C7.52539 45.4225 7.43445 45.4339 7.32077 45.4112C7.33213 45.5587 7.41171 45.6722 7.51402 45.7402C7.49129 45.8197 7.46855 45.8877 7.44582 45.9672C7.3435 46.3076 7.25256 46.648 7.16161 46.9883C6.96835 47.1132 6.77509 47.2266 6.5591 47.3287C6.17258 47.4989 5.91111 47.8393 5.89975 48.3726C5.87701 49.893 5.84291 49.9044 4.45599 50.6986C4.34231 50.7667 4.21726 50.8008 4.09221 50.8348C4.0581 51.1071 3.91032 51.266 3.64885 51.3C3.68296 51.6631 4.25136 52.0035 3.64885 52.4006C3.34191 52.6048 3.06908 52.8998 2.87582 53.2175C2.79624 53.3537 2.71666 53.4785 2.62572 53.6033C2.62572 53.5466 2.62572 53.5012 2.60298 53.4558C2.58025 53.5466 2.54614 53.66 2.51204 53.7622C2.38699 53.9097 2.2392 54.0458 2.02321 54.1593C1.59122 54.3862 2.00047 54.806 2.17099 55.1124C1.46617 55.9634 2.18236 57.2228 1.35248 58.0398C1.35248 58.6411 1.44343 59.2765 1.29564 59.8438C1.12512 60.4906 0.806813 61.0693 0.909127 61.7841C0.988704 62.306 0.7045 62.6237 0.204301 62.7712C0.113356 62.7939 -0.000325792 63.0776 0.0451468 63.1456C0.363455 63.6335 0.158828 64.0874 0.0337787 64.5526C0.613555 65.2674 0.477137 66.1298 0.443032 66.9467C0.408928 67.7523 0.659027 68.6146 0.0451468 69.3408C-0.0685347 69.477 0.0451468 69.7947 0.295246 69.8854C0.57945 69.9989 0.875022 70.067 0.852286 70.4641C0.852286 70.7704 0.852286 71.0654 0.875022 71.3718C0.954599 72.6199 0.7045 73.9134 1.32975 75.1161C1.40933 75.2636 1.28428 75.5473 1.21607 75.7515C1.14786 75.9331 0.897758 76.0579 1.12512 76.3075C1.47753 76.6819 1.38659 77.1585 1.35248 77.601C1.28428 78.5541 1.29564 78.9853 1.51164 79.371C1.82995 79.9497 2.08005 80.5851 2.63709 81.0276C2.85308 81.1978 3.11455 81.4928 3.12592 81.7424C3.16002 82.4346 3.29644 83.07 3.62612 83.66C3.4897 84.84 4.05811 85.8158 4.56967 86.8029C4.63788 86.9277 4.75156 87.1547 4.79704 87.1433C5.67238 86.9164 5.8088 87.8241 6.3431 88.1078C6.87741 88.3914 7.43445 88.6524 7.99149 88.9134C8.0938 89.163 8.19611 89.424 8.29843 89.6849C8.26432 89.7643 8.29843 89.8324 8.378 89.8778C8.46895 90.1274 8.55989 90.3884 8.65084 90.6607C8.33253 90.9898 8.11654 91.2961 8.45758 91.8748C8.82136 92.4875 8.94641 93.2477 9.1283 93.9512C9.18514 94.1894 9.25335 94.3937 9.46935 94.4618C9.78765 94.5639 9.98091 94.632 9.76492 95.0404C9.60577 95.3581 9.68534 95.846 9.46935 96.0956C8.93504 96.697 9.63987 97.026 9.69671 97.4912C9.71945 97.7295 10.106 97.7068 10.2651 97.582C10.6857 97.253 11.0268 96.8445 11.436 96.5155C11.8339 96.1978 11.6066 95.9708 11.4815 95.6077C11.2314 94.8929 11.3792 94.1327 11.4815 93.3839C11.4815 93.3271 11.5725 93.2817 11.6179 93.225C11.6748 93.2817 11.7657 93.3385 11.7657 93.3952C11.7998 93.9966 12.391 94.2235 12.6183 94.6773C12.732 94.8929 12.175 95.2447 12.6183 95.3695C13.3004 95.5624 13.5733 96.0276 13.7892 96.6176C14.0507 97.3097 14.3008 98.0018 14.6078 98.6713C14.9374 99.4088 15.3353 100.135 15.6877 100.861C15.7787 101.054 15.9492 101.281 15.9265 101.462C15.8241 102.234 16.1879 102.801 16.7336 103.221C17.3134 103.664 17.3134 104.22 17.302 104.844C17.2906 105.218 17.2338 105.615 17.5521 105.899C18.1774 106.455 18.3933 107.272 18.8367 107.941C19.03 108.236 19.0754 107.805 19.155 107.658C19.2119 107.544 19.3142 107.453 19.3937 107.351C19.4392 107.408 19.5302 107.476 19.5302 107.533C19.5074 108.418 19.7575 109.292 19.2801 110.165C18.9504 110.767 19.155 111.436 19.5415 112.071C20.1895 113.127 20.2691 113.285 21.2809 113.626C22.1335 113.91 22.2813 114.068 22.304 114.851C22.3267 115.532 22.2472 116.224 22.9065 116.701C23.0202 116.78 23.168 116.939 23.168 117.064C23.168 118.119 23.9524 118.652 24.589 119.276C25.0665 119.742 25.453 120.354 26.1805 120.513C26.5102 121.205 27.1014 121.682 27.5561 122.272C28.0563 122.93 29.068 122.975 29.3181 123.883C29.3522 124.031 29.5341 123.985 29.6137 123.792C29.6706 123.656 29.6592 123.497 29.7274 123.361C29.7501 123.316 29.7842 123.27 29.807 123.225C30.1594 123.509 30.5573 123.792 30.9438 124.065C30.671 123.792 30.3526 123.304 30.023 122.885C30.0343 122.85 30.0571 122.828 30.0571 122.794C30.1253 122.431 29.8524 122.317 29.5341 122.226C29.3409 122.17 29.0908 121.988 29.0226 121.818C28.9771 121.693 28.9089 121.591 28.8521 121.478C28.8862 121.478 28.9203 121.478 28.9771 121.5C28.8975 121.398 28.8293 121.353 28.7611 121.307C28.3746 120.706 27.7948 120.264 27.3969 119.673C27.1127 119.242 26.6239 118.811 26.6239 118.369C26.6239 117.824 27.0104 117.279 27.2264 116.735C27.306 116.531 27.3742 116.326 27.4651 116.122C27.4879 116.054 27.5561 115.997 27.6129 115.952C27.863 115.782 27.6811 115.872 27.738 116.122C27.863 116.689 28.17 116.826 28.6929 116.814C29.1817 116.803 29.0453 117.041 28.9203 117.359C28.727 117.869 29.284 117.62 29.4546 117.779C29.6251 117.926 29.6592 118.074 29.4432 118.096C28.7156 118.142 28.9203 118.528 29.0908 118.925C28.7156 119.276 28.7043 119.719 28.8179 120.173C28.8293 120.241 28.8862 120.332 28.943 120.354C28.9885 120.377 29.0794 120.309 29.1249 120.264C29.284 120.105 29.5228 119.957 29.5682 119.764C29.7842 118.902 30.3072 118.573 31.1825 118.573C31.5122 118.743 31.8419 118.834 32.1033 118.754C32.0124 118.959 31.9669 119.152 32.0351 119.367C31.9783 119.333 31.9442 119.31 31.9328 119.299C31.9783 119.356 32.0351 119.401 32.0806 119.458C32.1261 119.56 32.1943 119.651 32.3193 119.753C32.4444 119.855 32.3989 120.082 32.3193 120.286C32.2057 120.207 32.092 120.116 31.9556 120.037C32.1261 119.662 31.3644 118.868 31.3189 119.322C32.092 119.413 31.2962 119.742 31.4554 119.9C31.7168 120.037 31.9328 120.32 32.1716 120.593C31.9556 121.058 31.7623 121.523 31.6145 122C31.3644 122.76 31.3758 123.486 32.1261 124.008C32.8309 124.496 33.0128 125.177 32.8764 125.982C32.8423 126.198 32.8764 126.436 32.8536 126.663C32.8423 126.765 32.8536 126.856 32.8536 126.947C32.74 126.924 32.6149 126.901 32.4785 126.856C32.6149 126.992 32.7513 127.094 32.8877 127.185C32.8991 127.253 32.9218 127.321 32.9446 127.378C32.0465 126.935 31.1257 126.198 30.1935 125.403C29.4659 124.768 28.727 124.11 28.0335 123.497C27.3628 122.862 26.7489 122.249 26.1464 121.818C26.3738 122.022 25.453 121.557 25.2029 121.103C25.2029 121.886 26.5102 123.282 26.7148 124.36C27.2605 124.859 27.5902 125.279 27.6584 125.687C27.8971 125.869 28.1018 125.993 28.2723 126.027C27.9994 126.822 31.3871 129.023 30.7164 129.239C31.3189 129.488 31.8646 129.568 32.6831 130.067C32.865 129.908 32.524 129.726 32.7854 129.568C33.2061 129.84 33.5585 129.999 33.7745 129.942C32.8877 129.352 32.524 129.692 31.7396 129.261C32.0351 129.057 31.6941 128.649 31.3303 128.614C30.9211 128.739 31.785 129.012 31.6031 129.159C31.3758 129.012 31.3644 129.284 31.0688 129.012C31.6486 128.785 29.8638 128.195 29.7274 127.571C29.8524 127.434 30.0002 127.378 30.2276 127.457C31.1712 128.308 30.8756 127.684 31.4213 127.843C31.8873 128.115 31.6486 128.331 31.9669 128.592C32.2966 128.263 33.081 128.739 33.638 129.182C34.4224 129.454 35.241 129.511 36.0026 129.602L36.1277 129.704C36.5597 130.09 37.0712 130.396 37.5601 130.725C37.6737 130.804 37.8329 130.725 37.8443 130.543C37.867 130.101 38.0603 129.59 37.7419 129.239C37.31 128.762 36.9803 128.093 36.139 128.161C35.9571 128.172 35.6843 128.036 35.5706 127.877C35.4115 127.65 35.2637 127.412 35.1045 127.185C35.1386 127.162 35.1955 127.151 35.2637 127.128C35.1386 127.071 35.0477 127.015 34.9567 126.958C34.718 126.595 34.4907 126.22 34.2519 125.846C34.4793 125.233 34.6839 124.609 34.9454 124.008C35.0477 123.792 35.1045 123.599 35.0363 123.384C35.0136 123.327 34.9113 123.236 34.9113 123.236C34.0814 123.906 33.945 122.941 33.5585 122.646C33.2629 122.431 33.2515 122.068 33.2743 121.727C33.7631 121.557 33.9564 122.499 34.5134 122.272C34.5589 122.317 34.6157 122.374 34.6725 122.419C34.9795 122.862 35.5138 123.406 36.1163 123.826C36.7416 124.28 37.3327 124.677 37.6169 124.927C37.5714 124.825 37.9011 124.689 38.0148 124.734C38.3217 125.211 39.936 125.426 39.1857 125.54C39.6745 125.88 39.9019 125.721 40.1861 125.676C38.9811 125.211 38.0375 124.428 37.1622 124.326C37.0144 123.781 36.2527 123.441 35.6843 123.077C35.4683 122.93 35.2751 122.805 35.1273 122.669C35.2182 122.658 35.3319 122.601 35.4228 122.567C35.4569 122.567 35.4797 122.442 35.457 122.408C35.3887 122.272 35.2637 122.17 35.2182 122.022C35.15 121.818 35.0818 121.568 35.3319 121.432C35.5252 121.33 35.7411 121.285 35.9571 121.444C36.1277 121.568 36.3096 121.659 36.4914 121.761C36.5142 121.988 36.4914 122.249 36.5938 122.408C36.6961 122.555 36.9575 122.624 37.1622 122.658C37.4691 122.703 37.7761 122.658 38.0716 122.76C37.9238 122.816 37.7647 122.794 38.1285 122.998C38.2649 122.998 38.424 123.021 38.5832 123.066C38.64 123.1 38.6969 123.111 38.7537 123.123C39.6063 123.418 40.6181 124.178 41.2661 124.291C40.8682 124.031 40.4817 123.792 40.1065 123.543C40.3339 123.543 40.5612 123.543 40.8 123.543C40.8568 123.543 40.925 123.463 40.9478 123.406C40.9591 123.384 40.9137 123.293 40.8796 123.27C40.5612 123.055 40.2316 123.066 39.9133 123.27C39.8792 123.293 39.8678 123.338 39.8451 123.384C39.6291 123.248 39.4244 123.1 39.2198 122.964C39.4244 122.816 39.6177 122.646 39.8678 122.692C40.1293 122.737 40.4021 122.726 40.6749 122.692C40.9137 122.93 41.1751 123.157 41.4707 123.293C41.5503 123.043 42.005 123.52 42.0391 123.18C42.0732 123.1 42.0391 123.021 42.005 122.941C42.4597 123.18 42.9031 123.146 43.3692 123.134C43.858 123.123 44.165 123.202 44.3468 123.781C44.4378 124.076 44.6538 124.303 44.9494 124.428C44.9039 124.598 45.0744 124.802 45.2904 125.006C44.8016 124.984 44.6197 125.449 44.0172 125.256C44.2673 125.392 44.4492 125.528 44.4833 125.687C44.29 125.835 43.8694 125.63 43.733 125.857C44.29 125.993 44.9039 126.368 45.4609 126.878C45.6542 126.413 46.4613 126.969 46.6887 127.128C46.4158 127.298 45.9952 127.162 45.6428 126.856C45.7338 127.378 45.0403 126.72 45.0289 127.105C45.5519 127.48 47.4845 127.151 47.9164 128.172C46.6773 127.548 46.2681 127.866 45.4382 127.718C45.0176 128.138 45.154 128.478 45.495 128.785L45.5973 128.535C45.9157 128.637 45.9498 128.773 46.1316 128.887C46.0066 128.921 45.8929 128.966 46.0634 129.068C45.9384 129.273 45.8702 128.864 45.5291 128.807C45.9611 129.182 46.6773 129.511 47.0866 129.908C48.4053 130.248 50.1446 131.451 51.2473 131.485C50.8153 131.213 49.7354 131.009 49.7581 130.453C50.2242 130.112 50.5652 130.986 50.8608 130.634C50.2469 130.282 49.8945 130.396 49.7695 129.942C49.9627 130.01 49.9513 129.829 50.1219 129.863C50.6789 130.18 51.2701 130.68 51.0995 130.918C51.145 130.611 51.4519 131.304 51.577 130.986C51.3837 130.827 51.4519 130.611 51.4178 130.419C50.6903 130.192 50.2583 129.885 50.2469 129.499C51.2018 129.42 51.8385 129.897 52.5547 129.965C52.6911 130.237 52.8616 130.487 53.0776 130.702C53.2708 130.895 53.4755 130.85 53.6915 130.77C53.8734 130.702 53.9757 130.419 54.2485 130.589C54.6237 130.816 55.0784 130.963 55.3853 131.258C56.0788 131.962 56.8859 132.438 57.7954 132.79C57.7954 132.79 57.7954 132.801 57.8067 132.813C57.784 132.847 57.7499 132.881 57.7385 132.926C56.8746 132.79 56.2607 133.006 55.3967 132.552C55.4308 132.631 55.499 132.665 55.5558 132.722C55.0102 132.608 54.4531 132.506 53.8847 132.404C53.4982 132.994 54.5327 132.393 54.4872 132.881C54.1235 132.971 52.9298 132.711 52.9071 132.302C53.1799 132.427 53.4641 132.552 53.7256 132.631C53.646 132.416 53.2822 132.279 52.9639 132.143C52.9639 132.143 52.9298 132.132 52.9184 132.121C52.7252 132.03 52.5433 131.939 52.4637 131.803C52.35 131.86 51.5884 131.746 51.9294 131.928C51.9408 131.928 51.9749 131.939 51.9862 131.95C50.8494 131.701 49.7922 131.315 48.7804 131.02C47.4958 130.589 46.2681 130.248 44.9948 130.248C44.7447 129.715 44.2445 129.511 43.7216 129.465C42.3688 129.068 41.3229 128.251 40.6181 127.559C40.1861 128.07 39.5495 126.697 38.9129 126.674C38.9242 126.527 38.8219 126.436 39.0493 126.425C37.6965 126.334 37.6055 124.859 36.1845 124.382C36.7302 124.791 35.4001 124.518 36.4801 125.12C36.7757 125.04 36.3209 124.598 36.6847 124.791C36.3437 125.267 37.5373 125.846 37.7078 126.527C38.7423 126.527 39.2653 127.434 40.3566 128.07C40.3794 128.285 40.3794 128.944 40.8682 128.853C40.2543 128.603 41.1297 128.603 41.232 128.49C41.8231 128.762 42.3006 129.159 42.7894 129.511C42.4484 129.579 42.1642 129.681 42.005 129.783C42.1414 129.84 42.2665 129.885 42.4029 129.942C42.4029 130.044 42.4029 130.101 42.221 130.226C42.8576 130.657 43.0168 130.407 43.3806 130.453C42.9145 130.94 44.9948 131.474 45.3927 132.018C45.4382 131.814 45.6201 131.803 45.9611 131.928C45.8474 132.03 45.711 132.007 45.8588 132.2C48.8486 133.232 51.6111 134.027 54.3508 134.844C55.3626 134.776 58.1137 135.15 57.7954 136.08C61.1262 137.136 64.6958 137.351 68.436 137.669C69.6978 137.226 71.2439 137.453 72.3921 137.555C72.2216 137.533 72.7331 137.317 73.0514 137.431C74.2337 137.816 72.2443 138.202 71.2553 138.157C72.1192 138.145 71.278 138.792 71.1075 139.019C69.2204 139.201 67.6857 139.121 66.0259 139.291C65.5826 139.235 65.5371 138.985 65.0255 138.951C64.2866 139.291 63.5477 138.588 62.6837 138.565C62.1835 138.543 61.7742 138.917 61.2854 138.849C60.7284 138.781 60.285 138.316 59.8189 138.248C59.5347 138.202 59.0231 138.304 58.7844 138.282C58.8071 138.282 58.9322 138.111 58.9777 138.123C58.4775 138.043 58.1819 138.27 57.7499 138.225C57.6703 138.225 57.6703 137.919 57.6362 137.907C57.0678 137.612 56.2379 137.93 55.5786 137.805C55.158 137.419 56.2266 137.51 55.5104 137.294C55.3967 137.601 54.7032 137.374 54.4077 137.521C54.0552 136.886 52.5319 137.102 52.8616 136.636C52.2818 136.568 51.4747 136.512 50.7016 136.33C49.94 136.148 49.1897 135.944 48.6895 135.751C48.8714 135.831 48.8145 135.956 48.7691 136.08C47.5527 135.649 47.1548 135.513 46.4386 135.456C46.4727 135.366 46.6091 135.4 46.6659 135.332C45.7451 135.014 44.8811 134.776 44.1422 134.447C43.4033 134.117 42.7553 133.8 42.2324 133.493C42.0277 133.539 41.8572 133.641 41.6071 133.63C41.3115 133.221 41.1751 133.267 40.7886 133.346C40.5499 133.04 40.8455 132.745 40.3225 132.699C40.7431 133.198 39.5722 132.699 39.2198 132.597C39.2994 132.427 38.8447 132.279 39.072 132.098C39.1289 131.882 39.5722 132.223 39.6632 132.064C38.64 131.599 38.515 131.86 38.2308 132.234C38.5377 132.552 39.163 132.858 39.5154 133.176C40.0383 132.824 41.5844 133.913 41.8686 134.288C41.664 134.197 41.664 134.378 41.4821 134.31C41.5048 134.197 41.6185 134.072 41.4366 133.97C40.277 134.083 39.4244 133.312 38.2194 132.654C38.4127 133.176 37.7874 132.767 37.6055 133.096C38.856 133.698 40.1293 134.276 41.2547 134.832C40.8341 134.424 41.8345 134.787 42.0391 134.776C42.2892 135.048 43.085 135.717 43.3578 135.706C43.1759 135.604 43.2441 135.49 43.301 135.366C43.7898 136.103 44.8811 136.273 45.7792 136.75C44.7561 136.319 45.154 136.716 44.3582 136.534C45.0403 136.92 45.4041 137.192 46.0521 137.045L45.9611 137.317C46.791 137.453 47.7687 137.873 48.8032 138.316C49.3261 138.531 49.849 138.77 50.3833 138.951C50.929 139.11 51.4747 139.223 52.009 139.28C52.009 139.394 51.918 139.541 52.1113 139.609C53.987 139.711 56.4994 141.016 57.4771 140.789C57.4771 141.175 56.5903 141.13 56.2152 140.812C56.2152 141.493 57.3065 141.232 57.7613 141.22C57.7385 141.22 57.7613 141.413 57.7272 141.413C58.4434 141.413 58.8185 141.039 59.5688 141.107C60.5237 141.186 60.7284 141.731 61.9902 141.742C61.6719 141.243 63.2862 141.89 63.775 141.697C62.8315 141.549 63.3771 141.504 64.1388 141.583C64.9005 141.64 65.9009 141.72 65.8781 142.049C65.2984 141.992 65.196 142.23 64.7982 142.276C65.7758 142.287 65.3097 142.4 65.4802 142.797C66.276 142.729 66.3556 143.002 66.9013 143.058C66.8331 142.752 66.1169 142.752 65.8554 142.525C66.0941 142.537 66.2419 142.502 66.3897 142.457C66.799 142.593 67.049 143.092 67.4469 142.695C67.4242 142.866 67.481 143.002 67.6175 143.093C66.1737 143.138 65.1847 143.183 64.2184 143.149C63.2635 143.047 62.3313 142.866 61.0126 142.491C60.194 142.525 59.3755 142.321 58.557 142.139C57.7272 141.958 56.8973 141.822 56.0219 141.856C56.0333 141.674 55.4535 141.652 55.5558 141.447C53.3163 141.175 51.2246 139.689 49.292 139.813C49.7695 140.006 50.4856 140.097 50.4402 140.369C49.8945 140.245 47.4162 139.677 48.1552 139.223C47.7346 139.133 47.3367 139.087 46.7683 138.838C46.3817 139.133 47.6436 139.167 47.5299 139.416C46.7455 139.189 44.9607 138.747 44.5742 138.055C43.0168 137.544 41.7208 136.897 40.5499 136.341C39.3903 135.763 38.3786 135.173 37.5373 134.469C37.219 134.866 37.31 134.117 36.9803 133.981C36.5256 133.868 36.9121 134.481 36.6051 134.322C36.446 134.231 36.3891 134.288 36.2527 134.231C35.6161 133.959 35.8094 133.698 35.457 133.437C35.1386 133.562 34.4224 133.04 33.8199 132.699C34.0587 131.996 32.7286 131.735 32.1261 131.338C30.8756 130.577 29.6024 129.431 28.3291 128.422C27.09 127.378 25.8509 126.459 24.9869 125.698C26.1919 127.083 26.874 127.196 27.8062 128.467C28.7725 128.944 29.716 129.681 30.671 130.464C31.6486 131.213 32.6831 131.939 33.7063 132.518C33.5585 132.711 33.7972 132.915 33.7745 133.119C33.5244 133.13 33.1151 132.903 32.8536 132.903C33.3538 133.448 35.2978 133.902 36.0367 135.003C36.2641 134.776 36.6961 135.218 37.0485 135.422C37.867 135.093 40.2884 136.296 41.1751 136.841C41.0615 136.988 39.6859 136.16 40.1179 136.557C40.6067 136.784 41.1183 137.011 40.9932 137.283C40.6863 137.204 40.0724 136.727 39.9701 136.909C40.4362 137.283 41.5844 137.624 41.0614 138.055C41.7322 138.44 40.9819 137.612 41.7094 137.93C41.7094 138.021 41.8117 138.1 42.005 138.168C42.0505 138.679 41.5275 138.463 41.2547 138.565C41.9027 139.144 42.096 138.804 42.1983 138.679C42.6189 139.155 41.6299 138.815 41.9823 139.212C42.6303 139.7 43.426 139.995 43.8125 140.131C43.6193 140.04 43.5738 139.927 43.5283 139.825C43.8125 139.995 44.3468 139.825 44.3923 140.142C44.1877 140.086 43.9035 139.95 43.8353 140.04C44.722 140.642 46.3817 140.993 46.8251 141.629C47.2912 141.663 46.5977 141.243 47.1207 141.322C48.1665 141.538 47.9278 141.958 48.5872 142.242C48.7236 142.139 48.519 141.697 48.8941 141.844C49.4966 142.117 50.6562 142.162 50.4174 142.582C50.2128 142.605 49.0305 142.31 49.4625 142.537C50.5198 142.627 51.1791 143.013 51.7134 142.718C52.4069 143.013 51.4633 143.183 52.1227 143.41C52.3841 143.41 52.2363 143.058 52.566 143.127C52.7593 143.353 54.5896 144.227 53.7824 143.626C54.5327 143.898 54.6805 143.921 55.7605 144.193C55.8173 144.057 55.7605 143.83 56.0106 143.853C57.4998 144.341 58.9436 144.488 60.3305 144.681C61.7174 144.84 63.0588 145.021 64.4116 145.271C64.4912 145.112 64.1502 145.01 64.4344 144.987C65.4575 145.192 66.2988 145.373 67.0036 145.021C67.0036 145.158 66.9126 145.226 66.8103 145.305C67.572 145.169 68.5269 145.419 69.209 145.6C68.6974 145.963 67.7539 145.6 67.5265 146.201C68.8225 146.201 69.3909 145.43 70.8688 145.645C71.1189 145.43 70.3913 145.271 70.8688 145.26C71.4258 145.396 71.5849 145.373 71.9715 145.18C71.9715 145.509 72.5285 145.509 72.9036 145.623C74.3474 145.192 75.8139 145.77 77.1099 145.101C77.8488 145.112 78.6673 145.124 79.5199 145.055C80.3725 144.953 81.2479 144.829 82.1005 144.67C83.8171 144.363 85.4314 143.978 86.5454 143.592C86.7614 143.807 87.5686 143.456 87.5572 143.853C88.5008 143.251 89.2169 143.683 89.8422 143.07C89.6148 143.115 89.4102 143.149 89.4329 142.979C89.8422 142.786 89.8877 142.798 90.6493 142.559C90.7062 142.695 90.7175 142.888 91.0927 142.741C91.4906 141.992 93.0821 142.196 93.9688 142.049C93.9688 141.856 93.6619 141.935 93.5141 141.878C94.1962 141.652 95.4126 141.096 95.7423 141.515C95.333 141.776 94.992 141.345 94.8442 141.742C95.0943 141.674 95.117 141.867 95.2875 141.89C97.0041 140.687 99.6529 139.87 100.903 139.462C101.347 139.291 101.415 138.894 101.62 138.804C102.143 138.577 102.745 138.77 103.575 138.18C103.427 138.282 103.814 138.077 104.234 137.85C104.405 137.771 106.03 136.739 106.644 136.863C106.838 137.045 105.417 137.635 105.962 137.533C106.542 137.204 106.69 136.999 107.292 136.863C107.099 136.682 107.27 136.489 107.531 136.341C107.781 136.183 108.134 136.058 108.327 136.069C107.906 136.512 107.179 136.909 107.11 137.294C108.088 136.67 109.668 135.127 109.998 135.956C109.952 135.876 110.214 135.683 110.316 135.763C109.793 136.364 110.157 136.375 109.714 136.92C110.532 135.933 111.533 135.479 112.488 134.98C113.431 134.469 114.375 134.004 114.875 132.835C115.023 132.96 114.829 133.13 114.954 133.255C115.432 132.915 115.205 132.699 115.887 132.313C115.966 132.484 116.182 132.359 116.273 132.506C116.637 132.189 117.069 131.848 117.205 131.565C116.569 132.098 116.159 132.155 115.864 131.973C116.944 131.338 117.16 130.634 118.365 130.316C117.717 130.702 118.103 130.884 117.444 131.258C117.728 131.326 117.876 131.701 118.399 131.258C118.331 131.133 118.126 131.02 118.308 130.85C118.467 131.247 120.559 129.897 121.321 129.17C121.23 128.773 120.786 129.284 120.661 128.989C120.9 128.921 121.23 128.626 121.559 128.308C121.423 128.739 121.503 128.637 121.809 128.864C122.321 128.524 121.787 128.456 122.173 128.149C122.401 128.433 123.037 127.627 123.344 127.741C123.731 126.947 124.094 126.981 124.174 127.23C124.515 126.549 124.788 126.425 124.947 125.857C125.311 125.778 125.027 125.959 125.22 126.13C125.743 125.506 125.709 125.596 126.254 125.29C126.391 125.018 126.391 124.779 126.504 124.484C126.88 124.371 127.073 123.962 126.846 124.541C128.403 123.134 128.039 121.886 128.869 121.296C128.403 120.751 129.187 120.286 129.835 119.912C129.835 119.583 129.233 120.048 129.54 119.673C130.04 119.413 130.324 119.095 130.699 118.459C131.04 118.516 130.756 118.879 130.859 119.049C130.984 118.618 131.484 118.255 131.461 118.096C131.256 118.278 131.063 118.369 130.893 118.369C131.165 118.017 131.097 117.835 131.495 117.416L131.722 117.586C132.245 116.009 133.939 114.511 133.985 113.705C134.258 113.172 134.417 113.524 134.667 113.263C134.565 113.183 134.439 113.217 134.314 113.263C134.439 112.798 136.167 111.288 135.133 112.015C135.622 111.288 136.088 111.254 136.167 110.676C135.917 111.039 135.724 110.914 135.917 110.528C135.906 110.823 136.111 110.801 136.361 110.358C136.315 110.12 136.474 109.757 136.588 109.416C136.554 109.972 137.179 108.77 137.236 108.497C137.145 108.611 137.043 108.815 136.963 108.77C137.122 108.429 137.452 107.476 137.816 107.329C137.873 107.487 137.463 107.953 137.611 108.066C138.077 107.601 137.918 107.283 138.191 106.693C138.862 106.716 138.623 104.844 139.362 104.991C138.862 105.581 138.805 106.239 138.691 106.795C138.566 107.34 138.43 107.805 137.873 108.009C138.339 108.293 137.725 108.679 137.452 109.484C137.827 109.45 137.509 109.848 137.6 109.995C138.111 109.28 137.782 109.484 137.816 109.257C137.998 109.155 138.191 108.679 138.361 108.906C138.259 109.099 138.077 109.36 138.157 109.439C138.487 108.724 138.793 108.441 139.078 108.429C139.225 107.941 139.453 107.59 139.748 107.113C140.021 106.614 140.351 106.001 140.749 105.025C140.749 104.639 140.362 105.139 140.567 104.526C142.011 102.472 142.238 100.135 143.034 98.4103C142.886 97.9451 142.397 98.5465 142.681 97.6841C142.966 97.2984 143.113 97.4799 143.295 97.6955C143.523 95.9481 144.443 95.0858 144.955 93.2817C144.387 92.3286 145.796 90.0253 145.432 88.7545C145.353 89.6282 145.08 90.7174 144.648 91.0578C144.489 90.2976 144.898 88.1645 145.478 88.573C145.387 87.5178 146.308 86.8029 145.808 86.3604C146.501 86.281 146.819 84.1706 146.785 82.9338C146.785 83.1153 146.933 82.6728 146.99 82.2076C147.138 80.9822 147.342 79.6093 147.49 78.2591C147.547 77.2039 147.536 76.1486 147.445 75.1842C147.547 75.1842 147.661 75.1842 147.797 75.2409C147.717 74.0836 147.638 72.9376 147.558 71.803C147.581 71.8257 147.604 71.837 147.661 71.803C147.501 71.2356 147.547 71.0314 147.467 70.4981C147.433 70.1124 147.411 69.7379 147.376 69.3521C147.57 68.8756 147.717 68.0133 147.763 67.5254C147.786 67.8885 148.036 67.7409 147.99 68.2515C147.854 69.0685 147.911 70.0783 148.275 70.6683C148.206 71.0541 148.115 71.0655 147.979 70.8612C148.218 73.0397 147.911 74.6623 148.32 76.6592C147.99 76.16 147.979 78.486 148.343 77.9754C148.07 79.2349 147.786 80.8461 147.638 82.4459C147.558 83.2515 147.501 84.0458 147.49 84.7946C147.49 85.169 147.49 85.5321 147.49 85.8725C147.49 86.2129 147.479 86.5306 147.49 86.837C147.615 85.9066 148.161 84.2727 147.899 83.4444C148.252 83.9323 148.093 82.6274 147.945 82.4913L148.229 82.5253C148.911 78.4747 148.968 74.1971 149.013 70.0556L148.945 70.0783ZM121.753 17.6125C122.082 17.4536 122.287 17.9529 122.412 18.2138C122.23 18.35 121.798 17.7259 121.753 17.6125ZM42.0277 134.412C42.0618 133.913 42.8576 134.639 42.9258 134.515C43.3237 134.878 42.437 134.673 42.0277 134.412ZM47.5413 137.635C47.78 137.136 48.0756 137.794 48.735 137.953C48.5985 138.134 47.9051 137.703 47.5413 137.635ZM48.9168 136.183C48.9964 135.933 49.7467 136.228 49.9172 136.432C49.8377 136.625 49.2238 136.228 48.9168 136.183ZM60.8307 141.061C60.9898 141.005 61.2399 141.016 61.5355 141.061C61.5014 141.198 61.4787 141.334 61.6719 141.379C61.5128 141.583 60.5806 141.322 60.8193 141.061H60.8307ZM66.4011 142.128C66.2874 141.856 66.7648 141.947 66.7648 141.765C65.3779 141.425 63.9342 141.629 63.4908 140.846C64.6845 141.186 65.1733 140.914 66.1055 140.766C66.3329 140.869 66.4352 141.039 66.7876 141.084C66.5147 141.3 66.3556 141.209 65.9122 141.141C66.0373 141.515 66.5034 141.731 67.2878 141.788C67.4015 142.151 66.9922 142.196 66.3897 142.128H66.4011ZM141.681 88.8453C141.897 88.868 141.567 89.4693 141.556 89.7303C141.499 89.6395 141.442 89.5374 141.42 89.4013C141.488 89.2424 141.556 89.0949 141.613 88.9361C141.636 88.9361 141.658 88.902 141.681 88.8339V88.8453ZM140.124 101.27C139.737 101.916 139.839 101.837 139.498 102.608C139.214 102.824 138.919 102.518 139.294 101.916C139.589 102.643 139.589 101.156 140.124 101.27ZM93.4914 136.909C93.4459 137.147 92.6047 137.306 92.2181 137.442C92.3773 136.92 92.8093 137.124 93.4914 136.909ZM84.4764 140.937C83.4988 141.027 83.044 140.891 81.9527 140.857C82.4529 140.347 83.4874 140.574 84.5105 140.245C84.5105 140.471 84.3059 140.642 84.4764 140.937ZM79.1448 141.005C79.0084 141.334 78.5536 141.016 78.4399 140.971C78.3604 140.755 78.9288 140.835 78.9174 140.642C79.5199 140.574 78.5309 141.061 79.1448 140.993V141.005ZM81.2479 140.88C81.1683 141.118 80.7136 141.22 80.634 141.459C80.3612 141.209 79.1334 141.674 79.0083 141.311C79.8041 141.481 80.3271 140.801 81.2479 140.88ZM79.9519 139.507C79.3949 139.643 78.8947 139.825 77.9738 139.95C77.576 139.462 78.3717 139.28 79.3721 139.03C80.3725 138.804 81.6003 138.645 82.0777 138.509C82.828 138.645 83.0327 139.008 82.0436 139.291C82.0664 139.212 82.2028 139.167 82.1801 139.076C81.1001 139.246 80.5089 139.36 79.9633 139.507H79.9519ZM78.2808 141.084C77.0189 141.413 74.0746 141.425 74.7794 140.925C75.6775 141.277 76.8257 140.789 78.2808 141.084ZM82.9986 138.849C82.8963 138.611 83.3055 138.543 83.6125 138.452C83.6579 138.713 83.3169 138.974 82.9986 138.849ZM84.2832 135.933C83.1123 136.103 81.93 136.217 81.0205 136.341C80.6226 136.5 81.2251 136.739 81.5776 136.648C81.4639 136.943 80.8841 136.727 80.5999 136.807C80.5544 136.636 80.7704 136.58 80.7022 136.398C80.5999 136.194 79.8951 136.489 79.554 136.478C80.5885 135.842 81.6685 135.615 82.919 135.468C83.5442 135.4 84.215 135.332 84.9198 135.252C85.6246 135.139 86.3749 134.957 87.1934 134.73C87.2161 134.866 87.2389 135.003 87.4321 134.968C87.0115 135.184 86.5227 135.377 85.9884 135.547C85.7269 135.638 85.4427 135.717 85.1585 135.785C84.8743 135.831 84.5787 135.876 84.2832 135.933ZM45.6201 124.507C45.6883 124.496 45.7679 124.507 45.8361 124.541C45.8361 124.541 45.8361 124.586 45.8133 124.609C45.5973 124.564 45.495 124.541 45.4382 124.507C45.495 124.507 45.5519 124.507 45.6201 124.507ZM36.4801 120.638L36.3323 120.774L36.1959 120.706L36.2641 120.604L36.3323 120.502L36.4687 120.649L36.4801 120.638ZM65.5826 14.6284C65.4575 14.7532 65.2643 14.8213 64.9687 14.844C64.9232 14.844 64.8777 14.844 64.8323 14.844C64.7072 14.7986 64.5026 14.8326 64.298 14.844C64.6958 14.6284 65.1278 14.583 65.5712 14.617L65.5826 14.6284ZM144.841 52.6275C144.966 53.0473 144.864 53.2289 144.75 53.3991C144.614 52.8885 144.58 52.3552 144.421 51.8446C144.421 51.7425 144.443 51.6517 144.466 51.5837C144.784 52.6616 144.364 52.5708 144.841 52.6275ZM145.069 53.5239C145.126 53.8529 145.182 54.0912 145.228 54.3068C145.205 54.3068 145.194 54.2841 145.16 54.2841C145.091 54.1933 145.035 54.1026 144.989 54.0118C144.898 53.7281 144.841 53.4558 145.069 53.5239ZM144.443 77.5443C144.466 77.2946 144.421 77.1471 144.341 77.0564C144.375 76.6365 144.432 76.2394 144.523 75.9444C144.591 76.0579 144.648 76.1827 144.705 76.3075C144.728 76.1373 144.659 75.8877 144.637 75.6607C144.648 75.6381 144.659 75.604 144.671 75.5813C144.659 75.5359 144.648 75.4792 144.637 75.4225C144.648 75.343 144.682 75.275 144.75 75.2296C144.773 75.57 145.012 75.5586 144.898 76.1373C144.25 76.8408 144.671 76.4436 144.432 77.5443H144.443ZM84.7152 15.6042C84.6015 15.6269 84.5446 15.6042 84.5105 15.5474C84.5787 15.5247 84.6583 15.5134 84.7379 15.4907C84.7379 15.5361 84.7379 15.5928 84.7265 15.5928L84.7152 15.6042ZM131.052 33.9286C130.756 33.9059 130.506 33.8265 130.483 33.4634C130.483 33.4634 130.483 33.4521 130.483 33.4407C130.688 33.5882 130.87 33.7471 131.052 33.9173V33.9286ZM144.273 71.9959C144.25 71.7122 144.227 71.4172 144.205 71.1222C144.205 71.0995 144.227 71.0768 144.227 71.0541C144.296 70.8385 144.489 70.657 144.671 70.4754C144.671 70.7704 144.671 71.0768 144.671 71.3718C144.694 72.0299 144.739 72.6653 144.841 73.2666C144.694 73.278 144.512 73.244 144.534 73.6184C144.682 73.6524 144.898 73.5617 144.91 73.7999C144.841 74.3332 144.728 74.7644 144.557 75.1048C144.352 74.2311 144.307 73.1418 144.262 71.9959H144.273ZM144.625 69.4543V69.6018C144.625 69.6018 144.614 69.4996 144.625 69.4543ZM135.19 38.4105C134.974 38.1835 135.019 37.8658 135.292 37.6502C135.315 37.6389 135.338 37.6276 135.372 37.6276C135.69 38.0133 135.986 38.4558 136.27 38.9551C135.872 39.0232 135.644 38.8757 135.201 38.4105H135.19ZM134.871 37.0829C134.542 36.9922 134.326 36.7766 134.212 36.4475C134.439 36.6404 134.655 36.856 134.871 37.0829ZM144.33 77.2152C144.364 77.4308 144.353 77.6691 144.307 77.9073C144.307 77.6691 144.307 77.4421 144.33 77.2152ZM146.478 60.5246C146.524 60.3885 146.592 60.241 146.672 60.1048C146.672 60.4112 146.637 60.6721 146.512 60.7742C146.512 60.6948 146.49 60.6154 146.478 60.5246ZM146.251 58.7432C146.251 58.6865 146.251 58.6071 146.251 58.5617C146.319 58.6411 146.376 58.7659 146.433 58.9248C146.376 58.8794 146.319 58.8227 146.24 58.7546L146.251 58.7432ZM145.671 56.7917C145.432 57.3136 145.774 57.9376 145.944 57.8696C145.921 58.1078 145.853 58.1873 145.774 58.1986C145.694 58.0965 145.614 57.9944 145.546 57.8923C145.523 57.8242 145.512 57.7561 145.501 57.688C145.41 57.5746 145.307 57.4724 145.205 57.3817C145.148 57.2795 145.091 57.1888 145.069 57.132C144.989 56.9392 145.216 56.6782 145.455 56.7122C145.512 56.7122 145.58 56.7349 145.637 56.7576C145.637 56.769 145.648 56.7803 145.66 56.7917H145.671ZM144.318 51.6063C144.318 51.6063 144.307 51.5723 144.296 51.5496C144.262 51.4702 144.262 51.4135 144.273 51.3454C144.284 51.4361 144.307 51.5156 144.318 51.595V51.6063ZM66.6853 14.8553C66.5716 14.8553 66.4806 14.8213 66.3897 14.7759C66.492 14.7986 66.583 14.8326 66.6853 14.8553ZM89.774 137.124C89.9104 137.533 89.2624 137.215 88.8077 137.476C88.9782 137.181 89.3306 137.158 89.774 137.124ZM127.027 119.299C127.209 119.617 126.527 119.832 126.129 120.445C126.016 120.32 125.822 120.479 125.72 120.332C126.163 119.946 126.618 119.526 127.027 119.31V119.299ZM127.914 118.153C128.005 118.255 128.107 118.346 128.255 118.198C128.471 118.38 127.755 119.118 127.494 119.208C127.368 118.959 127.539 118.596 127.914 118.153ZM141.988 87.9603C141.988 87.9603 142.056 87.9943 142.09 88.017C141.977 88.278 141.931 88.3007 141.874 88.2666C141.908 88.1645 141.954 88.0624 141.988 87.9603ZM144.08 80.7553C144.068 80.6078 144.057 80.4716 144.034 80.3468C144.091 80.2901 144.148 80.2447 144.205 80.222C144.205 80.3922 144.148 80.5737 144.08 80.7553ZM144.432 79.5866C144.398 79.3597 144.364 79.0647 144.341 78.747C144.398 78.486 144.466 78.2477 144.614 77.9073C144.568 78.7129 144.489 78.9739 144.523 79.5639C144.489 79.5639 144.455 79.5866 144.421 79.5866H144.432ZM146.728 63.8491C146.819 63.4066 146.842 62.9641 146.774 62.4195C147.308 62.6351 147.081 63.9059 146.808 64.3597C146.785 64.1895 146.763 64.0193 146.74 63.8605L146.728 63.8491ZM146.581 61.1373C146.751 61.3416 146.853 61.7387 146.933 62.2039C146.592 62.4081 146.478 61.4323 146.581 61.1373ZM145.216 52.1396L144.841 52.2417C144.705 51.9354 144.921 51.4248 144.603 51.3454C144.534 50.7213 144.841 51.4929 144.932 51.4475C144.978 51.2092 144.853 51.0731 144.694 50.8915C144.762 50.8348 144.819 50.7781 144.875 50.7213C145.114 51.1071 145.285 51.561 145.216 52.1396ZM144.478 49.0534C144.352 49.0421 144.284 48.713 144.216 48.452C144.216 48.452 144.239 48.452 144.25 48.452C144.341 48.452 144.421 48.3726 144.478 48.2932C144.728 48.8038 144.443 48.7697 144.478 49.0534ZM142.909 47.272C142.909 47.272 143.034 47.272 143.079 47.2947C143.409 47.5103 143.625 47.7826 143.705 48.1911C143.739 48.384 143.898 48.452 144.08 48.4634C144.114 48.6109 144.137 48.7697 144.137 48.974C144.046 48.9967 144.068 49.1555 144 49.2122C143.761 48.384 143.307 48.679 143.864 49.0647C143.886 49.1782 143.909 49.2917 143.932 49.4051C143.625 49.4051 143.318 49.3938 143.011 49.3598C142.92 49.3598 142.784 49.1215 142.806 49.0194C142.875 48.747 143.125 48.4747 143.091 48.2478C143.045 47.9868 142.715 47.7939 142.784 47.4536C142.795 47.3855 142.852 47.3174 142.909 47.272ZM139.669 41.2698C139.555 41.213 139.441 41.1676 139.328 41.2244C139.26 41.0542 139.18 40.918 139.112 40.7932C139.089 40.6797 139.078 40.5549 139.078 40.4415C139.26 40.7024 139.487 41.0088 139.68 41.2698H139.669ZM127.289 24.3409C127.357 24.4203 127.437 24.5111 127.505 24.5905C127.494 24.6132 127.482 24.6473 127.459 24.67C127.062 24.5905 126.868 24.0686 126.63 23.5693C126.846 23.8303 127.05 24.0799 127.289 24.3409ZM120.695 22.2418C120.695 22.2418 120.752 22.3099 120.775 22.3553C120.695 22.3212 120.616 22.2872 120.536 22.2645C120.57 22.2191 120.627 22.2078 120.695 22.2418ZM62.9793 15.0368C62.9793 15.1163 62.9793 15.1957 62.9793 15.2638C63.1611 15.2638 63.2748 15.1617 63.343 15.0255C63.65 15.0255 63.9569 15.0368 64.2752 15.0482C64.1615 15.2978 63.9342 15.4567 63.7182 15.6042C63.3544 15.8424 63.0929 15.7063 62.9679 15.3092C62.8428 15.3545 62.7064 15.3886 62.5814 15.4453C61.9789 15.7517 61.7629 15.7403 61.4445 15.3319C61.4445 15.3205 61.4218 15.2978 61.4104 15.2865C61.9334 15.1163 62.4449 15.0482 62.9679 15.0368H62.9793ZM58.5457 15.729C59.0686 15.6269 59.5688 15.5815 60.0235 15.5815C59.9098 15.6836 59.7621 15.7517 59.5233 15.7403C59.3755 15.7403 59.1709 15.7403 59.1027 15.8311C58.5911 16.4778 57.7726 15.9446 57.2042 16.353C56.8063 16.6367 56.579 16.4892 56.3857 16.2736C57.1133 16.0353 57.8522 15.8538 58.5457 15.729ZM20.7352 107.045C20.667 107.034 20.6101 106.818 20.6215 106.705C20.6215 106.648 20.667 106.591 20.7011 106.534C20.7352 106.478 20.7807 106.432 20.8148 106.375C20.8716 106.489 20.9626 106.591 20.9853 106.705C21.008 106.886 20.9853 107.102 20.7238 107.045H20.7352ZM22.8269 112.752C22.8042 112.854 22.6678 112.922 22.5882 113.013C22.5427 112.956 22.4518 112.911 22.4518 112.854C22.429 112.65 22.429 112.446 22.4177 112.242C22.4177 112.242 22.3949 112.242 22.3836 112.242V112.196C22.2813 112.151 22.1676 112.105 22.0766 112.049C22.0539 112.049 22.0766 111.901 22.0994 111.901C22.3495 111.867 22.3608 112.026 22.3722 112.196H22.4063V112.242C22.7474 112.242 22.9065 112.412 22.8156 112.752H22.8269ZM24.2025 114C24.0888 113.932 23.9751 113.864 23.8501 113.796C23.9751 113.728 24.1002 113.615 24.2252 113.626C24.3503 113.626 24.4639 113.751 24.589 113.83C24.4639 113.887 24.3275 113.955 24.2025 114.012V114ZM25.1233 114.976C25.1119 115.146 25.1006 115.316 24.8391 115.271C24.8164 115.271 24.7936 115.135 24.8164 115.124C24.9073 115.067 25.021 115.021 25.1233 114.976V114.931C25.1233 114.931 25.146 114.931 25.1574 114.931C25.146 114.658 25.1119 114.386 25.3393 114.17C25.4757 114.046 25.9191 114.046 25.9077 114.17C25.9077 114.284 25.8622 114.42 25.794 114.5C25.6235 114.704 25.4757 114.953 25.146 114.931V114.965L25.1119 114.987L25.1233 114.976ZM26.9308 115.396C26.6125 116.122 25.9418 116.678 25.8736 117.54C25.8736 117.586 25.6008 117.654 25.4871 117.62C25.3734 117.586 25.2029 117.416 25.2142 117.336C25.4302 116.485 25.8054 115.691 26.3397 114.987C26.3852 114.931 26.6239 114.987 26.7603 115.021C26.7603 115.021 26.8285 115.09 26.874 115.124C26.8854 115.146 26.8967 115.158 26.9195 115.169C26.9195 115.237 26.9649 115.328 26.9422 115.385L26.9308 115.396ZM33.7404 121.035C33.6608 121.205 33.5471 121.273 33.3766 121.217C33.4221 121.069 33.513 120.944 33.7404 120.91C34.1269 120.854 34.2974 121.092 34.2519 121.432C34.2519 121.478 34.2519 121.5 34.2519 121.534C34.1269 121.41 33.9791 121.251 33.729 121.035H33.7404ZM36.571 121.739C36.571 121.739 36.571 121.773 36.5597 121.784L36.5256 121.75C36.5256 121.75 36.5597 121.75 36.571 121.739C36.571 121.705 36.5938 121.67 36.6051 121.636C36.6392 121.659 36.6733 121.67 36.6961 121.693C36.6506 121.705 36.6165 121.716 36.571 121.739ZM51.9408 133.698C50.5311 133.051 49.1556 132.404 47.4845 132.098C46.9388 131.848 46.4045 131.496 45.8247 131.133C45.7679 131.088 45.6997 131.043 45.6314 131.009C45.8929 131.065 46.1544 131.122 46.4045 131.179C47.0297 131.315 47.6322 131.451 48.2348 131.633C48.8486 131.791 49.4853 131.996 50.1673 132.302C51.3155 131.791 52.9412 133.822 54.0325 133.675C53.6005 132.983 55.4422 133.55 56.4994 133.675C56.3289 133.981 56.4539 134.378 56.5221 134.934C54.8397 134.787 53.3732 134.242 51.9408 133.72V133.698ZM73.2106 137.26C73.5516 137.045 73.7563 137.476 74.3701 137.385C74.3588 137.294 74.1655 137.329 74.0291 137.306C74.0632 137.17 74.5179 137.249 74.5066 137.09C74.3133 136.886 73.4721 137.113 73.0287 137.079C73.6994 136.602 75.3705 136.636 75.9162 136.33C76.189 136.523 76.0754 136.841 75.9731 136.909C76.1549 137.226 76.3368 136.909 76.6438 137.056C77.0871 136.897 76.1095 136.897 76.2686 136.602C77.5191 136.512 77.8147 136.625 78.3604 136.273C78.8947 136.353 78.3604 136.443 79.338 136.228C79.5085 136.875 78.3149 136.546 77.9284 136.784C78.5309 137.192 79.986 136.137 80.0883 136.784C79.5768 136.841 79.0424 136.954 78.4854 137.068C77.9284 137.147 77.3486 137.238 76.7574 137.317C75.5752 137.476 74.3588 137.544 73.2106 137.249V137.26ZM73.5857 141.186C73.4266 141.481 73.9836 141.334 74.2906 141.345C73.7222 141.504 72.79 141.549 71.7555 141.583C70.7096 141.549 69.5614 141.493 68.5383 141.561C69.7547 140.846 71.7441 141.527 73.5857 141.186ZM68.0153 141.822C69.0044 141.981 69.2431 141.912 70.3003 142.003C69.3113 141.515 72.4944 141.765 72.7559 142.003C71.926 142.276 70.9483 142.219 70.0275 142.162C69.1067 142.117 68.2427 142.071 67.6516 142.298C67.5151 141.981 67.9358 142.015 68.0153 141.833V141.822ZM67.4583 142.661C67.6061 142.332 68.0835 142.582 68.345 142.695C68.2995 142.922 67.5606 142.718 67.4583 142.661ZM79.4517 143.195L79.4062 142.888L79.1675 142.945C78.781 143.013 78.3831 143.058 77.9625 143.115C77.1326 143.217 76.2573 143.308 75.3705 143.365C73.5857 143.467 71.6986 143.558 69.9366 143.229C69.7433 143.251 69.8115 143.422 69.5841 143.41C69.1635 143.365 68.8452 143.263 68.5155 143.172C68.561 142.877 69.4023 143.047 69.9479 143.036C69.9593 142.9 69.9707 142.763 69.766 142.741C71.494 142.695 74.6202 142.707 77.1667 142.015C77.7465 142.083 78.3035 142.162 78.6332 142.4C79.1448 142.287 78.4854 142.105 78.5764 141.924C79.0197 141.833 79.429 142.207 79.645 141.901C80.1679 141.901 79.861 142.015 79.8723 142.253C80.7477 141.981 81.3729 141.765 81.9527 141.742C82.0777 141.402 81.3843 141.686 81.0433 141.686C81.5434 141.266 82.7826 141.198 83.3169 141.322C83.5215 141.663 82.6121 142.083 83.6238 141.958C82.9076 142.423 80.7704 142.083 80.4635 142.559C81.8504 142.593 84.1695 141.867 84.988 142.321C83.1691 143.058 81.4752 142.763 79.4744 143.195H79.4517ZM87.5686 140.891C87.5458 140.721 87.3071 140.744 87.3071 140.562C87.9665 140.29 87.8982 140.71 88.5576 140.437C88.4325 140.642 87.8528 140.732 87.5686 140.891ZM92.2409 139.144C90.1378 139.473 88.3302 140.018 86.1816 140.449C86.2499 140.619 86.7728 140.358 86.9092 140.46C86.9547 140.755 85.8974 140.903 85.852 140.608C85.4086 140.88 85.3859 140.971 85.6473 141.322C84.8516 141.118 84.6924 140.869 84.9653 140.653C85.2495 140.426 85.977 140.256 86.9774 140.04C86.7955 139.938 86.3977 140.04 86.0793 140.074C85.9316 139.802 86.841 139.802 86.8637 139.575C87.1025 139.541 87.0684 139.779 87.1252 139.904C88.7509 139.382 88.8645 139.303 90.638 138.781C90.9677 139.065 91.4906 138.554 91.9453 138.826C92.3773 138.622 91.3655 138.758 91.8203 138.463C93.0366 138.214 93.0025 138.486 94.2076 137.884C94.1394 137.624 93.1731 138.384 93.2867 137.919C94.0939 137.782 94.6623 137.487 95.2193 137.102C95.3558 137.294 95.3217 137.453 95.2193 137.612C95.6627 137.476 95.7082 137.283 95.5717 137.068C96.3675 136.659 96.6404 136.852 97.0269 136.931C96.413 137.907 93.1958 138.395 92.2068 139.144H92.2409ZM108.043 134.9C108.02 134.401 108.736 134.356 109.134 133.902C109.282 134.208 108.372 134.571 108.043 134.9ZM113.056 133.834C112.76 134.537 112.783 133.698 112.317 134.072C112.294 133.936 112.669 133.754 112.897 133.596C112.965 133.72 113.022 133.834 113.215 133.732C113.249 133.845 113.09 133.879 113.056 133.834ZM112.488 132.37L113.101 131.984L113.272 132.223C112.954 132.381 112.59 132.62 112.488 132.381V132.37ZM113.204 131.803C113.079 131.599 113.579 131.292 113.965 130.997L114.136 131.224C113.784 131.496 113.442 131.757 113.204 131.791V131.803ZM112.942 131.338C111.987 131.996 111.01 132.608 110.521 133.028C110.578 132.631 111.396 132.018 112.374 131.349C113.34 130.668 114.42 129.851 115.136 129.261C114.738 129.851 113.84 130.611 112.931 131.326L112.942 131.338ZM119.706 129.897C119.377 129.681 119.32 129.692 119.411 129.273C119.763 129.25 120.309 129.409 119.706 129.897ZM120.252 129.102C120.093 129.102 119.854 129.295 119.763 129.114C119.934 129.057 120.104 129 120.059 128.887C120.229 128.773 120.275 128.944 120.468 128.785C120.445 128.909 120.423 129.034 120.513 129.125C120.332 129.25 120.036 129.295 120.252 129.102ZM122.855 127.786C122.81 127.65 123.151 127.412 123.344 127.208C123.242 127.151 123.037 127.378 122.855 127.525C122.605 127.525 123.049 126.913 122.594 127.242C122.628 127.015 123.367 126.958 123.617 126.947C123.151 127.423 123.458 127.457 122.855 127.786ZM126.152 122.147L126.368 122.34L125.743 123.021C125.481 122.873 126.004 122.442 126.152 122.147ZM127.175 123.316C127.289 122.873 126.993 123.214 126.652 123.599C126.516 123.168 127.471 122.794 127.857 122.408C128.005 122.567 127.357 123.032 127.175 123.304V123.316ZM127.732 120.831C127.607 121.648 127.391 122.397 126.152 123.145C126.277 122.612 127.414 121.875 127.016 121.194C128.164 120.15 128.869 119.118 129.494 118.698C129.483 119.458 128.448 120.547 127.732 120.831ZM131.018 117.064C130.381 117.779 130.029 117.949 129.767 118.675L129.392 118.38C130.142 117.688 130.722 116.474 131.597 115.657C131.597 116.201 130.87 116.565 131.029 117.064H131.018ZM138.589 105.229C138.271 105.229 138.475 104.821 138.145 104.81C138.43 104.628 138.68 103.664 138.975 103.981C138.771 103.596 139.464 102.892 139.771 102.313C139.191 103.403 139.123 104.481 138.589 105.229ZM138.714 108.441C138.577 108.35 138.418 108.441 138.271 108.633C138.1 108.509 138.327 108.134 138.577 107.737C138.577 108.112 138.816 107.703 138.828 108.077C139.044 107.794 139.282 107.034 139.476 107.351C139.237 107.499 138.975 108.021 138.725 108.452L138.714 108.441ZM139.726 106.41C139.692 105.831 139.976 105.717 140.305 105.218C140.34 105.797 140.055 105.91 139.726 106.41ZM140.396 99.579C140.34 99.3861 140.385 99.0798 140.556 98.6599C140.828 98.7167 140.658 99.3975 140.396 99.579ZM140.237 96.992C140.226 96.5041 140.487 96.3453 140.635 95.5964C140.908 95.6985 140.453 96.7878 140.237 96.992ZM141.192 93.1342C141.454 93.3839 140.931 93.815 140.965 94.3823C140.567 94.405 141.135 93.5427 141.192 93.1342ZM141.147 96.1524C141.044 95.4716 141.181 95.1539 141.351 94.1214C141.408 94.4164 141.249 95.3695 141.658 94.405C141.977 94.7681 141.317 95.5056 141.135 96.1524H141.147ZM142.522 88.2893C142.147 90.048 142.318 90.7174 142.283 91.5684C142.204 91.9769 141.965 91.6932 141.863 92.0109C142.374 91.8407 142.022 93.1683 141.783 94.0533C141.476 93.8944 141.306 93.8944 141.294 93.7129C141.465 93.5654 141.601 92.9413 141.556 92.6577C141.204 93.0888 141.397 92.0563 141.169 91.9882C141.329 91.6478 141.42 91.6592 141.499 91.8975C141.624 90.5586 142.272 89.0155 142.374 87.6879C142.477 87.7333 142.511 88.0397 142.659 87.7447C142.261 87.9376 142.75 87.1433 142.499 87.166C142.374 87.3589 142.295 87.3022 142.249 87.1433C142.386 86.7348 142.522 86.3264 142.636 85.9066C142.988 85.7817 142.465 86.6668 142.715 86.6668C142.863 85.8839 143.545 84.6925 143.204 84.3975C143 85.169 143.011 85.4981 142.647 85.8612C142.647 85.8385 142.659 85.8158 142.67 85.7931C142.829 85.1123 142.954 84.4088 143.057 83.6827C143.204 83.6827 143.329 83.6146 143.454 83.5125V83.5352C143.716 83.9209 143.659 84.4202 143.545 84.9308C143.42 85.4414 143.216 85.952 143.273 86.4172C143.034 86.8256 142.909 86.7802 142.772 86.871C143.022 87.2227 142.715 88.868 142.59 89.2197C142.272 89.2311 142.715 88.4028 142.522 88.278V88.2893ZM142.511 97.2076C142.818 96.6062 142.613 96.2885 142.954 95.9822C143.42 95.9028 142.829 97.548 142.511 97.2076ZM142.988 95.5964C143.386 95.3241 143.716 94.5866 144.159 94.5866C143.818 95.2447 143.466 95.8914 142.988 95.5964ZM147.308 64.0193C147.388 63.7357 147.399 64.8022 147.501 65.4944C147.081 65.3128 147.172 64.4732 147.308 64.0193Z" fill="#5FB01C"/>
<path id="Vector_67" fill-rule="evenodd" clip-rule="evenodd" d="M41.8687 6.32812C41.5958 6.74794 39.8338 7.30392 39.7314 7.48546C40.118 7.42873 42.4484 6.40755 41.8687 6.32812Z" fill="#5FB01C"/>
<path id="Vector_68" fill-rule="evenodd" clip-rule="evenodd" d="M101.985 7.77482C102.451 7.89963 103.088 8.26272 103.463 8.26272C103.088 8.02444 102.235 7.65001 101.985 7.77482Z" fill="#5FB01C"/>
<path id="Vector_69" fill-rule="evenodd" clip-rule="evenodd" d="M109.042 8.14673C108.86 8.44173 108.133 7.84037 107.78 7.85172C107.974 8.21481 109.36 8.60058 109.042 8.14673Z" fill="#5FB01C"/>
<path id="Vector_70" fill-rule="evenodd" clip-rule="evenodd" d="M113.943 5.25138C114.034 5.11522 114.421 5.47831 114.534 5.38753C114.25 5.26272 114.171 4.74079 114.568 4.95637C114.773 5.26272 115.023 5.05849 115.523 5.17195C114.591 4.8656 113.25 3.96923 112.829 4.12808C113.534 4.26424 114.375 5.05849 113.943 5.25138Z" fill="#5FB01C"/>
<path id="Vector_71" fill-rule="evenodd" clip-rule="evenodd" d="M114.352 14.7969C114.113 14.9898 114.466 15.2621 114.875 15.5457C114.784 15.0919 115.739 16.0223 115.318 15.523C114.966 15.2734 114.772 15.3529 114.818 15.0352C114.898 15.0919 115.023 15.0919 114.875 14.9557C114.738 15.0011 114.602 15.0238 114.42 14.9784C114.443 14.9217 114.466 14.8763 114.341 14.7969H114.352Z" fill="#5FB01C"/>
<path id="Vector_72" fill-rule="evenodd" clip-rule="evenodd" d="M115.614 15.9773C116.41 16.9078 117.365 18.4282 118.365 18.5757C118.274 18.4736 118.115 18.3487 118.172 18.2693C118.581 18.587 118.82 18.4509 119.32 19.0409C119.525 18.882 119.218 18.6097 118.991 18.3601C118.354 18.0651 116.058 16.556 116.262 15.9773C116.046 15.9773 115.773 15.8525 115.614 15.9773Z" fill="#5FB01C"/>
<path id="Vector_73" fill-rule="evenodd" clip-rule="evenodd" d="M122.288 12.7812C122.538 13.3826 124.494 14.4378 124.482 15.13C124.812 15.425 125.005 15.3796 125.38 15.8221C125.21 15.8561 125.016 15.8221 124.846 15.8561C125.141 16.0604 125.448 16.2759 125.744 16.5369C126.028 16.8092 126.312 17.1042 126.608 17.4219C127.188 18.046 127.768 18.7381 128.347 19.4189C129.518 20.7918 130.712 22.142 131.871 23.1065C131.985 24.2865 133.588 24.6042 133.429 25.4665C133.588 25.1829 133.497 25.251 133.804 25.1715C132.849 24.4227 131.962 22.9136 132.053 22.3236C132.019 22.3009 132.019 22.2555 132.099 22.1647C132.065 22.1988 132.065 22.2669 132.053 22.3236C132.167 22.403 132.747 22.2328 132.758 22.8569C133.088 22.9249 132.735 22.2328 133.054 22.6072C133.156 22.9817 133.224 23.3334 133.258 23.6625C133.554 23.9915 133.827 24.2071 134.1 24.4454C134.031 24.5361 133.861 24.5929 133.986 24.7744C134.327 24.2979 134.691 25.4665 134.861 25.7729C134.929 25.2963 134.236 24.4454 134.361 23.9915C133.997 24.0596 134.111 23.7419 133.702 23.288C133.77 23.1973 133.929 23.1405 133.815 22.959C133.645 22.9023 133.452 22.1307 132.917 21.9605C133.122 22.3122 133.054 22.3803 132.815 22.3009C132.36 21.4499 131.462 20.7805 131.087 19.7593C130.621 20.0543 130.348 19.3622 129.916 18.7608C129.791 18.8402 129.7 19.0558 129.507 18.8856C129.268 18.5793 129.439 18.4318 129.405 18.2048C129.609 18.4658 130.303 18.9083 129.996 18.4318C129.78 18.602 129.166 17.4106 128.95 17.5808C129.245 17.8758 129.302 18.08 129.132 18.2048C128.995 17.6942 128.711 18.046 128.29 17.4333C128.063 17.5581 127.847 17.7396 127.552 17.6375C127.586 16.9567 126.699 17.0135 126.256 16.5483C126.062 16.0036 125.892 15.5384 126.028 15.13C125.539 14.7782 125.46 14.5967 125.267 14.5626C125.539 14.8463 125.369 15.0051 125.426 15.2321C124.425 14.5967 124.187 14.2563 123.323 13.3372C122.97 13.3826 122.606 13.2351 122.288 12.8039V12.7812ZM129.791 19.9068C129.996 20.0089 130.223 20.1905 130.496 20.5422C130.394 21.0301 129.802 19.7479 129.7 20.2472C129.564 20.077 129.723 20.0089 129.78 19.9068H129.791Z" fill="#5FB01C"/>
<path id="Vector_74" fill-rule="evenodd" clip-rule="evenodd" d="M121.536 20.9388C121.752 21.2678 121.684 21.5175 121.673 21.7784C121.945 22.1642 122.048 21.8919 122.275 22.1415C122.15 22.255 122.195 22.4138 122.309 22.5954C122.639 22.028 121.763 21.5969 121.911 21.0409C121.82 21.1317 121.638 20.8821 121.536 20.9274V20.9388Z" fill="#5FB01C"/>
<path id="Vector_75" fill-rule="evenodd" clip-rule="evenodd" d="M141.748 40.7003C141.68 39.7245 142.373 40.984 142.453 40.3826C142.134 40.4847 141.839 39.8266 141.521 39.7812C141.952 40.3599 141.441 40.2124 141.748 40.7117V40.7003Z" fill="#5FB01C"/>
<path id="Vector_76" fill-rule="evenodd" clip-rule="evenodd" d="M142.009 44.0332C141.873 44.0332 141.748 43.8516 141.589 44.0105C141.805 44.5097 141.646 44.6686 141.646 44.9749C141.759 44.8955 142.157 45.7805 142.044 45.2132C141.509 44.5891 142.112 44.453 142.009 44.0332Z" fill="#5FB01C"/>
<path id="Vector_77" fill-rule="evenodd" clip-rule="evenodd" d="M136.747 110.601C137.077 110.374 137.588 110.43 137.452 110.351C137.588 109.852 136.952 110.158 136.747 110.601Z" fill="#5FB01C"/>
<path id="Vector_78" fill-rule="evenodd" clip-rule="evenodd" d="M130.587 119.34C130.121 119.919 129.53 120.18 129.552 120.668C129.882 120.463 130.553 119.851 130.428 120.407C130.541 119.93 131.894 119.045 131.53 119.113C131.167 119.408 130.212 120.134 130.598 119.34H130.587Z" fill="#5FB01C"/>
<path id="Vector_79" fill-rule="evenodd" clip-rule="evenodd" d="M137.179 126.862C137.156 127.089 137.156 127.067 137.065 127.861C137.622 127.101 138.111 126.363 137.804 126C137.645 126.261 136.997 126.749 137.179 126.851V126.862Z" fill="#5FB01C"/>
<path id="Vector_80" fill-rule="evenodd" clip-rule="evenodd" d="M113.397 136C113.135 136.204 112.896 136.136 112.908 136.306C113.567 136.113 112.362 136.806 112.419 136.953C112.851 136.817 113.885 136.113 113.669 136.057C112.999 136.499 113.249 136.261 113.397 136Z" fill="#5FB01C"/>
<path id="Vector_81" fill-rule="evenodd" clip-rule="evenodd" d="M91.5477 144.919C91.8206 144.941 92.2639 144.816 92.3662 144.998C91.5022 145.27 90.0471 145.077 90.5246 145.486C90.7861 145.191 91.6728 145.304 91.9001 145.418C92.0593 145.157 93.7418 144.385 93.2302 144.556C92.4344 144.964 91.8092 144.612 91.5477 144.919Z" fill="#5FB01C"/>
<path id="Vector_82" fill-rule="evenodd" clip-rule="evenodd" d="M87.1005 145.158C87.1119 145.612 86.407 146.123 87.1801 146.316C87.0778 146.145 87.3847 146.077 87.487 145.953C86.8845 145.85 86.9641 145.283 88.0554 145.113C88.1691 144.75 87.4529 145.113 87.1005 145.158Z" fill="#5FB01C"/>
<path id="Vector_83" fill-rule="evenodd" clip-rule="evenodd" d="M83.8405 146.11C83.4653 146.258 84.2724 146.428 84.1588 146.746L83.4085 146.87L83.3175 146.394C82.7491 146.791 81.635 146.859 82.1011 147.165C81.7942 147.063 81.3167 147.211 81.1689 147.404C82.6241 147.313 82.9878 146.905 84.1929 146.927C84.1929 146.814 84.2042 146.7 84.5339 146.678C83.9655 146.507 84.4998 146.088 83.8405 146.11Z" fill="#5FB01C"/>
<path id="Vector_84" fill-rule="evenodd" clip-rule="evenodd" d="M75.7803 151.558C76.1554 151.683 77.1104 151.478 76.8262 151.978C78.2585 151.842 76.2464 151.206 75.7803 151.558Z" fill="#5FB01C"/>
<path id="Vector_85" fill-rule="evenodd" clip-rule="evenodd" d="M67.9033 146.44C68.1193 146.496 68.3239 146.565 68.4604 146.655C70.5407 146.576 68.3126 146.417 67.9033 146.44Z" fill="#5FB01C"/>
<path id="Vector_86" fill-rule="evenodd" clip-rule="evenodd" d="M66.7651 146.864C66.9242 147.159 67.7768 147.272 68.2657 147.216C68.1292 147 67.4472 146.83 67.9019 146.626C66.9015 146.512 66.299 146.626 65.651 146.716C66.1967 147.068 65.094 147.046 65.435 147.182C65.6851 147.068 66.3331 147.091 66.5718 147.238C66.8219 147.011 66.4922 146.932 66.7764 146.864H66.7651Z" fill="#5FB01C"/>
<path id="Vector_87" fill-rule="evenodd" clip-rule="evenodd" d="M64.1832 145.956C64.1946 146.195 63.8763 146.251 63.6034 146.285C63.5693 146.081 62.7849 146.149 62.694 145.968C62.4894 146.024 62.603 146.308 62.1142 146.183C58.8857 145.684 56.4756 145.378 54.2361 144.731C53.1106 144.436 52.0079 144.141 50.837 143.835C50.2572 143.676 49.6547 143.517 49.0295 143.347C48.4156 143.131 47.779 142.916 47.0969 142.677C46.9832 143.313 46.5171 142.382 46.1533 142.552C46.3466 143.154 46.7786 143.199 47.5971 143.664C47.8472 143.426 47.1878 143.313 47.1765 143.108C47.4152 143.199 47.5857 143.199 47.7335 143.199C47.3697 143.517 48.5747 143.778 47.9268 143.88C49.2568 144.243 50.7574 144.436 52.3831 144.788C53.2016 144.958 54.0428 145.139 54.9409 145.344C55.3843 145.446 55.839 145.559 56.3165 145.673C56.7939 145.763 57.2714 145.854 57.7716 145.956C57.7829 145.786 57.9535 145.729 58.1808 145.729C58.6015 146.036 58.6583 145.9 59.4768 146.024C59.2267 146.274 59.3176 146.365 59.7837 146.558C59.8292 146.456 59.7837 146.285 60.0111 146.297C60.9774 146.433 62.262 146.49 63.3874 146.444C64.3992 146.399 65.2746 146.206 65.7293 146.024C65.3882 146.104 64.6266 145.945 64.1946 145.968L64.1832 145.956Z" fill="#5FB01C"/>
<path id="Vector_88" fill-rule="evenodd" clip-rule="evenodd" d="M40.3896 130.23C41.0376 130.48 41.7538 130.968 41.0149 130.843C41.3673 131.115 41.8334 131.421 42.1176 131.251C42.5837 131.694 42.6405 132.409 43.3681 132.579C43.3113 132.738 43.2203 132.84 43.0612 132.862C43.5955 133.033 43.8683 132.862 44.3117 132.908C44.5959 133.078 44.2889 133.305 44.8119 133.452C45.0506 133.282 45.9146 133.498 46.7217 133.804C46.6762 133.85 46.6308 133.906 46.6194 133.952C46.6194 134.077 46.699 134.201 46.7331 134.337C46.8127 134.258 46.9377 134.179 46.9377 134.099C46.9377 134.031 46.9263 133.952 46.8922 133.884C47.7903 134.258 48.552 134.723 48.2337 134.916C48.6998 135.03 49.1659 135.211 49.6206 135.404C49.5638 135.404 49.5069 135.495 49.4501 135.54C49.3478 135.631 49.3932 135.767 49.5865 135.813C50.0071 135.915 50.4846 135.79 50.8142 136.187C51.2008 135.915 51.5304 136.039 51.9283 136.244C52.1557 136.357 52.3262 136.244 52.4172 136.005C52.4513 136.005 52.474 136.005 52.5081 135.983C52.4854 135.971 52.4626 135.96 52.4399 135.949C52.4626 135.869 52.4626 135.79 52.474 135.688C52.7582 135.744 53.0765 135.824 53.122 135.642C52.9174 135.597 52.69 135.552 52.474 135.506C52.4399 135.302 52.349 135.018 52.2353 135.098C52.0761 135.211 51.9056 135.279 51.7351 135.325C51.5759 135.291 51.4281 135.257 51.269 135.211C50.6437 135.007 49.9957 134.78 49.3705 134.542C48.12 134.077 46.915 133.623 45.9714 133.282C46.0851 133.203 46.2215 133.135 46.392 133.123C46.8695 133.271 47.04 133.759 47.3356 133.464C46.8468 133.294 46.6308 133.078 46.3011 132.885C46.051 133.101 45.5963 132.999 45.1529 132.828C44.7096 132.636 44.2662 132.397 43.9706 132.431C44.2094 132.409 44.3003 132.193 44.1525 131.989C43.5045 131.773 42.6633 131.285 42.3109 130.809C42.4018 130.695 42.6178 130.775 42.7315 130.684C41.7766 130.23 41.3673 130.4 40.3896 130.219V130.23Z" fill="#5FB01C"/>
<path id="Vector_89" fill-rule="evenodd" clip-rule="evenodd" d="M44.653 137.821C45.5624 137.923 46.3468 138.014 47.2108 138.638C47.2563 138.513 47.1994 138.411 47.1312 138.309C47.4154 138.411 47.586 138.388 47.6883 138.309C46.631 138.07 46.1422 137.809 45.1077 137.594C46.2104 137.968 44.9031 137.832 44.6416 137.832L44.653 137.821Z" fill="#5FB01C"/>
<path id="Vector_90" fill-rule="evenodd" clip-rule="evenodd" d="M42.9932 136.651C42.709 136.527 42.493 136.402 42.3793 136.266C42.0951 136.447 42.925 137.207 42.7203 136.844C42.2656 136.583 43.0273 136.822 42.9932 136.651Z" fill="#5FB01C"/>
<path id="Vector_91" fill-rule="evenodd" clip-rule="evenodd" d="M39.219 137.234C38.7756 137.768 40.7196 138.199 40.7878 138.709L40.856 138.528C40.9583 138.573 41.0606 138.607 41.0606 138.517C40.6741 138.278 40.1171 138.063 39.435 137.654C39.4805 137.507 39.5941 137.359 39.219 137.234Z" fill="#5FB01C"/>
<path id="Vector_92" fill-rule="evenodd" clip-rule="evenodd" d="M33.5813 141.568C33.7632 141.591 34.3316 141.432 33.9679 141.228C33.5018 141.364 33.2858 141.024 32.9106 141.126C33.2062 141.296 33.3312 141.432 33.354 141.58C32.7287 141.421 32.7628 141.273 32.1376 140.91C32.0125 141.046 32.2285 141.205 32.1376 141.353C31.6033 140.888 31.0576 140.956 30.6143 140.797C31.1372 141.069 31.0462 141.296 31.5692 141.58C32.2285 141.512 32.6492 141.92 33.8655 142.363C33.8997 142.17 34.1952 142.306 34.3544 142.272C33.8997 142.045 33.8087 141.807 33.5813 141.58V141.568Z" fill="#5FB01C"/>
<path id="Vector_93" fill-rule="evenodd" clip-rule="evenodd" d="M38.3096 123.642C38.6961 123.732 38.8439 124.209 38.9689 124.039C38.3891 123.653 38.7188 123.562 38.6847 123.312C38.3778 123.392 38.3096 123.301 38.3096 123.653V123.642Z" fill="#5FB01C"/>
<path id="Vector_94" fill-rule="evenodd" clip-rule="evenodd" d="M117.979 7.79314C118.638 8.32642 118.945 8.17892 119.434 8.38315C119.82 8.76893 119.843 9.09798 120.071 9.46106C120.446 9.58587 120.844 9.92626 121.298 10.312C121.73 10.7319 122.208 11.1971 122.788 11.5602C122.06 10.9815 122.105 10.607 121.935 10.1759C121.264 9.91492 121.014 9.47241 120.4 9.3476C120.514 9.21144 120.4 9.09798 120.15 9.04124C120.309 8.87105 120.457 8.68951 120.127 8.42854C119.627 8.3945 118.9 7.9066 118.399 7.86122C118.32 7.64564 118.309 7.4414 118.149 7.20312C118.081 7.31659 117.956 7.32794 117.831 7.32794C118.115 7.52083 118.138 7.66833 117.979 7.79314Z" fill="#5FB01C"/>
<path id="Vector_95" fill-rule="evenodd" clip-rule="evenodd" d="M48.3264 144.761C47.9512 144.488 47.5079 144.227 47.0418 143.989C46.0982 143.512 45.0069 143.138 43.961 143.104C43.8928 143.898 43.1198 143.955 42.0853 143.751C42.3126 143.32 41.1531 143.036 41.0507 142.639C40.9598 143.059 40.3232 142.605 40.3459 142.843C40.3004 142.673 40.1527 142.503 39.9253 142.332C39.8003 142.798 38.7203 142.105 38.0154 141.867C37.8904 142.208 38.1064 142.208 37.7881 142.4C38.4929 143.059 40.2663 143.944 40.8348 144.295C42.6764 144.431 44.6545 146.576 46.9963 147.109C48.5651 147.45 49.5882 146.769 49.2699 145.475C49.0426 145.248 48.7129 145.01 48.3264 144.749V144.761Z" fill="#5FB01C"/>
</g>
</g>
</g>
</svg>
