<svg width="17" height="17" viewBox="0 0 17 17" fill="none" xmlns="http://www.w3.org/2000/svg">
<g id="Group">
<g id="Layer 2">
<circle id="Ellipse 2027" cx="8.5" cy="8.5" r="8" fill="#B5461D"/>
<circle id="Ellipse 1986" cx="8" cy="8" r="4.5" fill="#B5461D"/>
<path id="Vector" d="M8.5 2.5C7.31331 2.5 6.15328 2.85189 5.16658 3.51118C4.17989 4.17047 3.41085 5.10754 2.95673 6.2039C2.5026 7.30025 2.38378 8.50665 2.61529 9.67054C2.8468 10.8344 3.41825 11.9035 4.25736 12.7426C5.09648 13.5818 6.16557 14.1532 7.32946 14.3847C8.49335 14.6162 9.69975 14.4974 10.7961 14.0433C11.8925 13.5891 12.8295 12.8201 13.4888 11.8334C14.1481 10.8467 14.5 9.68669 14.5 8.5C14.4983 6.90921 13.8657 5.38405 12.7408 4.2592C11.6159 3.13434 10.0908 2.50166 8.5 2.5ZM11.2314 10.5686C11.1782 10.6359 11.1105 10.6905 11.0334 10.7281C10.9562 10.7656 10.8716 10.7854 10.7857 10.7857C10.6565 10.7867 10.5311 10.7422 10.4314 10.66L8.14572 8.94571C8.07837 8.8925 8.02388 8.82479 7.98629 8.74763C7.9487 8.67047 7.92897 8.58583 7.92857 8.5V4.5C7.92857 4.34845 7.98878 4.2031 8.09594 4.09594C8.2031 3.98878 8.34845 3.92857 8.5 3.92857C8.65155 3.92857 8.7969 3.98878 8.90406 4.09594C9.01123 4.2031 9.07143 4.34845 9.07143 4.5V8.22571L11.14 9.76857C11.1995 9.81442 11.2491 9.87173 11.286 9.93712C11.3229 10.0025 11.3463 10.0746 11.3549 10.1492C11.3634 10.2238 11.3569 10.2994 11.3357 10.3714C11.3145 10.4434 11.279 10.5105 11.2314 10.5686Z" fill="#FFC800"/>
</g>
</g>
</svg>
