<svg width="13" height="17" viewBox="0 0 13 17" fill="none" xmlns="http://www.w3.org/2000/svg">
<g id="Group">
<path id="Vector" d="M10.2539 8.53125H2.75391C2.49503 8.53125 2.28516 8.74112 2.28516 9V12.25C2.28516 12.5089 2.49503 12.7188 2.75391 12.7188H10.2539C10.5128 12.7188 10.7227 12.5089 10.7227 12.25V9C10.7227 8.74112 10.5128 8.53125 10.2539 8.53125Z" fill="#B5461D"/>
<path id="Vector_2" d="M11.4727 5.53125H1.53516C0.844813 5.53125 0.285156 6.09091 0.285156 6.78125V8.21875C0.285156 8.90909 0.844813 9.46875 1.53516 9.46875H11.4727C12.163 9.46875 12.7227 8.90909 12.7227 8.21875V6.78125C12.7227 6.09091 12.163 5.53125 11.4727 5.53125Z" fill="#B5461D"/>
<path id="Vector_3" d="M9.97266 11.8901L9.71841 11.4774L9.34766 10.6552L8.47266 10.1094H4.53516L3.66016 10.6552L2.78516 10.5761L2.06103 10.7692C1.30981 10.9695 0.785156 11.6524 0.785156 12.4299V15.1258L4.27603 16.5008H6.50391L10.6008 14.58L10.7858 13.2508C10.7858 12.4733 10.7239 12.0904 9.97266 11.8901Z" fill="#B5461D"/>
<path id="Vector_4" d="M10.9467 10.7691L10.2227 10.576L9.34766 10.6552L8.47266 10.1094H6.50391V16.5008H8.73178L12.2227 15.1258V12.4298C12.2227 11.6524 11.698 10.9695 10.9467 10.7691Z" fill="#B5461D"/>
<path id="Vector_5" d="M2.78516 10.576V16.5008H4.27603C4.28662 16.4478 4.53516 14.7853 4.53516 13.7508V10.6257L4.84766 10.4043L4.53516 10.1094L2.78516 10.576Z" fill="#FFC800"/>
<path id="Vector_6" d="M8.47266 10.1094L8.16016 10.3884L8.47266 10.6257V13.7508C8.47266 14.7853 8.72119 16.4478 8.73178 16.5008H10.2227V10.576L8.47266 10.1094Z" fill="#FFC800"/>
<path id="Vector_7" d="M11.1602 13.0312H10.2227C9.53231 13.0312 8.97266 13.5909 8.97266 14.2812V15.25C8.97266 15.9403 9.53231 16.5 10.2227 16.5H11.1602C11.8505 16.5 12.4102 15.9403 12.4102 15.25V14.2812C12.4102 13.5909 11.8505 13.0312 11.1602 13.0312Z" fill="#FFC800"/>
<path id="Vector_8" d="M2.78516 13.0312H1.84766C1.15731 13.0312 0.597656 13.5909 0.597656 14.2812V15.25C0.597656 15.9403 1.15731 16.5 1.84766 16.5H2.78516C3.4755 16.5 4.03516 15.9403 4.03516 15.25V14.2812C4.03516 13.5909 3.4755 13.0312 2.78516 13.0312Z" fill="#FFC800"/>
<path id="Vector_9" d="M8.00391 7.75H5.00391C4.74503 7.75 4.53516 7.95987 4.53516 8.21875V10.625L6.23834 11.8863C6.31648 11.94 6.40908 11.9688 6.50391 11.9688C6.50391 11.9688 7.26631 10.9742 7.34631 10.9192L7.63741 9.63281L8.47266 8.21875C8.47266 7.95987 8.26278 7.75 8.00391 7.75Z" fill="#FFC800"/>
<path id="Vector_10" d="M8.00391 7.75H6.50391V11.9688C6.59669 11.9688 6.68947 11.9412 6.76947 11.8863L8.47266 10.625V8.21875C8.47266 7.95987 8.26278 7.75 8.00391 7.75Z" fill="#FFC800"/>
<path id="Vector_11" d="M9.00391 4.03125H4.00391C3.74503 4.03125 3.53516 4.24112 3.53516 4.5V6.75C3.53516 8.38697 4.86694 9.71875 6.50391 9.71875C6.50391 9.71875 7.72266 8.38697 7.72266 6.75L9.47266 4.5C9.47266 4.24112 9.26278 4.03125 9.00391 4.03125Z" fill="#FFC800"/>
<path id="Vector_12" d="M9.00391 4.03125H6.50391V9.71875C8.14087 9.71875 9.47266 8.38697 9.47266 6.75V4.5C9.47266 4.24112 9.26278 4.03125 9.00391 4.03125Z" fill="#FFC800"/>
<path id="Vector_13" d="M10.0039 0.5H5.25391C4.30619 0.5 3.53516 1.27103 3.53516 2.21875V2.75C3.53516 3.00887 3.74503 3.21875 4.00391 3.21875H9.00391C9.08059 3.21875 9.15609 3.19994 9.22381 3.16397C9.27481 3.13688 10.4727 2.48309 10.4727 0.96875C10.4727 0.709875 10.2628 0.5 10.0039 0.5Z" fill="#FFC800"/>
<path id="Vector_14" d="M9.50391 2.75H3.50391C3.24503 2.75 3.03516 2.95987 3.03516 3.21875V4.5C3.03516 4.75887 3.24503 4.96875 3.50391 4.96875H9.50391C9.76278 4.96875 9.97266 4.75887 9.97266 4.5V3.21875C9.97266 2.95987 9.76278 2.75 9.50391 2.75Z" fill="#B5461D"/>
</g>
</svg>
