<svg width="17" height="17" viewBox="0 0 17 17" fill="none" xmlns="http://www.w3.org/2000/svg">
<g id="Group">
<g id="Layer 2">
<path id="Vector" d="M16.5 8.50894C16.4982 10.0904 16.0278 11.6359 15.148 12.9501C14.2683 14.2644 13.0188 15.2884 11.5573 15.8927C10.0959 16.4971 8.4881 16.6548 6.93709 16.3458C5.38607 16.0369 3.96143 15.2751 2.84315 14.1569C1.72487 13.0386 0.963125 11.6139 0.654158 10.0629C0.345191 8.5119 0.502864 6.9041 1.10726 5.44266C1.71165 3.98122 2.73564 2.7317 4.04987 1.85197C5.36409 0.972237 6.90957 0.501768 8.49106 0.5C10.613 0.506875 12.6462 1.35288 14.1466 2.85336C15.6471 4.35384 16.4931 6.38695 16.5 8.50894Z" fill="#FFC800"/>
<path id="Vector_2" d="M12.7327 7.19659C12.6781 7.02825 12.5715 6.88157 12.4283 6.77767C12.285 6.67378 12.1125 6.61803 11.9355 6.61845H9.91353L9.28771 4.69482C9.23265 4.52682 9.12592 4.38051 8.98277 4.27677C8.83961 4.17304 8.66733 4.11719 8.49054 4.11719C8.31375 4.11719 8.14148 4.17304 7.99832 4.27677C7.85516 4.38051 7.74843 4.52682 7.69337 4.69482L7.06756 6.61845H5.04484C4.86788 6.61852 4.69549 6.6746 4.55236 6.77865C4.40922 6.88269 4.30269 7.02937 4.24803 7.19767C4.19336 7.36597 4.19337 7.54725 4.24804 7.71555C4.30271 7.88384 4.40924 8.03052 4.55238 8.13456L6.21675 9.34447L5.54996 11.8522C5.50594 12.0195 5.51474 12.1964 5.57514 12.3585C5.63554 12.5206 5.7446 12.6601 5.88737 12.7579C6.03014 12.8556 6.19963 12.9068 6.37263 12.9044C6.54563 12.9021 6.71368 12.8463 6.85374 12.7447L8.49054 11.5564L10.1273 12.7455C10.2675 12.8473 10.4358 12.9032 10.609 12.9055C10.7822 12.9079 10.9519 12.8565 11.0947 12.7586C11.2376 12.6606 11.3467 12.5208 11.4069 12.3584C11.4671 12.196 11.4756 12.0189 11.4311 11.8515L10.7643 9.34447L12.4287 8.13531C12.5722 8.03132 12.679 7.88449 12.7338 7.71593C12.7885 7.54738 12.7884 7.3658 12.7334 7.19733L12.7327 7.19659Z" fill="#B5461D"/>
</g>
</g>
</svg>
