<svg width="16" height="16" viewBox="0 0 16 16" fill="none" xmlns="http://www.w3.org/2000/svg">
<g id="Group">
<g id="Layer 2">
<path id="Vector" d="M16 8.00894C15.9982 9.59043 15.5278 11.1359 14.648 12.4501C13.7683 13.7644 12.5188 14.7884 11.0573 15.3927C9.5959 15.9971 7.9881 16.1548 6.43709 15.8458C4.88607 15.5369 3.46143 14.7751 2.34315 13.6569C1.22487 12.5386 0.463125 11.1139 0.154158 9.56291C-0.154809 8.0119 0.00286431 6.4041 0.607257 4.94266C1.21165 3.48122 2.23564 2.2317 3.54987 1.35197C4.86409 0.472237 6.40957 0.00176834 7.99106 0C10.113 0.00687528 12.1462 0.85288 13.6466 2.35336C15.1471 3.85384 15.9931 5.88695 16 8.00894Z" fill="#FFC800"/>
<path id="Vector_2" d="M12.2327 6.69659C12.1781 6.52825 12.0715 6.38157 11.9283 6.27767C11.785 6.17378 11.6125 6.11803 11.4355 6.11845H9.41353L8.78771 4.19482C8.73265 4.02682 8.62592 3.88051 8.48277 3.77677C8.33961 3.67304 8.16733 3.61719 7.99054 3.61719C7.81375 3.61719 7.64148 3.67304 7.49832 3.77677C7.35516 3.88051 7.24843 4.02682 7.19337 4.19482L6.56756 6.11845H4.54484C4.36788 6.11852 4.19549 6.1746 4.05236 6.27865C3.90922 6.38269 3.80269 6.52937 3.74803 6.69767C3.69336 6.86597 3.69337 7.04725 3.74804 7.21555C3.80271 7.38384 3.90924 7.53052 4.05238 7.63456L5.71675 8.84447L5.04996 11.3522C5.00594 11.5195 5.01474 11.6964 5.07514 11.8585C5.13554 12.0206 5.2446 12.1601 5.38737 12.2579C5.53014 12.3556 5.69963 12.4068 5.87263 12.4044C6.04563 12.4021 6.21368 12.3463 6.35374 12.2447L7.99054 11.0564L9.62735 12.2455C9.76751 12.3473 9.93575 12.4032 10.109 12.4055C10.2822 12.4079 10.4519 12.3565 10.5947 12.2586C10.7376 12.1606 10.8467 12.0208 10.9069 11.8584C10.9671 11.696 10.9756 11.5189 10.9311 11.3515L10.2643 8.84447L11.9287 7.63531C12.0722 7.53132 12.179 7.38449 12.2338 7.21593C12.2885 7.04738 12.2884 6.8658 12.2334 6.69733L12.2327 6.69659Z" fill="#B5461D"/>
</g>
</g>
</svg>
