<svg width="8" height="12" viewBox="0 0 8 12" fill="none" xmlns="http://www.w3.org/2000/svg">
<g id="Group">
<path id="Vector" d="M3.41525 5.79626L7.03125 2.1801C7.21498 1.99655 7.30664 1.77206 7.30664 1.50665C7.30664 1.24127 7.21496 1.01688 7.03125 0.833361L6.47331 0.275233C6.28986 0.0917617 6.06534 0 5.80004 0C5.53474 0 5.31032 0.0917617 5.12659 0.275233L0.275363 5.11908C0.0917878 5.30263 0 5.5271 0 5.79253C0 6.05797 0.0917618 6.28225 0.275363 6.46588L5.12656 11.3097C5.3103 11.4933 5.53468 11.585 5.80001 11.585C6.06534 11.585 6.28983 11.4933 6.47328 11.3097L7.03123 10.7517C7.21496 10.5683 7.30661 10.345 7.30661 10.082C7.30661 9.81918 7.21493 9.59346 7.03123 9.40499L3.41525 5.79626Z" fill="#FEBE10"/>
</g>
</svg>
