<svg width="14" height="13" viewBox="0 0 14 13" fill="none" xmlns="http://www.w3.org/2000/svg">
<g id="Group">
<path id="Vector" d="M11.2917 0.78125H2.71007C1.94483 0.78125 1.32227 1.40381 1.32227 2.16905V5.25994C1.32227 5.48601 1.50555 5.6693 1.73163 5.6693H12.2702C12.4962 5.6693 12.6795 5.48601 12.6795 5.25994V2.16908C12.6795 1.40384 12.0569 0.78125 11.2917 0.78125Z" fill="#B5461D"/>
<path id="Vector_2" d="M5.80619 3.21094H3.60343C3.09837 3.21094 2.6875 3.62183 2.6875 4.12687V4.75124C2.6875 5.25628 3.09837 5.66717 3.60343 5.66717H5.80619C6.31126 5.66717 6.72213 5.25628 6.72213 4.75124V4.12687C6.72213 3.62183 6.31123 3.21094 5.80619 3.21094Z" fill="#FFC800"/>
<path id="Vector_3" d="M10.3999 3.21094H8.19718C7.69212 3.21094 7.28125 3.62183 7.28125 4.12687V4.75124C7.28125 5.25628 7.69212 5.66717 8.19718 5.66717H10.3999C10.905 5.66717 11.3159 5.25628 11.3159 4.75124V4.12687C11.3159 3.62183 10.905 3.21094 10.3999 3.21094Z" fill="#FFC800"/>
<path id="Vector_4" d="M1.28046 12.2212C1.05438 12.2212 0.871094 12.0379 0.871094 11.8119V11.0344C0.871094 10.8083 1.05438 10.625 1.28046 10.625C1.50654 10.625 1.68982 10.8083 1.68982 11.0344V11.8119C1.68982 12.0379 1.50654 12.2212 1.28046 12.2212Z" fill="#FFC800"/>
<path id="Vector_5" d="M12.718 12.2212C12.4919 12.2212 12.3086 12.0379 12.3086 11.8119V11.0344C12.3086 10.8083 12.4919 10.625 12.718 10.625C12.944 10.625 13.1273 10.8083 13.1273 11.0344V11.8119C13.1273 12.0379 12.944 12.2212 12.718 12.2212Z" fill="#FFC800"/>
<path id="Vector_6" d="M11.9157 4.85156H2.08461C1.31206 4.85156 0.683594 5.48006 0.683594 6.25257V6.89843C0.683594 7.12451 0.866879 7.3078 1.09296 7.3078H12.9073C13.1334 7.3078 13.3167 7.12451 13.3167 6.89843V6.25257C13.3167 5.48006 12.6882 4.85156 11.9157 4.85156Z" fill="#FFC800"/>
<path id="Vector_7" d="M13.0834 6.49219H0.916645C0.411195 6.49219 0 6.90338 0 7.40883V10.5286C0 11.0341 0.411195 11.4453 0.916645 11.4453H13.0834C13.5888 11.4453 14 11.0341 14 10.5286V7.40883C14 6.90338 13.5888 6.49219 13.0834 6.49219Z" fill="#B5461D"/>
</g>
</svg>
