<svg width="16" height="16" viewBox="0 0 16 16" fill="none" xmlns="http://www.w3.org/2000/svg">
<g clip-path="url(#clip0_4668_56647)">
<rect x="3" y="2.76562" width="10" height="5" fill="white"/>
<circle cx="4" cy="11.375" r="2" fill="#FEBE10"/>
<circle cx="12" cy="11.375" r="2" fill="#FEBE10"/>
<path d="M8.00249 0C4.28035 0 1.26562 0.421066 1.26562 3.36841V11.7895C1.26562 12.5347 1.59405 13.1958 2.10772 13.6589V15.1579C2.10772 15.6211 2.48667 16 2.94981 16H3.79194C4.25931 16 4.63404 15.6211 4.63404 15.1579V14.3158H11.3709V15.1579C11.3709 15.6211 11.7456 16 12.213 16H13.0551C13.5182 16 13.8972 15.6211 13.8972 15.1579V13.659C14.4108 13.1958 14.7393 12.5348 14.7393 11.7895V3.36841C14.7393 0.421066 11.7246 0 8.00249 0ZM4.21301 12.6316C3.51405 12.6316 2.94985 12.0674 2.94985 11.3684C2.94985 10.6695 3.51405 10.1053 4.21301 10.1053C4.91197 10.1053 5.47617 10.6695 5.47617 11.3684C5.47617 12.0674 4.91193 12.6316 4.21301 12.6316ZM11.792 12.6316C11.093 12.6316 10.5288 12.0674 10.5288 11.3684C10.5288 10.6695 11.093 10.1053 11.792 10.1053C12.4909 10.1053 13.0551 10.6695 13.0551 11.3684C13.0551 12.0674 12.4909 12.6316 11.792 12.6316ZM13.0551 7.57895H2.94985V3.36841H13.0551V7.57895Z" fill="#B4870B"/>
</g>
<defs>
<clipPath id="clip0_4668_56647">
<rect width="16" height="16" fill="white"/>
</clipPath>
</defs>
</svg>
