<svg width="21" height="21" viewBox="0 0 21 21" fill="none" xmlns="http://www.w3.org/2000/svg">
<g id="Calendar / Calendar">
<path id="Vector" d="M3.83203 7.16406H17.1654M3.83203 7.16406V14.4976C3.83203 15.431 3.83203 15.8974 4.01369 16.254C4.17348 16.5676 4.42826 16.8228 4.74186 16.9826C5.09803 17.1641 5.56453 17.1641 6.49612 17.1641H14.5013C15.4329 17.1641 15.8987 17.1641 16.2549 16.9826C16.5685 16.8228 16.8241 16.5676 16.9839 16.254C17.1654 15.8978 17.1654 15.432 17.1654 14.5004V7.16406M3.83203 7.16406V6.49756C3.83203 5.56414 3.83203 5.09708 4.01369 4.74056C4.17348 4.42696 4.42826 4.17217 4.74186 4.01239C5.09838 3.83073 5.56544 3.83073 6.49886 3.83073H7.16536M17.1654 7.16406V6.49482C17.1654 5.56322 17.1654 5.09673 16.9839 4.74056C16.8241 4.42696 16.5685 4.17217 16.2549 4.01239C15.8983 3.83073 15.4323 3.83073 14.4989 3.83073H13.832M13.832 2.16406V3.83073M13.832 3.83073H7.16536M7.16536 2.16406V3.83073" stroke="#A9A9A9" stroke-width="1.66667" stroke-linecap="round" stroke-linejoin="round"/>
</g>
</svg>
