<svg width="16" height="15" viewBox="0 0 16 15" fill="none" xmlns="http://www.w3.org/2000/svg">
<g id="Group">
<path id="Vector" d="M1.40787 11.3125H0.703125V13.6343C0.703125 13.9938 0.988656 14.288 1.33762 14.288H3.25206C3.60106 14.288 3.88659 13.9938 3.88659 13.6343V11.3125H1.40787ZM12.1102 11.3125V13.6343C12.1102 13.9938 12.3958 14.288 12.7448 14.288H14.6592C15.0082 14.288 15.2937 13.9938 15.2937 13.6343V11.3125H12.1102Z" fill="#FFC800"/>
<path id="Vector_2" d="M2 11.5C2 11.2239 2.22386 11 2.5 11H13.5C13.7761 11 14 11.2239 14 11.5C14 11.7761 13.7761 12 13.5 12H2.5C2.22386 12 2 11.7761 2 11.5Z" fill="#B5461D"/>
<path id="Vector_3" d="M15.5728 7.20703H14.6757V10.0144C14.8445 10.0697 14.9669 10.2241 14.9669 10.405V10.9901C14.9669 11.217 14.7744 11.4027 14.5391 11.4027H15.5922C15.8177 11.4027 16.0006 11.2263 16.0006 11.0088V7.61978C16.0006 7.39272 15.8081 7.20703 15.5728 7.20703Z" fill="#B5461D"/>
<path id="Vector_4" d="M1.06603 10.99V10.4049C1.06603 10.224 1.19237 10.0697 1.36656 10.0144V7.20703H0.44128C0.198593 7.20703 0 7.39269 0 7.61975V11.0088C0 11.2263 0.188593 11.4027 0.421374 11.4027H1.50743C1.26462 11.4027 1.06603 11.217 1.06603 10.99Z" fill="#B5461D"/>
<path id="Vector_5" d="M15.0333 3.23828H13.4141V5.05322C13.6615 5.08516 13.897 5.17835 14.0992 5.32434H15.0333C15.2663 5.32434 15.4569 5.13866 15.4569 4.91175V3.651C15.457 3.42394 15.2663 3.23828 15.0333 3.23828Z" fill="#B5461D"/>
<path id="Vector_6" d="M2.61309 5.05322V3.23828H0.97228C0.736218 3.23828 0.542969 3.42394 0.542969 3.65087V4.91175C0.542969 5.13866 0.736218 5.32434 0.97228 5.32434H1.91872C2.12427 5.17813 2.36278 5.08499 2.61303 5.05322H2.61309Z" fill="#B5461D"/>
<path id="Subtract" d="M3.17038 5.11925H12.8243C12.8834 5.11925 12.9415 5.12416 12.9986 5.13256V1.19359C12.9986 0.537094 12.5146 0 11.9233 0H4.07135C3.48004 0 2.99609 0.537125 2.99609 1.19359V5.13256C3.05386 5.12386 3.11207 5.11941 3.17038 5.11925Z" fill="#B5461D"/>
<path id="Subtract_2" d="M1.13716 10.0211L15 10.043C14.9569 10.0291 15.0481 10.043 15 10.043V6.46892C15 5.68463 14.3229 5.04297 13.495 5.04297H2.50502C1.67724 5.04297 1 5.68463 1 6.46892V10.043C1.04415 10.0286 1.09049 10.0212 1.13716 10.0211Z" fill="#B5461D"/>
<path id="Vector_7" d="M14.5899 9.99219H1.40881C1.18187 9.99219 0.996094 10.1779 0.996094 10.4048V10.9899C0.996094 11.2169 1.18187 11.4026 1.40881 11.4026H14.5899C14.8168 11.4026 15.0026 11.2169 15.0026 10.9899V10.4048C15.0026 10.1779 14.8168 9.99222 14.5899 9.99222V9.99219Z" fill="#B5461D"/>
<circle id="Ellipse 1997" cx="3.5" cy="7.05469" r="1.5" fill="#FFC800"/>
<circle id="Ellipse 1998" cx="12.5" cy="7.05469" r="1.5" fill="#FFC800"/>
<path id="Rectangle 34624931" d="M4 2C4 1.44772 4.44772 1 5 1H11C11.5523 1 12 1.44772 12 2V5H4V2Z" fill="#FFC800"/>
</g>
</svg>
