<svg width="16" height="13" viewBox="0 0 16 13" fill="none" xmlns="http://www.w3.org/2000/svg">
<g id="Group">
<rect id="Rectangle 34625053" x="3.78906" y="7" width="8.42105" height="5.47368" fill="#FFC800"/>
<path id="Vector" d="M15.1112 8.93768C15.0221 8.58292 14.8373 8.25942 14.577 8.00236L11.6366 5.09805C11.4626 4.92618 11.3216 4.72386 11.2206 4.50112L10.22 2.29469C9.80285 1.37474 8.76519 0.910269 7.80118 1.21199L5.22702 2.01765C4.58947 2.21719 4.09364 2.72188 3.90542 3.36286L3.2199 5.69742C3.06802 6.21467 2.68303 6.63115 2.1793 6.82316V6.82316C1.65323 7.02367 1.25813 7.46833 1.12087 8.01433L0.625352 9.98546C0.307869 11.2484 1.26278 12.4731 2.565 12.4731H4.80823L5.30955 10.0941C5.41495 9.59388 5.70787 9.15304 6.12815 8.86208L7.0436 8.22831C7.7425 7.74445 8.67089 7.75525 9.35836 8.25522L10.0425 8.75279C10.3581 8.98234 10.5997 9.29921 10.7375 9.66436L11.797 12.4731H13.435C14.7372 12.4731 15.6921 11.2484 15.3746 9.98546L15.1112 8.93768Z" fill="#B5461D"/>
</g>
</svg>
