<svg width="12" height="12" viewBox="0 0 12 12" fill="none" xmlns="http://www.w3.org/2000/svg">
<g id="Group">
<path id="Vector" d="M6 12C9.31371 12 12 9.31371 12 6C12 2.68629 9.31371 0 6 0C2.68629 0 0 2.68629 0 6C0 9.31371 2.68629 12 6 12Z" fill="#11906A"/>
<path id="Vector_2" d="M6.15127 7.3402C6.41626 7.60519 6.41626 8.05944 6.15127 8.32443L5.60238 8.87332C5.33739 9.13831 4.88313 9.13831 4.61815 8.87332L2.21436 6.45061C1.94938 6.18563 1.94938 5.73137 2.21436 5.46638L2.76326 4.91749C3.02824 4.6525 3.4825 4.6525 3.74749 4.91749L6.15127 7.3402Z" fill="white"/>
<path id="Vector_3" d="M8.2534 3.15968C8.51838 2.89469 8.97264 2.89469 9.23763 3.15968L9.78652 3.70857C10.0515 3.97356 10.0515 4.42781 9.78652 4.6928L5.62249 8.83791C5.3575 9.10289 4.90324 9.10289 4.63826 8.83791L4.08936 8.28901C3.82438 8.02403 3.82438 7.56977 4.08936 7.30479L8.2534 3.15968Z" fill="white"/>
</g>
</svg>
