<svg width="12" height="12" viewBox="0 0 12 12" fill="none" xmlns="http://www.w3.org/2000/svg">
<g id="Group">
<rect id="Rectangle 34624937" x="1.5" y="2" width="9" height="9" rx="4.5" fill="#FFC800"/>
<path id="Vector" d="M11.1405 5.4815C11.1975 4.9895 11.25 4.429 11.25 4.0435C11.25 1.28 8.03 0.25 6 0.25C4.683 0.25 3.7325 0.9565 3.413 1.231C2.413 1.2885 0.75 1.925 0.75 4.0435C0.75 4.4345 0.802 4.9925 0.8585 5.482C0.605415 5.58386 0.388503 5.75895 0.235554 5.98486C0.0826048 6.21076 0.000584079 6.47719 0 6.75C0.00103959 7.09547 0.132321 7.42783 0.36764 7.68076C0.602959 7.93369 0.925006 8.08858 1.2695 8.1145C1.947 10.081 3.8095 11.5 6 11.5C8.1905 11.5 10.053 10.0815 10.7305 8.1145C11.075 8.08858 11.397 7.93369 11.6324 7.68076C11.8677 7.42783 11.999 7.09547 12 6.75C11.9994 6.47699 11.9173 6.21037 11.7642 5.98435C11.611 5.75834 11.3939 5.58323 11.1405 5.4815ZM10.0875 7.6635L10.0865 7.666V7.6675C9.5735 9.445 7.9375 10.75 6 10.75C3.8875 10.75 2.1345 9.1985 1.8045 7.1745L2.3035 5.429C2.749 5.2875 3.747 4.887 4.184 4.0415C4.8565 4.677 6.3635 5.457 9.717 5.4985L10.196 7.172C10.1696 7.33784 10.1334 7.50196 10.0875 7.6635Z" fill="#B5461D"/>
</g>
</svg>
