<svg width="149" height="152" viewBox="0 0 149 152" fill="none" xmlns="http://www.w3.org/2000/svg">
<g id="Group">
<g id="a">
<g id="Group_2" style="mix-blend-mode:multiply">
<path id="Vector" fill-rule="evenodd" clip-rule="evenodd" d="M11.4231 99.0271C11.298 99.0611 11.1275 99.1519 11.082 99.2654C11.0138 99.4696 11.0138 99.7079 10.9684 100.173C10.6955 100.774 11.3663 101.33 11.6277 102.011C11.6618 102.091 11.9574 102.181 12.0142 102.125C12.5826 101.637 13.1283 101.126 13.6512 100.593C13.7308 100.513 13.7308 100.275 13.674 100.173C13.1283 99.4015 12.5144 98.7434 11.4345 99.0157L11.4231 99.0271Z" fill="#5FB01C"/>
<path id="Vector_2" fill-rule="evenodd" clip-rule="evenodd" d="M9.11507 101.161C8.96728 100.651 8.55803 100.299 7.93278 100.378C7.79636 100.424 7.63721 100.435 7.53489 100.526C7.50079 100.56 7.54626 100.787 7.62584 100.855C8.09193 101.275 8.38751 101.74 8.25109 102.409C8.19425 102.693 8.22835 102.999 8.27382 103.294C8.28519 103.397 8.46708 103.533 8.59213 103.533C9.16054 103.578 9.79716 102.818 9.51295 102.387C9.24012 101.99 9.24012 101.581 9.11507 101.173V101.161Z" fill="#5FB01C"/>
<path id="Vector_3" fill-rule="evenodd" clip-rule="evenodd" d="M16.6188 105.779C16.5052 105.632 16.3801 105.371 16.13 105.507C15.9481 105.609 15.6753 105.938 15.698 105.972C16.0845 106.494 15.5275 106.891 15.573 107.356C15.573 107.413 15.6526 107.47 15.7321 107.572C15.8913 107.481 16.0618 107.379 16.2323 107.288C17.0622 106.823 17.1531 106.471 16.6188 105.779Z" fill="#5FB01C"/>
<path id="Vector_4" fill-rule="evenodd" clip-rule="evenodd" d="M6.72777 94.1588C6.64819 94.1361 6.45494 94.2722 6.44357 94.3517C6.39809 94.5672 6.4322 94.7942 6.4322 95.0211H6.47767C6.47767 95.3161 6.45494 95.6225 6.47767 95.9175C6.50041 96.1104 6.63683 96.1784 6.75051 96.1104C7.15976 95.8494 7.38712 95.4976 7.35302 94.9984C7.33028 94.6921 7.03471 94.2268 6.72777 94.1588Z" fill="#5FB01C"/>
<path id="Vector_5" fill-rule="evenodd" clip-rule="evenodd" d="M43.7448 124.779C43.7448 124.779 43.7448 124.655 43.6994 124.609C43.2219 123.974 42.483 123.86 41.8577 123.531C41.7213 123.735 41.5962 123.838 41.5735 123.962C41.5621 124.087 41.6303 124.314 41.7099 124.325C41.8918 124.371 42.0737 124.428 42.2442 124.473C42.3238 124.575 42.4148 124.666 42.5625 124.757C42.6194 124.689 42.5966 124.621 42.5625 124.564C42.8354 124.655 43.0968 124.757 43.3469 124.904C43.4265 124.95 43.6084 124.825 43.7335 124.768L43.7448 124.779Z" fill="#5FB01C"/>
<path id="Vector_6" fill-rule="evenodd" clip-rule="evenodd" d="M10.2296 104.484C9.97952 104.405 9.64984 104.643 9.62711 104.938C9.57027 105.483 9.71805 105.778 10.0591 105.8C10.2978 105.823 10.8662 105.437 10.9117 105.222C10.9685 105.029 10.5707 104.598 10.2296 104.484Z" fill="#5FB01C"/>
<path id="Vector_7" fill-rule="evenodd" clip-rule="evenodd" d="M14.562 102.886C14.562 102.886 14.4597 102.795 14.4142 102.75C14.3687 102.807 14.2778 102.863 14.2778 102.92C14.2664 103.499 14.2551 104.066 14.2664 104.645C14.2664 104.702 14.3346 104.804 14.3801 104.815C14.4256 104.826 14.5052 104.758 14.562 104.713C15.1418 104.248 15.1645 104.134 14.8007 103.465C14.6984 103.283 14.6416 103.068 14.5506 102.875L14.562 102.886Z" fill="#5FB01C"/>
<path id="Vector_8" fill-rule="evenodd" clip-rule="evenodd" d="M11.869 97.4643C11.869 97.4076 11.7781 97.2941 11.7326 97.3055C11.3916 97.3395 11.0051 97.8955 11.0505 98.2926C11.0505 98.3607 11.1415 98.4174 11.187 98.4742C11.4939 98.4288 11.9145 97.8274 11.869 97.4643Z" fill="#5FB01C"/>
<path id="Vector_9" fill-rule="evenodd" clip-rule="evenodd" d="M11.9931 106.991C11.9363 107.184 11.8453 107.377 12.084 107.536C12.175 107.479 12.3683 107.4 12.3569 107.366C12.3 107.184 12.2091 107.014 12.1295 106.844C12.084 106.889 12.0045 106.935 11.9931 106.991Z" fill="#5FB01C"/>
<path id="Vector_10" fill-rule="evenodd" clip-rule="evenodd" d="M48.3797 135.362C48.5048 135.362 48.6412 135.26 48.7662 135.203C48.6412 135.147 48.5161 135.033 48.3911 135.033C48.357 135.033 48.3229 135.056 48.2774 135.067C48.0614 134.942 47.7772 134.818 47.709 134.942C47.8227 135.01 47.8681 135.09 47.8113 135.181C47.9705 135.249 48.1182 135.294 48.2319 135.305C48.2888 135.328 48.3342 135.362 48.3911 135.362H48.3797Z" fill="#5FB01C"/>
<path id="Vector_11" fill-rule="evenodd" clip-rule="evenodd" d="M22.5759 31.7893C22.4963 31.8347 22.4736 31.9709 22.4395 32.0844C22.5531 32.0503 22.6782 32.039 22.735 31.9595C22.826 31.8461 22.7123 31.7099 22.5872 31.7893H22.5759Z" fill="#5FB01C"/>
<path id="Vector_12" fill-rule="evenodd" clip-rule="evenodd" d="M22.4413 32.0781C22.4413 32.0781 22.3945 32.0781 22.3828 32.0898V32.1363H22.4296C22.4296 32.1363 22.4413 32.0898 22.453 32.0781H22.4413Z" fill="#5FB01C"/>
<path id="Vector_13" fill-rule="evenodd" clip-rule="evenodd" d="M22.0888 32.4286C22.1001 32.4853 22.2593 32.508 22.373 32.5534C22.373 32.4172 22.373 32.2924 22.373 32.1562C22.2138 32.1789 22.0319 32.2016 22.0888 32.4399V32.4286Z" fill="#5FB01C"/>
<path id="Vector_14" fill-rule="evenodd" clip-rule="evenodd" d="M22.3711 32.5469V32.6051H22.3945C22.3945 32.6051 22.3945 32.5702 22.4062 32.5585C22.3945 32.5585 22.3711 32.5585 22.3594 32.5469H22.3711Z" fill="#5FB01C"/>
<path id="Vector_15" fill-rule="evenodd" clip-rule="evenodd" d="M7.0355 45.0079C7.0355 45.0079 7.01276 45.144 7.0355 45.1554C7.12644 45.2008 7.22875 45.2348 7.3197 45.2689C7.29696 45.1214 7.2856 44.9625 7.0355 45.0079Z" fill="#5FB01C"/>
<path id="Vector_16" fill-rule="evenodd" clip-rule="evenodd" d="M7.32031 45.2656C7.32031 45.2656 7.32031 45.3225 7.33171 45.3453C7.35451 45.3453 7.3773 45.3453 7.4001 45.3453C7.4001 45.3225 7.3887 45.3111 7.3887 45.2884C7.3659 45.2884 7.35451 45.277 7.33171 45.2656H7.32031Z" fill="#5FB01C"/>
<path id="Vector_17" fill-rule="evenodd" clip-rule="evenodd" d="M5.2955 48.44L5.45465 48.2925C5.37507 48.0769 5.26139 48.0655 5.15908 48.2811C5.14771 48.3038 5.25002 48.3946 5.2955 48.44Z" fill="#5FB01C"/>
<path id="Vector_18" fill-rule="evenodd" clip-rule="evenodd" d="M3.86528 50.4637C3.80844 50.4751 3.77434 50.6339 3.74023 50.7474C3.86528 50.7474 4.0017 50.7474 4.12675 50.7474C4.09265 50.5886 4.08128 50.407 3.86528 50.4637Z" fill="#5FB01C"/>
<path id="Vector_19" fill-rule="evenodd" clip-rule="evenodd" d="M3.28416 51.2031H3.22656C3.22656 51.2031 3.22656 51.249 3.22656 51.2833C3.2496 51.2833 3.27264 51.2604 3.29568 51.2604C3.29568 51.2375 3.29568 51.226 3.29568 51.2146L3.28416 51.2031Z" fill="#5FB01C"/>
<path id="Vector_20" fill-rule="evenodd" clip-rule="evenodd" d="M3.67914 50.8082C3.4404 50.8423 3.30399 50.9671 3.28125 51.2053C3.41767 51.2053 3.54272 51.2053 3.67914 51.2053C3.67914 51.0692 3.67914 50.933 3.67914 50.7969V50.8082Z" fill="#5FB01C"/>
<path id="Vector_21" fill-rule="evenodd" clip-rule="evenodd" d="M3.21653 51.2812C3.12559 51.3153 3.03464 51.3493 2.9437 51.3947C2.92096 51.3947 2.9437 51.5309 2.9437 51.5309C3.17106 51.5649 3.1938 51.4288 3.20517 51.2812H3.21653Z" fill="#5FB01C"/>
<path id="Vector_22" fill-rule="evenodd" clip-rule="evenodd" d="M29.9317 121.667C29.9317 121.667 30.0567 121.588 30.0567 121.542C30.0567 121.497 29.9885 121.452 29.9431 121.406L29.8066 121.599L29.9203 121.667H29.9317Z" fill="#5FB01C"/>
<path id="Vector_23" fill-rule="evenodd" clip-rule="evenodd" d="M37.0576 123.798C37.1258 123.968 37.2281 124.002 37.3077 123.889C37.3304 123.855 37.3077 123.798 37.3191 123.741C37.2736 123.719 37.2168 123.662 37.194 123.673C37.1372 123.696 37.0462 123.775 37.0576 123.798Z" fill="#5FB01C"/>
<path id="Vector_24" fill-rule="evenodd" clip-rule="evenodd" d="M45.2773 134.273C45.2773 134.273 45.3569 134.375 45.391 134.42L45.5502 134.284L45.4138 134.125C45.4138 134.125 45.2887 134.216 45.2773 134.261V134.273Z" fill="#5FB01C"/>
<path id="Vector_25" fill-rule="evenodd" clip-rule="evenodd" d="M53.7589 135.191C53.7589 135.191 53.668 135.044 53.6452 135.055C53.4406 135.123 53.4292 135.237 53.6225 135.339C53.6339 135.339 53.7134 135.248 53.7589 135.203V135.191Z" fill="#5FB01C"/>
<path id="Vector_26" fill-rule="evenodd" clip-rule="evenodd" d="M127.312 19.4153C127.539 19.0409 127.414 18.519 126.891 17.9062C126.493 18.2239 127.244 18.9161 127.312 19.4153Z" fill="#5FB01C"/>
<path id="Vector_27" fill-rule="evenodd" clip-rule="evenodd" d="M75.5277 0.610851C74.6182 0.531426 76.6304 0.372577 75.5504 0.179688C75.5731 0.497387 74.6409 0.20238 74.2544 0.270459C74.0612 0.622198 75.323 0.928551 75.5277 0.610851Z" fill="#5FB01C"/>
<path id="Vector_28" fill-rule="evenodd" clip-rule="evenodd" d="M45.5861 3.21875C44.9267 3.43433 44.8585 3.72934 45.0631 4.04704C45.7225 3.83146 45.7907 3.53645 45.5861 3.21875Z" fill="#5FB01C"/>
<path id="Vector_29" fill-rule="evenodd" clip-rule="evenodd" d="M84.7705 1.29414C84.2931 1.33953 83.9634 1.49838 83.4291 1.47568C83.4404 1.15799 80.2346 0.431814 79.6094 0.942403C81.2805 1.18068 82.8038 1.37357 84.3385 1.65723C85.1116 1.79338 85.8846 1.92954 86.7031 2.0657C87.5102 2.22455 88.3401 2.39474 89.2382 2.57629C88.8858 2.0657 88.0332 1.90685 87.1351 1.78204C86.237 1.66857 85.3048 1.64588 84.7591 1.29414H84.7705Z" fill="#5FB01C"/>
<path id="Vector_30" fill-rule="evenodd" clip-rule="evenodd" d="M78.938 0.0091864C78.074 -0.0702385 78.0058 0.394965 77.0964 0.270154C77.426 0.633239 76.3915 0.746703 77.0509 0.848821C77.3806 0.372272 78.5515 0.451697 78.938 0.0091864Z" fill="#5FB01C"/>
<path id="Vector_31" fill-rule="evenodd" clip-rule="evenodd" d="M3.80691 50.0912C4.06838 49.036 4.39805 48.3779 4.63678 47.7992C4.45489 47.7538 4.18206 48.3779 3.9888 48.9906C3.78417 49.6033 3.7387 50.216 3.80691 50.0912Z" fill="#5FB01C"/>
<path id="Vector_32" fill-rule="evenodd" clip-rule="evenodd" d="M38.3102 18.5608C38.7081 18.2885 38.8786 18.5041 39.322 18.1637C39.2651 17.8347 38.0487 18.3339 38.3102 18.5608Z" fill="#5FB01C"/>
<path id="Vector_33" fill-rule="evenodd" clip-rule="evenodd" d="M93.0352 5.57831L93.8309 5.85062C94.0469 5.46484 93.092 5.26061 93.0352 5.57831Z" fill="#5FB01C"/>
<path id="Vector_34" fill-rule="evenodd" clip-rule="evenodd" d="M96.5729 2.43815C96.4592 2.30199 95.5611 1.85948 95.3906 2.01833C95.8567 2.09776 96.2205 2.61969 96.5729 2.43815Z" fill="#5FB01C"/>
<path id="Vector_35" fill-rule="evenodd" clip-rule="evenodd" d="M97.2549 6.76931C96.7661 6.57642 96.3568 6.48565 96.084 6.55373C96.4705 6.6218 97.2549 7.16643 97.2549 6.76931Z" fill="#5FB01C"/>
<path id="Vector_36" fill-rule="evenodd" clip-rule="evenodd" d="M99.346 6.57044C99.5506 6.45697 99.1982 6.24139 98.8685 6.11658C98.5275 6.01446 98.2319 6.00312 98.5616 6.23004C98.8003 6.01446 98.914 6.50236 99.346 6.57044Z" fill="#5FB01C"/>
<path id="Vector_37" fill-rule="evenodd" clip-rule="evenodd" d="M99.6523 6.7035C100.323 7.06659 100.482 6.94178 100.891 7.28217C101.13 7.00985 99.6751 6.45388 99.6523 6.7035Z" fill="#5FB01C"/>
<path id="Vector_38" fill-rule="evenodd" clip-rule="evenodd" d="M107.721 10.4932C107.392 10.2095 107.255 10.2095 107.119 9.80105C107.051 9.91451 106.812 9.72162 106.732 9.80105C106.835 9.98259 107.369 10.5953 107.721 10.4932Z" fill="#5FB01C"/>
<path id="Vector_39" fill-rule="evenodd" clip-rule="evenodd" d="M112.555 3.85529C112.146 3.6851 111.35 2.93623 111.305 3.33336C111.782 3.59433 112.396 4.07088 112.555 3.85529Z" fill="#5FB01C"/>
<path id="Vector_40" fill-rule="evenodd" clip-rule="evenodd" d="M112.248 15.4062C112.748 15.792 113.158 16.1778 113.487 16.5522C113.578 16.2799 112.612 15.4403 112.248 15.4062Z" fill="#5FB01C"/>
<path id="Vector_41" fill-rule="evenodd" clip-rule="evenodd" d="M119.365 15.4765C119.718 15.7715 120.036 15.9984 120.286 16.0438C120.15 15.6807 119.593 15.4198 119.365 15.4765Z" fill="#5FB01C"/>
<path id="Vector_42" fill-rule="evenodd" clip-rule="evenodd" d="M121.285 20.9531C120.944 20.6013 120.364 20.2155 120.535 20C120.796 20.1588 121.205 20.7602 121.364 20.624C120.773 19.5801 119.386 19.3078 118.363 18.5703C118.875 19.3646 120.603 20.624 121.285 20.9531Z" fill="#5FB01C"/>
<path id="Vector_43" fill-rule="evenodd" clip-rule="evenodd" d="M133.791 26.1101C134.109 26.5526 134.45 26.337 134.405 26.1101L134.064 25.6562C133.836 25.7357 134.109 26.0534 133.791 26.0988V26.1101Z" fill="#5FB01C"/>
<path id="Vector_44" fill-rule="evenodd" clip-rule="evenodd" d="M136.918 34.4665C136.111 33.7176 136.361 33.2297 135.599 32.4922C135.554 32.8326 136.497 34.7501 136.918 34.4665Z" fill="#5FB01C"/>
<path id="Vector_45" fill-rule="evenodd" clip-rule="evenodd" d="M140.702 41.9796C140.849 41.9002 140.986 41.8889 141.122 41.991C140.611 41.0719 140.474 40.2209 139.906 39.5175C139.974 39.8238 139.349 39.4153 139.156 38.8594C139.065 38.9388 138.894 38.9501 138.974 39.1544C139.622 40.2436 140.508 40.4252 140.702 41.9796Z" fill="#5FB01C"/>
<path id="Vector_46" fill-rule="evenodd" clip-rule="evenodd" d="M141.52 41.4114L141.861 42.2738C142.236 42.4213 141.69 41.0257 141.52 41.4114Z" fill="#5FB01C"/>
<path id="Vector_47" fill-rule="evenodd" clip-rule="evenodd" d="M141.283 43.7424C141.408 43.6516 141.635 43.6629 141.578 43.4247C141.067 43.5949 141.578 42.4035 141.01 42.4716C141.123 42.9254 141.158 43.0729 141.294 43.7424H141.283Z" fill="#5FB01C"/>
<path id="Vector_48" fill-rule="evenodd" clip-rule="evenodd" d="M135.551 112.734C135.221 112.927 135.381 113.188 134.926 113.676C135.051 114.062 135.744 113.699 135.676 113.268C135.528 113.438 135.346 113.563 135.187 113.631C135.13 113.461 135.687 112.893 135.54 112.746L135.551 112.734Z" fill="#5FB01C"/>
<path id="Vector_49" fill-rule="evenodd" clip-rule="evenodd" d="M107.018 138.314C107.723 137.871 108.45 137.542 108.371 137.281C107.859 137.815 106.904 137.962 106.586 138.314C106.791 138.223 106.995 138.144 107.018 138.314Z" fill="#5FB01C"/>
<path id="Vector_50" fill-rule="evenodd" clip-rule="evenodd" d="M89.5799 144.936C90.0006 144.8 90.3416 144.63 90.4212 144.414C89.9437 144.539 89.2503 144.63 89.5799 144.936Z" fill="#5FB01C"/>
<path id="Vector_51" fill-rule="evenodd" clip-rule="evenodd" d="M72.9926 147.746C71.5943 147.939 70.9008 147.871 69.7754 147.939C70.7076 148.143 71.9922 148.29 72.8221 147.939C72.481 147.905 72.9016 147.836 73.0039 147.734L72.9926 147.746Z" fill="#5FB01C"/>
<path id="Vector_52" fill-rule="evenodd" clip-rule="evenodd" d="M71.082 147.125C71.4913 146.921 72.1961 146.796 72.5599 146.523C71.6959 146.626 71.2526 146.58 71.082 147.125Z" fill="#5FB01C"/>
<path id="Vector_53" fill-rule="evenodd" clip-rule="evenodd" d="M69.5839 147.173C69.9704 146.946 70.3569 147.524 70.9026 147.218C70.9253 146.98 70.8003 146.821 70.5161 146.719C70.0045 146.821 69.5157 146.946 68.8336 146.946C68.9927 147.297 68.8563 147.184 69.0155 147.524C68.7085 147.479 68.5039 147.638 68.8222 147.706C69.0609 147.456 69.9363 147.536 70.1409 147.275C69.9136 147.252 69.6066 147.275 69.5725 147.161L69.5839 147.173Z" fill="#5FB01C"/>
<path id="Vector_54" fill-rule="evenodd" clip-rule="evenodd" d="M66.5254 148.102C67.4689 148.692 66.5709 148.227 67.2871 148.136C67.7304 148.079 68.367 148.352 68.6285 148C67.7531 148.091 67.3212 147.909 66.5254 148.102Z" fill="#5FB01C"/>
<path id="Vector_55" fill-rule="evenodd" clip-rule="evenodd" d="M60.625 147.539C61.2616 147.596 62.8986 147.777 62.7281 147.63C61.8755 147.505 61.1025 147.426 60.625 147.539Z" fill="#5FB01C"/>
<path id="Vector_56" fill-rule="evenodd" clip-rule="evenodd" d="M58.0885 146.289C58.5546 146.346 58.691 146.199 59.0321 146.426C59.2708 146.074 57.9635 145.87 58.0885 146.289Z" fill="#5FB01C"/>
<path id="Vector_57" fill-rule="evenodd" clip-rule="evenodd" d="M56.2934 144.442C56.93 144.442 57.0664 144.635 57.4074 144.533C57.2824 144.431 56.1797 144.079 56.2934 144.442Z" fill="#5FB01C"/>
<path id="Vector_58" fill-rule="evenodd" clip-rule="evenodd" d="M54.1328 133.618C54.6216 133.743 55.1105 134.094 55.5425 133.969L55.6107 133.686C54.9741 133.527 54.6557 133.674 54.1328 133.618Z" fill="#5FB01C"/>
<path id="Vector_59" fill-rule="evenodd" clip-rule="evenodd" d="M46.7207 135.186C47.3005 135.254 47.5619 135.538 47.8803 135.492C47.7666 135.424 47.7211 135.345 47.7779 135.254C47.2891 135.072 46.7434 134.823 46.7207 135.186Z" fill="#5FB01C"/>
<path id="Vector_60" fill-rule="evenodd" clip-rule="evenodd" d="M43.0859 136.901C43.2565 137.003 43.3019 137.116 43.336 137.23C44.1318 137.309 44.3819 137.411 44.9731 137.423C44.2455 137.082 44.1318 137.15 43.6771 136.844C43.8021 137.275 43.0973 136.663 43.0859 136.901Z" fill="#5FB01C"/>
<path id="Vector_61" fill-rule="evenodd" clip-rule="evenodd" d="M40.4824 124.809C40.9599 125.036 41.21 125.274 41.5056 125.512C41.8239 124.775 42.6083 126.329 43.1085 125.762C42.756 125.671 41.9603 125.49 42.2217 125.127C42.8129 125.081 43.5518 126.023 43.7223 125.524C42.7902 125.183 42.1876 124.945 41.5965 124.344C41.9716 125.07 41.0508 124.48 41.3691 125.104C41.0622 124.99 40.5165 124.423 40.4824 124.809Z" fill="#5FB01C"/>
<path id="Vector_62" fill-rule="evenodd" clip-rule="evenodd" d="M23.8824 123.984C23.4504 124.234 24.0529 124.665 24.4167 124.722C23.9619 124.416 24.3257 124.291 23.8824 123.984Z" fill="#5FB01C"/>
<path id="Vector_63" fill-rule="evenodd" clip-rule="evenodd" d="M17.9608 121.437C18.4497 121.584 17.3242 120.234 16.9832 120.109C16.9832 120.529 16.8013 120.892 16.9832 121.38C17.2333 121.335 17.4265 121.085 17.7676 121.38C17.8131 121.607 18.9158 122.957 19.0863 122.628C18.7907 122.152 18.3815 121.857 17.9608 121.437Z" fill="#5FB01C"/>
<path id="Vector_64" fill-rule="evenodd" clip-rule="evenodd" d="M45.4824 128.804C45.4824 128.804 45.5056 128.804 45.5172 128.804L45.494 128.781L45.4824 128.804Z" fill="#5FB01C"/>
<path id="Vector_65" fill-rule="evenodd" clip-rule="evenodd" d="M79.3828 142.816V142.895C79.6898 142.827 79.9853 142.748 80.2695 142.68C79.974 142.725 79.6784 142.77 79.3828 142.816Z" fill="#5FB01C"/>
<path id="Vector_66" fill-rule="evenodd" clip-rule="evenodd" d="M148.944 70.0783C148.819 68.0133 148.694 65.9823 148.58 64.0193C148.546 63.5314 148.512 63.0435 148.478 62.567C148.41 62.0904 148.353 61.6139 148.285 61.1487C148.148 60.2183 148.023 59.3106 147.898 58.4369C147.432 57.7334 147.512 55.0783 146.602 54.477C146.557 53.4218 146.546 53.0473 146.091 52.0829C146.716 52.3552 145.841 50.9483 146.307 51.039C145.886 50.2561 146.057 49.1442 145.613 48.8719C145.829 50.0292 146.284 50.6759 145.932 51.1411C145.761 50.0405 145.193 48.9853 145.409 48.1343C145.079 47.3174 144.136 45.9218 144.261 45.1275C143.817 45.1956 143.988 44.1404 143.556 43.7887C143.374 43.7887 143.431 44.1404 143.294 43.9021C142.851 43.2894 142.908 42.2796 142.487 41.803C142.555 42.0186 142.624 42.2229 142.442 42.2342C142.169 41.7236 142.396 41.6555 142.123 41.1449C141.805 41.213 142.271 41.9619 142.26 42.3136C142.68 42.5519 143.465 44.5602 143.34 44.9006C142.965 44.356 142.669 44.2539 142.726 43.539C142.43 43.5163 142.68 43.9589 142.499 44.0383C142.715 44.617 143.01 44.5148 143.226 45.1502C142.942 45.1275 142.703 44.7871 142.43 44.6623C142.635 45.2977 142.965 44.9914 143.181 45.57C143.078 45.797 142.692 45.1616 142.817 45.7062C142.896 45.7629 142.953 45.831 142.987 45.9104C142.93 45.9218 142.874 45.9331 142.817 45.9558C142.703 46.0126 142.578 46.0806 142.464 46.1374C142.487 46.0579 142.533 46.0012 142.612 45.9672C142.317 45.4906 142.373 45.3885 142.317 44.8893C142.101 44.98 142.271 45.7629 142.396 46.1714C142.146 46.3076 141.896 46.4324 141.635 46.5572C141.612 46.5572 141.566 46.5345 141.521 46.4891C141.475 46.3189 141.419 46.1601 141.362 45.9899C141.35 45.797 141.316 45.6041 141.134 45.4566C140.918 44.946 140.748 44.4468 140.975 44.061C140.373 43.766 139.679 41.44 139.759 40.8159C139.531 40.8613 139.27 40.5549 139.043 40.1918C139.043 40.0557 139.043 39.9309 139.065 39.7947C139.088 39.6132 138.94 39.5451 138.747 39.5905C138.611 39.2501 138.554 38.9778 138.633 38.9324C138.349 38.6714 138.076 38.3991 137.792 38.1041C137.701 37.8772 137.61 37.6503 137.508 37.4233C137.531 37.4233 137.553 37.4347 137.576 37.446C137.224 36.6858 136.86 35.9823 136.473 35.3015L136.451 35.2675C135.609 33.713 134.632 32.204 133.552 30.8084C133.177 30.173 132.79 29.5035 132.381 28.766C132.256 28.8681 132.097 28.8 131.938 28.6412C131.858 27.915 131.108 27.1775 130.494 26.5194C130.346 26.0202 130.107 25.5436 129.8 25.0784C129.823 25.0444 129.846 25.0103 129.891 24.9763C129.675 24.6926 129.584 24.6586 129.516 24.6926C129.425 24.5678 129.323 24.4544 129.232 24.3409C128.823 23.8417 128.368 23.3538 127.947 22.8659C127.504 22.3893 127.083 21.9128 126.754 21.4135C125.73 19.8137 124.707 18.1685 123.548 16.6026C122.354 15.0936 120.99 13.6753 119.205 12.7789C118.853 12.4952 118.83 12.9945 118.512 12.7676C117.466 11.7918 116.079 10.9067 114.681 9.965C113.226 9.11401 111.77 8.18361 110.383 7.38936C108.451 6.18664 106.768 4.65487 104.597 3.84928C103.324 3.41811 102.176 3.11176 101.096 3.02099C100.016 2.94156 99.0153 3.03233 98.0718 3.32734C96.1846 2.53309 93.5131 3.40677 91.8193 2.10193C91.3987 2.15866 91.3532 2.58982 90.6597 2.3629C90.1595 2.26078 90.2164 2.03385 89.9776 1.875C89.864 2.39694 90.1482 2.3402 89.7503 2.71463C91.2168 2.83945 91.8534 3.10041 93.1835 2.96426C93.5131 3.11176 93.5927 3.30465 94.127 3.42946C97.0827 3.47484 100.607 3.74716 104.324 4.99526C107.894 6.24337 110.861 8.81901 113.476 9.55652C113.953 9.9423 113.442 10.2373 113.737 10.6004C115.169 10.9862 115.749 12.291 117.17 13.1533C118.148 13.8001 119.364 13.8909 120.422 14.7191C121.467 15.5928 122.184 16.4551 122.934 17.3629C123.65 18.2933 124.389 19.2691 125.469 20.3924C125.469 20.4604 125.492 20.5172 125.503 20.5852C124.98 20.1541 124.616 19.7456 123.787 19.1102C123.9 18.906 124.219 19.4052 124.355 19.2917C123.752 18.6677 123.218 18.2819 122.763 17.8848C122.309 17.4877 121.934 17.0679 121.604 16.4325C121.354 16.8182 120.683 16.0467 120.365 16.2282C121.07 16.8977 121.979 17.7373 121.968 18.4408C121.274 18.0663 121.388 17.4423 120.979 17.4196C121.411 18.2365 121.922 18.679 122.525 19.0989C123.127 19.5187 123.73 19.9839 124.412 20.7554C124.321 20.8576 124.207 20.8462 124.082 20.8235C124.435 21.4476 125.139 21.8674 125.662 22.2418C125.776 22.4234 125.912 22.5936 126.037 22.7638C125.946 22.707 125.856 22.6616 125.742 22.6389C125.856 22.8772 126.003 23.1268 126.094 23.3651C125.992 23.3084 125.901 23.2743 125.844 23.2857C125.969 23.4105 126.083 23.5353 126.185 23.6601C126.208 23.7849 126.219 23.9097 126.185 24.0119C125.276 23.5126 124.435 23.2743 123.616 23.0815C123.491 22.8999 123.4 22.7184 123.332 22.5595L123.127 22.7638C123.252 22.8659 123.332 22.9566 123.4 23.0361C123.275 23.0134 123.161 22.9793 123.036 22.9566C122.979 22.8999 122.923 22.8432 122.877 22.7751C122.979 22.673 122.786 22.2078 122.638 22.5255C122.798 22.6843 122.832 22.7978 122.775 22.8886C122.491 22.7184 122.161 22.6162 121.934 22.3893C121.683 22.1397 121.592 21.7426 121.388 21.4589C121.104 21.0731 120.251 21.0731 120.058 21.5156C119.99 21.6631 119.921 21.788 119.842 21.9241C119.58 21.788 119.319 21.6291 119.057 21.4589C119.16 20.9824 119.091 20.4945 118.875 20.0066C118.841 19.9385 118.614 19.9271 118.478 19.9271C118.421 19.9271 118.33 19.9839 118.307 20.0406L118.273 20.12C117.875 19.9498 117.466 19.7229 117.364 19.2464C117.25 19.3712 117.193 19.496 117.238 19.6548C117.545 19.8591 117.841 20.0293 118.193 20.381C118.193 20.415 118.193 20.4491 118.205 20.4604C118.375 20.6306 118.455 20.8235 118.523 21.0164C117.716 20.2449 116.966 19.5981 116.227 19.1102C116.056 18.9967 115.886 18.906 115.727 18.8039L115.795 18.7358L115.658 18.5656C115.658 18.5656 115.567 18.645 115.533 18.6904C114.999 18.384 114.487 18.1458 113.987 17.9415C113.805 17.76 113.635 17.5784 113.498 17.4196C113.316 17.2834 113.112 17.17 112.907 17.0452C109.906 14.3107 105.973 11.667 101.664 9.72672C96.9577 7.55955 91.8989 6.24337 87.6699 5.78951C86.7036 5.33566 85.7942 4.99526 84.7938 4.79103C83.7934 4.57545 82.7361 4.4166 81.4515 4.4166C80.1442 3.24792 77.575 3.07772 75.074 3.21388C74.4487 3.24792 73.8235 3.28196 73.221 3.316C72.6185 3.36138 72.0273 3.41811 71.4817 3.44081C70.3789 3.47484 69.424 3.44081 68.7192 3.20253C67.5255 4.68891 63.5012 4.32583 62.0916 3.82658C61.921 4.35987 61.3299 4.59814 60.6364 4.68891C59.943 4.79103 59.1358 4.77968 58.4992 4.7343C58.4537 4.53006 59.4314 4.08755 58.4083 4.31448C57.9194 4.37121 57.9649 4.59814 57.7376 4.74564C57.2374 4.51871 56.6121 4.4166 56.3052 4.03082C55.3843 4.15563 55.3275 4.53006 54.4067 4.65487C54.5772 4.31448 54.6682 3.95139 55.2025 3.71312C56.4757 3.20253 56.7599 3.59966 57.4988 3.62235C57.3965 3.27061 56.9304 3.27061 57.6239 3.00964C58.1354 3.82658 59.1699 2.47636 59.9543 3.1458C59.4996 3.25926 59.1472 3.39542 59.0222 3.62235C59.9543 3.2933 61.0912 2.9756 61.9097 2.70329C61.6482 2.74867 61.2617 2.72598 61.6368 2.60117C57.1237 2.43097 52.9061 3.24792 48.9386 4.63218C44.9597 6.02779 41.2196 7.97937 37.4568 10.3054C36.8656 10.2373 36.013 10.6344 35.1831 10.9635C33.1937 12.6427 31.6704 13.6753 32.0114 15.3205C34.4442 13.5618 36.2631 11.9393 40.5944 9.76076C41.6516 9.6246 42.5838 9.78345 43.1295 10.4415C39.9691 12.5293 35.9562 13.7207 33.2392 16.2055C32.8527 16.5686 32.8072 16.8523 32.4207 17.1586C30.0675 19.0308 28.6919 19.7343 27.0435 20.971C23.8377 23.3765 21.1435 26.7463 18.5402 29.7531C17.9718 30.4226 16.8918 30.7176 16.8236 31.8295C17.608 31.058 18.4151 30.241 19.0858 29.4241C19.7793 28.6185 20.4045 27.8583 20.8024 27.1775C21.6891 26.4627 22.8828 25.4869 24.0196 24.3976C25.2246 23.3765 26.3956 22.2418 27.4301 21.4022C28.0212 21.0731 28.5782 20.7327 29.1125 20.3924C29.6582 20.0633 30.1698 19.7343 30.67 19.3939C31.659 18.6904 32.6253 18.0096 33.6143 17.2948C35.5924 15.8651 37.741 14.4014 40.6853 13.1306C41.3333 13.6526 41.9358 13.176 42.9135 12.7789C43.2318 13.5732 44.0844 13.5505 45.1644 13.1533C45.6646 12.6881 44.5505 12.7903 45.0734 12.4045C45.7896 12.3591 46.4717 12.3591 46.8128 12.8924C46.2444 13.1306 45.6418 13.4824 45.2781 13.4257C45.7555 13.9589 46.9947 13.3122 47.3243 14.0837C46.3353 14.617 45.4145 15.2297 44.5278 15.8311C43.6638 16.4778 42.8225 17.1132 42.004 17.76C40.367 19.0762 38.7641 20.3356 36.8884 21.4022C36.1949 21.4135 35.6151 21.1185 34.8648 21.266C34.8535 22.0262 36.3541 21.3568 36.877 21.7653C36.4905 22.3326 35.888 22.8886 35.3423 23.4672C35.1831 23.6488 35.024 23.8303 34.8648 24.0005C34.8307 24.0005 34.7966 24.0232 34.7511 24.0346C34.0463 24.2047 33.2278 24.443 32.9095 25.1805C32.8527 25.3054 32.7845 25.4188 32.7276 25.5323C32.1933 25.9408 31.7045 26.3492 31.2611 26.7577C31.2384 26.7577 31.2157 26.7804 31.1815 26.7917C31.1361 26.8598 31.0792 26.9052 31.0338 26.9619C30.9542 27.0414 30.8519 27.1208 30.7723 27.2115C30.2039 27.6541 29.4763 27.6768 28.7374 27.6654C28.4759 27.6654 28.3395 27.8129 28.2713 28.0512C28.2258 28.1873 28.1576 28.3348 28.0667 28.437C27.8393 28.6866 27.6347 29.1291 27.2027 28.6639C26.8048 28.7547 26.6002 29.061 26.4638 29.3901C26.2137 30.0028 25.8726 30.4339 25.1337 30.3885C24.9973 30.3885 24.8154 30.4339 24.7244 30.5247C24.2129 31.0693 23.4626 31.4097 23.2238 32.1813C23.0761 32.6805 22.6668 32.5784 22.3371 32.6351C22.2803 32.7599 22.2348 32.9301 22.1552 32.9642C21.0412 33.3046 20.1885 34.0194 19.3928 34.8363C18.9721 35.2675 18.5856 35.6873 17.9831 35.9256C17.176 36.2546 16.2211 36.5497 16.3802 37.7864C16.4029 37.9453 16.1301 38.1495 15.971 38.3197C15.6981 38.592 15.4253 38.8416 15.1297 39.0912C14.9819 39.2161 14.8455 39.5111 14.6068 39.2274C14.4476 39.0345 14.0384 38.9211 14.3567 38.5353C14.4476 38.4218 14.5158 38.2743 14.5158 38.1268C14.5158 37.9906 14.4249 37.8545 14.3794 37.7297C14.3112 37.7751 14.2544 37.8091 14.1862 37.8545C13.686 38.2289 13.379 38.7735 13.4131 39.3409C13.4359 39.6359 13.5154 39.8515 13.2881 40.0784C12.9129 40.4415 12.5719 40.8613 11.9694 40.8499C11.2418 40.8499 11.7761 41.2471 11.7193 41.4967C11.6056 41.9732 11.3327 42.5973 10.9349 42.8015C10.5256 43.0171 10.2414 43.3008 10.0254 43.6185C10.1164 43.1873 10.2187 42.7561 10.3892 42.3363C11.3214 39.772 13.5723 37.0149 14.4931 34.4733C15.6185 34.0988 14.7205 33.713 15.9596 32.7826C15.8118 32.4536 15.6299 31.8295 15.2661 32.0111C15.107 31.9657 14.9251 32.1132 14.7432 32.2607C14.1975 33.6903 13.3222 34.5186 12.9698 35.8689C10.2755 38.6147 8.74081 41.8825 7.62673 45.4112C7.52442 45.4225 7.43347 45.4339 7.31979 45.4112C7.33116 45.5587 7.41073 45.6722 7.51305 45.7402C7.49031 45.8197 7.46758 45.8877 7.44484 45.9672C7.34253 46.3076 7.25158 46.648 7.16063 46.9883C6.96738 47.1132 6.77412 47.2266 6.55812 47.3287C6.17161 47.4989 5.91014 47.8393 5.89877 48.3726C5.87603 49.893 5.84193 49.9044 4.45501 50.6986C4.34133 50.7667 4.21628 50.8008 4.09123 50.8348C4.05713 51.1071 3.90934 51.266 3.64788 51.3C3.68198 51.6631 4.25039 52.0035 3.64788 52.4006C3.34093 52.6048 3.0681 52.8998 2.87484 53.2175C2.79526 53.3537 2.71569 53.4785 2.62474 53.6033C2.62474 53.5466 2.62474 53.5012 2.60201 53.4558C2.57927 53.5466 2.54516 53.66 2.51106 53.7622C2.38601 53.9097 2.23822 54.0458 2.02223 54.1593C1.59024 54.3862 1.99949 54.806 2.17002 55.1124C1.46519 55.9634 2.18138 57.2228 1.35151 58.0398C1.35151 58.6411 1.44245 59.2765 1.29467 59.8438C1.12414 60.4906 0.805837 61.0693 0.90815 61.7841C0.987727 62.306 0.703523 62.6237 0.203324 62.7712C0.112379 62.7939 -0.00130235 63.0776 0.0441703 63.1456C0.362479 63.6335 0.157852 64.0874 0.0328021 64.5526C0.612578 65.2674 0.47616 66.1298 0.442056 66.9467C0.407951 67.7523 0.658051 68.6146 0.0441703 69.3408C-0.0695113 69.477 0.0441703 69.7947 0.29427 69.8854C0.578474 69.9989 0.874046 70.067 0.851309 70.4641C0.851309 70.7704 0.851309 71.0654 0.874046 71.3718C0.953623 72.6199 0.703523 73.9134 1.32877 75.1161C1.40835 75.2636 1.2833 75.5473 1.21509 75.7515C1.14688 75.9331 0.896782 76.0579 1.12414 76.3075C1.47656 76.6819 1.38561 77.1585 1.35151 77.601C1.2833 78.5541 1.29467 78.9853 1.51066 79.371C1.82897 79.9497 2.07907 80.5851 2.63611 81.0276C2.8521 81.1978 3.11357 81.4928 3.12494 81.7424C3.15904 82.4346 3.29546 83.07 3.62514 83.66C3.48872 84.84 4.05713 85.8158 4.5687 86.8029C4.6369 86.9277 4.75059 87.1547 4.79606 87.1433C5.67141 86.9164 5.80782 87.8241 6.34213 88.1078C6.87643 88.3914 7.43347 88.6524 7.99051 88.9134C8.09282 89.163 8.19514 89.424 8.29745 89.6849C8.26335 89.7643 8.29745 89.8324 8.37703 89.8778C8.46797 90.1274 8.55892 90.3884 8.64986 90.6607C8.33155 90.9898 8.11556 91.2961 8.4566 91.8748C8.82038 92.4875 8.94544 93.2477 9.12733 93.9512C9.18417 94.1894 9.25238 94.3937 9.46837 94.4618C9.78668 94.5639 9.97994 94.632 9.76394 95.0404C9.60479 95.3581 9.68437 95.846 9.46837 96.0956C8.93407 96.697 9.63889 97.026 9.69573 97.4912C9.71847 97.7295 10.105 97.7068 10.2641 97.582C10.6848 97.253 11.0258 96.8445 11.4351 96.5155C11.8329 96.1978 11.6056 95.9708 11.4805 95.6077C11.2304 94.8929 11.3782 94.1327 11.4805 93.3839C11.4805 93.3271 11.5715 93.2817 11.617 93.225C11.6738 93.2817 11.7647 93.3385 11.7647 93.3952C11.7988 93.9966 12.39 94.2235 12.6173 94.6773C12.731 94.8929 12.174 95.2447 12.6173 95.3695C13.2994 95.5624 13.5723 96.0276 13.7883 96.6176C14.0497 97.3097 14.2998 98.0018 14.6068 98.6713C14.9365 99.4088 15.3343 100.135 15.6868 100.861C15.7777 101.054 15.9482 101.281 15.9255 101.462C15.8232 102.234 16.1869 102.801 16.7326 103.221C17.3124 103.664 17.3124 104.22 17.301 104.844C17.2897 105.218 17.2328 105.615 17.5511 105.899C18.1764 106.455 18.3924 107.272 18.8357 107.941C19.029 108.236 19.0745 107.805 19.154 107.658C19.2109 107.544 19.3132 107.453 19.3928 107.351C19.4382 107.408 19.5292 107.476 19.5292 107.533C19.5065 108.418 19.7565 109.292 19.2791 110.165C18.9494 110.767 19.154 111.436 19.5406 112.071C20.1885 113.127 20.2681 113.285 21.2799 113.626C22.1325 113.91 22.2803 114.068 22.303 114.851C22.3258 115.532 22.2462 116.224 22.9055 116.701C23.0192 116.78 23.167 116.939 23.167 117.064C23.167 118.119 23.9514 118.652 24.588 119.276C25.0655 119.742 25.452 120.354 26.1796 120.513C26.5092 121.205 27.1004 121.682 27.5551 122.272C28.0553 122.93 29.0671 122.975 29.3172 123.883C29.3513 124.031 29.5332 123.985 29.6127 123.792C29.6696 123.656 29.6582 123.497 29.7264 123.361C29.7492 123.316 29.7833 123.27 29.806 123.225C30.1584 123.509 30.5563 123.792 30.9428 124.065C30.67 123.792 30.3517 123.304 30.022 122.885C30.0334 122.85 30.0561 122.828 30.0561 122.794C30.1243 122.431 29.8515 122.317 29.5332 122.226C29.3399 122.17 29.0898 121.988 29.0216 121.818C28.9761 121.693 28.9079 121.591 28.8511 121.478C28.8852 121.478 28.9193 121.478 28.9761 121.5C28.8965 121.398 28.8283 121.353 28.7601 121.307C28.3736 120.706 27.7938 120.264 27.396 119.673C27.1117 119.242 26.6229 118.811 26.6229 118.369C26.6229 117.824 27.0094 117.279 27.2254 116.735C27.305 116.531 27.3732 116.326 27.4642 116.122C27.4869 116.054 27.5551 115.997 27.6119 115.952C27.862 115.782 27.6802 115.872 27.737 116.122C27.862 116.689 28.169 116.826 28.6919 116.814C29.1807 116.803 29.0443 117.041 28.9193 117.359C28.726 117.869 29.2831 117.62 29.4536 117.779C29.6241 117.926 29.6582 118.074 29.4422 118.096C28.7147 118.142 28.9193 118.528 29.0898 118.925C28.7147 119.276 28.7033 119.719 28.817 120.173C28.8283 120.241 28.8852 120.332 28.942 120.354C28.9875 120.377 29.0784 120.309 29.1239 120.264C29.2831 120.105 29.5218 119.957 29.5673 119.764C29.7833 118.902 30.3062 118.573 31.1815 118.573C31.5112 118.743 31.8409 118.834 32.1024 118.754C32.0114 118.959 31.966 119.152 32.0342 119.367C31.9773 119.333 31.9432 119.31 31.9318 119.299C31.9773 119.356 32.0342 119.401 32.0796 119.458C32.1251 119.56 32.1933 119.651 32.3184 119.753C32.4434 119.855 32.3979 120.082 32.3184 120.286C32.2047 120.207 32.091 120.116 31.9546 120.037C32.1251 119.662 31.3634 118.868 31.318 119.322C32.091 119.413 31.2952 119.742 31.4544 119.9C31.7158 120.037 31.9318 120.32 32.1706 120.593C31.9546 121.058 31.7613 121.523 31.6135 122C31.3634 122.76 31.3748 123.486 32.1251 124.008C32.8299 124.496 33.0118 125.177 32.8754 125.982C32.8413 126.198 32.8754 126.436 32.8527 126.663C32.8413 126.765 32.8527 126.856 32.8527 126.947C32.739 126.924 32.6139 126.901 32.4775 126.856C32.6139 126.992 32.7504 127.094 32.8868 127.185C32.8981 127.253 32.9209 127.321 32.9436 127.378C32.0455 126.935 31.1247 126.198 30.1925 125.403C29.465 124.768 28.726 124.11 28.0326 123.497C27.3618 122.862 26.748 122.249 26.1455 121.818C26.3728 122.022 25.452 121.557 25.2019 121.103C25.2019 121.886 26.5092 123.282 26.7139 124.36C27.2595 124.859 27.5892 125.279 27.6574 125.687C27.8961 125.869 28.1008 125.993 28.2713 126.027C27.9985 126.822 31.3862 129.023 30.7155 129.239C31.318 129.488 31.8636 129.568 32.6821 130.067C32.864 129.908 32.523 129.726 32.7845 129.568C33.2051 129.84 33.5575 129.999 33.7735 129.942C32.8868 129.352 32.523 129.692 31.7386 129.261C32.0342 129.057 31.6931 128.649 31.3293 128.614C30.9201 128.739 31.7841 129.012 31.6022 129.159C31.3748 129.012 31.3634 129.284 31.0679 129.012C31.6476 128.785 29.8628 128.195 29.7264 127.571C29.8515 127.434 29.9993 127.378 30.2266 127.457C31.1702 128.308 30.8746 127.684 31.4203 127.843C31.8864 128.115 31.6476 128.331 31.9659 128.592C32.2956 128.263 33.08 128.739 33.6371 129.182C34.4215 129.454 35.24 129.511 36.0016 129.602L36.1267 129.704C36.5587 130.09 37.0703 130.396 37.5591 130.725C37.6728 130.804 37.8319 130.725 37.8433 130.543C37.866 130.101 38.0593 129.59 37.741 129.239C37.309 128.762 36.9793 128.093 36.1381 128.161C35.9562 128.172 35.6833 128.036 35.5697 127.877C35.4105 127.65 35.2627 127.412 35.1036 127.185C35.1377 127.162 35.1945 127.151 35.2627 127.128C35.1377 127.071 35.0467 127.015 34.9558 126.958C34.717 126.595 34.4897 126.22 34.2509 125.846C34.4783 125.233 34.6829 124.609 34.9444 124.008C35.0467 123.792 35.1036 123.599 35.0354 123.384C35.0126 123.327 34.9103 123.236 34.9103 123.236C34.0804 123.906 33.944 122.941 33.5575 122.646C33.2619 122.431 33.2505 122.068 33.2733 121.727C33.7621 121.557 33.9554 122.499 34.5124 122.272C34.5579 122.317 34.6147 122.374 34.6716 122.419C34.9785 122.862 35.5128 123.406 36.1153 123.826C36.7406 124.28 37.3317 124.677 37.6159 124.927C37.5704 124.825 37.9001 124.689 38.0138 124.734C38.3207 125.211 39.935 125.426 39.1847 125.54C39.6736 125.88 39.9009 125.721 40.1851 125.676C38.9801 125.211 38.0365 124.428 37.1612 124.326C37.0134 123.781 36.2517 123.441 35.6833 123.077C35.4673 122.93 35.2741 122.805 35.1263 122.669C35.2172 122.658 35.3309 122.601 35.4219 122.567C35.456 122.567 35.4787 122.442 35.456 122.408C35.3878 122.272 35.2627 122.17 35.2172 122.022C35.149 121.818 35.0808 121.568 35.3309 121.432C35.5242 121.33 35.7402 121.285 35.9562 121.444C36.1267 121.568 36.3086 121.659 36.4905 121.761C36.5132 121.988 36.4905 122.249 36.5928 122.408C36.6951 122.555 36.9566 122.624 37.1612 122.658C37.4681 122.703 37.7751 122.658 38.0706 122.76C37.9229 122.816 37.7637 122.794 38.1275 122.998C38.2639 122.998 38.4231 123.021 38.5822 123.066C38.6391 123.1 38.6959 123.111 38.7527 123.123C39.6054 123.418 40.6171 124.178 41.2651 124.291C40.8672 124.031 40.4807 123.792 40.1055 123.543C40.3329 123.543 40.5603 123.543 40.799 123.543C40.8558 123.543 40.9241 123.463 40.9468 123.406C40.9582 123.384 40.9127 123.293 40.8786 123.27C40.5603 123.055 40.2306 123.066 39.9123 123.27C39.8782 123.293 39.8668 123.338 39.8441 123.384C39.6281 123.248 39.4235 123.1 39.2188 122.964C39.4235 122.816 39.6167 122.646 39.8668 122.692C40.1283 122.737 40.4011 122.726 40.674 122.692C40.9127 122.93 41.1742 123.157 41.4697 123.293C41.5493 123.043 42.004 123.52 42.0381 123.18C42.0722 123.1 42.0381 123.021 42.004 122.941C42.4588 123.18 42.9021 123.146 43.3682 123.134C43.857 123.123 44.164 123.202 44.3459 123.781C44.4368 124.076 44.6528 124.303 44.9484 124.428C44.9029 124.598 45.0734 124.802 45.2894 125.006C44.8006 124.984 44.6187 125.449 44.0162 125.256C44.2663 125.392 44.4482 125.528 44.4823 125.687C44.289 125.835 43.8684 125.63 43.732 125.857C44.289 125.993 44.9029 126.368 45.4599 126.878C45.6532 126.413 46.4603 126.969 46.6877 127.128C46.4149 127.298 45.9943 127.162 45.6418 126.856C45.7328 127.378 45.0393 126.72 45.028 127.105C45.5509 127.48 47.4835 127.151 47.9155 128.172C46.6763 127.548 46.2671 127.866 45.4372 127.718C45.0166 128.138 45.153 128.478 45.4941 128.785L45.5964 128.535C45.9147 128.637 45.9488 128.773 46.1307 128.887C46.0056 128.921 45.8919 128.966 46.0625 129.068C45.9374 129.273 45.8692 128.864 45.5282 128.807C45.9601 129.182 46.6763 129.511 47.0856 129.908C48.4043 130.248 50.1436 131.451 51.2463 131.485C50.8143 131.213 49.7344 131.009 49.7571 130.453C50.2232 130.112 50.5642 130.986 50.8598 130.634C50.2459 130.282 49.8935 130.396 49.7685 129.942C49.9617 130.01 49.9504 129.829 50.1209 129.863C50.6779 130.18 51.2691 130.68 51.0986 130.918C51.144 130.611 51.451 131.304 51.576 130.986C51.3828 130.827 51.451 130.611 51.4169 130.419C50.6893 130.192 50.2573 129.885 50.2459 129.499C51.2009 129.42 51.8375 129.897 52.5537 129.965C52.6901 130.237 52.8606 130.487 53.0766 130.702C53.2699 130.895 53.4745 130.85 53.6905 130.77C53.8724 130.702 53.9747 130.419 54.2475 130.589C54.6227 130.816 55.0774 130.963 55.3843 131.258C56.0778 131.962 56.8849 132.438 57.7944 132.79C57.7944 132.79 57.7944 132.801 57.8058 132.813C57.783 132.847 57.7489 132.881 57.7376 132.926C56.8736 132.79 56.2597 133.006 55.3957 132.552C55.4298 132.631 55.498 132.665 55.5549 132.722C55.0092 132.608 54.4522 132.506 53.8838 132.404C53.4972 132.994 54.5317 132.393 54.4863 132.881C54.1225 132.971 52.9288 132.711 52.9061 132.302C53.1789 132.427 53.4631 132.552 53.7246 132.631C53.645 132.416 53.2812 132.279 52.9629 132.143C52.9629 132.143 52.9288 132.132 52.9175 132.121C52.7242 132.03 52.5423 131.939 52.4627 131.803C52.3491 131.86 51.5874 131.746 51.9284 131.928C51.9398 131.928 51.9739 131.939 51.9853 131.95C50.8485 131.701 49.7912 131.315 48.7794 131.02C47.4948 130.589 46.2671 130.248 44.9939 130.248C44.7438 129.715 44.2436 129.511 43.7206 129.465C42.3678 129.068 41.3219 128.251 40.6171 127.559C40.1851 128.07 39.5485 126.697 38.9119 126.674C38.9233 126.527 38.8209 126.436 39.0483 126.425C37.6955 126.334 37.6046 124.859 36.1835 124.382C36.7292 124.791 35.3991 124.518 36.4791 125.12C36.7747 125.04 36.32 124.598 36.6837 124.791C36.3427 125.267 37.5363 125.846 37.7069 126.527C38.7414 126.527 39.2643 127.434 40.3556 128.07C40.3784 128.285 40.3784 128.944 40.8672 128.853C40.2533 128.603 41.1287 128.603 41.231 128.49C41.8221 128.762 42.2996 129.159 42.7884 129.511C42.4474 129.579 42.1632 129.681 42.004 129.783C42.1404 129.84 42.2655 129.885 42.4019 129.942C42.4019 130.044 42.4019 130.101 42.22 130.226C42.8566 130.657 43.0158 130.407 43.3796 130.453C42.9135 130.94 44.9939 131.474 45.3917 132.018C45.4372 131.814 45.6191 131.803 45.9601 131.928C45.8465 132.03 45.71 132.007 45.8578 132.2C48.8477 133.232 51.6101 134.027 54.3498 134.844C55.3616 134.776 58.1127 135.15 57.7944 136.08C61.1253 137.136 64.6949 137.351 68.435 137.669C69.6969 137.226 71.2429 137.453 72.3911 137.555C72.2206 137.533 72.7322 137.317 73.0505 137.431C74.2327 137.816 72.2433 138.202 71.2543 138.157C72.1183 138.145 71.277 138.792 71.1065 139.019C69.2194 139.201 67.6847 139.121 66.0249 139.291C65.5816 139.235 65.5361 138.985 65.0245 138.951C64.2856 139.291 63.5467 138.588 62.6827 138.565C62.1825 138.543 61.7733 138.917 61.2844 138.849C60.7274 138.781 60.284 138.316 59.8179 138.248C59.5337 138.202 59.0222 138.304 58.7834 138.282C58.8062 138.282 58.9312 138.111 58.9767 138.123C58.4765 138.043 58.1809 138.27 57.7489 138.225C57.6693 138.225 57.6693 137.919 57.6352 137.907C57.0668 137.612 56.237 137.93 55.5776 137.805C55.157 137.419 56.2256 137.51 55.5094 137.294C55.3957 137.601 54.7023 137.374 54.4067 137.521C54.0543 136.886 52.5309 137.102 52.8606 136.636C52.2808 136.568 51.4737 136.512 50.7007 136.33C49.939 136.148 49.1887 135.944 48.6885 135.751C48.8704 135.831 48.8136 135.956 48.7681 136.08C47.5517 135.649 47.1538 135.513 46.4376 135.456C46.4717 135.366 46.6081 135.4 46.665 135.332C45.7442 135.014 44.8802 134.776 44.1412 134.447C43.4023 134.117 42.7543 133.8 42.2314 133.493C42.0268 133.539 41.8562 133.641 41.6061 133.63C41.3106 133.221 41.1742 133.267 40.7876 133.346C40.5489 133.04 40.8445 132.745 40.3215 132.699C40.7422 133.198 39.5712 132.699 39.2188 132.597C39.2984 132.427 38.8437 132.279 39.071 132.098C39.1279 131.882 39.5712 132.223 39.6622 132.064C38.6391 131.599 38.514 131.86 38.2298 132.234C38.5367 132.552 39.162 132.858 39.5144 133.176C40.0373 132.824 41.5834 133.913 41.8676 134.288C41.663 134.197 41.663 134.378 41.4811 134.31C41.5038 134.197 41.6175 134.072 41.4356 133.97C40.2761 134.083 39.4235 133.312 38.2184 132.654C38.4117 133.176 37.7864 132.767 37.6045 133.096C38.855 133.698 40.1283 134.276 41.2537 134.832C40.8331 134.424 41.8335 134.787 42.0381 134.776C42.2882 135.048 43.084 135.717 43.3568 135.706C43.1749 135.604 43.2432 135.49 43.3 135.366C43.7888 136.103 44.8802 136.273 45.7783 136.75C44.7551 136.319 45.153 136.716 44.3572 136.534C45.0393 136.92 45.4031 137.192 46.0511 137.045L45.9601 137.317C46.79 137.453 47.7677 137.873 48.8022 138.316C49.3251 138.531 49.8481 138.77 50.3824 138.951C50.928 139.11 51.4737 139.223 52.008 139.28C52.008 139.394 51.9171 139.541 52.1103 139.609C53.9861 139.711 56.4984 141.016 57.4761 140.789C57.4761 141.175 56.5894 141.13 56.2142 140.812C56.2142 141.493 57.3056 141.232 57.7603 141.22C57.7376 141.22 57.7603 141.413 57.7262 141.413C58.4424 141.413 58.8175 141.039 59.5678 141.107C60.5228 141.186 60.7274 141.731 61.9892 141.742C61.6709 141.243 63.2852 141.89 63.774 141.697C62.8305 141.549 63.3762 141.504 64.1378 141.583C64.8995 141.64 65.8999 141.72 65.8772 142.049C65.2974 141.992 65.1951 142.23 64.7972 142.276C65.7748 142.287 65.3087 142.4 65.4793 142.797C66.275 142.729 66.3546 143.002 66.9003 143.058C66.8321 142.752 66.1159 142.752 65.8544 142.525C66.0931 142.537 66.2409 142.502 66.3887 142.457C66.798 142.593 67.0481 143.092 67.446 142.695C67.4232 142.866 67.4801 143.002 67.6165 143.093C66.1727 143.138 65.1837 143.183 64.2174 143.149C63.2625 143.047 62.3303 142.866 61.0116 142.491C60.1931 142.525 59.3746 142.321 58.5561 142.139C57.7262 141.958 56.8963 141.822 56.021 141.856C56.0323 141.674 55.4526 141.652 55.5549 141.447C53.3153 141.175 51.2236 139.689 49.291 139.813C49.7685 140.006 50.4847 140.097 50.4392 140.369C49.8935 140.245 47.4153 139.677 48.1542 139.223C47.7336 139.133 47.3357 139.087 46.7673 138.838C46.3808 139.133 47.6426 139.167 47.529 139.416C46.7446 139.189 44.9597 138.747 44.5732 138.055C43.0158 137.544 41.7198 136.897 40.5489 136.341C39.3894 135.763 38.3776 135.173 37.5363 134.469C37.218 134.866 37.309 134.117 36.9793 133.981C36.5246 133.868 36.9111 134.481 36.6042 134.322C36.445 134.231 36.3882 134.288 36.2517 134.231C35.6151 133.959 35.8084 133.698 35.456 133.437C35.1377 133.562 34.4215 133.04 33.819 132.699C34.0577 131.996 32.7276 131.735 32.1251 131.338C30.8746 130.577 29.6014 129.431 28.3281 128.422C27.089 127.378 25.8499 126.459 24.9859 125.698C26.1909 127.083 26.873 127.196 27.8052 128.467C28.7715 128.944 29.7151 129.681 30.67 130.464C31.6476 131.213 32.6821 131.939 33.7053 132.518C33.5575 132.711 33.7962 132.915 33.7735 133.119C33.5234 133.13 33.1141 132.903 32.8527 132.903C33.3529 133.448 35.2968 133.902 36.0357 135.003C36.2631 134.776 36.6951 135.218 37.0475 135.422C37.866 135.093 40.2874 136.296 41.1742 136.841C41.0605 136.988 39.6849 136.16 40.1169 136.557C40.6057 136.784 41.1173 137.011 40.9923 137.283C40.6853 137.204 40.0714 136.727 39.9691 136.909C40.4352 137.283 41.5834 137.624 41.0605 138.055C41.7312 138.44 40.9809 137.612 41.7085 137.93C41.7085 138.021 41.8108 138.1 42.004 138.168C42.0495 138.679 41.5266 138.463 41.2537 138.565C41.9017 139.144 42.095 138.804 42.1973 138.679C42.6179 139.155 41.6289 138.815 41.9813 139.212C42.6293 139.7 43.425 139.995 43.8116 140.131C43.6183 140.04 43.5728 139.927 43.5274 139.825C43.8116 139.995 44.3459 139.825 44.3913 140.142C44.1867 140.086 43.9025 139.95 43.8343 140.04C44.721 140.642 46.3808 140.993 46.8241 141.629C47.2902 141.663 46.5968 141.243 47.1197 141.322C48.1656 141.538 47.9268 141.958 48.5862 142.242C48.7226 142.139 48.518 141.697 48.8931 141.844C49.4956 142.117 50.6552 142.162 50.4165 142.582C50.2118 142.605 49.0295 142.31 49.4615 142.537C50.5188 142.627 51.1781 143.013 51.7124 142.718C52.4059 143.013 51.4623 143.183 52.1217 143.41C52.3832 143.41 52.2354 143.058 52.565 143.127C52.7583 143.353 54.5886 144.227 53.7814 143.626C54.5317 143.898 54.6795 143.921 55.7595 144.193C55.8163 144.057 55.7595 143.83 56.0096 143.853C57.4988 144.341 58.9426 144.488 60.3295 144.681C61.7164 144.84 63.0578 145.021 64.4107 145.271C64.4902 145.112 64.1492 145.01 64.4334 144.987C65.4565 145.192 66.2978 145.373 67.0026 145.021C67.0026 145.158 66.9117 145.226 66.8093 145.305C67.571 145.169 68.5259 145.419 69.208 145.6C68.6965 145.963 67.7529 145.6 67.5255 146.201C68.8215 146.201 69.3899 145.43 70.8678 145.645C71.1179 145.43 70.3903 145.271 70.8678 145.26C71.4248 145.396 71.584 145.373 71.9705 145.18C71.9705 145.509 72.5275 145.509 72.9027 145.623C74.3464 145.192 75.8129 145.77 77.1089 145.101C77.8478 145.112 78.6663 145.124 79.5189 145.055C80.3715 144.953 81.2469 144.829 82.0995 144.67C83.8161 144.363 85.4304 143.978 86.5445 143.592C86.7605 143.807 87.5676 143.456 87.5562 143.853C88.4998 143.251 89.216 143.683 89.8412 143.07C89.6139 143.115 89.4092 143.149 89.432 142.979C89.8412 142.786 89.8867 142.798 90.6484 142.559C90.7052 142.695 90.7166 142.888 91.0917 142.741C91.4896 141.992 93.0811 142.196 93.9679 142.049C93.9679 141.856 93.6609 141.935 93.5131 141.878C94.1952 141.652 95.4116 141.096 95.7413 141.515C95.332 141.776 94.991 141.345 94.8432 141.742C95.0933 141.674 95.116 141.867 95.2866 141.89C97.0032 140.687 99.6519 139.87 100.902 139.462C101.346 139.291 101.414 138.894 101.619 138.804C102.142 138.577 102.744 138.77 103.574 138.18C103.426 138.282 103.813 138.077 104.233 137.85C104.404 137.771 106.029 136.739 106.643 136.863C106.837 137.045 105.416 137.635 105.961 137.533C106.541 137.204 106.689 136.999 107.291 136.863C107.098 136.682 107.269 136.489 107.53 136.341C107.78 136.183 108.133 136.058 108.326 136.069C107.905 136.512 107.178 136.909 107.109 137.294C108.087 136.67 109.667 135.127 109.997 135.956C109.951 135.876 110.213 135.683 110.315 135.763C109.792 136.364 110.156 136.375 109.713 136.92C110.531 135.933 111.532 135.479 112.487 134.98C113.43 134.469 114.374 134.004 114.874 132.835C115.022 132.96 114.828 133.13 114.953 133.255C115.431 132.915 115.204 132.699 115.886 132.313C115.965 132.484 116.181 132.359 116.272 132.506C116.636 132.189 117.068 131.848 117.204 131.565C116.568 132.098 116.159 132.155 115.863 131.973C116.943 131.338 117.159 130.634 118.364 130.316C117.716 130.702 118.102 130.884 117.443 131.258C117.727 131.326 117.875 131.701 118.398 131.258C118.33 131.133 118.125 131.02 118.307 130.85C118.466 131.247 120.558 129.897 121.32 129.17C121.229 128.773 120.785 129.284 120.66 128.989C120.899 128.921 121.229 128.626 121.558 128.308C121.422 128.739 121.502 128.637 121.808 128.864C122.32 128.524 121.786 128.456 122.172 128.149C122.4 128.433 123.036 127.627 123.343 127.741C123.73 126.947 124.093 126.981 124.173 127.23C124.514 126.549 124.787 126.425 124.946 125.857C125.31 125.778 125.026 125.959 125.219 126.13C125.742 125.506 125.708 125.596 126.253 125.29C126.39 125.018 126.39 124.779 126.504 124.484C126.879 124.371 127.072 123.962 126.845 124.541C128.402 123.134 128.038 121.886 128.868 121.296C128.402 120.751 129.186 120.286 129.834 119.912C129.834 119.583 129.232 120.048 129.539 119.673C130.039 119.413 130.323 119.095 130.698 118.459C131.039 118.516 130.755 118.879 130.858 119.049C130.983 118.618 131.483 118.255 131.46 118.096C131.255 118.278 131.062 118.369 130.892 118.369C131.164 118.017 131.096 117.835 131.494 117.416L131.722 117.586C132.244 116.009 133.938 114.511 133.984 113.705C134.257 113.172 134.416 113.524 134.666 113.263C134.564 113.183 134.438 113.217 134.313 113.263C134.438 112.798 136.166 111.288 135.132 112.015C135.621 111.288 136.087 111.254 136.166 110.676C135.916 111.039 135.723 110.914 135.916 110.528C135.905 110.823 136.11 110.801 136.36 110.358C136.314 110.12 136.473 109.757 136.587 109.416C136.553 109.972 137.178 108.77 137.235 108.497C137.144 108.611 137.042 108.815 136.962 108.77C137.121 108.429 137.451 107.476 137.815 107.329C137.872 107.487 137.462 107.953 137.61 108.066C138.076 107.601 137.917 107.283 138.19 106.693C138.861 106.716 138.622 104.844 139.361 104.991C138.861 105.581 138.804 106.239 138.69 106.795C138.565 107.34 138.429 107.805 137.872 108.009C138.338 108.293 137.724 108.679 137.451 109.484C137.826 109.45 137.508 109.848 137.599 109.995C138.11 109.28 137.781 109.484 137.815 109.257C137.997 109.155 138.19 108.679 138.361 108.906C138.258 109.099 138.076 109.36 138.156 109.439C138.486 108.724 138.792 108.441 139.077 108.429C139.224 107.941 139.452 107.59 139.747 107.113C140.02 106.614 140.35 106.001 140.748 105.025C140.748 104.639 140.361 105.139 140.566 104.526C142.01 102.472 142.237 100.135 143.033 98.4103C142.885 97.9451 142.396 98.5465 142.68 97.6841C142.965 97.2984 143.112 97.4799 143.294 97.6955C143.522 95.9481 144.442 95.0858 144.954 93.2817C144.386 92.3286 145.795 90.0253 145.432 88.7545C145.352 89.6282 145.079 90.7174 144.647 91.0578C144.488 90.2976 144.897 88.1645 145.477 88.573C145.386 87.5178 146.307 86.8029 145.807 86.3604C146.5 86.281 146.818 84.1706 146.784 82.9338C146.784 83.1153 146.932 82.6728 146.989 82.2076C147.137 80.9822 147.341 79.6093 147.489 78.2591C147.546 77.2039 147.535 76.1486 147.444 75.1842C147.546 75.1842 147.66 75.1842 147.796 75.2409C147.716 74.0836 147.637 72.9376 147.557 71.803C147.58 71.8257 147.603 71.837 147.66 71.803C147.501 71.2356 147.546 71.0314 147.466 70.4981C147.432 70.1124 147.41 69.7379 147.375 69.3521C147.569 68.8756 147.716 68.0133 147.762 67.5254C147.785 67.8885 148.035 67.7409 147.989 68.2515C147.853 69.0685 147.91 70.0783 148.274 70.6683C148.205 71.0541 148.114 71.0655 147.978 70.8612C148.217 73.0397 147.91 74.6623 148.319 76.6592C147.989 76.16 147.978 78.486 148.342 77.9754C148.069 79.2349 147.785 80.8461 147.637 82.4459C147.557 83.2515 147.5 84.0458 147.489 84.7946C147.489 85.169 147.489 85.5321 147.489 85.8725C147.489 86.2129 147.478 86.5306 147.489 86.837C147.614 85.9066 148.16 84.2727 147.898 83.4444C148.251 83.9323 148.092 82.6274 147.944 82.4913L148.228 82.5253C148.91 78.4747 148.967 74.1971 149.012 70.0556L148.944 70.0783ZM121.752 17.6125C122.081 17.4536 122.286 17.9529 122.411 18.2138C122.229 18.35 121.797 17.7259 121.752 17.6125ZM42.0268 134.412C42.0609 133.913 42.8566 134.639 42.9248 134.515C43.3227 134.878 42.436 134.673 42.0268 134.412ZM47.5403 137.635C47.7791 137.136 48.0746 137.794 48.734 137.953C48.5976 138.134 47.9041 137.703 47.5403 137.635ZM48.9159 136.183C48.9954 135.933 49.7457 136.228 49.9163 136.432C49.8367 136.625 49.2228 136.228 48.9159 136.183ZM60.8297 141.061C60.9888 141.005 61.2389 141.016 61.5345 141.061C61.5004 141.198 61.4777 141.334 61.6709 141.379C61.5118 141.583 60.5796 141.322 60.8183 141.061H60.8297ZM66.4001 142.128C66.2864 141.856 66.7639 141.947 66.7639 141.765C65.377 141.425 63.9332 141.629 63.4898 140.846C64.6835 141.186 65.1723 140.914 66.1045 140.766C66.3319 140.869 66.4342 141.039 66.7866 141.084C66.5138 141.3 66.3546 141.209 65.9113 141.141C66.0363 141.515 66.5024 141.731 67.2868 141.788C67.4005 142.151 66.9912 142.196 66.3887 142.128H66.4001ZM141.68 88.8453C141.896 88.868 141.566 89.4693 141.555 89.7303C141.498 89.6395 141.441 89.5374 141.419 89.4013C141.487 89.2424 141.555 89.0949 141.612 88.9361C141.635 88.9361 141.657 88.902 141.68 88.8339V88.8453ZM140.123 101.27C139.736 101.916 139.838 101.837 139.497 102.608C139.213 102.824 138.918 102.518 139.293 101.916C139.588 102.643 139.588 101.156 140.123 101.27ZM93.4904 136.909C93.4449 137.147 92.6037 137.306 92.2172 137.442C92.3763 136.92 92.8083 137.124 93.4904 136.909ZM84.4754 140.937C83.4978 141.027 83.0431 140.891 81.9517 140.857C82.4519 140.347 83.4864 140.574 84.5096 140.245C84.5096 140.471 84.3049 140.642 84.4754 140.937ZM79.1438 141.005C79.0074 141.334 78.5526 141.016 78.439 140.971C78.3594 140.755 78.9278 140.835 78.9164 140.642C79.5189 140.574 78.5299 141.061 79.1438 140.993V141.005ZM81.2469 140.88C81.1673 141.118 80.7126 141.22 80.633 141.459C80.3602 141.209 79.1324 141.674 79.0074 141.311C79.8031 141.481 80.3261 140.801 81.2469 140.88ZM79.9509 139.507C79.3939 139.643 78.8937 139.825 77.9729 139.95C77.575 139.462 78.3708 139.28 79.3712 139.03C80.3716 138.804 81.5993 138.645 82.0768 138.509C82.8271 138.645 83.0317 139.008 82.0427 139.291C82.0654 139.212 82.2018 139.167 82.1791 139.076C81.0991 139.246 80.508 139.36 79.9623 139.507H79.9509ZM78.2798 141.084C77.0179 141.413 74.0736 141.425 74.7784 140.925C75.6765 141.277 76.8247 140.789 78.2798 141.084ZM82.9976 138.849C82.8953 138.611 83.3045 138.543 83.6115 138.452C83.657 138.713 83.3159 138.974 82.9976 138.849ZM84.2822 135.933C83.1113 136.103 81.929 136.217 81.0195 136.341C80.6216 136.5 81.2242 136.739 81.5766 136.648C81.4629 136.943 80.8831 136.727 80.5989 136.807C80.5534 136.636 80.7694 136.58 80.7012 136.398C80.5989 136.194 79.8941 136.489 79.553 136.478C80.5875 135.842 81.6675 135.615 82.918 135.468C83.5433 135.4 84.214 135.332 84.9188 135.252C85.6236 135.139 86.3739 134.957 87.1924 134.73C87.2152 134.866 87.2379 135.003 87.4312 134.968C87.0105 135.184 86.5217 135.377 85.9874 135.547C85.726 135.638 85.4417 135.717 85.1575 135.785C84.8733 135.831 84.5778 135.876 84.2822 135.933ZM45.6191 124.507C45.6873 124.496 45.7669 124.507 45.8351 124.541C45.8351 124.541 45.8351 124.586 45.8124 124.609C45.5964 124.564 45.4941 124.541 45.4372 124.507C45.4941 124.507 45.5509 124.507 45.6191 124.507ZM36.4791 120.638L36.3313 120.774L36.1949 120.706L36.2631 120.604L36.3313 120.502L36.4677 120.649L36.4791 120.638ZM65.5816 14.6284C65.4565 14.7532 65.2633 14.8213 64.9677 14.844C64.9222 14.844 64.8768 14.844 64.8313 14.844C64.7062 14.7986 64.5016 14.8326 64.297 14.844C64.6949 14.6284 65.1269 14.583 65.5702 14.617L65.5816 14.6284ZM144.84 52.6275C144.965 53.0473 144.863 53.2289 144.749 53.3991C144.613 52.8885 144.579 52.3552 144.42 51.8446C144.42 51.7425 144.442 51.6517 144.465 51.5837C144.784 52.6616 144.363 52.5708 144.84 52.6275ZM145.068 53.5239C145.125 53.8529 145.181 54.0912 145.227 54.3068C145.204 54.3068 145.193 54.2841 145.159 54.2841C145.09 54.1933 145.034 54.1026 144.988 54.0118C144.897 53.7281 144.84 53.4558 145.068 53.5239ZM144.442 77.5443C144.465 77.2946 144.42 77.1471 144.34 77.0564C144.374 76.6365 144.431 76.2394 144.522 75.9444C144.59 76.0579 144.647 76.1827 144.704 76.3075C144.727 76.1373 144.658 75.8877 144.636 75.6607C144.647 75.6381 144.658 75.604 144.67 75.5813C144.658 75.5359 144.647 75.4792 144.636 75.4225C144.647 75.343 144.681 75.275 144.749 75.2296C144.772 75.57 145.011 75.5586 144.897 76.1373C144.249 76.8408 144.67 76.4436 144.431 77.5443H144.442ZM84.7142 15.6042C84.6005 15.6269 84.5437 15.6042 84.5096 15.5474C84.5778 15.5247 84.6573 15.5134 84.7369 15.4907C84.7369 15.5361 84.7369 15.5928 84.7255 15.5928L84.7142 15.6042ZM131.051 33.9286C130.755 33.9059 130.505 33.8265 130.482 33.4634C130.482 33.4634 130.482 33.4521 130.482 33.4407C130.687 33.5882 130.869 33.7471 131.051 33.9173V33.9286ZM144.272 71.9959C144.249 71.7122 144.226 71.4172 144.204 71.1222C144.204 71.0995 144.226 71.0768 144.226 71.0541C144.295 70.8385 144.488 70.657 144.67 70.4754C144.67 70.7704 144.67 71.0768 144.67 71.3718C144.693 72.0299 144.738 72.6653 144.84 73.2666C144.693 73.278 144.511 73.244 144.533 73.6184C144.681 73.6524 144.897 73.5617 144.909 73.7999C144.84 74.3332 144.727 74.7644 144.556 75.1048C144.352 74.2311 144.306 73.1418 144.261 71.9959H144.272ZM144.624 69.4543V69.6018C144.624 69.6018 144.613 69.4996 144.624 69.4543ZM135.189 38.4105C134.973 38.1835 135.018 37.8658 135.291 37.6502C135.314 37.6389 135.337 37.6276 135.371 37.6276C135.689 38.0133 135.985 38.4558 136.269 38.9551C135.871 39.0232 135.644 38.8757 135.2 38.4105H135.189ZM134.87 37.0829C134.541 36.9922 134.325 36.7766 134.211 36.4475C134.438 36.6404 134.654 36.856 134.87 37.0829ZM144.329 77.2152C144.363 77.4308 144.352 77.6691 144.306 77.9073C144.306 77.6691 144.306 77.4421 144.329 77.2152ZM146.477 60.5246C146.523 60.3885 146.591 60.241 146.671 60.1048C146.671 60.4112 146.637 60.6721 146.511 60.7742C146.511 60.6948 146.489 60.6154 146.477 60.5246ZM146.25 58.7432C146.25 58.6865 146.25 58.6071 146.25 58.5617C146.318 58.6411 146.375 58.7659 146.432 58.9248C146.375 58.8794 146.318 58.8227 146.239 58.7546L146.25 58.7432ZM145.67 56.7917C145.432 57.3136 145.773 57.9376 145.943 57.8696C145.92 58.1078 145.852 58.1873 145.773 58.1986C145.693 58.0965 145.613 57.9944 145.545 57.8923C145.522 57.8242 145.511 57.7561 145.5 57.688C145.409 57.5746 145.306 57.4724 145.204 57.3817C145.147 57.2795 145.09 57.1888 145.068 57.132C144.988 56.9392 145.215 56.6782 145.454 56.7122C145.511 56.7122 145.579 56.7349 145.636 56.7576C145.636 56.769 145.647 56.7803 145.659 56.7917H145.67ZM144.317 51.6063C144.317 51.6063 144.306 51.5723 144.295 51.5496C144.261 51.4702 144.261 51.4135 144.272 51.3454C144.283 51.4361 144.306 51.5156 144.317 51.595V51.6063ZM66.6843 14.8553C66.5706 14.8553 66.4797 14.8213 66.3887 14.7759C66.491 14.7986 66.582 14.8326 66.6843 14.8553ZM89.773 137.124C89.9094 137.533 89.2615 137.215 88.8067 137.476C88.9772 137.181 89.3297 137.158 89.773 137.124ZM127.026 119.299C127.208 119.617 126.526 119.832 126.128 120.445C126.015 120.32 125.821 120.479 125.719 120.332C126.162 119.946 126.617 119.526 127.026 119.31V119.299ZM127.913 118.153C128.004 118.255 128.106 118.346 128.254 118.198C128.47 118.38 127.754 119.118 127.493 119.208C127.368 118.959 127.538 118.596 127.913 118.153ZM141.987 87.9603C141.987 87.9603 142.055 87.9943 142.089 88.017C141.976 88.278 141.93 88.3007 141.873 88.2666C141.907 88.1645 141.953 88.0624 141.987 87.9603ZM144.079 80.7553C144.067 80.6078 144.056 80.4716 144.033 80.3468C144.09 80.2901 144.147 80.2447 144.204 80.222C144.204 80.3922 144.147 80.5737 144.079 80.7553ZM144.431 79.5866C144.397 79.3597 144.363 79.0647 144.34 78.747C144.397 78.486 144.465 78.2477 144.613 77.9073C144.568 78.7129 144.488 78.9739 144.522 79.5639C144.488 79.5639 144.454 79.5866 144.42 79.5866H144.431ZM146.727 63.8491C146.818 63.4066 146.841 62.9641 146.773 62.4195C147.307 62.6351 147.08 63.9059 146.807 64.3597C146.784 64.1895 146.762 64.0193 146.739 63.8605L146.727 63.8491ZM146.58 61.1373C146.75 61.3416 146.852 61.7387 146.932 62.2039C146.591 62.4081 146.477 61.4323 146.58 61.1373ZM145.215 52.1396L144.84 52.2417C144.704 51.9354 144.92 51.4248 144.602 51.3454C144.533 50.7213 144.84 51.4929 144.931 51.4475C144.977 51.2092 144.852 51.0731 144.693 50.8915C144.761 50.8348 144.818 50.7781 144.874 50.7213C145.113 51.1071 145.284 51.561 145.215 52.1396ZM144.477 49.0534C144.352 49.0421 144.283 48.713 144.215 48.452C144.215 48.452 144.238 48.452 144.249 48.452C144.34 48.452 144.42 48.3726 144.477 48.2932C144.727 48.8038 144.442 48.7697 144.477 49.0534ZM142.908 47.272C142.908 47.272 143.033 47.272 143.078 47.2947C143.408 47.5103 143.624 47.7826 143.704 48.1911C143.738 48.384 143.897 48.452 144.079 48.4634C144.113 48.6109 144.136 48.7697 144.136 48.974C144.045 48.9967 144.067 49.1555 143.999 49.2122C143.76 48.384 143.306 48.679 143.863 49.0647C143.885 49.1782 143.908 49.2917 143.931 49.4051C143.624 49.4051 143.317 49.3938 143.01 49.3598C142.919 49.3598 142.783 49.1215 142.805 49.0194C142.874 48.747 143.124 48.4747 143.09 48.2478C143.044 47.9868 142.715 47.7939 142.783 47.4536C142.794 47.3855 142.851 47.3174 142.908 47.272ZM139.668 41.2698C139.554 41.213 139.44 41.1676 139.327 41.2244C139.259 41.0542 139.179 40.918 139.111 40.7932C139.088 40.6797 139.077 40.5549 139.077 40.4415C139.259 40.7024 139.486 41.0088 139.679 41.2698H139.668ZM127.288 24.3409C127.356 24.4203 127.436 24.5111 127.504 24.5905C127.493 24.6132 127.481 24.6473 127.458 24.67C127.061 24.5905 126.867 24.0686 126.629 23.5693C126.845 23.8303 127.049 24.0799 127.288 24.3409ZM120.694 22.2418C120.694 22.2418 120.751 22.3099 120.774 22.3553C120.694 22.3212 120.615 22.2872 120.535 22.2645C120.569 22.2191 120.626 22.2078 120.694 22.2418ZM62.9783 15.0368C62.9783 15.1163 62.9783 15.1957 62.9783 15.2638C63.1602 15.2638 63.2738 15.1617 63.3421 15.0255C63.649 15.0255 63.9559 15.0368 64.2742 15.0482C64.1606 15.2978 63.9332 15.4567 63.7172 15.6042C63.3534 15.8424 63.092 15.7063 62.9669 15.3092C62.8419 15.3545 62.7054 15.3886 62.5804 15.4453C61.9779 15.7517 61.7619 15.7403 61.4436 15.3319C61.4436 15.3205 61.4208 15.2978 61.4095 15.2865C61.9324 15.1163 62.444 15.0482 62.9669 15.0368H62.9783ZM58.5447 15.729C59.0676 15.6269 59.5678 15.5815 60.0226 15.5815C59.9089 15.6836 59.7611 15.7517 59.5224 15.7403C59.3746 15.7403 59.1699 15.7403 59.1017 15.8311C58.5902 16.4778 57.7717 15.9446 57.2033 16.353C56.8054 16.6367 56.578 16.4892 56.3847 16.2736C57.1123 16.0353 57.8512 15.8538 58.5447 15.729ZM20.7342 107.045C20.666 107.034 20.6092 106.818 20.6205 106.705C20.6205 106.648 20.666 106.591 20.7001 106.534C20.7342 106.478 20.7797 106.432 20.8138 106.375C20.8706 106.489 20.9616 106.591 20.9843 106.705C21.007 106.886 20.9843 107.102 20.7228 107.045H20.7342ZM22.826 112.752C22.8032 112.854 22.6668 112.922 22.5872 113.013C22.5417 112.956 22.4508 112.911 22.4508 112.854C22.4281 112.65 22.4281 112.446 22.4167 112.242C22.4167 112.242 22.394 112.242 22.3826 112.242V112.196C22.2803 112.151 22.1666 112.105 22.0757 112.049C22.0529 112.049 22.0757 111.901 22.0984 111.901C22.3485 111.867 22.3599 112.026 22.3712 112.196H22.4053V112.242C22.7464 112.242 22.9055 112.412 22.8146 112.752H22.826ZM24.2015 114C24.0878 113.932 23.9741 113.864 23.8491 113.796C23.9741 113.728 24.0992 113.615 24.2242 113.626C24.3493 113.626 24.463 113.751 24.588 113.83C24.463 113.887 24.3265 113.955 24.2015 114.012V114ZM25.1223 114.976C25.111 115.146 25.0996 115.316 24.8381 115.271C24.8154 115.271 24.7926 115.135 24.8154 115.124C24.9063 115.067 25.02 115.021 25.1223 114.976V114.931C25.1223 114.931 25.1451 114.931 25.1564 114.931C25.1451 114.658 25.111 114.386 25.3383 114.17C25.4747 114.046 25.9181 114.046 25.9067 114.17C25.9067 114.284 25.8612 114.42 25.793 114.5C25.6225 114.704 25.4747 114.953 25.1451 114.931V114.965L25.111 114.987L25.1223 114.976ZM26.9299 115.396C26.6115 116.122 25.9408 116.678 25.8726 117.54C25.8726 117.586 25.5998 117.654 25.4861 117.62C25.3724 117.586 25.2019 117.416 25.2133 117.336C25.4293 116.485 25.8044 115.691 26.3387 114.987C26.3842 114.931 26.6229 114.987 26.7593 115.021C26.7593 115.021 26.8275 115.09 26.873 115.124C26.8844 115.146 26.8958 115.158 26.9185 115.169C26.9185 115.237 26.964 115.328 26.9412 115.385L26.9299 115.396ZM33.7394 121.035C33.6598 121.205 33.5461 121.273 33.3756 121.217C33.4211 121.069 33.512 120.944 33.7394 120.91C34.1259 120.854 34.2964 121.092 34.2509 121.432C34.2509 121.478 34.2509 121.5 34.2509 121.534C34.1259 121.41 33.9781 121.251 33.728 121.035H33.7394ZM36.57 121.739C36.57 121.739 36.57 121.773 36.5587 121.784L36.5246 121.75C36.5246 121.75 36.5587 121.75 36.57 121.739C36.57 121.705 36.5928 121.67 36.6042 121.636C36.6383 121.659 36.6724 121.67 36.6951 121.693C36.6496 121.705 36.6155 121.716 36.57 121.739ZM51.9398 133.698C50.5301 133.051 49.1546 132.404 47.4835 132.098C46.9378 131.848 46.4035 131.496 45.8237 131.133C45.7669 131.088 45.6987 131.043 45.6305 131.009C45.8919 131.065 46.1534 131.122 46.4035 131.179C47.0288 131.315 47.6313 131.451 48.2338 131.633C48.8477 131.791 49.4843 131.996 50.1664 132.302C51.3145 131.791 52.9402 133.822 54.0315 133.675C53.5995 132.983 55.4412 133.55 56.4984 133.675C56.3279 133.981 56.453 134.378 56.5212 134.934C54.8387 134.787 53.3722 134.242 51.9398 133.72V133.698ZM73.2096 137.26C73.5507 137.045 73.7553 137.476 74.3692 137.385C74.3578 137.294 74.1645 137.329 74.0281 137.306C74.0622 137.17 74.517 137.249 74.5056 137.09C74.3123 136.886 73.4711 137.113 73.0277 137.079C73.6984 136.602 75.3696 136.636 75.9152 136.33C76.1881 136.523 76.0744 136.841 75.9721 136.909C76.154 137.226 76.3359 136.909 76.6428 137.056C77.0862 136.897 76.1085 136.897 76.2676 136.602C77.5181 136.512 77.8137 136.625 78.3594 136.273C78.8937 136.353 78.3594 136.443 79.3371 136.228C79.5076 136.875 78.3139 136.546 77.9274 136.784C78.5299 137.192 79.985 136.137 80.0873 136.784C79.5758 136.841 79.0415 136.954 78.4844 137.068C77.9274 137.147 77.3476 137.238 76.7565 137.317C75.5742 137.476 74.3578 137.544 73.2096 137.249V137.26ZM73.5848 141.186C73.4256 141.481 73.9826 141.334 74.2896 141.345C73.7212 141.504 72.789 141.549 71.7545 141.583C70.7086 141.549 69.5604 141.493 68.5373 141.561C69.7537 140.846 71.7431 141.527 73.5848 141.186ZM68.0144 141.822C69.0034 141.981 69.2421 141.912 70.2994 142.003C69.3103 141.515 72.4934 141.765 72.7549 142.003C71.925 142.276 70.9473 142.219 70.0265 142.162C69.1057 142.117 68.2417 142.071 67.6506 142.298C67.5142 141.981 67.9348 142.015 68.0144 141.833V141.822ZM67.4573 142.661C67.6051 142.332 68.0826 142.582 68.344 142.695C68.2986 142.922 67.5596 142.718 67.4573 142.661ZM79.4507 143.195L79.4053 142.888L79.1665 142.945C78.78 143.013 78.3821 143.058 77.9615 143.115C77.1316 143.217 76.2563 143.308 75.3696 143.365C73.5848 143.467 71.6976 143.558 69.9356 143.229C69.7423 143.251 69.8105 143.422 69.5832 143.41C69.1626 143.365 68.8442 143.263 68.5146 143.172C68.56 142.877 69.4013 143.047 69.947 143.036C69.9583 142.9 69.9697 142.763 69.7651 142.741C71.493 142.695 74.6193 142.707 77.1657 142.015C77.7455 142.083 78.3025 142.162 78.6322 142.4C79.1438 142.287 78.4844 142.105 78.5754 141.924C79.0187 141.833 79.428 142.207 79.644 141.901C80.1669 141.901 79.86 142.015 79.8714 142.253C80.7467 141.981 81.3719 141.765 81.9517 141.742C82.0768 141.402 81.3833 141.686 81.0423 141.686C81.5425 141.266 82.7816 141.198 83.3159 141.322C83.5205 141.663 82.6111 142.083 83.6228 141.958C82.9066 142.423 80.7694 142.083 80.4625 142.559C81.8494 142.593 84.1685 141.867 84.987 142.321C83.1681 143.058 81.4743 142.763 79.4735 143.195H79.4507ZM87.5676 140.891C87.5449 140.721 87.3061 140.744 87.3061 140.562C87.9655 140.29 87.8973 140.71 88.5566 140.437C88.4316 140.642 87.8518 140.732 87.5676 140.891ZM92.2399 139.144C90.1368 139.473 88.3293 140.018 86.1807 140.449C86.2489 140.619 86.7718 140.358 86.9082 140.46C86.9537 140.755 85.8965 140.903 85.851 140.608C85.4076 140.88 85.3849 140.971 85.6464 141.322C84.8506 141.118 84.6914 140.869 84.9643 140.653C85.2485 140.426 85.9761 140.256 86.9764 140.04C86.7946 139.938 86.3967 140.04 86.0784 140.074C85.9306 139.802 86.84 139.802 86.8628 139.575C87.1015 139.541 87.0674 139.779 87.1242 139.904C88.7499 139.382 88.8636 139.303 90.637 138.781C90.9667 139.065 91.4896 138.554 91.9443 138.826C92.3763 138.622 91.3645 138.758 91.8193 138.463C93.0357 138.214 93.0016 138.486 94.2066 137.884C94.1384 137.624 93.1721 138.384 93.2858 137.919C94.0929 137.782 94.6613 137.487 95.2184 137.102C95.3548 137.294 95.3207 137.453 95.2184 137.612C95.6617 137.476 95.7072 137.283 95.5708 137.068C96.3665 136.659 96.6394 136.852 97.0259 136.931C96.412 137.907 93.1948 138.395 92.2058 139.144H92.2399ZM108.042 134.9C108.019 134.401 108.735 134.356 109.133 133.902C109.281 134.208 108.371 134.571 108.042 134.9ZM113.055 133.834C112.759 134.537 112.782 133.698 112.316 134.072C112.293 133.936 112.668 133.754 112.896 133.596C112.964 133.72 113.021 133.834 113.214 133.732C113.248 133.845 113.089 133.879 113.055 133.834ZM112.487 132.37L113.1 131.984L113.271 132.223C112.953 132.381 112.589 132.62 112.487 132.381V132.37ZM113.203 131.803C113.078 131.599 113.578 131.292 113.964 130.997L114.135 131.224C113.783 131.496 113.442 131.757 113.203 131.791V131.803ZM112.941 131.338C111.986 131.996 111.009 132.608 110.52 133.028C110.577 132.631 111.395 132.018 112.373 131.349C113.339 130.668 114.419 129.851 115.135 129.261C114.737 129.851 113.839 130.611 112.93 131.326L112.941 131.338ZM119.705 129.897C119.376 129.681 119.319 129.692 119.41 129.273C119.762 129.25 120.308 129.409 119.705 129.897ZM120.251 129.102C120.092 129.102 119.853 129.295 119.762 129.114C119.933 129.057 120.103 129 120.058 128.887C120.228 128.773 120.274 128.944 120.467 128.785C120.444 128.909 120.422 129.034 120.513 129.125C120.331 129.25 120.035 129.295 120.251 129.102ZM122.854 127.786C122.809 127.65 123.15 127.412 123.343 127.208C123.241 127.151 123.036 127.378 122.854 127.525C122.604 127.525 123.048 126.913 122.593 127.242C122.627 127.015 123.366 126.958 123.616 126.947C123.15 127.423 123.457 127.457 122.854 127.786ZM126.151 122.147L126.367 122.34L125.742 123.021C125.48 122.873 126.003 122.442 126.151 122.147ZM127.174 123.316C127.288 122.873 126.992 123.214 126.651 123.599C126.515 123.168 127.47 122.794 127.856 122.408C128.004 122.567 127.356 123.032 127.174 123.304V123.316ZM127.731 120.831C127.606 121.648 127.39 122.397 126.151 123.145C126.276 122.612 127.413 121.875 127.015 121.194C128.163 120.15 128.868 119.118 129.493 118.698C129.482 119.458 128.447 120.547 127.731 120.831ZM131.017 117.064C130.38 117.779 130.028 117.949 129.766 118.675L129.391 118.38C130.141 117.688 130.721 116.474 131.596 115.657C131.596 116.201 130.869 116.565 131.028 117.064H131.017ZM138.588 105.229C138.27 105.229 138.474 104.821 138.145 104.81C138.429 104.628 138.679 103.664 138.974 103.981C138.77 103.596 139.463 102.892 139.77 102.313C139.19 103.403 139.122 104.481 138.588 105.229ZM138.713 108.441C138.576 108.35 138.417 108.441 138.27 108.633C138.099 108.509 138.326 108.134 138.577 107.737C138.577 108.112 138.815 107.703 138.827 108.077C139.043 107.794 139.281 107.034 139.475 107.351C139.236 107.499 138.974 108.021 138.724 108.452L138.713 108.441ZM139.725 106.41C139.691 105.831 139.975 105.717 140.304 105.218C140.339 105.797 140.054 105.91 139.725 106.41ZM140.395 99.579C140.339 99.3861 140.384 99.0798 140.555 98.6599C140.827 98.7167 140.657 99.3975 140.395 99.579ZM140.236 96.992C140.225 96.5041 140.486 96.3453 140.634 95.5964C140.907 95.6985 140.452 96.7878 140.236 96.992ZM141.191 93.1342C141.453 93.3839 140.93 93.815 140.964 94.3823C140.566 94.405 141.134 93.5427 141.191 93.1342ZM141.146 96.1524C141.043 95.4716 141.18 95.1539 141.35 94.1214C141.407 94.4164 141.248 95.3695 141.657 94.405C141.976 94.7681 141.316 95.5056 141.134 96.1524H141.146ZM142.521 88.2893C142.146 90.048 142.317 90.7174 142.283 91.5684C142.203 91.9769 141.964 91.6932 141.862 92.0109C142.373 91.8407 142.021 93.1683 141.782 94.0533C141.475 93.8944 141.305 93.8944 141.293 93.7129C141.464 93.5654 141.6 92.9413 141.555 92.6577C141.203 93.0888 141.396 92.0563 141.168 91.9882C141.328 91.6478 141.419 91.6592 141.498 91.8975C141.623 90.5586 142.271 89.0155 142.373 87.6879C142.476 87.7333 142.51 88.0397 142.658 87.7447C142.26 87.9376 142.749 87.1433 142.499 87.166C142.373 87.3589 142.294 87.3022 142.248 87.1433C142.385 86.7348 142.521 86.3264 142.635 85.9066C142.987 85.7817 142.464 86.6668 142.715 86.6668C142.862 85.8839 143.544 84.6925 143.203 84.3975C142.999 85.169 143.01 85.4981 142.646 85.8612C142.646 85.8385 142.658 85.8158 142.669 85.7931C142.828 85.1123 142.953 84.4088 143.056 83.6827C143.203 83.6827 143.328 83.6146 143.453 83.5125V83.5352C143.715 83.9209 143.658 84.4202 143.544 84.9308C143.419 85.4414 143.215 85.952 143.272 86.4172C143.033 86.8256 142.908 86.7802 142.771 86.871C143.021 87.2227 142.715 88.868 142.589 89.2197C142.271 89.2311 142.715 88.4028 142.521 88.278V88.2893ZM142.51 97.2076C142.817 96.6062 142.612 96.2885 142.953 95.9822C143.419 95.9028 142.828 97.548 142.51 97.2076ZM142.987 95.5964C143.385 95.3241 143.715 94.5866 144.158 94.5866C143.817 95.2447 143.465 95.8914 142.987 95.5964ZM147.307 64.0193C147.387 63.7357 147.398 64.8022 147.5 65.4944C147.08 65.3128 147.171 64.4732 147.307 64.0193Z" fill="#5FB01C"/>
<path id="Vector_67" fill-rule="evenodd" clip-rule="evenodd" d="M41.8677 6.32812C41.5948 6.74794 39.8328 7.30392 39.7305 7.48546C40.117 7.42873 42.4475 6.40755 41.8677 6.32812Z" fill="#5FB01C"/>
<path id="Vector_68" fill-rule="evenodd" clip-rule="evenodd" d="M101.984 7.77482C102.45 7.89963 103.087 8.26272 103.462 8.26272C103.087 8.02444 102.234 7.65001 101.984 7.77482Z" fill="#5FB01C"/>
<path id="Vector_69" fill-rule="evenodd" clip-rule="evenodd" d="M109.041 8.14673C108.859 8.44173 108.132 7.84037 107.779 7.85172C107.973 8.21481 109.359 8.60058 109.041 8.14673Z" fill="#5FB01C"/>
<path id="Vector_70" fill-rule="evenodd" clip-rule="evenodd" d="M113.942 5.25138C114.033 5.11522 114.42 5.47831 114.533 5.38753C114.249 5.26272 114.17 4.74079 114.567 4.95637C114.772 5.26272 115.022 5.05849 115.522 5.17195C114.59 4.8656 113.249 3.96923 112.828 4.12808C113.533 4.26424 114.374 5.05849 113.942 5.25138Z" fill="#5FB01C"/>
<path id="Vector_71" fill-rule="evenodd" clip-rule="evenodd" d="M114.351 14.7969C114.112 14.9898 114.465 15.2621 114.874 15.5457C114.783 15.0919 115.738 16.0223 115.317 15.523C114.965 15.2734 114.772 15.3529 114.817 15.0352C114.897 15.0919 115.022 15.0919 114.874 14.9557C114.737 15.0011 114.601 15.0238 114.419 14.9784C114.442 14.9217 114.465 14.8763 114.34 14.7969H114.351Z" fill="#5FB01C"/>
<path id="Vector_72" fill-rule="evenodd" clip-rule="evenodd" d="M115.613 15.9773C116.409 16.9078 117.364 18.4282 118.364 18.5757C118.273 18.4736 118.114 18.3487 118.171 18.2693C118.58 18.587 118.819 18.4509 119.319 19.0409C119.524 18.882 119.217 18.6097 118.99 18.3601C118.353 18.0651 116.057 16.556 116.261 15.9773C116.045 15.9773 115.772 15.8525 115.613 15.9773Z" fill="#5FB01C"/>
<path id="Vector_73" fill-rule="evenodd" clip-rule="evenodd" d="M122.287 12.7812C122.537 13.3826 124.493 14.4378 124.481 15.13C124.811 15.425 125.004 15.3796 125.379 15.8221C125.209 15.8561 125.015 15.8221 124.845 15.8561C125.141 16.0604 125.447 16.2759 125.743 16.5369C126.027 16.8092 126.311 17.1042 126.607 17.4219C127.187 18.046 127.767 18.7381 128.346 19.4189C129.517 20.7918 130.711 22.142 131.87 23.1065C131.984 24.2865 133.587 24.6042 133.428 25.4665C133.587 25.1829 133.496 25.251 133.803 25.1715C132.848 24.4227 131.961 22.9136 132.052 22.3236C132.018 22.3009 132.018 22.2555 132.098 22.1647C132.064 22.1988 132.064 22.2669 132.052 22.3236C132.166 22.403 132.746 22.2328 132.757 22.8569C133.087 22.9249 132.734 22.2328 133.053 22.6072C133.155 22.9817 133.223 23.3334 133.257 23.6625C133.553 23.9915 133.826 24.2071 134.099 24.4454C134.03 24.5361 133.86 24.5929 133.985 24.7744C134.326 24.2979 134.69 25.4665 134.86 25.7729C134.928 25.2963 134.235 24.4454 134.36 23.9915C133.996 24.0596 134.11 23.7419 133.701 23.288C133.769 23.1973 133.928 23.1405 133.814 22.959C133.644 22.9023 133.451 22.1307 132.916 21.9605C133.121 22.3122 133.053 22.3803 132.814 22.3009C132.359 21.4499 131.461 20.7805 131.086 19.7593C130.62 20.0543 130.347 19.3622 129.915 18.7608C129.79 18.8402 129.699 19.0558 129.506 18.8856C129.267 18.5793 129.438 18.4318 129.404 18.2048C129.608 18.4658 130.302 18.9083 129.995 18.4318C129.779 18.602 129.165 17.4106 128.949 17.5808C129.244 17.8758 129.301 18.08 129.131 18.2048C128.994 17.6942 128.71 18.046 128.289 17.4333C128.062 17.5581 127.846 17.7396 127.551 17.6375C127.585 16.9567 126.698 17.0135 126.255 16.5483C126.061 16.0036 125.891 15.5384 126.027 15.13C125.538 14.7782 125.459 14.5967 125.266 14.5626C125.538 14.8463 125.368 15.0051 125.425 15.2321C124.424 14.5967 124.186 14.2563 123.322 13.3372C122.969 13.3826 122.605 13.2351 122.287 12.8039V12.7812ZM129.79 19.9068C129.995 20.0089 130.222 20.1905 130.495 20.5422C130.393 21.0301 129.801 19.7479 129.699 20.2472C129.563 20.077 129.722 20.0089 129.779 19.9068H129.79Z" fill="#5FB01C"/>
<path id="Vector_74" fill-rule="evenodd" clip-rule="evenodd" d="M121.535 20.9388C121.751 21.2678 121.683 21.5175 121.672 21.7784C121.944 22.1642 122.047 21.8919 122.274 22.1415C122.149 22.255 122.195 22.4138 122.308 22.5954C122.638 22.028 121.763 21.5969 121.91 21.0409C121.819 21.1317 121.637 20.8821 121.535 20.9274V20.9388Z" fill="#5FB01C"/>
<path id="Vector_75" fill-rule="evenodd" clip-rule="evenodd" d="M141.747 40.7003C141.679 39.7245 142.372 40.984 142.452 40.3826C142.133 40.4847 141.838 39.8266 141.52 39.7812C141.952 40.3599 141.44 40.2124 141.747 40.7117V40.7003Z" fill="#5FB01C"/>
<path id="Vector_76" fill-rule="evenodd" clip-rule="evenodd" d="M142.009 44.0332C141.872 44.0332 141.747 43.8516 141.588 44.0105C141.804 44.5097 141.645 44.6686 141.645 44.9749C141.758 44.8955 142.156 45.7805 142.043 45.2132C141.508 44.5891 142.111 44.453 142.009 44.0332Z" fill="#5FB01C"/>
<path id="Vector_77" fill-rule="evenodd" clip-rule="evenodd" d="M136.746 110.601C137.076 110.374 137.587 110.43 137.451 110.351C137.587 109.852 136.951 110.158 136.746 110.601Z" fill="#5FB01C"/>
<path id="Vector_78" fill-rule="evenodd" clip-rule="evenodd" d="M130.586 119.34C130.12 119.919 129.529 120.18 129.551 120.668C129.881 120.463 130.552 119.851 130.427 120.407C130.54 119.93 131.893 119.045 131.529 119.113C131.166 119.408 130.211 120.134 130.597 119.34H130.586Z" fill="#5FB01C"/>
<path id="Vector_79" fill-rule="evenodd" clip-rule="evenodd" d="M137.178 126.862C137.155 127.089 137.155 127.067 137.064 127.861C137.621 127.101 138.11 126.363 137.803 126C137.644 126.261 136.996 126.749 137.178 126.851V126.862Z" fill="#5FB01C"/>
<path id="Vector_80" fill-rule="evenodd" clip-rule="evenodd" d="M113.396 136C113.134 136.204 112.895 136.136 112.907 136.306C113.566 136.113 112.361 136.806 112.418 136.953C112.85 136.817 113.884 136.113 113.668 136.057C112.998 136.499 113.248 136.261 113.396 136Z" fill="#5FB01C"/>
<path id="Vector_81" fill-rule="evenodd" clip-rule="evenodd" d="M91.5467 144.919C91.8196 144.941 92.2629 144.816 92.3653 144.998C91.5013 145.27 90.0461 145.077 90.5236 145.486C90.7851 145.191 91.6718 145.304 91.8992 145.418C92.0583 145.157 93.7408 144.385 93.2292 144.556C92.4335 144.964 91.8082 144.612 91.5467 144.919Z" fill="#5FB01C"/>
<path id="Vector_82" fill-rule="evenodd" clip-rule="evenodd" d="M87.0995 145.158C87.1109 145.612 86.4061 146.123 87.1791 146.316C87.0768 146.145 87.3837 146.077 87.486 145.953C86.8835 145.85 86.9631 145.283 88.0544 145.113C88.1681 144.75 87.4519 145.113 87.0995 145.158Z" fill="#5FB01C"/>
<path id="Vector_83" fill-rule="evenodd" clip-rule="evenodd" d="M83.8395 146.11C83.4643 146.258 84.2715 146.428 84.1578 146.746L83.4075 146.87L83.3165 146.394C82.7481 146.791 81.6341 146.859 82.1002 147.165C81.7932 147.063 81.3158 147.211 81.168 147.404C82.6231 147.313 82.9869 146.905 84.1919 146.927C84.1919 146.814 84.2033 146.7 84.5329 146.678C83.9645 146.507 84.4988 146.088 83.8395 146.11Z" fill="#5FB01C"/>
<path id="Vector_84" fill-rule="evenodd" clip-rule="evenodd" d="M75.7793 151.558C76.1544 151.683 77.1094 151.478 76.8252 151.978C78.2576 151.842 76.2454 151.206 75.7793 151.558Z" fill="#5FB01C"/>
<path id="Vector_85" fill-rule="evenodd" clip-rule="evenodd" d="M67.9023 146.44C68.1183 146.496 68.323 146.565 68.4594 146.655C70.5398 146.576 68.3116 146.417 67.9023 146.44Z" fill="#5FB01C"/>
<path id="Vector_86" fill-rule="evenodd" clip-rule="evenodd" d="M66.7641 146.864C66.9232 147.159 67.7759 147.272 68.2647 147.216C68.1283 147 67.4462 146.83 67.9009 146.626C66.9005 146.512 66.298 146.626 65.65 146.716C66.1957 147.068 65.093 147.046 65.434 147.182C65.6841 147.068 66.3321 147.091 66.5708 147.238C66.8209 147.011 66.4913 146.932 66.7755 146.864H66.7641Z" fill="#5FB01C"/>
<path id="Vector_87" fill-rule="evenodd" clip-rule="evenodd" d="M64.1822 145.956C64.1936 146.195 63.8753 146.251 63.6025 146.285C63.5684 146.081 62.784 146.149 62.693 145.968C62.4884 146.024 62.6021 146.308 62.1132 146.183C58.8847 145.684 56.4746 145.378 54.2351 144.731C53.1097 144.436 52.0069 144.141 50.836 143.835C50.2563 143.676 49.6537 143.517 49.0285 143.347C48.4146 143.131 47.778 142.916 47.0959 142.677C46.9822 143.313 46.5161 142.382 46.1523 142.552C46.3456 143.154 46.7776 143.199 47.5961 143.664C47.8462 143.426 47.1868 143.313 47.1755 143.108C47.4142 143.199 47.5847 143.199 47.7325 143.199C47.3687 143.517 48.5738 143.778 47.9258 143.88C49.2559 144.243 50.7564 144.436 52.3821 144.788C53.2006 144.958 54.0418 145.139 54.9399 145.344C55.3833 145.446 55.838 145.559 56.3155 145.673C56.7929 145.763 57.2704 145.854 57.7706 145.956C57.782 145.786 57.9525 145.729 58.1799 145.729C58.6005 146.036 58.6573 145.9 59.4758 146.024C59.2257 146.274 59.3167 146.365 59.7828 146.558C59.8282 146.456 59.7828 146.285 60.0101 146.297C60.9764 146.433 62.261 146.49 63.3865 146.444C64.3982 146.399 65.2736 146.206 65.7283 146.024C65.3873 146.104 64.6256 145.945 64.1936 145.968L64.1822 145.956Z" fill="#5FB01C"/>
<path id="Vector_88" fill-rule="evenodd" clip-rule="evenodd" d="M40.3887 130.23C41.0367 130.48 41.7528 130.968 41.0139 130.843C41.3663 131.115 41.8324 131.421 42.1166 131.251C42.5827 131.694 42.6396 132.409 43.3671 132.579C43.3103 132.738 43.2193 132.84 43.0602 132.862C43.5945 133.033 43.8673 132.862 44.3107 132.908C44.5949 133.078 44.2879 133.305 44.8109 133.452C45.0496 133.282 45.9136 133.498 46.7207 133.804C46.6753 133.85 46.6298 133.906 46.6184 133.952C46.6184 134.077 46.698 134.201 46.7321 134.337C46.8117 134.258 46.9367 134.179 46.9367 134.099C46.9367 134.031 46.9254 133.952 46.8913 133.884C47.7893 134.258 48.551 134.723 48.2327 134.916C48.6988 135.03 49.1649 135.211 49.6196 135.404C49.5628 135.404 49.5059 135.495 49.4491 135.54C49.3468 135.631 49.3923 135.767 49.5855 135.813C50.0061 135.915 50.4836 135.79 50.8133 136.187C51.1998 135.915 51.5295 136.039 51.9274 136.244C52.1547 136.357 52.3252 136.244 52.4162 136.005C52.4503 136.005 52.473 136.005 52.5071 135.983C52.4844 135.971 52.4617 135.96 52.4389 135.949C52.4617 135.869 52.4617 135.79 52.473 135.688C52.7572 135.744 53.0755 135.824 53.121 135.642C52.9164 135.597 52.689 135.552 52.473 135.506C52.4389 135.302 52.348 135.018 52.2343 135.098C52.0751 135.211 51.9046 135.279 51.7341 135.325C51.5749 135.291 51.4272 135.257 51.268 135.211C50.6427 135.007 49.9948 134.78 49.3695 134.542C48.119 134.077 46.914 133.623 45.9704 133.282C46.0841 133.203 46.2205 133.135 46.3911 133.123C46.8685 133.271 47.039 133.759 47.3346 133.464C46.8458 133.294 46.6298 133.078 46.3001 132.885C46.05 133.101 45.5953 132.999 45.1519 132.828C44.7086 132.636 44.2652 132.397 43.9696 132.431C44.2084 132.409 44.2993 132.193 44.1515 131.989C43.5035 131.773 42.6623 131.285 42.3099 130.809C42.4008 130.695 42.6168 130.775 42.7305 130.684C41.7756 130.23 41.3663 130.4 40.3887 130.219V130.23Z" fill="#5FB01C"/>
<path id="Vector_89" fill-rule="evenodd" clip-rule="evenodd" d="M44.652 137.821C45.5614 137.923 46.3458 138.014 47.2098 138.638C47.2553 138.513 47.1985 138.411 47.1302 138.309C47.4145 138.411 47.585 138.388 47.6873 138.309C46.6301 138.07 46.1412 137.809 45.1067 137.594C46.2094 137.968 44.9021 137.832 44.6406 137.832L44.652 137.821Z" fill="#5FB01C"/>
<path id="Vector_90" fill-rule="evenodd" clip-rule="evenodd" d="M42.9922 136.651C42.708 136.527 42.492 136.402 42.3783 136.266C42.0941 136.447 42.924 137.207 42.7193 136.844C42.2646 136.583 43.0263 136.822 42.9922 136.651Z" fill="#5FB01C"/>
<path id="Vector_91" fill-rule="evenodd" clip-rule="evenodd" d="M39.218 137.234C38.7747 137.768 40.7186 138.199 40.7868 138.709L40.855 138.528C40.9573 138.573 41.0597 138.607 41.0597 138.517C40.6731 138.278 40.1161 138.063 39.434 137.654C39.4795 137.507 39.5932 137.359 39.218 137.234Z" fill="#5FB01C"/>
<path id="Vector_92" fill-rule="evenodd" clip-rule="evenodd" d="M33.5804 141.568C33.7623 141.591 34.3307 141.432 33.9669 141.228C33.5008 141.364 33.2848 141.024 32.9096 141.126C33.2052 141.296 33.3303 141.432 33.353 141.58C32.7278 141.421 32.7619 141.273 32.1366 140.91C32.0116 141.046 32.2276 141.205 32.1366 141.353C31.6023 140.888 31.0566 140.956 30.6133 140.797C31.1362 141.069 31.0453 141.296 31.5682 141.58C32.2276 141.512 32.6482 141.92 33.8646 142.363C33.8987 142.17 34.1942 142.306 34.3534 142.272C33.8987 142.045 33.8077 141.807 33.5804 141.58V141.568Z" fill="#5FB01C"/>
<path id="Vector_93" fill-rule="evenodd" clip-rule="evenodd" d="M38.3086 123.642C38.6951 123.732 38.8429 124.209 38.9679 124.039C38.3882 123.653 38.7178 123.562 38.6837 123.312C38.3768 123.392 38.3086 123.301 38.3086 123.653V123.642Z" fill="#5FB01C"/>
<path id="Vector_94" fill-rule="evenodd" clip-rule="evenodd" d="M117.978 7.79314C118.637 8.32642 118.944 8.17892 119.433 8.38315C119.82 8.76893 119.842 9.09798 120.07 9.46106C120.445 9.58587 120.843 9.92626 121.297 10.312C121.729 10.7319 122.207 11.1971 122.787 11.5602C122.059 10.9815 122.105 10.607 121.934 10.1759C121.263 9.91492 121.013 9.47241 120.399 9.3476C120.513 9.21144 120.399 9.09798 120.149 9.04124C120.308 8.87105 120.456 8.68951 120.126 8.42854C119.626 8.3945 118.899 7.9066 118.398 7.86122C118.319 7.64564 118.308 7.4414 118.148 7.20312C118.08 7.31659 117.955 7.32794 117.83 7.32794C118.114 7.52083 118.137 7.66833 117.978 7.79314Z" fill="#5FB01C"/>
<path id="Vector_95" fill-rule="evenodd" clip-rule="evenodd" d="M48.3254 144.761C47.9502 144.488 47.5069 144.227 47.0408 143.989C46.0972 143.512 45.0059 143.138 43.96 143.104C43.8918 143.898 43.1188 143.955 42.0843 143.751C42.3116 143.32 41.1521 143.036 41.0498 142.639C40.9588 143.059 40.3222 142.605 40.3449 142.843C40.2995 142.673 40.1517 142.503 39.9243 142.332C39.7993 142.798 38.7193 142.105 38.0145 141.867C37.8894 142.208 38.1054 142.208 37.7871 142.4C38.4919 143.059 40.2654 143.944 40.8338 144.295C42.6754 144.431 44.6535 146.576 46.9953 147.109C48.5641 147.45 49.5873 146.769 49.2689 145.475C49.0416 145.248 48.7119 145.01 48.3254 144.749V144.761Z" fill="#5FB01C"/>
</g>
</g>
</g>
</svg>
