<svg width="6" height="610" viewBox="0 0 6 610" fill="none" xmlns="http://www.w3.org/2000/svg">
<path d="M0.333307 606.512C0.333307 607.984 1.52721 609.178 2.99997 609.178C4.47273 609.178 5.66664 607.984 5.66664 606.512C5.66664 605.039 4.47273 603.845 2.99997 603.845C1.52721 603.845 0.333307 605.039 0.333307 606.512ZM2.5 -2.18557e-08L2.5 6.06511L3.5 6.06511L3.5 2.18557e-08L2.5 -2.18557e-08ZM2.5 18.1953L2.5 30.3256L3.5 30.3256L3.5 18.1953L2.5 18.1953ZM2.5 42.4558L2.5 54.586L3.5 54.586L3.5 42.4558L2.5 42.4558ZM2.5 66.7163L2.5 78.8465L3.5 78.8465L3.5 66.7163L2.5 66.7163ZM2.5 90.9767L2.5 103.107L3.5 103.107L3.5 90.9767L2.5 90.9767ZM2.49999 115.237L2.49999 127.367L3.49999 127.367L3.49999 115.237L2.49999 115.237ZM2.49999 139.498L2.49999 151.628L3.49999 151.628L3.49999 139.498L2.49999 139.498ZM2.49999 163.758L2.49999 175.888L3.49999 175.888L3.49999 163.758L2.49999 163.758ZM2.49999 188.019L2.49999 200.149L3.49999 200.149L3.49999 188.019L2.49999 188.019ZM2.49999 212.279L2.49999 224.409L3.49999 224.409L3.49999 212.279L2.49999 212.279ZM2.49999 236.54L2.49999 248.67L3.49999 248.67L3.49999 236.54L2.49999 236.54ZM2.49999 260.8L2.49999 272.93L3.49999 272.93L3.49999 260.8L2.49999 260.8ZM2.49999 285.06L2.49999 297.191L3.49999 297.191L3.49999 285.06L2.49999 285.06ZM2.49999 309.321L2.49999 321.451L3.49999 321.451L3.49999 309.321L2.49999 309.321ZM2.49999 333.581L2.49998 345.712L3.49998 345.712L3.49999 333.581L2.49999 333.581ZM2.49998 357.842L2.49998 369.972L3.49998 369.972L3.49998 357.842L2.49998 357.842ZM2.49998 382.102L2.49998 394.232L3.49998 394.232L3.49998 382.102L2.49998 382.102ZM2.49998 406.363L2.49998 418.493L3.49998 418.493L3.49998 406.363L2.49998 406.363ZM2.49998 430.623L2.49998 442.753L3.49998 442.753L3.49998 430.623L2.49998 430.623ZM2.49998 454.883L2.49998 467.014L3.49998 467.014L3.49998 454.883L2.49998 454.883ZM2.49998 479.144L2.49998 491.274L3.49998 491.274L3.49998 479.144L2.49998 479.144ZM2.49998 503.404L2.49998 515.535L3.49998 515.535L3.49998 503.404L2.49998 503.404ZM2.49998 527.665L2.49998 539.795L3.49998 539.795L3.49998 527.665L2.49998 527.665ZM2.49998 551.925L2.49998 564.056L3.49998 564.056L3.49998 551.925L2.49998 551.925ZM2.49997 576.186L2.49997 588.316L3.49997 588.316L3.49997 576.186L2.49997 576.186ZM2.49997 600.446L2.49997 606.512L3.49997 606.512L3.49997 600.446L2.49997 600.446Z" fill="#0A6D1A"/>
</svg>
