<svg width="10" height="13" viewBox="0 0 10 13" fill="none" xmlns="http://www.w3.org/2000/svg">
<g id="Group">
<path id="Vector" d="M7.77202 6.17969H2.17501C1.98182 6.17969 1.8252 6.33631 1.8252 6.5295V8.95487C1.8252 9.14806 1.98182 9.30469 2.17501 9.30469H7.77202C7.96521 9.30469 8.12184 9.14806 8.12184 8.95487V6.5295C8.12184 6.33631 7.96521 6.17969 7.77202 6.17969Z" fill="#B5461D"/>
<path id="Vector_2" d="M8.68091 3.94531H1.26487C0.749685 3.94531 0.332031 4.36297 0.332031 4.87815V5.95091C0.332031 6.46609 0.749685 6.88375 1.26487 6.88375H8.68091C9.19609 6.88375 9.61375 6.46609 9.61375 5.95091V4.87815C9.61375 4.36297 9.19609 3.94531 8.68091 3.94531Z" fill="#B5461D"/>
<path id="Vector_3" d="M7.56142 8.68827L7.37168 8.38027L7.095 7.76672L6.44202 7.35938H3.50359L2.8506 7.76672L2.19762 7.70765L1.65722 7.85175C1.09661 8.00126 0.705078 8.51089 0.705078 9.09109V11.103L3.31021 12.1291H4.9728L8.03019 10.6957L8.16828 9.70371C8.16828 9.12351 8.12206 8.83778 7.56142 8.68827Z" fill="#B5461D"/>
<path id="Vector_4" d="M8.28821 7.85173L7.74784 7.70763L7.09486 7.76672L6.44187 7.35938H4.97266V12.1291H6.63525L9.24038 11.1029V9.09107C9.24038 8.51087 8.84885 8.00124 8.28821 7.85173Z" fill="#B5461D"/>
<path id="Vector_5" d="M2.19824 7.70763V12.1291H3.31084C3.31874 12.0896 3.50421 10.8488 3.50421 10.0768V7.74473L3.73742 7.5795L3.50421 7.35938L2.19824 7.70763Z" fill="#FFC800"/>
<path id="Vector_6" d="M6.44219 7.35938L6.20898 7.56761L6.44219 7.74473V10.0768C6.44219 10.8488 6.62766 12.0896 6.63557 12.1291H7.74816V7.70763L6.44219 7.35938Z" fill="#FFC800"/>
<path id="Vector_7" d="M8.44789 9.53906H7.74827C7.23308 9.53906 6.81543 9.95672 6.81543 10.4719V11.1948C6.81543 11.71 7.23308 12.1277 7.74827 12.1277H8.44789C8.96307 12.1277 9.38073 11.71 9.38073 11.1948V10.4719C9.38073 9.95672 8.96307 9.53906 8.44789 9.53906Z" fill="#FFC800"/>
<path id="Vector_8" d="M2.19789 9.53906H1.49827C0.983084 9.53906 0.56543 9.95672 0.56543 10.4719V11.1948C0.56543 11.71 0.983084 12.1277 1.49827 12.1277H2.19789C2.71307 12.1277 3.13073 11.71 3.13073 11.1948V10.4719C3.13073 9.95672 2.71307 9.53906 2.19789 9.53906Z" fill="#FFC800"/>
<path id="Vector_9" d="M6.09253 5.60156H3.85372C3.66053 5.60156 3.50391 5.75819 3.50391 5.95138V7.74708L4.77494 8.68834C4.83325 8.72844 4.90236 8.7499 4.97312 8.74988C4.97312 8.74988 5.54208 8.0077 5.60178 7.96665L5.81902 7.00665L6.44234 5.95138C6.44234 5.75819 6.28572 5.60156 6.09253 5.60156Z" fill="#FFC800"/>
<path id="Vector_10" d="M6.09206 5.60156H4.97266V8.74988C5.0419 8.74988 5.11114 8.72936 5.17084 8.68834L6.44187 7.74708V5.95138C6.44187 5.75819 6.28525 5.60156 6.09206 5.60156Z" fill="#FFC800"/>
<path id="Vector_11" d="M6.83897 2.82031H3.10763C2.91444 2.82031 2.75781 2.97694 2.75781 3.17013V4.84923C2.75781 6.07085 3.75168 7.06472 4.9733 7.06472C4.9733 7.06472 5.88281 6.07085 5.88281 4.84923L7.18878 3.17013C7.18878 2.97694 7.03216 2.82031 6.83897 2.82031Z" fill="#FFC800"/>
<path id="Vector_12" d="M6.83833 2.82031H4.97266V7.06472C6.19427 7.06472 7.18814 6.07085 7.18814 4.84923V3.17013C7.18814 2.97694 7.03152 2.82031 6.83833 2.82031Z" fill="#FFC800"/>
<path id="Vector_13" d="M7.58524 0.1875H4.04046C3.33321 0.1875 2.75781 0.762896 2.75781 1.47015V1.8666C2.75781 2.05979 2.91444 2.21642 3.10763 2.21642H6.83897C6.89619 2.21642 6.95254 2.20238 7.00308 2.17554C7.04114 2.15532 7.93505 1.66742 7.93505 0.537313C7.93505 0.344123 7.77843 0.1875 7.58524 0.1875Z" fill="#FFC800"/>
<path id="Vector_14" d="M7.21219 1.86719H2.73458C2.54139 1.86719 2.38477 2.02381 2.38477 2.217V3.17316C2.38477 3.36635 2.54139 3.52297 2.73458 3.52297H7.21219C7.40538 3.52297 7.562 3.36635 7.562 3.17316V2.217C7.562 2.02381 7.40538 1.86719 7.21219 1.86719Z" fill="#B5461D"/>
</g>
</svg>
