<svg width="16" height="16" viewBox="0 0 16 16" fill="none" xmlns="http://www.w3.org/2000/svg">
<g clip-path="url(#clip0_4668_59341)">
<path d="M15.7897 6.46257L13.5085 4.54V1.81079C13.5086 1.74377 13.4955 1.67738 13.4699 1.61543C13.4443 1.55348 13.4068 1.49718 13.3594 1.44975C13.312 1.40233 13.2558 1.3647 13.1939 1.33903C13.1319 1.31336 13.0656 1.30015 12.9985 1.30015H11.382C11.3149 1.30006 11.2484 1.31321 11.1864 1.33884C11.1244 1.36447 11.0681 1.40208 11.0207 1.44952C10.9732 1.49695 10.9356 1.55328 10.91 1.61527C10.8844 1.67727 10.8712 1.74371 10.8713 1.81079V2.31677L8.44476 0.271533C8.32355 0.157343 8.16331 0.09375 7.99678 0.09375C7.83026 0.09375 7.67002 0.157343 7.54881 0.271533L0.210487 6.46257C0.113394 6.55296 0.0457616 6.67049 0.0163935 6.79985C-0.0129747 6.92921 -0.00271825 7.06442 0.0458277 7.18787C0.094701 7.31056 0.179294 7.41574 0.288645 7.48979C0.397997 7.56384 0.527067 7.60335 0.659132 7.60319H1.72041V15.2575C1.72041 15.6195 2.01707 15.9168 2.38038 15.9168H13.6199C13.7948 15.9164 13.9624 15.8468 14.0861 15.7231C14.2098 15.5994 14.2795 15.4318 14.2798 15.2568V7.60385H15.3411C15.4741 7.60404 15.604 7.56378 15.7135 7.48841C15.823 7.41304 15.9071 7.30613 15.9544 7.18187C16.0025 7.05943 16.0125 6.92533 15.9831 6.79711C15.9538 6.66889 15.8864 6.55186 15.7897 6.46257ZM8.49809 13.5196C8.43158 13.6101 8.34469 13.6837 8.24446 13.7344C8.14423 13.7852 8.03346 13.8116 7.92112 13.8116C7.80878 13.8116 7.69802 13.7852 7.59778 13.7344C7.49755 13.6837 7.41067 13.6101 7.34415 13.5196C6.43419 12.267 4.7596 9.80108 4.7596 8.53581C4.76102 7.69751 5.09507 6.89404 5.68839 6.30184C6.28172 5.70964 7.08582 5.37711 7.92412 5.37729C8.76242 5.37711 9.56652 5.70964 10.1598 6.30184C10.7532 6.89404 11.0872 7.69751 11.0886 8.53581C11.0886 9.80108 9.41405 12.267 8.49809 13.5196Z" fill="#B4870B"/>
<path d="M8 10.3125C9.10457 10.3125 10 9.41707 10 8.3125C10 7.20793 9.10457 6.3125 8 6.3125C6.89543 6.3125 6 7.20793 6 8.3125C6 9.41707 6.89543 10.3125 8 10.3125Z" fill="#FEBE10"/>
</g>
<defs>
<clipPath id="clip0_4668_59341">
<rect width="16" height="16" fill="white"/>
</clipPath>
</defs>
</svg>
