<svg width="16" height="16" viewBox="0 0 16 16" fill="none" xmlns="http://www.w3.org/2000/svg">
<path d="M13.3346 11.3325V7.63384C13.3346 7.27762 13.3343 7.0994 13.291 6.93364C13.2526 6.78675 13.1896 6.64774 13.1043 6.52212C13.0081 6.38037 12.8743 6.26282 12.6063 6.02824L9.40625 3.22824C8.90851 2.79272 8.65964 2.57507 8.37956 2.49224C8.13276 2.41925 7.86971 2.41925 7.62292 2.49224C7.34304 2.575 7.09453 2.79245 6.59754 3.22731L3.39648 6.02824C3.1284 6.26282 2.99466 6.38037 2.89844 6.52212C2.81316 6.64774 2.74967 6.78675 2.71128 6.93364C2.66797 7.09941 2.66797 7.27761 2.66797 7.63384V11.3325C2.66797 11.9537 2.66797 12.2642 2.76946 12.5093C2.90479 12.836 3.16418 13.0958 3.49089 13.2312C3.73591 13.3327 4.04654 13.3327 4.6678 13.3327C5.28905 13.3327 5.60002 13.3327 5.84505 13.2312C6.17176 13.0958 6.43108 12.836 6.56641 12.5093C6.6679 12.2643 6.66797 11.9537 6.66797 11.3324V10.6657C6.66797 9.92936 7.26492 9.33241 8.0013 9.33241C8.73768 9.33241 9.33464 9.92936 9.33464 10.6657V11.3324C9.33464 11.9537 9.33464 12.2643 9.43613 12.5093C9.57145 12.836 9.83085 13.0958 10.1576 13.2312C10.4026 13.3327 10.7132 13.3327 11.3345 13.3327C11.9557 13.3327 12.2667 13.3327 12.5117 13.2312C12.8384 13.0958 13.0977 12.836 13.2331 12.5093C13.3346 12.2642 13.3346 11.9537 13.3346 11.3325Z" fill="#C5C5C5"/>
</svg>
