<svg width="12" height="17" viewBox="0 0 12 17" fill="none" xmlns="http://www.w3.org/2000/svg">
<g id="Group">
<path id="Vector" d="M9.47266 11.8901L9.21841 11.4774L8.84766 10.6552L7.97266 10.1094H4.03516L3.16016 10.6552L2.28516 10.5761L1.56103 10.7692C0.809813 10.9695 0.285156 11.6524 0.285156 12.4299V15.1258L3.77603 16.5008H6.00391L10.1008 14.58L10.2858 13.2508C10.2858 12.4733 10.2239 12.0904 9.47266 11.8901Z" fill="#B5461D"/>
<path id="Vector_2" d="M10.4467 10.7691L9.72266 10.576L8.84766 10.6552L7.97266 10.1094H6.00391V16.5008H8.23178L11.7227 15.1258V12.4298C11.7227 11.6524 11.198 10.9695 10.4467 10.7691Z" fill="#B5461D"/>
<path id="Vector_3" d="M7.97266 13.7188H4.03516C3.77628 13.7188 3.56641 13.5089 3.56641 13.25C3.56641 12.9911 3.77628 12.7812 4.03516 12.7812H7.97266C8.23153 12.7812 8.44141 12.9911 8.44141 13.25C8.44141 13.5089 8.23153 13.7188 7.97266 13.7188Z" fill="#B5461D"/>
<path id="Vector_4" d="M2.28516 10.576V16.5008H3.77603C3.78662 16.4478 4.03516 14.7853 4.03516 13.7508V10.6257L4.34766 10.4043L4.03516 10.1094L2.28516 10.576Z" fill="#B5461D"/>
<path id="Vector_5" d="M7.97266 10.1094L7.66016 10.3884L7.97266 10.6257V13.7508C7.97266 14.7853 8.22119 16.4478 8.23178 16.5008H9.72266V10.576L7.97266 10.1094Z" fill="#B5461D"/>
<path id="Vector_6" d="M10.6602 13.0312H9.72266C9.03231 13.0312 8.47266 13.5909 8.47266 14.2812V15.25C8.47266 15.9403 9.03231 16.5 9.72266 16.5H10.6602C11.3505 16.5 11.9102 15.9403 11.9102 15.25V14.2812C11.9102 13.5909 11.3505 13.0312 10.6602 13.0312Z" fill="#B5461D"/>
<path id="Vector_7" d="M2.28516 13.0312H1.34766C0.657313 13.0312 0.0976562 13.5909 0.0976562 14.2812V15.25C0.0976562 15.9403 0.657313 16.5 1.34766 16.5H2.28516C2.9755 16.5 3.53516 15.9403 3.53516 15.25V14.2812C3.53516 13.5909 2.9755 13.0312 2.28516 13.0312Z" fill="#B5461D"/>
<path id="Vector_8" d="M7.50391 7.75H4.50391C4.24503 7.75 4.03516 7.95987 4.03516 8.21875V10.625L5.73834 11.8863C5.81648 11.94 5.90908 11.9688 6.00391 11.9688C6.00391 11.9688 6.76631 10.9742 6.84631 10.9192L7.13741 9.63281L7.97266 8.21875C7.97266 7.95987 7.76278 7.75 7.50391 7.75Z" fill="#F6B900"/>
<path id="Vector_9" d="M7.50391 7.75H6.00391V11.9688C6.09669 11.9688 6.18947 11.9412 6.26947 11.8863L7.97266 10.625V8.21875C7.97266 7.95987 7.76278 7.75 7.50391 7.75Z" fill="#F6B900"/>
<path id="Vector_10" d="M8.50391 4.03125H3.50391C3.24503 4.03125 3.03516 4.24112 3.03516 4.5V6.75C3.03516 8.38697 4.36694 9.71875 6.00391 9.71875C6.00391 9.71875 7.22266 8.38697 7.22266 6.75L8.97266 4.5C8.97266 4.24112 8.76278 4.03125 8.50391 4.03125Z" fill="#F6B900"/>
<path id="Vector_11" d="M8.50391 4.03125H6.00391V9.71875C7.64087 9.71875 8.97266 8.38697 8.97266 6.75V4.5C8.97266 4.24112 8.76278 4.03125 8.50391 4.03125Z" fill="#F6B900"/>
<path id="Vector_12" d="M9.50391 0.5H4.75391C3.80619 0.5 3.03516 1.27103 3.03516 2.21875V2.75C3.03516 3.00887 3.24503 3.21875 3.50391 3.21875H8.50391C8.58059 3.21875 8.65609 3.19994 8.72381 3.16397C8.77481 3.13688 9.97266 2.48309 9.97266 0.96875C9.97266 0.709875 9.76278 0.5 9.50391 0.5Z" fill="#F6B900"/>
<path id="Vector_13" d="M9.00391 2.75H3.00391C2.74503 2.75 2.53516 2.95987 2.53516 3.21875V4.5C2.53516 4.75887 2.74503 4.96875 3.00391 4.96875H9.00391C9.26278 4.96875 9.47266 4.75887 9.47266 4.5V3.21875C9.47266 2.95987 9.26278 2.75 9.00391 2.75Z" fill="#B5461D"/>
</g>
</svg>
