<svg width="14" height="14" viewBox="0 0 14 14" fill="none" xmlns="http://www.w3.org/2000/svg">
<g id="Group">
<path id="Vector" d="M0.806551 13.2953H13.1974C13.6399 13.2953 14.002 12.907 14.002 12.4323V1.55833C14.002 1.08367 13.6399 0.695312 13.1974 0.695312H0.806551C0.364022 0.695312 0.00195312 1.08367 0.00195312 1.55833V12.4323C0.00195312 12.907 0.364022 13.2953 0.806551 13.2953ZM11.0314 2.40235C11.799 2.40235 12.4217 3.07033 12.4217 3.89364C12.4217 4.71696 11.799 5.38493 11.0314 5.38493C10.2638 5.38493 9.64103 4.71696 9.64103 3.89364C9.64103 3.07033 10.2638 2.40235 11.0314 2.40235ZM1.4969 10.8702L5.0677 5.57134C5.32678 5.18644 5.75161 5.18644 6.01069 5.57134L8.12195 8.70235C8.38103 9.08726 8.80586 9.08726 9.06494 8.70235L9.63942 7.8497C9.89851 7.46479 10.3233 7.46479 10.5824 7.8497L12.618 10.8702C12.8771 11.2551 12.7275 11.5693 12.2849 11.5693H1.83C1.38747 11.5693 1.23782 11.2551 1.4969 10.8702Z" fill="white"/>
</g>
</svg>
