<svg width="15" height="15" viewBox="0 0 15 15" fill="none" xmlns="http://www.w3.org/2000/svg">
<g id="JEEP" clip-path="url(#clip0_2328_62670)">
<g id="Group">
<path id="Vector" d="M1.98189 10.9219H1.36523V12.9534C1.36523 13.268 1.61507 13.5254 1.92042 13.5254H3.59555C3.90092 13.5254 4.15076 13.268 4.15076 12.9534V10.9219H1.98189ZM11.3464 10.9219V12.9534C11.3464 13.268 11.5963 13.5254 11.9017 13.5254H13.5768C13.8822 13.5254 14.132 13.268 14.132 12.9534V10.9219H11.3464Z" fill="#B5461D"/>
<path id="Vector_2" d="M2.5 11.0859C2.5 10.8443 2.69588 10.6484 2.9375 10.6484H12.5625C12.8041 10.6484 13 10.8443 13 11.0859C13 11.3276 12.8041 11.5234 12.5625 11.5234H2.9375C2.69588 11.5234 2.5 11.3276 2.5 11.0859Z" fill="#B5461D"/>
<path id="Vector_3" d="M14.3762 7.32812H13.5912V9.78458C13.7389 9.83298 13.8461 9.96805 13.8461 10.1264V10.6383C13.8461 10.8369 13.6776 10.9994 13.4717 10.9994H14.3932C14.5905 10.9994 14.7505 10.845 14.7505 10.6547V7.68928C14.7505 7.4906 14.5821 7.32812 14.3762 7.32812Z" fill="#B5461D"/>
<path id="Vector_4" d="M1.68278 10.6382V10.1263C1.68278 9.96797 1.79333 9.83298 1.94574 9.78458V7.32812H1.13612C0.923769 7.32812 0.75 7.49057 0.75 7.68925V10.6547C0.75 10.845 0.915019 10.9994 1.1187 10.9994H2.06901C1.85654 10.9994 1.68278 10.8369 1.68278 10.6382Z" fill="#B5461D"/>
<path id="Vector_5" d="M13.9041 3.85938H12.4873V5.44745C12.7038 5.47539 12.9099 5.55694 13.0868 5.68468H13.9041C14.108 5.68468 14.2748 5.5222 14.2748 5.32366V4.2205C14.2749 4.02182 14.108 3.85938 13.9041 3.85938Z" fill="#B5461D"/>
<path id="Vector_6" d="M3.03597 5.44745V3.85938H1.60026C1.3937 3.85938 1.22461 4.02182 1.22461 4.22039V5.32366C1.22461 5.5222 1.3937 5.68468 1.60026 5.68468H2.42839C2.60825 5.55674 2.81695 5.47525 3.03591 5.44745H3.03597Z" fill="#B5461D"/>
<path id="Subtract" d="M3.52359 5.50278H11.9708C12.0225 5.50278 12.0733 5.50707 12.1233 5.51443V2.06783C12.1232 1.49339 11.6998 1.02344 11.1824 1.02344H4.31194C3.79454 1.02344 3.37109 1.49342 3.37109 2.06783V5.51443C3.42164 5.50681 3.47257 5.50292 3.52359 5.50278Z" fill="#B5461D"/>
<path id="Subtract_2" d="M1.74502 9.7934L13.875 9.8125C13.8373 9.80039 13.9171 9.8125 13.875 9.8125V6.68521C13.875 5.99896 13.2825 5.4375 12.5581 5.4375H2.9419C2.21759 5.4375 1.625 5.99896 1.625 6.68521V9.8125C1.66363 9.79995 1.70418 9.79348 1.74502 9.7934Z" fill="#B5461D"/>
<path id="Vector_7" d="M13.5157 9.76562H1.98222C1.78365 9.76562 1.62109 9.9281 1.62109 10.1267V10.6386C1.62109 10.8373 1.78365 10.9998 1.98222 10.9998H13.5157C13.7143 10.9998 13.8768 10.8373 13.8768 10.6386V10.1267C13.8768 9.9281 13.7143 9.76565 13.5157 9.76565V9.76562Z" fill="#B5461D"/>
<circle id="Ellipse 1997" cx="4.25" cy="8.20312" r="1.5" fill="#FFC800"/>
<circle id="Ellipse 1998" cx="11.25" cy="8.20312" r="1.5" fill="#FFC800"/>
<path id="Rectangle 34624931" d="M3.75 3.14844C3.75 2.59615 4.19772 2.14844 4.75 2.14844H10.75C11.3023 2.14844 11.75 2.59615 11.75 3.14844V6.14844H3.75V3.14844Z" fill="#FFC800"/>
</g>
</g>
<defs>
<clipPath id="clip0_2328_62670">
<rect width="14" height="14" fill="white" transform="translate(0.75 0.148438)"/>
</clipPath>
</defs>
</svg>
