<?xml version="1.0" encoding="utf-8"?>
<svg width="24" height="24" viewBox="0 0 24 24" fill="none" xmlns="http://www.w3.org/2000/svg">
  <path d="M24 12.0134C23.9973 14.3856 23.2916 16.7039 21.972 18.6752C20.6525 20.6465 18.7782 22.1825 16.586 23.0891C14.3938 23.9957 11.9822 24.2322 9.65563 23.7688C7.32911 23.3053 5.19215 22.1627 3.51472 20.4853C1.8373 18.8079 0.694687 16.6709 0.231237 14.3444C-0.232213 12.0178 0.00429646 9.60616 0.910885 7.41399C1.81747 5.22183 3.35346 3.34755 5.3248 2.02795C7.29613 0.708356 9.61436 0.00265252 11.9866 0C15.1696 0.0103129 18.2192 1.27932 20.47 3.53004C22.7207 5.78076 23.9897 8.83043 24 12.0134Z" style="fill: rgb(255, 200, 0);"/>
  <path d="M18.349 10.041C18.2672 9.78846 18.1073 9.56844 17.8924 9.4126C17.6775 9.25676 17.4187 9.17314 17.1533 9.17377H14.1203L13.1816 6.28832C13.099 6.03632 12.9389 5.81685 12.7241 5.66125C12.5094 5.50566 12.251 5.42188 11.9858 5.42188C11.7206 5.42188 11.4622 5.50566 11.2475 5.66125C11.0327 5.81685 10.8727 6.03632 10.7901 6.28832L9.85134 9.17377H6.81725C6.55182 9.17388 6.29324 9.25799 6.07854 9.41406C5.86384 9.57013 5.70404 9.79015 5.62204 10.0426C5.54004 10.295 5.54005 10.567 5.62206 10.8194C5.70406 11.0719 5.86386 11.2919 6.07857 11.4479L8.57512 13.2628L7.57494 17.0244C7.50891 17.2754 7.5221 17.5406 7.61271 17.7838C7.70331 18.027 7.8669 18.2363 8.08105 18.3829C8.2952 18.5295 8.54945 18.6063 8.80895 18.6028C9.06845 18.5992 9.32052 18.5156 9.53061 18.3632L11.9858 16.5807L14.441 18.3643C14.6513 18.517 14.9036 18.6009 15.1634 18.6044C15.4233 18.6079 15.6778 18.5309 15.8921 18.384C16.1064 18.237 16.27 18.0273 16.3603 17.7837C16.4507 17.5401 16.4634 17.2744 16.3967 17.0233L15.3965 13.2628L17.8931 11.4491C18.1083 11.2931 18.2686 11.0728 18.3507 10.82C18.4328 10.5672 18.4326 10.2948 18.3501 10.0421L18.349 10.041Z" style="fill: rgb(38, 38, 38);"/>
</svg>