<svg width="10" height="8" viewBox="0 0 10 8" fill="none" xmlns="http://www.w3.org/2000/svg">
<g id="Group">
<path id="Vector" d="M5.00323 4.20827L1.88183 1.087C1.72339 0.928406 1.52961 0.849289 1.30052 0.849289C1.07144 0.849289 0.877756 0.928429 0.719342 1.087L0.237576 1.56861C0.0792068 1.72696 -2.28851e-07 1.92076 -2.18841e-07 2.14976C-2.0883e-07 2.37877 0.0792069 2.57248 0.237576 2.73107L4.4187 6.91856C4.57714 7.07702 4.77089 7.15625 5.00001 7.15625C5.22913 7.15625 5.42273 7.07704 5.58123 6.91856L9.76236 2.73109C9.92079 2.5725 10 2.37881 10 2.14978C10 1.92076 9.92079 1.72698 9.76236 1.56863L9.28068 1.08702C9.12233 0.928428 8.92966 0.849311 8.70261 0.849311C8.47574 0.849311 8.28091 0.928451 8.11822 1.08702L5.00323 4.20827Z" fill="#A9A9A9"/>
</g>
</svg>
