<svg width="10" height="12" viewBox="0 0 10 12" fill="none" xmlns="http://www.w3.org/2000/svg">
<g id="Group 1000004073">
<ellipse id="Ellipse 1989" cx="5.03405" cy="3.70397" rx="2.88366" ry="2.88366" fill="#FFC800"/>
<path id="Vector" d="M5.96931 9.24219C8.1645 9.36844 9.81927 9.93264 9.81927 10.6093C9.81927 11.3784 7.67734 12.0027 5.03366 12.0027C2.39078 12.0027 0.248047 11.3784 0.248047 10.6093C0.248047 9.94048 1.8647 9.38223 4.02122 9.24651L5.96931 9.24219Z" fill="#FFC800"/>
<path id="Vector_2" d="M4.99097 0C7.06207 0 8.74117 1.6791 8.74117 3.75074C8.74117 4.91997 7.16101 7.36225 5.96907 9.23951C5.78457 9.53017 5.60934 9.80728 5.45072 10.064C5.24435 10.398 4.73746 10.3981 4.53195 10.0636C4.37616 9.80997 4.2034 9.53424 4.02098 9.24383C2.83526 7.35711 1.24023 4.84887 1.24023 3.75074C1.24023 1.6791 2.91933 0 4.99097 0ZM6.66656 3.60935C6.66656 2.68586 5.91392 1.93295 4.99097 1.93295C4.06748 1.93295 3.31485 2.68586 3.31485 3.60935C3.31485 4.5323 4.06748 5.28493 4.99097 5.28493C5.91392 5.28493 6.66656 4.5323 6.66656 3.60935Z" fill="#B5461D"/>
</g>
</svg>
