<svg width="14" height="16" viewBox="0 0 14 16" fill="none" xmlns="http://www.w3.org/2000/svg">
<path d="M11.6955 1.94796C9.09822 -0.649321 4.90258 -0.649321 2.3386 1.94796C-0.258699 4.54525 -0.258699 8.70756 2.3386 11.3048L6.2933 15.2878C6.68341 15.6807 7.31852 15.6818 7.71003 15.2903L11.6622 11.3382C14.2595 8.74087 14.2595 4.54525 11.6955 1.94796Z" fill="#B4870B"/>
<path d="M10.1954 9.80862C8.43055 11.5734 5.60015 11.5734 3.83533 9.80862C2.07051 8.04381 2.07051 5.21342 3.83533 3.44861C5.60015 1.6838 8.43055 1.6838 10.1954 3.44861C11.9269 5.21342 11.9269 8.07712 10.1954 9.80862Z" fill="white"/>
<path d="M3.33594 6.71036L6.33282 7.30973L6.93219 10.3066L9.4629 4.17969L3.33594 6.71036Z" fill="#FEBE10"/>
</svg>
