<svg width="16" height="16" viewBox="0 0 16 16" fill="none" xmlns="http://www.w3.org/2000/svg">
<g id="Clip path group">
<mask id="mask0_4603_48030" style="mask-type:luminance" maskUnits="userSpaceOnUse" x="0" y="0" width="17" height="16">
<g id="a">
<path id="b" d="M13.6078 0H2.40781C1.08233 0 0.0078125 1.07447 0.0078125 2.3999V13.5995C0.0078125 14.9249 1.08233 15.9994 2.40781 15.9994H13.6078C14.9333 15.9994 16.0078 14.9249 16.0078 13.5995V2.3999C16.0078 1.07447 14.9333 0 13.6078 0Z" fill="white"/>
</g>
</mask>
<g mask="url(#mask0_4603_48030)">
<g id="Group">
<path id="Vector" d="M0.0078125 15.9994V0H16.0078L0.0078125 15.9994Z" fill="#35A85B"/>
<path id="Vector_2" d="M8.00781 9L1.00781 15.9997H15.0078L8.00781 9Z" fill="#5881CA"/>
<path id="Vector_3" d="M9.00781 7.99972L16.0078 1V14.9994L9.00781 7.99972Z" fill="#C1C0BE"/>
<g id="Vector_4">
<path d="M0.0078125 15.9994L16.0078 0L0.0078125 15.9994Z" fill="black"/>
<path d="M0.0078125 15.9994L16.0078 0" stroke="#FADB2A" stroke-width="2.21871"/>
</g>
<path id="Vector_5" d="M5.47699 5.40258H7.03949C7.02369 5.78858 6.88571 6.15703 6.64861 6.44637C6.41151 6.73571 6.08964 6.92841 5.73679 6.99228C5.38395 7.05614 5.02149 6.98731 4.70999 6.79727C4.39849 6.60722 4.15681 6.30749 4.02534 5.94815C3.89387 5.58881 3.88057 5.19163 3.98766 4.82297C4.09474 4.45431 4.31574 4.1365 4.61371 3.92265C4.91169 3.70881 5.26859 3.61187 5.62479 3.64804C5.98099 3.68421 6.3149 3.85129 6.57074 4.12138" stroke="#F2F2F2" stroke-width="0.687486"/>
<path id="Vector_6" d="M11.0391 2.65616C11.0391 2.07602 11.2695 1.51965 11.6798 1.10943C12.09 0.699209 12.6464 0.46875 13.2266 0.46875C13.8067 0.46875 14.3631 0.699209 14.7734 1.10943C15.1836 1.51965 15.4141 2.07602 15.4141 2.65616C15.4141 4.84357 13.2266 4.84357 13.2266 7.56221C13.2266 4.84357 11.0391 4.84357 11.0391 2.65616Z" fill="#DE3738"/>
<path id="Vector_7" d="M13.2266 3.56244C13.658 3.56244 14.0078 3.21267 14.0078 2.78122C14.0078 2.34976 13.658 2 13.2266 2C12.7951 2 12.4453 2.34976 12.4453 2.78122C12.4453 3.21267 12.7951 3.56244 13.2266 3.56244Z" fill="#7D2426"/>
</g>
</g>
</g>
</svg>
