<svg width="16" height="13" viewBox="0 0 16 13" fill="none" xmlns="http://www.w3.org/2000/svg">
<g id="Group">
<path id="Vector" d="M13.1875 6.5C11.6406 6.5 10.375 7.76559 10.375 9.3125C10.375 10.8594 11.6406 12.125 13.1875 12.125C14.7344 12.125 16 10.8594 16 9.3125C16 7.76559 14.7344 6.5 13.1875 6.5ZM13.1875 11.1875C12.1563 11.1875 11.3125 10.3437 11.3125 9.3125C11.3125 8.28128 12.1563 7.4375 13.1875 7.4375C14.2187 7.4375 15.0625 8.28128 15.0625 9.3125C15.0625 10.3437 14.2187 11.1875 13.1875 11.1875Z" fill="#B5461D"/>
<path id="Vector_2" d="M2.8125 6.5C1.26559 6.5 0 7.76559 0 9.3125C0 10.8594 1.26559 12.125 2.8125 12.125C4.35941 12.125 5.625 10.8594 5.625 9.3125C5.625 7.76559 4.35941 6.5 2.8125 6.5ZM2.8125 11.1875C1.78128 11.1875 0.9375 10.3437 0.9375 9.3125C0.9375 8.28128 1.78128 7.4375 2.8125 7.4375C3.84372 7.4375 4.6875 8.28128 4.6875 9.3125C4.6875 10.3437 3.84372 11.1875 2.8125 11.1875Z" fill="#B5461D"/>
<path id="Vector_3" d="M3.75 3.6875H8.5V6.5H3.75V3.6875ZM10.8438 1.8125H9.90625C9.64716 1.8125 9.4375 1.60284 9.4375 1.34375C9.4375 1.08466 9.64716 0.875 9.90625 0.875H10.8438C11.1028 0.875 11.3125 1.08466 11.3125 1.34375C11.3125 1.60284 11.1028 1.8125 10.8438 1.8125Z" fill="#F6B900"/>
<path id="Vector_4" d="M13.45 9.70835C13.3656 9.75522 13.2812 9.78338 13.1875 9.78338C13.0375 9.78338 12.8875 9.70835 12.7938 9.57716L10.6 6.29591C10.45 6.08025 10.5157 5.78963 10.7219 5.63966C10.9375 5.499 11.2281 5.55525 11.3781 5.77088L13.1875 8.46157L13.5812 9.05213C13.7219 9.26775 13.6656 9.55838 13.45 9.70835ZM8.03125 8.37713V10.2521H2.8125C2.29688 10.2521 1.875 9.83025 1.875 9.31463C1.875 8.799 2.29688 8.37713 2.8125 8.37713H8.03125Z" fill="#F6B900"/>
<path id="Vector_5" d="M10.8438 0.875C10.5812 0.875 10.375 1.08122 10.375 1.34375V2.75H8.96875C8.80941 2.75 8.66875 2.82503 8.57503 2.95622L6.80934 5.5625H5.40938L3.91875 3.33125C3.675 2.96563 3.27187 2.75 2.83128 2.75H0.46875C0.206219 2.75 0 2.95622 0 3.21875C0 4.41878 0.909344 5.42184 2.08122 5.54372L3.58125 7.79375C3.825 8.15937 4.22813 8.375 4.66872 8.375H5.80312L6.125 8.96562L6.40625 9.52809C6.63122 9.96875 7.08128 10.25 7.5875 10.25H8.275C8.90309 10.25 9.4375 9.80941 9.55937 9.19063L9.63441 8.86253C10.0094 6.94997 11.7062 5.5625 13.6562 5.5625C13.9188 5.5625 14.125 5.35628 14.125 5.09375V4.15625C14.125 2.34687 12.6531 0.875 10.8438 0.875Z" fill="#B5461D"/>
</g>
</svg>
