<svg width="16" height="12" viewBox="0 0 16 12" fill="none" xmlns="http://www.w3.org/2000/svg">
<g id="Group">
<path id="Vector" d="M4.18253 11.8142C3.19524 11.7846 2.20805 11.7382 1.22097 11.6748C0.393779 11.6123 -0.294971 10.5567 0.138779 9.84607C1.33378 7.85607 2.94253 5.70107 4.43784 3.52138C4.89003 2.86513 5.70753 2.84825 6.1094 3.49575C6.36878 3.91263 6.63722 4.33107 6.91097 4.75013L4.18253 11.8142Z" fill="#FFC800"/>
<path id="Vector_2" d="M15.87 10.1065C15.1125 8.84521 14.1791 7.51271 13.2197 6.15209C12.7875 5.54271 11.9713 5.52396 11.5822 6.13146C11.5376 6.20105 11.4926 6.27073 11.4472 6.34052C11.1869 6.74084 10.6347 6.7399 10.3641 6.3349C9.86814 5.59177 9.37876 4.84771 8.91908 4.10927C8.53939 3.49771 7.7672 3.51552 7.34033 4.13334C5.92689 6.19209 4.40783 8.22709 3.27783 10.1065C2.86814 10.778 3.51876 11.7761 4.30001 11.8336C6.09439 11.9486 7.88897 12.005 9.68376 12.0027C10.4533 12.0015 11.223 11.9896 11.9928 11.9671C12.9441 11.9392 13.8953 11.8947 14.8466 11.8336C15.6291 11.7758 16.2794 10.778 15.87 10.1065Z" fill="#B5461D"/>
<path id="Vector_3" d="M11.2845 3.54172C12.2636 3.54172 13.0573 2.748 13.0573 1.76891C13.0573 0.789809 12.2636 -0.00390625 11.2845 -0.00390625C10.3054 -0.00390625 9.51172 0.789809 9.51172 1.76891C9.51172 2.748 10.3054 3.54172 11.2845 3.54172Z" fill="#B5461D"/>
</g>
</svg>
