<svg width="16" height="17" viewBox="0 0 16 17" fill="none" xmlns="http://www.w3.org/2000/svg">
<g id="Communication / Phone">
<path id="Vector" d="M6.33497 3.79127C6.13249 3.28506 5.64221 2.95312 5.09701 2.95312H3.26316C2.56554 2.95312 2 3.51852 2 4.21615C2 10.1459 6.80719 14.9531 12.737 14.9531C13.4346 14.9531 14 14.3875 14 13.6899L14.0003 11.8558C14.0003 11.3106 13.6685 10.8204 13.1622 10.6179L11.4046 9.91508C10.9499 9.7332 10.4322 9.81506 10.056 10.1286L9.60235 10.5069C9.07258 10.9484 8.29309 10.9133 7.80546 10.4256L6.52815 9.14716C6.04052 8.65954 6.00449 7.88068 6.44596 7.35091L6.82422 6.89732C7.13774 6.52109 7.22033 6.00323 7.03844 5.54852L6.33497 3.79127Z" fill="white"/>
</g>
</svg>
