<svg width="28" height="28" viewBox="0 0 28 28" fill="none" xmlns="http://www.w3.org/2000/svg">
<rect width="28" height="28" rx="14" fill="#B5461D"/>
<path d="M16.1667 12.8333C15.6144 12.8333 15.1667 12.3856 15.1667 11.8333V8C15.1667 7.44772 14.719 7 14.1667 7H13.8333C13.281 7 12.8333 7.44772 12.8333 8V11.8333C12.8333 12.3856 12.3856 12.8333 11.8333 12.8333H8C7.44772 12.8333 7 13.281 7 13.8333V14.1667C7 14.719 7.44772 15.1667 8 15.1667H11.8333C12.3856 15.1667 12.8333 15.6144 12.8333 16.1667V20C12.8333 20.5523 13.281 21 13.8333 21H14.1667C14.719 21 15.1667 20.5523 15.1667 20V16.1667C15.1667 15.6144 15.6144 15.1667 16.1667 15.1667H20C20.5523 15.1667 21 14.719 21 14.1667V13.8333C21 13.281 20.5523 12.8333 20 12.8333H16.1667Z" fill="white"/>
</svg>
