<svg width="14" height="16" viewBox="0 0 14 16" fill="none" xmlns="http://www.w3.org/2000/svg">
<g id="Group">
<path id="Vector" d="M8.37077 0.338513V4.52476H5.62891V0.338513C5.62891 0.151655 5.78056 0 5.96742 0H8.03229C8.21911 0 8.37077 0.151655 8.37077 0.338513Z" fill="#B5461D"/>
<path id="Vector_2" d="M10.0063 3.74476V6.66501H3.99512V3.74476C3.99512 3.55791 4.14642 3.40625 4.33363 3.40625H9.66776C9.85497 3.40625 10.0063 3.55791 10.0063 3.74476Z" fill="#FFC800"/>
<path id="Vector_3" d="M11.1771 6.02601V11.4458H2.82422V6.02601C2.82422 5.83883 2.97587 5.6875 3.16273 5.6875H10.8386C11.0255 5.68753 11.1771 5.83883 11.1771 6.02601Z" fill="#B5461D"/>
<path id="Vector_4" d="M13.5128 11.1812L11.3252 15.7141C11.2837 15.8001 11.2188 15.8726 11.1379 15.9234C11.057 15.9742 10.9634 16.0011 10.8679 16.0011H3.13288C3.03737 16.0011 2.9438 15.9742 2.86291 15.9234C2.78203 15.8726 2.7171 15.8001 2.6756 15.7141L0.487922 11.1812C0.406351 11.0126 0.477429 10.8098 0.646349 10.7289L4.07573 9.08312C5.00017 8.63968 6.00047 8.41797 7.00041 8.41797C8.00035 8.41797 9.00062 8.63968 9.92509 9.08312L13.3545 10.7289C13.5233 10.8099 13.5944 11.0126 13.5128 11.1812Z" fill="#B5461D"/>
<path id="Vector_5" d="M13.5128 11.1811L12.7651 12.7308L9.92506 11.368C9.00062 10.9246 8.00032 10.7028 7.00038 10.7028C6.00043 10.7028 5.00017 10.9246 4.0757 11.368L1.23567 12.7308L0.487922 11.1811C0.406351 11.0122 0.477429 10.8098 0.646349 10.7286L4.07573 9.08312C5.00017 8.63968 6.00047 8.41797 7.00041 8.41797C8.00035 8.41797 9.00062 8.63968 9.92509 9.08312L13.3545 10.7286C13.5233 10.8098 13.5944 11.0123 13.5128 11.1811Z" fill="#FFC800"/>
<path id="Vector_6" d="M8.37077 0.338513V1.63057H5.62891V0.338513C5.62891 0.151655 5.78056 0 5.96742 0H8.03229C8.21911 0 8.37077 0.151655 8.37077 0.338513Z" fill="#FFC800"/>
<path id="Vector_7" d="M4.86165 6.5625H4.53607C4.25564 6.5625 4.02832 6.78982 4.02832 7.07025C4.02832 7.35068 4.25564 7.57801 4.53607 7.57801H4.86165C5.14209 7.57801 5.36941 7.35068 5.36941 7.07025C5.36941 6.78985 5.14209 6.5625 4.86165 6.5625ZM7.67126 7.07035C7.67126 7.35065 7.44378 7.5781 7.16351 7.5781H6.83786C6.55759 7.5781 6.33011 7.35065 6.33011 7.07035C6.33011 6.78973 6.55759 6.5626 6.83786 6.5626H7.16351C7.44378 6.5626 7.67126 6.78973 7.67126 7.07035Z" fill="#FFC800"/>
<path id="Vector_8" d="M7.67058 7.07025C7.67058 7.35056 7.44309 7.57801 7.16282 7.57801H7V6.5625H7.16282C7.44309 6.5625 7.67058 6.78963 7.67058 7.07025ZM9.9724 7.07025C9.9724 7.35056 9.74491 7.57801 9.46464 7.57801H9.139C8.85873 7.57801 8.63124 7.35056 8.63124 7.07025C8.63124 6.78963 8.85873 6.5625 9.139 6.5625H9.46464C9.74491 6.5625 9.9724 6.78963 9.9724 7.07025Z" fill="#FFC800"/>
</g>
</svg>
