<svg width="14" height="15" viewBox="0 0 14 15" fill="none" xmlns="http://www.w3.org/2000/svg">
<g id="Group">
<path id="Vector" d="M0.410156 0.5C0.183641 0.5 0 0.683641 0 0.910156V14.0898C0 14.3164 0.183641 14.5 0.410156 14.5H7L7.82031 7.5L7 0.5H0.410156Z" fill="#B5461D"/>
<path id="Vector_2" d="M13.5898 0.5H7V14.5H13.5898C13.8164 14.5 14 14.3164 14 14.0898V0.910156C14 0.683641 13.8164 0.5 13.5898 0.5Z" fill="#B5461D"/>
<path id="Vector_3" d="M8.84038 3.30709C8.84038 3.56729 9.05134 3.77824 9.31154 3.77824H10.0587L7.72199 6.11497C7.53798 6.29897 7.53798 6.59727 7.72199 6.78127C7.90599 6.96527 8.20429 6.96527 8.38829 6.78127L10.725 4.44454V5.1917C10.725 5.4519 10.936 5.66285 11.1962 5.66285C11.4564 5.66285 11.6673 5.4519 11.6673 5.1917V3.30709C11.6673 3.04689 11.4564 2.83594 11.1962 2.83594H9.31154C9.05134 2.83594 8.84038 3.04689 8.84038 3.30709Z" fill="#FFC800"/>
<path id="Vector_4" d="M6.27932 6.11496L3.94259 3.77825H4.68975C4.94995 3.77825 5.1609 3.5673 5.1609 3.30709C5.1609 3.04689 4.94995 2.83594 4.68975 2.83594H2.80514C2.54494 2.83594 2.33398 3.04689 2.33398 3.30709V5.19172C2.33398 5.45192 2.54494 5.66287 2.80514 5.66287C3.06534 5.66287 3.27629 5.45192 3.27629 5.19172V4.44456L5.61299 6.78127C5.79699 6.96527 6.09529 6.96527 6.27929 6.78127C6.46332 6.5973 6.46332 6.29896 6.27932 6.11496Z" fill="#FFC800"/>
<path id="Vector_5" d="M10.725 9.81351V10.5607L8.38829 8.22394C8.20429 8.03994 7.90599 8.03994 7.72199 8.22394C7.53798 8.40794 7.53798 8.70624 7.72199 8.89024L10.0587 11.227H9.31154C9.05134 11.227 8.84038 11.4379 8.84038 11.6981C8.84038 11.9583 9.05134 12.1693 9.31154 12.1693H11.1962C11.4564 12.1693 11.6673 11.9583 11.6673 11.6981V9.81351C11.6673 9.55331 11.4564 9.34236 11.1962 9.34236C10.936 9.34236 10.725 9.55331 10.725 9.81351Z" fill="#FFC800"/>
<path id="Vector_6" d="M6.27932 8.22394C6.09532 8.03994 5.79702 8.03994 5.61302 8.22394L3.27629 10.5607V9.81351C3.27629 9.55331 3.06534 9.34236 2.80514 9.34236C2.54494 9.34236 2.33398 9.55331 2.33398 9.81351V11.6981C2.33398 11.9583 2.54494 12.1693 2.80514 12.1693H4.68975C4.94995 12.1693 5.1609 11.9583 5.1609 11.6981C5.1609 11.4379 4.94995 11.227 4.68975 11.227H3.94259L6.27929 8.89027C6.46332 8.70627 6.46332 8.40794 6.27932 8.22394Z" fill="#FFC800"/>
<circle id="Ellipse 2009" cx="7.00065" cy="7.5026" r="2.66667" fill="#FFC800"/>
</g>
</svg>
