<svg width="16" height="17" viewBox="0 0 16 17" fill="none" xmlns="http://www.w3.org/2000/svg">
<g id="STAR">
<path id="Vector" d="M8.94868 3.34605C8.64478 2.43435 7.35522 2.43435 7.05132 3.34605L6.22792 5.81623C6.09181 6.22457 5.70967 6.5 5.27924 6.5H2.85078C1.9055 6.5 1.48795 7.69036 2.22609 8.28087L4.45551 10.0644C4.78266 10.3261 4.91199 10.764 4.7795 11.1615L4.07082 13.2875C3.7557 14.2329 4.86606 15.0072 5.6442 14.3846L7.3753 12.9998C7.74052 12.7076 8.25948 12.7076 8.6247 12.9998L10.3558 14.3846C11.1339 15.0072 12.2443 14.2329 11.9292 13.2875L11.2205 11.1615C11.088 10.764 11.2173 10.3261 11.5445 10.0644L13.7739 8.28087C14.5121 7.69036 14.0945 6.5 13.1492 6.5H10.7208C10.2903 6.5 9.90819 6.22457 9.77208 5.81623L8.94868 3.34605Z" fill="#FEBE10"/>
</g>
</svg>
