<svg width="12" height="13" viewBox="0 0 12 13" fill="none" xmlns="http://www.w3.org/2000/svg">
<g id="Group">
<g id="Layer 2">
<path id="Vector" d="M11.9413 6.12526C11.94 7.30547 11.5889 8.45882 10.9323 9.43958C10.2758 10.4203 9.34335 11.1845 8.25272 11.6356C7.16209 12.0866 5.96225 12.2043 4.80477 11.9737C3.6473 11.7431 2.58413 11.1747 1.7496 10.3401C0.915057 9.50558 0.346592 8.44241 0.11602 7.28494C-0.114552 6.12746 0.00311411 4.92762 0.454153 3.83699C0.905193 2.74636 1.66937 1.81388 2.65013 1.15737C3.63089 0.500853 4.78424 0.149757 5.96445 0.148438C7.54803 0.153568 9.06528 0.784915 10.185 1.90468C11.3048 3.02444 11.9361 4.54169 11.9413 6.12526Z" fill="#FFC800"/>
<path id="Vector_2" d="M9.13 5.14962C9.08927 5.02399 9.00973 4.91453 8.90282 4.837C8.79592 4.75947 8.66716 4.71786 8.5351 4.71818H7.02616L6.55913 3.28263C6.51804 3.15726 6.43839 3.04807 6.33156 2.97066C6.22472 2.89324 6.09616 2.85156 5.96423 2.85156C5.8323 2.85156 5.70373 2.89324 5.5969 2.97066C5.49006 3.04807 5.41042 3.15726 5.36933 3.28263L4.9023 4.71818H3.39281C3.26075 4.71823 3.1321 4.76008 3.02528 4.83773C2.91847 4.91537 2.83897 5.02483 2.79817 5.15043C2.75738 5.27603 2.75738 5.41131 2.79818 5.53691C2.83898 5.6625 2.91848 5.77196 3.0253 5.8496L4.26737 6.75252L3.76976 8.62396C3.73691 8.74883 3.74348 8.8808 3.78855 9.00179C3.83363 9.12279 3.91502 9.22688 4.02156 9.29982C4.1281 9.37276 4.25459 9.41096 4.3837 9.40921C4.5128 9.40746 4.63821 9.36583 4.74273 9.29003L5.96423 8.40324L7.18572 9.29058C7.29032 9.36656 7.41588 9.40828 7.54514 9.41003C7.67441 9.41178 7.80104 9.37347 7.90766 9.30036C8.01428 9.22725 8.09565 9.12293 8.1406 9.00172C8.18555 8.88051 8.19187 8.74835 8.1587 8.6234L7.66109 6.75252L8.90316 5.85016C9.01025 5.77256 9.08997 5.66298 9.13083 5.53719C9.1717 5.41141 9.1716 5.2759 9.13055 5.15018L9.13 5.14962Z" fill="#B5461D"/>
</g>
</g>
</svg>
