<svg width="12" height="13" viewBox="0 0 12 13" fill="none" xmlns="http://www.w3.org/2000/svg">
<g id="Group">
<g id="Layer 2">
<circle id="Ellipse 2027" cx="5.97015" cy="6.23577" r="5.97015" fill="#B5461D"/>
<circle id="Ellipse 1986" cx="5.59747" cy="5.83477" r="3.35821" fill="#B5461D"/>
<path id="Vector" d="M5.9698 1.72656C5.08421 1.72656 4.21851 1.98917 3.48217 2.48118C2.74583 2.97318 2.17193 3.67249 1.83303 4.49067C1.49413 5.30884 1.40546 6.20914 1.57823 7.07771C1.751 7.94628 2.17745 8.74412 2.80365 9.37032C3.42986 9.99653 4.22769 10.423 5.09626 10.5957C5.96483 10.7685 6.86513 10.6798 7.68331 10.3409C8.50148 10.002 9.20079 9.42814 9.6928 8.6918C10.1848 7.95546 10.4474 7.08976 10.4474 6.20417C10.4462 5.01702 9.97402 3.87884 9.13458 3.0394C8.29513 2.19995 7.15696 1.7278 5.9698 1.72656ZM8.00818 7.74788C7.96849 7.79816 7.91797 7.83885 7.86038 7.8669C7.80279 7.89496 7.73962 7.90966 7.67556 7.90993C7.57914 7.9107 7.48553 7.87748 7.41116 7.81611L5.70541 6.5368C5.65515 6.49708 5.61449 6.44656 5.58643 6.38897C5.55838 6.33139 5.54366 6.26823 5.54336 6.20417V3.2191C5.54336 3.106 5.58829 2.99753 5.66826 2.91756C5.74824 2.83759 5.8567 2.79266 5.9698 2.79266C6.0829 2.79266 6.19137 2.83759 6.27134 2.91756C6.35131 2.99753 6.39624 3.106 6.39624 3.2191V5.99948L7.93995 7.15087C7.98432 7.18508 8.02138 7.22786 8.04892 7.27665C8.07647 7.32545 8.09394 7.37928 8.1003 7.43495C8.10666 7.49062 8.10179 7.547 8.08596 7.60075C8.07014 7.65451 8.04369 7.70454 8.00818 7.74788Z" fill="#FFC800"/>
</g>
</g>
</svg>
