<?xml version="1.0" encoding="utf-8"?>
<svg width="16" height="16" viewBox="0 0 16 16" fill="none" xmlns="http://www.w3.org/2000/svg">
  <g clip-path="url(#clip0_795_35221)">
    <circle cx="8" cy="7.99609" r="4.5" style="fill: rgb(38, 38, 38);"/>
    <path d="M7.99844 2.39453C6.89086 2.39453 5.80816 2.72297 4.88725 3.3383C3.96633 3.95364 3.24857 4.82824 2.82471 5.8515C2.40086 6.87477 2.28997 8.00074 2.50604 9.08703C2.72212 10.1733 3.25547 11.1712 4.03864 11.9543C4.82182 12.7375 5.81964 13.2708 6.90593 13.4869C7.99223 13.703 9.1182 13.5921 10.1415 13.1683C11.1647 12.7444 12.0393 12.0266 12.6547 11.1057C13.27 10.1848 13.5984 9.1021 13.5984 7.99453C13.5969 6.50979 13.0064 5.08631 11.9565 4.03645C10.9067 2.98658 9.48317 2.39608 7.99844 2.39453ZM10.5478 9.9252C10.4981 9.98808 10.4349 10.039 10.3629 10.074C10.2909 10.1091 10.2119 10.1275 10.1318 10.1279C10.0112 10.1288 9.89411 10.0873 9.8011 10.0105L7.66777 8.41053C7.60492 8.36086 7.55406 8.29767 7.51897 8.22565C7.48389 8.15364 7.46547 8.07464 7.4651 7.99453V4.2612C7.4651 4.11975 7.5213 3.98409 7.62131 3.88407C7.72133 3.78405 7.85699 3.72786 7.99844 3.72786C8.13989 3.72786 8.27554 3.78405 8.37556 3.88407C8.47558 3.98409 8.53177 4.11975 8.53177 4.2612V7.73853L10.4624 9.17853C10.5179 9.22132 10.5643 9.27482 10.5987 9.33584C10.6332 9.39687 10.655 9.46419 10.663 9.53382C10.6709 9.60345 10.6648 9.67396 10.6451 9.74119C10.6253 9.80841 10.5922 9.87099 10.5478 9.9252Z" style="fill: rgb(255, 200, 0);"/>
    <path d="M8 -0.00390625C6.41775 -0.00390625 4.87103 0.465285 3.55544 1.34434C2.23985 2.22339 1.21447 3.47282 0.608967 4.93462C0.00346635 6.39643 -0.15496 8.00497 0.153721 9.55681C0.462403 11.1087 1.22433 12.5341 2.34315 13.6529C3.46197 14.7718 4.88743 15.5337 6.43928 15.8424C7.99113 16.1511 9.59966 15.9926 11.0615 15.3871C12.5233 14.7816 13.7727 13.7562 14.6518 12.4407C15.5308 11.1251 16 9.57834 16 7.99609C15.9975 5.87514 15.1538 3.84178 13.654 2.34204C12.1543 0.842305 10.121 -0.00136568 8 -0.00390625ZM8 14.6985C6.67439 14.6985 5.37855 14.3054 4.27635 13.5689C3.17414 12.8325 2.31508 11.7857 1.80779 10.561C1.3005 9.33628 1.16777 7.98866 1.42639 6.68852C1.685 5.38838 2.32334 4.19413 3.26069 3.25678C4.19804 2.31943 5.39229 1.68109 6.69243 1.42248C7.99257 1.16386 9.34019 1.29659 10.5649 1.80388C11.7896 2.31117 12.8364 3.17023 13.5728 4.27244C14.3093 5.37464 14.7024 6.67048 14.7024 7.99609C14.7007 9.77316 13.994 11.477 12.7374 12.7335C11.4809 13.9901 9.77707 14.6968 8 14.6985Z" style="fill: rgb(38, 38, 38);"/>
  </g>
  <defs>
    <clipPath id="clip0_795_35221">
      <rect width="16" height="16" fill="white"/>
    </clipPath>
  </defs>
</svg>