<svg width="340" height="84" viewBox="0 0 340 84" fill="none" xmlns="http://www.w3.org/2000/svg">
<path d="M232.952 13.1381C232.896 13.2701 232.859 13.4965 232.794 13.506C232.515 13.5437 232.228 13.5248 231.856 13.5248C232.423 14.0342 233.677 13.987 234.113 13.5248C234.606 13.0154 234.652 13.0343 235.042 13.6852C235.107 13.7984 235.321 13.8078 235.442 13.9021C235.47 13.921 235.377 14.1191 235.349 14.1851C236.575 14.3455 237.792 14.5719 239.009 14.6379C239.771 14.6757 240.449 14.3455 241.109 13.7607C241.573 13.3456 242.381 13.3928 243.032 13.2513C243.301 13.1947 243.57 13.1758 243.84 13.1381L243.812 12.8551C243.478 12.8928 243.143 12.94 242.818 12.9588C242.549 12.9588 242.279 12.9588 242.019 12.8834C241.954 12.8645 241.889 12.4683 241.926 12.4495C242.13 12.3268 242.372 12.2136 242.604 12.1759C243.58 12.0438 244.546 11.9401 245.521 11.8269L245.521 11.4967C241.034 11.1005 236.538 10.7138 232.005 10.3176C232.005 10.4025 231.995 10.478 231.986 10.544C231.949 10.827 230.397 12.2985 230.156 12.2608C229.208 12.1099 228.307 11.9778 227.332 12.4212C226.691 12.7136 225.845 12.4778 225.093 12.3363C225.613 12.2891 226.133 12.2514 226.728 12.1948C226.328 11.3647 225.79 11.5911 225.288 11.6194C224.944 11.6382 224.591 11.6005 224.257 11.5533C223.56 11.459 222.873 11.3175 222.176 11.2515C221.108 11.1477 220.039 11.0156 218.971 11.0628C218.441 11.0911 218.033 11.0817 217.68 10.5251C217.94 10.4874 218.163 10.478 218.386 10.4214C219.649 10.1195 220.829 9.86481 222.185 10.3742C223.244 10.7704 224.535 10.4497 225.725 10.3742C224.238 10.1855 222.752 10.0063 221.265 9.81764L221.265 9.47805C222.232 9.38372 223.198 9.29883 224.164 9.2045L224.145 8.93094L223.541 8.65738L223.514 8.46872C224.015 8.37439 224.517 8.20459 225.019 8.19516C225.548 8.18573 226.078 8.31779 226.607 8.39325C226.616 8.28949 226.626 8.18573 226.635 8.08196C225 7.9782 223.374 7.86501 221.739 7.76124L221.739 7.51598C223.012 6.88397 224.387 7.31789 225.734 7.27072C225.79 7.07263 225.836 6.87454 225.91 6.60098C223.969 6.36515 221.999 6.12933 219.937 5.88407C220.03 5.64824 220.095 5.49731 220.169 5.30865C219.157 4.99736 218.246 5.18602 217.336 5.44071L217.336 5.74257C218.135 5.8369 218.934 5.94067 219.881 6.05386C219.463 6.62928 219.25 6.99717 218.636 6.60098C218.367 6.42175 217.865 6.68588 217.429 6.76134C217.104 6.63871 216.695 6.38402 216.286 6.35572C214.456 6.24252 212.626 6.24252 210.796 6.11046C209.235 5.99726 207.684 5.752 206.132 5.60108C205.668 5.55391 205.101 5.99726 204.804 5.01623C206.179 5.14829 207.498 5.29922 208.808 5.40298C209.904 5.49731 211 5.56334 212.096 5.59164C212.747 5.61051 213.406 5.55391 214.057 5.49731C214.28 5.47845 214.484 5.33695 214.707 5.29922C214.874 5.27092 215.162 5.24262 215.199 5.31809C215.627 6.29912 216.333 5.54448 216.899 5.8086C216.723 4.58231 215.877 4.82757 215.246 4.70494C214.41 4.54458 213.555 4.45025 212.728 4.19555C216.816 4.7238 220.968 4.34648 224.991 5.62938L225.065 5.37468C224.963 5.23319 224.861 5.09169 224.758 4.9502L224.833 4.81813C225.139 5.04453 225.427 5.29922 225.743 5.49731C226.013 5.65767 226.449 5.9501 226.589 5.84634C227.443 5.17659 228.409 5.48788 229.32 5.36525C230.249 5.24262 231.187 5.14829 232.116 5.10113C233.073 5.04453 234.039 5.06339 235.005 5.03509C235.2 5.03509 235.386 4.9502 235.581 4.90303L235.581 4.68607C234.754 4.50684 233.918 4.31818 233.091 4.13896L233.091 4.02576C233.863 3.9503 234.624 3.81823 235.377 3.81823C236.315 3.81823 237.263 3.84653 238.182 4.02576C238.805 4.14839 239.399 4.837 239.957 4.77097C240.542 4.69551 241.081 4.41251 241.74 4.53514C242.483 4.67664 243.32 4.85587 244.007 4.62004C245.159 4.23329 246.292 4.37478 247.435 4.33705C248.503 4.30875 249.562 4.45968 250.631 4.46911C251.244 4.46911 251.866 4.36535 252.479 4.32762C252.739 4.30875 253.027 4.23329 253.241 4.33705C254.579 4.9785 255.972 4.66721 257.338 4.67664C257.988 4.67664 258.639 4.54458 259.298 4.52571C259.465 4.52571 259.642 4.84643 259.8 4.82757C260.283 4.77097 260.747 4.61061 261.221 4.50685C261.537 4.43138 261.862 4.28989 262.169 4.33705C262.986 4.45025 263.785 4.63891 264.742 4.82757C264.631 4.42195 264.584 4.26159 264.5 3.9786C266.033 4.25215 267.473 4.50685 268.969 4.77097L268.783 4.12009C269.015 4.10123 269.22 4.06349 269.415 4.06349C270.938 4.11066 272.453 4.13896 273.967 4.22386C274.701 4.26159 275.425 4.45968 276.159 4.46911C276.475 4.46911 276.81 4.21442 277.088 3.99746C277.163 3.94086 277.116 3.45978 277.042 3.43148C276.484 3.19565 275.908 2.99756 275.332 2.8372C274.84 2.70514 274.311 2.91266 273.976 2.12972C273.855 1.8373 272.908 1.85616 272.35 1.91276C271.328 2.02596 270.316 2.28065 269.303 2.48818C269.183 2.51648 269.071 2.56364 268.783 2.6674C269.573 2.93153 270.186 3.14849 270.808 3.35602L270.78 3.54468C269.954 3.49751 269.127 3.45035 268.17 3.39375C268.439 2.62967 268.272 2.38441 267.659 2.37498C267.26 2.37498 266.869 2.11085 266.47 2.01652C266.173 1.94106 265.81 1.45054 265.569 2.12972C265.55 2.18632 265.197 2.17689 265.188 2.14859C265.039 1.44111 264.528 1.71467 264.157 1.6958C263.023 1.62977 261.89 1.53544 260.757 1.55431C259.837 1.57317 258.917 1.73353 257.998 1.8373L257.97 1.57317C259.168 1.45054 260.366 1.28075 261.574 1.21472C263.776 1.08265 265.978 0.931725 268.179 0.922292C269.731 0.912859 271.291 1.06379 272.852 1.22415C275.49 1.49771 278.119 1.81843 280.748 2.13915C281.947 2.28065 283.136 2.47874 284.334 2.62967C286.815 2.94096 289.295 3.23339 291.785 3.63901C290.949 3.63901 290.103 3.67674 289.267 3.63901C287.233 3.54468 285.198 3.41261 283.164 3.28998L283.108 3.64844C283.35 3.7239 283.582 3.8371 283.823 3.8654C286.74 4.19556 289.667 4.47855 292.574 4.8653C293.838 5.0351 295.092 5.38412 296.337 5.73314C296.941 5.90294 297.498 6.28026 298.093 6.51608C298.316 6.60098 298.585 6.52552 298.929 6.52552C298.78 6.27083 298.715 6.16706 298.613 5.98783L302.7 6.28969C302.459 6.52552 302.347 6.63871 302.171 6.80851C302.97 7.46882 303.899 7.43109 304.781 7.37449C306.435 7.27073 308.079 7.0632 309.723 6.91227C309.807 6.91227 309.9 6.95944 310.188 7.04433C309.751 7.2047 309.528 7.28959 309.287 7.37449C309.361 8.11027 309.751 8.0065 310.197 7.87444C310.615 7.75181 311.043 7.70465 311.47 7.64805C312.696 7.50655 313.913 7.37449 315.139 7.233L315.121 7.233C314.266 7.42166 313.412 7.63862 312.548 7.83671C312.12 7.93104 311.693 8.0065 311.275 8.22346C312.38 8.30836 313.477 8.95924 314.526 8.16687C316.579 9.2611 318.781 8.75171 320.89 9.1196L320.936 8.78945C320.267 8.64795 319.589 8.50646 318.93 8.36496C319.004 8.33666 319.134 8.22347 319.255 8.2329C321.169 8.37439 323.082 8.53475 324.987 8.69512C325.618 8.75171 325.767 9.21393 325.758 9.67615C326.854 10.6383 327.894 11.5533 328.981 12.5061C328.247 13.4211 327.365 12.4966 326.585 12.7325C326.705 13.5248 327.077 13.9022 327.811 13.9022C328.052 13.9022 328.285 14.1946 328.582 14.3927C328.312 14.8832 328.034 15.2794 327.885 15.7416C327.839 15.8831 328.127 16.2604 328.34 16.3736C328.814 16.6377 329.344 16.8075 329.845 17.0151L329.901 17.3358C329.502 17.515 329.093 17.6754 328.712 17.8923C328.452 18.0433 328.229 18.2885 327.885 18.5904C328.731 18.9583 329.474 19.2884 330.226 19.6186C330.226 19.7318 330.217 19.845 330.208 19.9487C329.641 20.0997 329.065 20.2412 328.498 20.3921C330.969 21.1656 333.125 22.7975 335.744 23.1843L335.624 23.571C334.481 23.288 333.348 22.9579 332.205 22.722C331.192 22.5145 330.161 22.3636 329.13 22.2598C328.944 22.241 328.731 22.5617 328.517 22.6843C328.331 22.7881 328.117 22.9013 327.922 22.9107C327.504 22.9201 327.086 22.8635 326.789 22.8447C326.585 23.2314 326.445 23.4955 326.241 23.8823C327.198 24.1559 328.164 24.4294 329.316 24.7596C328.266 25.0331 327.421 25.2501 326.389 25.5142C326.687 25.75 326.9 25.9293 327.235 26.1934L324.141 26.1934L324.095 26.3538C324.457 26.4953 324.819 26.6368 325.154 26.7594C325.061 26.8537 324.922 26.9858 324.792 27.1178C324.922 27.2499 325.033 27.4669 325.172 27.4952C325.711 27.6178 326.269 27.6744 326.808 27.7593C327.095 27.8064 327.393 27.8536 327.681 28.0989C327.095 28.1838 326.51 28.2781 325.934 28.363L325.934 28.7309C326.808 28.7969 327.671 28.8724 328.6 28.9384C328.545 29.1459 328.498 29.3063 328.415 29.5987C329.288 29.7025 330.096 29.8063 330.904 29.9006L330.904 30.0232C330.31 30.1364 329.697 30.2496 329.093 30.3534L329.093 30.5137C329.687 30.7213 330.273 30.9382 330.858 31.1457L330.802 31.3816C329.985 31.2401 329.158 31.0986 328.34 30.9571L328.285 31.2306C328.916 31.457 329.659 31.5325 330.152 31.957C330.588 32.3343 330.746 33.0984 331.062 33.7587C330.31 33.57 329.576 33.3908 328.851 33.2116C328.833 33.2965 328.805 33.3814 328.786 33.4663C329.195 33.6549 329.622 33.8247 330.013 34.0606C330.152 34.1454 330.208 34.419 330.3 34.5982C330.143 34.6643 329.975 34.7869 329.827 34.7775C329.204 34.7397 328.573 34.6548 327.867 34.5794C327.894 34.8246 327.913 34.9944 327.959 35.3717C327.272 35.2774 326.631 35.1925 325.99 35.0982L325.953 35.2868C327.142 35.5981 328.322 35.9094 329.511 36.2113L329.483 36.3905C328.823 36.5697 328.173 36.7395 327.402 36.9471L327.764 36.4848C327.374 36.3905 327.04 36.315 326.594 36.2113C326.742 37.2583 326.232 37.1734 325.637 37.0414C325.321 36.9754 324.977 37.032 324.643 37.1735C324.996 37.3527 325.377 37.4847 325.702 37.73C325.981 37.9375 326.185 38.2677 326.538 38.6733C327.699 39.0223 329.084 39.4468 330.458 39.8619C330.44 39.9751 330.421 40.0883 330.403 40.192C328.647 39.9185 326.9 39.6449 325.145 39.3713L325.107 39.5977C327.133 40.2203 329.158 40.8429 331.183 41.4655L331.183 41.5504C329.734 41.324 328.285 41.107 326.845 40.8806C326.835 40.9655 326.826 41.0504 326.808 41.1353C329.399 41.8239 331.991 42.522 334.583 43.2106L334.546 43.4276C333.236 43.2106 331.908 43.0597 330.616 42.7578C328.461 42.2484 326.306 41.7296 324.086 41.6541C323.537 41.6353 322.989 41.7013 322.441 41.7107C321.661 41.7202 320.871 41.7107 320.082 41.8711C326.399 43.3615 332.725 44.8519 339.219 46.3895C337.788 47.1253 336.562 46.3518 335.141 46.4084C335.466 46.3141 335.605 46.2669 335.744 46.2292C333.069 45.1349 330.17 45.6915 327.328 44.701C327.811 45.3425 327.811 45.3047 328.861 45.4085C329.362 45.4557 329.855 45.7009 330.319 46.0594C329.604 46.0028 328.879 45.9462 328.164 45.8801L328.117 46.0688C328.851 46.3329 329.585 46.5971 330.356 46.8706C330.124 46.9555 329.92 47.0404 329.687 47.1253C330.263 47.7007 330.923 47.7856 331.601 47.6253C332.242 47.4743 332.92 47.5026 333.58 47.4555L333.617 47.7951C333.041 47.8988 332.465 48.1158 331.889 48.0875C330.765 48.0309 329.65 47.8045 328.526 47.6913C327.56 47.597 326.585 47.5404 325.618 47.5026C325.46 47.5026 325.303 47.6441 324.912 47.8233C325.693 48.0214 326.25 48.1629 326.956 48.3422C326.343 48.9082 325.507 48.012 325.21 48.9742C324.819 49.2006 324.42 49.4364 323.928 49.7194C324.829 50.4929 326.046 49.9552 327.17 50.691C325.191 50.4835 323.398 50.2854 321.605 50.0967L321.559 50.2948C322.172 50.5212 322.776 50.8419 323.407 50.9457C324.336 51.0966 325.293 51.0683 326.222 51.2004C326.445 51.2287 326.622 51.606 326.965 51.9739C325.107 51.9739 323.472 51.5966 321.856 52.2003C323.222 52.6436 324.439 53.7662 326.027 53.1059C326.111 53.3794 326.213 53.6718 326.306 53.9926L319.106 53.9926C319.106 54.0963 319.088 54.2001 319.088 54.3133C319.784 54.3699 320.472 54.3982 321.169 54.5019C321.828 54.5963 322.488 54.7661 323.129 54.9076C322.896 54.983 322.636 55.0679 322.293 55.1811C322.432 55.3509 322.543 55.483 322.739 55.7188C321.484 55.898 320.295 56.0678 319.116 56.2376C320.24 57.1055 321.549 56.8602 322.766 57.0394C324.011 57.2281 325.275 57.2847 326.538 57.4733C323.705 58.3035 320.695 57.596 317.88 58.5204L317.88 58.7468C319.05 59.0204 320.23 59.2939 321.401 59.5581C321.41 59.5392 321.345 59.6335 321.196 59.8316C321.596 59.8976 321.94 59.9542 322.441 60.0391C321.977 60.1901 321.642 60.3033 321.317 60.4165L321.345 60.5202C322.311 60.6051 323.277 60.6806 324.253 60.7655L324.253 61.0202C322.915 61.1051 321.568 61.19 320.23 61.2749C320.23 61.3598 320.221 61.4352 320.212 61.5201C320.444 61.6616 320.676 61.7937 321.141 62.0672C320.277 62.1521 319.636 62.2182 318.995 62.2842L318.976 62.4917C320.658 62.8313 322.339 63.1709 324.021 63.5105L324.002 63.7557C323.603 63.8029 323.194 63.8501 322.794 63.9067L322.776 64.218C323.742 64.3783 324.708 64.5293 325.674 64.6896C324.885 65.2745 323.844 64.4349 323.203 65.4348C323.157 65.5009 323.268 65.6895 323.296 65.8216C322.033 65.7178 320.769 65.6046 319.496 65.5103C318.995 65.4726 318.493 65.4537 317.991 65.4631C317.573 65.4631 317.248 65.6046 317.397 66.0951C318.54 66.3215 319.626 66.5385 320.713 66.7555C318.8 67.2554 316.728 66.0102 314.982 67.6799C320.082 67.9912 325.182 68.3025 330.282 68.6138C330.282 68.727 330.282 68.8307 330.282 68.9439C328.322 68.9156 326.343 68.4911 324.383 69.142C326.873 69.9344 329.474 70.0382 332.186 70.7362C325.646 71.6418 319.329 71.5663 313.012 71.0664L312.993 70.8211L316.468 70.8211L316.468 70.4815C315.557 70.3966 314.629 70.3211 313.709 70.2362C313.709 70.1419 313.709 70.0382 313.709 69.9438C315.065 69.8589 316.431 69.774 318.01 69.6703C317.666 69.5193 317.518 69.4061 317.36 69.3967C315.994 69.3118 314.619 69.2741 313.254 69.1703C312.529 69.1137 311.795 68.9817 311.08 68.859C310.151 68.6987 309.723 68.9439 309.714 69.708C310.197 69.8684 310.931 69.6891 310.801 70.7079C310.801 70.7645 311.461 70.9343 311.851 71.0569C311.377 71.604 310.392 70.7928 310.114 71.9153C310.383 71.9342 310.615 71.9436 310.838 71.9625L310.866 72.1229C310.374 72.3492 309.891 72.5756 309.324 72.8303C309.575 73.0379 309.798 73.2171 310.179 73.5378C309.64 73.7453 309.268 73.9434 308.887 74.0189C306.797 74.434 304.707 74.8584 302.607 75.1886C300.499 75.5187 298.39 75.7923 296.272 75.9998C295.779 76.047 295.25 75.7168 294.73 75.5659C294.432 75.481 294.135 75.3584 293.829 75.3301C291.85 75.132 289.825 75.1414 287.892 74.6981C286.35 74.3396 284.892 74.5094 283.387 74.566C282.356 74.6037 281.324 74.3396 280.293 74.2641C279.615 74.217 278.928 74.2264 278.24 74.2641C277.776 74.2924 277.311 74.4151 276.977 74.4717C277.451 74.9528 277.98 75.5093 278.537 76.0281C278.974 76.4338 279.448 76.8016 279.801 77.0941C279.801 77.0941 279.559 77.1318 279.336 77.1695C279.243 78.1223 279.68 78.3864 280.414 78.3958C283.6 78.443 286.787 78.6033 289.964 78.5279C291.246 78.4996 292.519 77.9808 293.801 77.6883C294.033 77.6318 294.265 77.5563 294.525 77.5751C293.541 78.3864 292.398 78.6505 291.218 78.7165C288.719 78.8486 286.22 78.9052 283.73 78.9995C281.482 79.0844 279.234 79.2354 276.986 79.2637C273.8 79.3014 270.604 79.2637 267.417 79.2637C265.978 79.2637 264.528 79.292 263.088 79.2731C261.695 79.2542 260.311 79.1505 258.917 79.1505C255.972 79.1599 253.018 79.2354 250.073 79.2542C249.33 79.2542 248.578 79.1505 247.834 79.0844L247.834 78.858C248.401 78.8958 248.949 78.9618 249.497 78.9524C252.024 78.8958 254.551 78.8203 257.078 78.726C260.134 78.6128 263.191 78.4996 266.238 78.3581C267.947 78.2732 269.647 78.1128 271.524 77.9713C270.372 77.6789 269.34 77.4148 268.049 77.0846C268.467 76.8677 268.662 76.6884 268.876 76.6696C269.777 76.5941 270.678 76.5564 271.579 76.5281C271.747 76.5281 271.923 76.613 272.09 76.7828C271.747 76.8299 271.412 76.8771 271.068 76.9337L271.068 77.1412L274.998 77.1412L275.017 77.4808C274.125 77.5563 273.233 77.6317 272.35 77.7072L272.35 77.8393C274.255 78.0279 276.15 78.2166 278.045 78.4052C278.184 77.3865 277.896 77.028 277.06 77.0186C275.788 76.9997 274.515 76.8488 273.242 76.7545L273.242 76.4903C274.682 76.5564 276.122 76.6318 277.636 76.7073C277.534 75.6319 276.865 75.6508 276.354 75.547C275.732 75.4244 275.091 75.4527 274.468 75.3395C274.004 75.2546 273.577 74.9339 273.112 74.8867C272.499 74.8301 271.877 74.9433 271.254 74.9716C270.53 74.9905 269.814 74.9716 269.09 75.0094C268.597 75.0377 268.105 75.1414 267.622 75.2263C267.027 75.3301 266.433 75.481 265.829 75.5282C265.606 75.547 265.374 75.349 265.039 75.2074C265.42 74.8584 265.652 74.6509 266.061 74.2641C264.565 74.566 263.386 73.434 262.048 74.2076C261.621 74.4528 260.942 74.1604 260.376 74.1604C258.035 74.1792 255.694 74.1792 253.362 74.2641C251.504 74.3302 249.655 74.5 247.797 74.6698C247.342 74.7075 246.766 74.6886 246.59 75.3961C246.571 75.481 246.32 75.4904 246.172 75.5376C246.042 74.2264 244.75 74.9999 244.388 74.3302C245.243 74.2641 246.134 74.1981 247.036 74.1227L247.036 73.8019C243.821 73.7642 240.598 73.7359 237.383 73.6982L237.355 73.5095C237.43 73.5661 237.513 73.6227 237.727 73.7736C237.374 73.9151 237.114 74.0189 236.789 74.1604C236.566 72.7832 235.6 73.4812 234.959 73.2831C234.336 73.0944 233.686 73.0096 233.073 72.7454C232.72 72.7926 232.311 73.3397 232.042 72.5096C231.345 72.7737 230.713 71.3965 229.942 72.4153C229.84 72.5568 229.394 72.4153 229.106 72.3587C228.261 72.2077 227.434 71.9531 226.589 71.9059C224.703 71.8021 222.798 71.7644 220.912 71.7644C220.262 71.7644 219.603 72.0568 218.952 72.0663C218.172 72.0663 217.382 71.9342 216.602 71.8399C216.119 71.7833 215.84 71.8776 216.212 72.5662C216.137 72.5756 216.063 72.5945 215.98 72.6039C215.794 72.3209 215.608 72.0474 215.301 71.5852C215.041 71.6795 214.623 71.8682 214.196 71.9814C214.038 72.0191 213.787 71.9625 213.676 71.8399C212.923 70.9909 211.009 70.9249 210.192 71.6984C209.997 71.887 209.7 71.9531 209.402 71.9531C209.542 71.8116 209.681 71.6701 209.83 71.5191C209.774 71.4154 209.737 71.2833 209.7 71.2833C208.603 71.255 207.498 71.2267 206.402 71.2078C206.058 71.2078 205.714 71.2267 205.38 71.2456C204.72 71.2927 204.061 71.3022 203.42 71.4059C202.621 71.538 201.859 71.5757 201.172 70.9249C200.688 71.8682 199.973 71.4059 199.341 71.4625C199.323 71.3682 199.304 71.2833 199.286 71.189C200.168 70.9909 201.088 70.5381 201.933 70.6513C203.029 70.8022 204.089 70.8211 205.185 70.7173C206.374 70.6041 207.582 70.7645 208.789 70.7173C209.923 70.6796 211.056 70.5853 212.189 70.4532C213.137 70.34 214.066 70.1136 215.013 69.9815C215.255 69.9532 215.515 70.1891 215.766 70.1891C216.825 70.1891 217.884 70.1325 218.952 70.0947C218.952 70.0004 218.962 69.9061 218.971 69.8118L218.655 69.491C219.082 69.4439 219.5 69.3967 219.918 69.359L219.937 69.1514C219.788 69.0854 219.603 68.9156 219.5 68.9628C218.748 69.3212 218.116 68.8119 217.429 68.6892C217.234 68.6515 217.011 68.8307 216.844 69.1043C217.104 69.1797 217.354 69.2458 217.615 69.3212L217.559 69.6514C217.243 69.5759 216.899 69.5571 216.611 69.4061C216.165 69.1703 215.822 69.0571 215.692 69.8778L215.45 69.8118C215.283 69.3967 215.125 68.9911 214.958 68.576L215.162 68.4251C214.744 68.3685 214.335 68.3119 213.917 68.2553C213.917 68.1515 213.936 68.0572 213.945 67.9534C214.465 67.9817 214.986 67.9912 215.506 68.0855C215.552 68.0855 215.506 68.6515 215.506 69.0948C215.692 68.9816 215.915 68.9345 215.989 68.793C216.407 67.9346 217.159 68.0289 217.847 67.944C219.24 67.7742 220.597 67.1611 222.037 67.4063C222.668 67.5101 223.3 67.661 223.941 67.7459C224.182 67.7742 224.452 67.7082 224.703 67.661C225.121 67.5856 225.53 67.4912 225.994 67.3969C225.771 66.4442 226.403 66.4819 226.979 66.463C227.35 66.4536 227.722 66.463 228.094 66.463L228.112 66.2555C227.991 66.2083 227.861 66.1329 227.74 66.1329C226.152 66.1895 224.563 66.2649 222.966 66.3121C221.581 66.3498 220.188 66.3404 218.804 66.397C218.358 66.4159 217.903 66.68 217.457 66.6706C216.425 66.6517 215.404 66.5008 214.372 66.4725C213.1 66.4347 211.827 66.5102 210.554 66.4536C209.95 66.4253 209.347 66.114 208.743 66.1234C207.098 66.1612 205.528 65.7461 203.931 65.4348C203.531 65.3594 203.113 65.3877 202.695 65.3688C202.593 65.3688 202.463 65.3782 202.388 65.3216C201.367 64.4915 200.224 64.633 199.063 64.7651C198.496 64.8217 197.92 64.6896 197.344 64.6519C197.205 64.6519 197.056 64.6802 196.907 64.9066C197.149 64.9066 197.381 64.8783 197.613 64.9066C197.818 64.9349 198.013 65.0292 198.189 65.133C198.217 65.1518 198.171 65.4726 198.124 65.482C197.901 65.548 197.53 65.6801 197.456 65.5669C196.796 64.6613 196.257 65.3499 195.616 65.5952C195.059 65.8027 194.408 65.7272 193.786 65.6046C194.204 65.5669 194.622 65.5292 195.031 65.4914L195.031 65.2462C194.873 65.1707 194.696 65.0858 194.511 65.0009L194.957 64.6047L191.287 64.6047L191.287 63.5765L191.622 63.3879C191.101 62.5672 190.367 62.52 189.587 62.5577C188.881 62.586 188.156 62.454 187.46 62.5577C186.744 62.6709 186.066 63.0011 185.369 63.1992C185.119 63.2747 184.84 63.2464 184.58 63.2652C184.552 63.1615 184.524 63.0483 184.496 62.9445C184.84 62.803 185.174 62.6615 185.527 62.5106C185.128 62.5106 184.71 62.4634 184.32 62.5295C184.06 62.5766 183.846 62.8407 183.586 62.9351C183.196 63.0766 182.954 63.7463 182.397 63.303C182.313 63.2369 182.081 63.3879 181.802 63.6331C182.025 63.7274 182.239 63.8312 182.49 63.9444C181.393 65.0103 180.344 64.1802 179.359 64.2274C179.35 64.3029 179.331 64.3689 179.322 64.4444C179.926 64.6142 180.539 64.7839 181.143 64.9443C181.05 65.1613 180.957 65.3971 180.901 65.5386C179.805 65.2273 178.718 64.916 177.612 64.5953C177.808 64.4255 177.984 64.3029 178.133 64.1519C178.476 63.7935 178.82 63.6426 179.331 63.7463C180.037 63.8972 180.771 63.8878 181.486 63.9444C181.626 62.5389 181.626 62.5578 180.52 62.5295C179.879 62.5106 179.229 62.3691 178.588 62.3785C178.309 62.3785 178.049 62.6426 177.77 62.7747C177.659 62.8313 177.501 62.9068 177.408 62.8596C176.544 62.5012 175.745 62.7087 174.909 63.0294C174.556 63.1709 174.092 62.9445 173.683 62.9539C172.559 62.9822 171.398 63.2558 170.32 63.0294C169.335 62.8219 168.443 63.086 167.514 63.152C167.347 63.1615 167.18 63.2369 167.013 63.2841L167.013 63.5199C167.802 63.5576 168.583 63.6331 169.363 63.6237C170.998 63.6142 172.633 63.435 174.25 63.5671C174.937 63.6237 175.597 63.9916 176.33 63.6991C176.73 63.5388 177.157 63.4633 177.566 63.3407L177.715 63.7086C177.427 63.8972 177.157 64.1802 176.841 64.2557C175.968 64.4915 174.974 65.0009 174.203 64.7462C172.735 64.2746 171.314 64.5859 169.883 64.567C169.521 64.567 169.159 64.8217 168.787 64.9632L168.852 65.199L171.453 65.199L171.453 65.4631L168.035 65.4631C168.146 65.1424 168.211 64.9443 168.369 64.5104C167.747 64.6142 167.254 64.6896 167.003 64.7273C165.712 64.7273 164.644 64.7085 163.566 64.7273C162.349 64.7556 161.132 64.8122 159.925 64.8783C157.853 64.982 155.772 64.982 153.719 65.265C152.53 65.4254 151.415 64.8311 150.272 65.1235C149.492 65.3311 148.563 64.8783 147.913 65.7367C147.857 65.8121 147.634 65.8121 147.55 65.7555C146.752 65.2367 146.752 65.2367 145.85 65.6801C145.683 65.765 145.497 65.7839 145.321 65.831C145.878 66.5574 145.878 66.5479 146.668 66.1706C146.844 66.0857 147.077 66.0951 147.281 66.1046C148.173 66.1612 149.065 66.2932 149.957 66.2744C150.412 66.2649 150.848 65.9631 151.304 65.831C151.601 65.7461 151.917 65.7272 152.26 65.8216C152.093 65.8876 151.926 65.9536 151.749 66.0197L151.749 66.2461L156.497 66.2461C156.348 66.5008 156.255 66.6611 156.06 67.0101C156.692 67.0479 157.23 67.0856 157.76 67.1139C157.76 67.0196 157.76 66.9158 157.76 66.8215L156.887 66.9441C156.887 66.8498 156.887 66.7554 156.877 66.6611C158.42 66.1423 159.971 66.0951 161.587 66.7932C161.513 66.9064 161.439 67.0384 161.281 67.2931C161.978 67.5573 162.637 67.8025 163.287 68.0478L163.287 68.2081C162.359 68.0478 161.439 67.8874 160.519 67.7365C159.767 67.6139 159.014 67.5007 158.262 67.378L158.169 67.6705C158.28 67.8025 158.382 67.944 158.568 68.1704C157.853 68.3308 157.221 68.5477 156.58 68.576C156.171 68.5949 155.893 68.1232 155.317 68.2742C154.137 68.5855 152.883 68.8119 151.684 68.7175C150.886 68.6515 150.096 68.3402 149.278 68.6138C148.907 68.7364 148.535 68.8307 148.164 68.9439L148.164 69.1609C151.434 69.425 154.694 69.6986 158.039 69.9721C157.147 70.7456 154.778 70.8871 153.394 70.3117C153.422 70.557 153.459 70.7928 153.496 71.1135C152.093 70.2928 151.304 70.2362 150.421 71.0097C152.279 71.6984 154.165 71.1324 155.902 71.604L155.883 71.8399C155.159 71.7833 154.444 71.7078 153.719 71.6606C152.539 71.5852 151.359 71.5474 150.18 71.4531C150.059 71.4437 149.975 71.1418 149.826 71.0569C149.604 70.9154 149.343 70.7362 149.102 70.7456C148.052 70.7834 147.012 70.8777 145.953 71.0852L147.495 71.0852C147.495 71.1701 147.495 71.255 147.495 71.3399L140.815 71.3399C141.001 70.6136 141.345 70.6324 141.8 70.7739C142.162 70.8871 142.553 70.8777 142.998 70.9248C142.618 70.1042 142.246 69.9627 141.586 70.2362C141.41 70.3117 141.178 70.2362 140.973 70.2362C140.109 70.2362 139.245 70.2645 138.381 70.2362C137.945 70.2268 137.517 70.1136 137.09 70.057C137.09 69.9627 137.09 69.8589 137.09 69.7646C138.149 69.6703 139.208 69.5759 140.267 69.491L140.267 69.2835L135.65 69.2835L135.65 69.0005C136.561 68.8779 137.48 68.7552 138.391 68.6326L138.363 68.3119C137.146 68.3968 135.929 68.4723 134.563 68.5666C134.795 68.8684 134.87 68.9628 135.056 69.1986C133.774 69.425 132.64 69.6231 131.507 69.8306L131.525 70.1042C132.129 70.2645 132.696 70.7079 133.383 70.2645C133.774 70.0193 134.117 69.84 134.591 70.2268C134.87 70.4626 135.344 70.4249 135.734 70.4626C136.691 70.5758 137.638 70.6607 138.595 70.755C138.595 70.8305 138.595 70.8966 138.595 70.972C137.796 70.9248 136.997 70.84 136.198 70.8494C134.842 70.8683 133.486 70.9814 132.139 71.0003C131.823 71.0003 131.516 70.7456 131.191 70.7173C129.918 70.623 128.646 70.5664 127.364 70.5004C124.818 70.3683 122.273 70.1985 119.737 70.123C117.191 70.0476 114.637 70.0664 112.082 70.0287C111.153 70.0193 110.205 69.8778 109.286 69.9815C108.654 70.0476 108.041 70.4249 107.288 70.7079C106.489 69.8212 105.3 70.1702 104.139 70.2362C102.996 70.3023 101.844 70.274 100.702 70.2928C99.1503 70.3211 97.5896 70.3589 96.0289 70.5381C97.0973 70.8777 98.305 70.2928 99.3454 71.3022C98.4722 71.321 97.7662 71.6229 96.8836 71.472C95.3508 71.2173 93.7529 71.4531 92.183 71.5286C90.966 71.5852 89.7676 72.0096 88.5321 71.4908C88.1698 71.3399 87.6681 71.6135 87.2222 71.6889L87.2222 71.953C87.4916 72.0662 87.7517 72.1889 88.0118 72.3021L88.0118 72.4436C87.473 72.4813 86.9528 72.5096 86.4232 72.5473L86.4232 72.7926C88.2533 72.8681 90.0742 73.4057 91.9414 72.8398L91.9228 72.8209L91.0682 73.5284L91.0868 73.7359C91.8114 73.7359 92.536 73.717 93.2606 73.7359C95.2579 73.8019 97.2459 73.9434 99.2433 73.9529C102.077 73.9717 104.919 73.8963 107.753 73.8585C108.607 73.0756 109.527 73.3869 110.577 73.8585C110.447 73.3963 110.382 73.1793 110.317 72.9435C110.4 72.9058 110.475 72.8398 110.54 72.8398C111.645 72.8964 112.76 72.8492 113.838 73.0567C115.017 73.2831 116.123 73.0378 117.266 72.9247C118.139 72.8398 119.049 73.085 119.932 73.1793L119.932 73.4435L117.591 73.6699L117.591 73.8585C118.956 74.0189 120.34 74.1698 121.725 74.3302L121.78 74.5188C121.427 74.6037 121.065 74.7547 120.712 74.7547C118.557 74.7735 116.402 74.7547 114.237 74.7547C111.552 74.7547 108.868 74.7358 106.192 74.7358C105.876 74.7358 105.495 74.6132 105.477 75.2263C105.477 75.3018 105.022 75.4338 104.78 75.4338C104.26 75.4338 103.73 75.3395 103.21 75.3112C101.519 75.2357 99.8285 75.1225 98.1285 75.1225C97.5339 75.1225 96.9394 75.4433 96.3448 75.6131C96.1962 75.6508 95.9918 75.7357 95.8896 75.6602C94.9885 75.066 93.9852 75.4055 93.0469 75.2169C92.2015 75.0471 91.5977 75.5848 90.8638 75.6508C89.7211 75.764 88.5599 75.9055 87.4173 75.8866C83.8128 75.83 80.2083 75.698 76.5946 75.6131C75.7028 75.5942 74.8109 75.6225 73.9284 75.698C70.4819 75.9715 67.0539 75.7923 63.6167 75.3395C60.3559 74.915 57.0859 74.4905 53.7787 74.9056C52.3202 75.0848 50.8338 74.8584 49.3567 74.8962C47.5545 74.9433 45.7523 75.066 43.9408 75.1603C42.6495 75.2263 41.3582 75.2923 40.0762 75.3961C39.621 75.4338 39.1658 75.5848 38.7106 75.6885C38.7106 75.7829 38.7106 75.8866 38.7106 75.981C40.0297 76.1413 41.3396 76.3017 42.6587 76.462L42.6402 76.7262C39.175 76.7733 35.7378 76.0941 32.2727 75.9527L32.2262 76.2734C33.9913 76.6413 35.7471 77.0091 37.5122 77.3676L37.5122 77.594C35.487 77.4431 33.4804 77.3016 31.4738 77.1507L31.4459 77.4525C31.7803 77.4902 32.1148 77.5185 32.4956 77.5563C32.5235 77.943 32.2262 78.4147 33.0995 78.3203C34.4465 78.1694 35.84 78.4713 37.2149 78.5467C37.6422 78.5656 38.0789 78.4713 38.5341 78.5845C37.9395 78.6694 37.3449 78.7543 36.7504 78.8392L36.769 79.0184C37.0756 79.0373 37.3821 79.0656 37.6887 79.0844L37.7537 79.3391C37.2985 79.5466 36.8433 79.7542 36.3881 79.9711L36.3602 80.2447C37.2242 80.4239 38.0974 80.6031 38.9614 80.7824L38.9335 81.1597C37.2335 80.6503 35.5334 80.4145 33.7498 81.0182C33.9913 81.3201 34.1771 81.5559 34.3536 81.7823C33.3689 81.4993 32.4027 82.5746 31.4366 81.9049L31.4366 81.603L32.9508 81.603L32.9787 81.3201C32.7186 81.2163 32.4585 81.0276 32.1984 81.0276C30.8606 81.0088 29.4672 80.839 28.278 81.5842C27.7021 81.9426 27.1819 82.4237 26.5316 82.5841C24.5342 83.0935 22.5555 82.6595 20.5582 82.4992C19.8243 82.4426 19.0811 82.3671 18.3565 82.4426C17.0838 82.5841 15.8111 82.8576 14.5384 83.0274C14.3433 83.0557 14.1203 82.8388 13.9066 82.735C14.0832 82.3954 14.1946 81.8577 14.4455 81.754C15.2537 81.4238 16.1269 81.3012 16.963 81.0276C18.0406 80.6692 19.1089 80.2636 20.1773 79.8579C20.8555 79.5938 21.4779 79.6032 22.1189 80.0372C22.9178 80.5654 23.9118 80.3107 24.1441 79.5844C23.6982 79.4523 23.2429 79.3202 22.7877 79.1882L22.8063 78.9807C24.9058 78.5939 27.0146 78.2071 29.207 77.8015C29.0677 77.6883 28.9934 77.5751 28.919 77.5657C26.4479 77.5374 23.9768 77.4902 21.5057 77.5185C21.1434 77.5185 20.7811 77.8298 20.3259 78.0468C19.0811 77.3204 17.6969 77.7827 16.3684 78.2543C15.1608 78.6788 14.2039 78.6505 13.34 77.4902C12.4389 76.2639 11.2312 76.0187 9.86554 76.4809C9.3453 76.6601 8.79724 76.7356 8.25842 76.8394C8.15625 76.8582 7.97973 76.8582 7.96115 76.8016C7.56167 75.9338 6.57696 76.179 6.13104 75.6225C6.01028 74.5849 5.93594 73.5944 5.75946 72.6322C5.69442 72.2738 5.37854 71.9625 5.16488 71.6418C5.09057 71.5286 4.90478 71.4248 4.91406 71.3399C4.99768 70.6702 4.6261 70.2079 4.431 69.6514C4.19876 69.0005 3.93866 68.9911 3.50201 68.9533C3.30694 68.9345 3.11184 68.8779 2.90747 68.8401C2.88888 68.7552 2.8703 68.6703 2.85171 68.5854C4.45886 67.878 6.07531 67.1611 7.73819 66.4347C7.64529 65.9253 7.56167 65.482 7.44092 64.8122C10.1257 64.9443 12.8197 65.4914 15.3744 64.284C15.2165 63.5482 14.7613 63.2841 14.0553 63.6425C13.7209 63.8123 13.4329 64.067 13.0984 64.218C12.1416 64.6424 11.259 64.0953 10.3486 63.8972C9.5683 63.7274 8.79724 63.5482 8.02618 63.3218C7.7196 63.2275 7.44092 63.0011 7.23654 62.6898C5.13702 62.8219 3.04681 62.9445 0.947324 63.0766C0.919431 62.9539 0.891538 62.8407 0.863675 62.7181C1.20739 62.5766 1.54184 62.4162 1.89486 62.3125C2.39651 62.1616 3.09326 62.5766 3.27905 61.5861C3.31619 61.3975 3.85504 61.2277 4.1709 61.1994C4.84906 61.1428 5.54577 61.1994 6.22394 61.1616C6.43762 61.1522 6.63269 61.0013 6.84634 60.9164C6.75345 60.6617 6.71631 60.3221 6.5491 60.1523C5.83377 59.4731 4.97909 59.1524 4.03152 59.1335C3.67849 59.1335 3.33478 59.077 2.99106 59.0486C2.99106 58.9355 2.99106 58.8128 2.99106 58.6996C4.18017 58.5393 5.36926 58.3883 6.81848 58.1902C5.01623 57.7563 3.44629 57.2092 2.45227 55.5396C2.55444 55.0113 2.92602 54.7944 3.45556 54.7755C3.90146 54.7566 4.34738 54.7 4.7933 54.6623C4.7933 54.568 4.7933 54.4831 4.7933 54.3887C4.2359 54.3038 3.67849 54.2095 3.1304 54.1246L3.1304 53.9359L3.62277 53.6718C3.26047 52.3229 1.92273 52.5116 1.0216 51.7569C1.55115 51.5777 1.93204 51.4551 2.31293 51.323L2.35006 51.0966C1.79266 50.757 1.22598 50.4174 0.668607 50.0778L0.73364 49.8609C2.35937 49.6722 4.04083 50.1061 5.64798 49.5967L5.7316 49.3138C4.05011 48.3516 2.37793 47.3894 0.69647 46.4178L0.715055 46.2197C1.83914 46.0311 2.96319 45.8424 4.21734 45.6254C3.13971 44.8142 2.19214 44.1162 1.20743 43.3709C1.70907 43.2577 2.22 43.1351 2.70309 43.0219C2.79599 42.2578 1.61615 42.1069 2.11783 41.0787C3.19543 42.4748 4.47745 42.7578 5.95453 42.4371C6.92996 42.2295 7.92398 42.1541 8.90869 42.022L8.93655 41.6919C8.04474 41.4655 7.16223 41.2108 6.26111 41.0316C5.39715 40.8618 5.2392 40.6637 5.36926 39.7392C4.5982 39.1166 4.63537 38.6639 5.48074 38.1262C5.84305 37.8904 6.22394 37.6828 6.57696 37.447C6.70703 37.3621 6.83707 37.2489 6.91138 37.1168C7.1622 36.6452 7.38519 36.1641 7.6546 35.6076C7.32944 35.5698 6.86493 35.5227 6.18677 35.4472C6.91138 35.1359 7.44092 34.9189 8.12836 34.6171C7.84036 34.2303 7.66385 33.7492 7.34802 33.6078C6.2518 33.1267 5.72229 32.3909 6.06601 31.0703C6.07529 31.0231 6.01956 30.9665 6.01025 30.9099C6.01025 30.8627 6.02887 30.8061 6.05673 30.7024C6.26111 30.6552 6.51193 30.6363 6.71631 30.5326C6.89282 30.4477 7.04144 30.259 7.19937 30.127C7.04144 29.9383 6.89279 29.6364 6.707 29.5987C6.17749 29.4855 5.62939 29.4949 5.00699 29.4383C5.62939 28.2592 7.42233 29.0893 7.5524 27.3536C8.12836 27.3254 8.80652 27.4574 8.95517 26.4858C7.61743 26.0425 6.29825 26.1085 4.96051 26.3915C4.64465 26.4575 4.29166 26.316 3.94791 26.2783L3.94791 25.9576C5.1463 25.5708 6.33542 25.1841 7.5524 24.7879C7.06003 24.2219 6.60483 23.6842 6.10318 23.0993C6.26111 22.9013 6.38187 22.7409 6.50262 22.59C6.01956 20.7788 4.54248 21.3259 3.14902 21.2033C4.24521 20.326 5.50864 21.0807 6.19607 20.1751C5.90808 19.6563 5.66653 19.2507 5.43429 18.8356C5.81518 18.5998 6.19607 18.3734 6.72562 18.0432C6.13104 17.8734 5.67584 17.7414 5.17419 17.5905L5.79663 17.3075C5.22064 16.9584 4.73758 16.666 4.25449 16.3736L4.3381 16.2132C5.5365 16.4113 6.73489 16.6094 7.94257 16.8075C7.97043 16.7132 7.98901 16.6094 8.01688 16.5151C7.48737 16.1944 6.95782 15.8831 6.43759 15.5624L6.47476 15.468C7.18079 15.7038 7.87753 16.0151 8.60214 16.1661C9.66119 16.383 10.7388 16.5717 11.8072 16.6C12.5132 16.6189 13.3586 16.0151 13.916 16.2887C14.6127 16.6189 15.2537 16.7698 15.9504 16.7226C16.2849 16.7037 16.6007 16.4868 16.9258 16.3642L16.8608 15.968L14.9192 15.968L14.8914 15.8453C15.8203 15.4775 16.7401 15.119 17.6969 14.7417C16.7215 14.3832 15.7368 14.0248 14.752 13.6569L14.7706 13.3833C14.9936 13.3267 15.2258 13.2607 15.5045 13.1852L15.2351 12.6853C15.3466 12.6664 15.4302 12.6381 15.4952 12.6475C16.0433 12.7607 16.4056 12.44 16.8329 12.1099C17.5576 11.5439 18.3658 11.1194 19.1368 10.6194C19.4248 10.4308 19.7407 10.2516 19.9822 10.0063C20.0751 9.91196 20.0565 9.48748 19.9822 9.44031C19.0997 8.96866 18.4122 7.94989 17.1953 8.19515C17.2417 8.39325 17.2881 8.58191 17.3718 8.91206C17.1209 8.8083 16.9537 8.77057 16.8144 8.67624C16.2849 8.32721 15.7925 7.87443 15.2258 7.6103C14.687 7.35561 14.7149 6.88396 14.7335 6.45947C14.752 5.97839 14.9192 5.50674 15.0307 5.01622C14.5941 4.85586 14.2596 4.74266 13.9345 4.62003C13.9624 4.5257 13.981 4.43137 14.0088 4.33704C14.8542 4.5823 15.7089 4.81812 16.5543 5.06338L16.6286 4.83699C16.4613 4.74266 16.3034 4.6389 16.1362 4.54457L16.0898 4.30874C16.4892 4.22384 16.9073 4.03518 17.2974 4.07291C18.5609 4.20498 19.6106 3.53523 20.7533 3.15791C21.6265 2.86549 22.5834 2.76172 23.5031 2.77116C25.9463 2.79002 28.3895 2.92209 30.8235 2.99755C31.6688 3.02585 32.4678 3.08245 33.3132 3.32771C34.2422 3.60126 35.3012 3.39374 36.2952 3.3843C39.6953 3.35601 43.0954 3.38431 46.4955 3.28054C50.36 3.16735 54.2339 2.97868 58.0985 2.76173C60.2259 2.6391 62.3347 2.39384 64.4527 2.18631C64.9915 2.12971 65.5304 1.87502 66.0599 1.89389C67.1561 1.94105 68.2709 2.30894 69.3485 2.18631C71.8103 1.90332 74.2164 2.78059 76.6782 2.31837L76.6782 2.57307C75.6749 2.64853 74.6716 2.73343 73.6683 2.80889C79.6602 3.67673 85.6615 2.90322 91.6441 3.21451C90.7802 3.80879 90.6966 3.80879 89.7026 3.33714C89.5911 3.28054 89.4517 3.25224 89.3217 3.26168C86.7019 3.4409 84.0915 3.639 81.481 3.80879C80.4685 3.87482 79.4558 3.87482 78.4433 3.93142C78.211 3.94086 77.9881 4.09178 77.7558 4.17668L77.7558 4.43137C78.3039 4.554 78.8613 4.62947 79.3815 4.81813C80.004 5.04452 80.4777 4.92189 80.8215 4.28044C81.2953 5.06339 81.8155 5.19545 82.7445 4.8087C83.8035 4.37478 84.8347 4.45024 86.1353 5.10112L84.4631 5.25205L84.4631 5.46901L85.8008 5.62937L85.8008 5.78973L80.6078 5.78973C80.4871 5.6388 80.357 5.32751 80.2269 5.32751C79.2422 5.32751 78.2575 5.38411 77.2356 5.62937C77.3471 5.71427 77.4492 5.79916 77.7187 6.00669C73.8076 6.08215 70.0174 5.60107 66.2828 6.60097C68.5124 6.68587 70.7513 6.77077 72.9808 6.85566C72.9808 6.97829 72.9901 7.11036 72.9994 7.23298C72.7021 7.31788 72.4048 7.40278 72.1076 7.48768L72.1076 7.71407C72.8322 7.71407 73.5661 7.71407 74.3 7.71407C74.365 7.71407 74.4765 7.64804 74.4858 7.58201C74.8574 6.15762 75.8793 7.11036 76.5853 6.88396C76.2044 7.02546 75.8235 7.15752 75.4333 7.29902L75.4705 7.59144C75.9443 7.59144 76.4274 7.59144 76.9012 7.59144C80.3755 7.51598 83.8407 7.43108 87.3151 7.37448C88.8572 7.34618 90.3993 7.44051 91.9414 7.38391C92.666 7.35562 93.3906 7.12922 94.1152 6.98773L94.0688 6.77077C94.2174 6.91226 94.3661 7.18582 94.5054 7.18582C96.3634 7.14809 98.2121 7.07262 100.07 6.99716C100.07 6.8934 100.079 6.79907 100.089 6.6953C99.6241 6.64814 99.1411 6.52551 98.6859 6.57267C97.2924 6.73304 97.1159 6.6953 95.871 5.46901C96.6328 5.36524 97.311 5.28978 97.9891 5.16715C98.1842 5.12942 98.3607 4.95019 98.7044 4.74266C100.284 4.62003 102.067 4.47854 103.851 4.33704L103.916 4.10122C103.73 3.91256 103.535 3.7239 103.349 3.54467L103.424 3.35601C103.684 3.50694 103.925 3.67673 104.195 3.78993C104.446 3.89369 104.734 3.99745 104.994 3.97859C105.765 3.91256 106.489 3.7805 107.307 4.04462C108.031 4.28045 108.895 3.97859 109.815 3.91256C108.886 4.33704 108.022 4.8087 107.112 5.11055C106.136 5.43128 105.124 5.61994 104.111 5.81803C103.099 6.01612 102.067 6.16705 100.925 6.35571C102.086 7.20469 108.152 6.7236 109.313 6.32741C108.728 6.06329 108.329 5.88406 107.92 5.70483C108.013 5.23318 108.292 5.14829 109.824 5.15772C109.62 5.37468 109.397 5.60107 109.035 5.97839C109.416 6.02556 109.611 6.11046 109.75 6.04442C110.8 5.50674 111.915 5.71427 113.002 5.6388C113.494 5.6105 114.07 5.45958 114.265 6.27082C114.293 6.40288 114.72 6.45948 114.952 6.45004C115.027 6.45004 115.092 6.11989 115.222 5.78973C115.881 6.04442 116.587 6.31798 117.358 6.61984C117.275 6.81793 117.191 7.02546 117.033 7.40278C117.777 7.28959 117.953 6.85567 117.999 6.22365C118.334 6.28025 118.696 6.33685 119.058 6.39345L119.077 6.55381C118.854 6.63871 118.622 6.7236 118.399 6.81793C118.947 6.94056 119.551 7.63861 120.015 6.63871C120.062 6.52551 120.294 6.45948 120.433 6.45948C122.143 6.45005 123.852 6.45948 125.589 6.61984C124.521 6.7802 123.453 6.93113 122.384 7.08206C122.329 7.08206 122.263 7.10092 122.226 7.07263C121.502 6.44061 120.972 6.79907 120.452 7.44051C120.359 7.55371 120.053 7.50655 119.848 7.46881C118.863 7.27072 117.916 7.15752 117.219 8.20459C117.173 8.28005 116.968 8.23289 116.829 8.24232C117.08 7.58201 116.848 7.49711 115.305 7.69521C115.445 7.8084 115.519 7.88387 115.751 8.07253C114.869 8.07253 114.116 8.11969 113.373 8.06309C112.258 7.9782 111.153 7.74237 110.047 7.69521C109.007 7.65747 107.966 7.77067 106.926 7.84613C106.796 7.84613 106.684 8.03479 106.573 8.37438C107.437 8.44042 108.301 8.51588 109.239 8.59134C109.239 8.69511 109.202 8.8649 109.248 8.99696C109.295 9.13846 109.416 9.30825 109.527 9.33655C109.648 9.36485 109.824 9.27995 109.936 9.18562C110.15 9.01583 110.326 8.62908 110.53 8.61964C111.998 8.57248 113.466 8.59134 114.794 8.59134C114.414 8.8366 113.93 9.13846 113.447 9.44032L113.587 9.74217C114.088 9.63841 114.767 10.2893 114.99 9.42145C115.482 9.54408 115.956 9.67614 116.429 9.77991C116.55 9.80821 116.764 9.76104 116.792 9.68558C117.154 8.69511 117.934 9.20449 118.585 9.13846C118.427 9.27996 118.26 9.42145 118.055 9.61011C118.241 9.67614 118.38 9.77991 118.52 9.77991C119.486 9.79877 120.461 9.78934 121.427 9.77991C121.938 9.77991 122.468 9.9497 122.83 9.29882C122.895 9.18563 123.295 9.27996 123.536 9.29882C124.066 9.34599 124.605 9.44032 125.134 9.44032C126.258 9.44032 127.391 9.39315 128.516 9.37429C129.333 9.35542 130.151 9.35542 130.968 9.31769C131.163 9.31769 131.349 9.17619 131.535 9.10073C131.702 9.0347 131.888 8.88377 132.018 8.93093C134.089 9.53465 136.161 8.94037 138.233 9.01583C138.716 9.0347 139.208 8.96867 139.626 9.11016C139.784 9.18563 139.942 9.33655 140.1 9.33655C141.243 9.35542 142.395 9.35542 143.537 9.33655C144.28 9.32712 145.033 9.25166 145.776 9.23279C146.371 9.22336 146.965 9.23279 147.56 9.29882C147.801 9.32712 148.015 9.55351 148.21 9.54408C149.696 9.50635 151.174 9.48748 152.66 9.43089C154.146 9.36485 155.633 9.25166 157.119 9.16676C157.138 9.26109 157.156 9.36485 157.175 9.45918C156.794 9.57238 156.422 9.67614 156.041 9.78934L156.041 10.0723C156.655 10.1006 157.268 10.1667 157.89 10.1572C158.522 10.1478 159.163 10.1289 159.776 9.978C160.389 9.81764 160.965 9.47805 161.56 9.21393L161.467 9.49692C161.643 9.63841 161.829 9.90254 161.996 9.8931C162.609 9.85537 163.222 9.71388 163.836 9.63841C164.997 9.50635 166.158 9.39315 167.319 9.28939C167.468 9.27996 167.626 9.33656 167.784 9.36485L167.812 9.60068C167.282 9.66671 166.762 9.79877 166.242 9.78934C165.703 9.78934 165.257 9.81764 164.95 10.3836C164.876 10.5157 164.542 10.6383 164.514 10.6006C163.984 9.91197 163.334 10.3459 162.739 10.3459C161.866 10.3459 160.946 10.4214 160.129 10.5629C159.376 10.6949 158.708 10.4119 158.02 10.5346C157.509 10.6289 156.998 10.7798 156.487 10.8364C155.4 10.9496 154.304 11.0156 153.208 11.0911C152.929 11.11 152.651 11.0911 152.372 11.0911L152.372 11.3552C153.199 11.3552 154.026 11.3647 154.862 11.3552C155.939 11.3364 157.082 11.0439 158.094 11.3269C160.24 11.9401 162.266 10.9779 164.356 11.0439C165.74 11.0911 167.124 10.9968 168.508 11.0156C168.741 11.0156 168.982 11.2515 169.214 11.3741L169.159 11.6854C168.313 11.7608 167.477 11.8363 166.576 11.9212C166.65 12.0721 166.734 12.2419 166.864 12.4872C166.362 12.591 165.954 12.7702 165.777 12.0344C165.74 11.8929 165.294 11.808 165.034 11.8174C162.646 11.874 160.268 11.9401 157.881 12.025C156.478 12.0721 155.075 12.1665 153.645 12.1004L154.369 11.9023L154.351 11.7137C153.44 11.7797 152.539 11.8552 151.629 11.9212C151.629 12.025 151.638 12.1193 151.647 12.2231C151.991 12.1948 152.335 12.1759 152.688 12.1476L152.688 12.3551C150.839 12.4872 148.99 12.6287 147.132 12.7607L147.105 12.9211C147.318 13.0532 147.523 13.1947 147.783 13.3645C147.606 13.4305 147.448 13.4871 147.29 13.5437L147.29 13.7795L150.625 13.7795C150.412 13.6475 150.245 13.5531 150.003 13.4022C151.108 13.1758 152.112 12.94 153.134 12.7513C154.165 12.5627 155.196 12.4117 156.153 13.1381C156.032 13.223 155.939 13.289 155.846 13.355L155.883 13.4965C156.85 13.4494 157.816 13.3928 158.782 13.3456C160.278 13.2701 161.783 13.223 163.278 13.1286C163.854 13.0909 164.43 12.94 165.071 13.0249C164.532 13.2324 163.994 13.4399 163.51 13.6192C164.226 14.1002 165.136 13.9021 165.842 13.2513C166.102 13.0154 166.604 13.0909 167.003 13.0343C167.013 13.1286 167.022 13.2324 167.031 13.3267C166.78 13.3833 166.53 13.4494 166.149 13.5343C166.381 13.855 166.53 14.0625 166.65 14.2229L163.306 14.2229C163.668 14.487 163.975 14.704 164.282 14.9115C164.347 14.9586 164.495 14.9869 164.495 14.9681C164.895 13.9776 165.536 14.8077 166.047 14.7511C167.264 14.6191 168.508 14.7794 169.707 14.6002C171.463 14.3361 173.209 14.6568 174.965 14.4776C176.526 14.3172 178.105 14.4587 179.684 14.4587C179.777 14.4587 179.87 14.3832 180.186 14.2512C176.851 13.6003 173.664 14.7511 170.366 13.7324C170.729 13.5437 170.924 13.4494 171.184 13.3173L169.744 13.3173L169.651 13.006C169.911 12.8928 170.264 12.6098 170.422 12.7041C171.778 13.4682 172.986 12.9022 174.212 12.3268C174.63 12.1287 175.048 11.9589 175.559 11.742C175.42 12.8079 173.785 11.9495 174.24 13.3739C173.692 13.4305 173.256 13.4682 172.819 13.5154L172.819 13.7607C178.318 13.6097 183.809 13.4588 189.541 13.2984C189.16 13.0626 188.983 12.9588 188.797 12.8362C188.862 12.7702 188.909 12.6853 188.974 12.6759C189.596 12.5815 190.191 12.5532 190.507 11.7231C190.59 11.5062 191.287 11.5722 191.705 11.5156C191.724 11.6099 191.742 11.6948 191.77 11.7891C191.491 11.8929 191.213 12.0061 190.934 12.1099L190.934 12.2797L198.468 12.2797L198.505 12.3268C198.18 12.3834 197.864 12.4495 197.539 12.5061C197.623 13.5531 197.725 13.6286 199.611 14.1097C199.239 14.138 198.858 14.1663 198.487 14.1946L198.487 14.4681L206.355 14.4681C206.355 14.3644 206.355 14.2512 206.355 14.1474L200.41 14.1474C200.531 13.7229 200.521 13.6946 202.184 13.4588C202.872 13.3645 203.587 13.4399 204.293 13.3645C202.714 12.5249 200.884 13.4116 199.165 12.4023C199.49 12.2891 199.759 12.1099 200.038 12.1099C201.59 12.0721 203.132 12.0344 204.683 12.0533C207.758 12.1004 210.833 12.2231 213.908 12.2419C215.822 12.2514 217.735 12.1099 219.649 12.1193C220.179 12.1193 220.708 12.4023 221.414 12.6098C221.043 12.6947 220.801 12.8079 220.578 12.7985C219.723 12.7702 218.878 12.6853 218.023 12.6664C217.605 12.657 217.131 12.5061 216.899 13.1664C216.844 13.3362 216.398 13.355 216.128 13.6003C217.382 13.6852 218.636 13.7701 219.9 13.855C219.909 13.7607 219.918 13.6663 219.928 13.572C219.538 13.5154 219.147 13.4588 218.748 13.4022C219.342 12.9966 219.872 13.0532 220.402 13.4305C220.699 13.638 221.098 13.7418 221.461 13.7607C222.631 13.8361 223.811 13.8738 224.991 13.8927C226.115 13.9116 227.239 13.8927 228.549 13.8927C228.261 13.8078 228.121 13.7701 227.982 13.7229C227.322 13.506 226.663 13.1852 225.985 13.0815C225.381 12.9871 224.74 13.1381 224.127 13.1852C224.182 12.789 224.489 12.6664 224.981 12.7325C225.752 12.8362 226.533 12.9494 227.304 12.9211C228.409 12.8739 229.515 12.6759 230.62 12.591C232.19 12.4778 233.797 12.6287 235.312 12.2514C236.454 11.9684 237.383 12.8173 238.442 12.4117C238.442 12.5061 238.442 12.6004 238.442 12.6947C237.225 12.723 235.999 12.7136 234.782 12.789C234.197 12.8268 233.612 13.006 233.026 13.1192C232.971 13.0249 232.906 12.8551 232.85 12.8551C232.023 12.8362 231.187 12.8079 230.36 12.8834C230.212 12.8928 230.1 13.3739 229.97 13.6286L230.147 13.7418L229.357 13.921L229.385 14.0625C230.091 14.0153 230.788 13.9682 231.587 13.9116C231.373 13.572 231.261 13.3928 231.215 13.3173C231.837 13.2418 232.441 13.1664 233.054 13.0815L232.952 13.1381ZM291.172 5.69541C290.809 5.45958 290.466 5.15773 290.066 5.0068C289.908 4.9502 289.639 5.23319 289.425 5.35582C289.342 5.16716 289.295 4.88417 289.156 4.81814C288.58 4.52571 287.967 4.22386 287.279 4.70494C287.799 5.11056 288.394 5.16716 288.905 5.51618C289.481 5.90294 290.41 5.64824 291.19 5.66711C292.324 6.53495 293.568 6.02557 294.776 6.01613C294.228 5.73314 293.643 5.62938 293.085 5.42185C292.574 5.23319 292.073 4.67664 291.692 5.61995C291.655 5.71428 291.348 5.67654 291.172 5.69541ZM237.095 8.78001L237.058 8.68568C238.062 8.81774 239.065 8.9781 240.068 9.08187C241.164 9.19506 242.261 9.27996 243.357 9.32713C244.481 9.36486 245.596 9.32713 246.72 9.34599C247.825 9.34599 248.931 9.37429 250.027 9.38372C251.086 9.38372 252.145 9.38372 253.195 9.38372L253.213 9.063C252.544 8.87434 251.876 8.57248 251.188 8.54418C250.473 8.50645 249.748 8.72341 248.968 8.84604C248.986 8.56305 249.005 8.32723 249.024 8.10083C247.073 7.1481 240.533 6.79907 238.74 7.58201C239.938 7.67634 241.136 7.76124 242.316 7.85557C241.935 8.49702 242.902 8.19516 243.069 8.72341C242.66 8.64795 242.326 8.59135 242 8.52532C241.517 8.43099 241.034 8.28949 240.542 8.24233C239.845 8.1763 239.139 8.19516 238.442 8.12913C237.736 8.05367 237.04 7.88387 236.334 7.80841C235.897 7.76124 235.628 7.91217 236.018 8.43099C235.786 8.53475 235.563 8.64795 235.34 8.75171L235.386 9.02527C235.943 8.9498 236.51 8.87434 237.068 8.79888L237.095 8.78001ZM306.639 9.21393C305.283 10.3742 303.629 9.35543 302.236 10.1195C302.58 10.2421 302.923 10.261 303.276 10.2799C306.045 10.4874 308.813 10.6949 311.581 10.9024C311.702 10.9024 311.897 10.9213 311.934 11.0062C312.185 11.525 312.427 11.4967 312.78 11.1005C312.882 10.9873 313.17 11.0722 313.365 11.0817C314.554 11.176 315.743 11.2137 316.923 11.393C317.62 11.4967 318.317 11.7514 318.958 12.0721C319.822 12.5061 320.658 12.9871 321.652 12.6476C321.354 12.5155 321.039 12.5249 320.732 12.4495C320.472 12.3929 320.212 12.2702 319.989 12.1099C319.775 11.9589 319.636 11.6477 319.413 11.5439C318.902 11.3269 318.363 11.176 317.834 11.0251C316.774 10.7138 315.715 10.3931 314.638 10.1384C313.542 9.87425 312.343 9.91198 311.358 9.41203C309.788 8.60079 308.228 8.47816 306.574 8.66682C306.5 8.66682 306.444 8.74228 306.333 8.80831L306.658 9.19507L306.639 9.21393ZM126.295 67.8591L126.295 68.0572C127.187 68.0949 128.07 68.1798 128.952 68.1798C132.575 68.1798 136.189 68.1515 139.812 68.1421C141.493 68.1421 143.212 68.3213 144.661 67.1516C144.661 67.1516 144.615 67.1045 144.568 67.1045C143.965 67.0573 143.472 67.4629 142.961 67.6139C142.06 67.8874 140.973 67.7553 140.054 67.4535C139.747 67.3497 139.366 67.1139 138.995 67.095C138.158 67.0573 137.322 67.0762 136.477 67.095C136.338 67.095 136.208 67.1894 135.966 67.2837C136.208 67.4818 136.365 67.6139 136.681 67.878C135.437 67.8025 134.377 67.7365 133.328 67.6705L133.328 67.4441C133.876 67.4063 134.424 67.3686 134.972 67.3214C132.343 67.1328 129.723 66.3687 127.066 67.3309C127.419 67.4063 127.782 67.4818 128.135 67.5572L128.135 67.7082C127.512 67.7553 126.899 67.8025 126.286 67.8497L126.295 67.8591ZM226.663 7.37449C227.025 7.48768 227.295 7.57258 227.573 7.64804C228.298 7.84614 229.004 8.01593 229.533 8.74228C229.803 9.1196 230.286 9.67615 230.797 9.24223C231.141 8.9498 231.271 8.37439 231.494 7.90274C231.689 8.08197 231.967 8.34609 232.395 8.75171C233.129 8.79887 234.113 8.85547 235.098 8.91207L235.154 8.65738C234.912 8.48759 234.68 8.32722 234.271 8.04423C234.773 8.0065 235.089 7.98763 235.693 7.94047C235.163 7.36505 234.801 6.95 234.373 6.47835C233.983 6.98773 233.519 6.95 232.971 6.47835C232.757 6.28969 232.367 6.25196 232.07 6.28025C231.224 6.35572 230.379 6.50665 229.543 6.62928C229.496 6.62928 229.468 6.70474 229.403 6.76134C229.487 6.88397 229.571 7.01603 229.663 7.13866C228.753 7.94047 227.759 7.11036 226.663 7.35562L226.663 7.37449ZM121.613 66.8498C121.604 66.7554 121.595 66.6611 121.585 66.5668C121.019 66.5385 120.452 66.4913 119.885 66.4725C118.548 66.4442 117.182 66.2272 115.891 66.4725C115.082 66.6234 114.376 66.4725 113.615 66.4347C112.816 66.3876 111.896 66.3027 111.246 66.68C110.725 66.9818 110.326 67.1611 109.769 67.1045C109.388 67.0667 108.988 67.1045 108.58 67.1045C108.617 67.2177 108.626 67.2554 108.645 67.2648C108.737 67.312 108.83 67.3592 108.933 67.378C110.14 67.6233 111.301 67.4346 112.453 66.963C112.779 66.8309 113.252 67.1233 113.642 67.2837C113.689 67.3026 113.624 67.6799 113.587 68.1138C114.07 67.9629 114.581 67.9629 114.887 67.6893C115.408 67.2271 116.234 67.0007 117.024 67.4158C116.383 67.4912 115.853 67.5573 115.324 67.6139L115.343 67.8497C116.374 67.8497 117.405 67.8497 118.436 67.8497C118.724 67.8497 119.012 67.727 119.291 67.7648C119.783 67.8214 120.35 68.2364 120.498 67.2554C120.517 67.1422 120.861 67.0856 121.056 67.0101C121.242 66.9441 121.427 66.9064 121.613 66.8592L121.613 66.8498ZM151.136 62.5577L151.136 62.3502C150.718 62.3125 150.291 62.2748 149.864 62.237L149.864 61.9635C150.486 61.9635 151.118 61.9069 151.74 61.9729C153.143 62.1333 153.134 62.1616 153.412 61.6805L144.104 61.6805C144.104 61.7842 144.104 61.888 144.104 62.0012C144.253 61.9918 144.401 61.954 144.541 61.9729C145.339 62.0484 146.25 61.8974 146.9 62.2748C147.56 62.6615 147.996 62.5955 148.554 62.2748C148.777 62.1521 149.018 62.0672 149.251 61.9635L149.473 62.2936C149.269 62.3408 149.055 62.388 148.851 62.4351L149.018 62.6898C149.724 62.6426 150.43 62.6049 151.136 62.5577ZM20.2702 81.5464C20.2702 81.6596 20.2609 81.7728 20.2516 81.886C20.8555 82.0087 21.4593 82.2728 22.0539 82.2256C23.661 82.0936 25.2681 81.8389 26.8753 81.6219C27.1168 81.5842 27.3397 81.4427 27.572 81.3484L27.5349 81.1786C25.1102 81.3012 22.6949 81.4332 20.2702 81.5559L20.2702 81.5464ZM28.6032 79.141C29.4393 79.5183 30.1175 80.2353 31.1672 80.0843C32.0683 79.9617 33.0159 80.4145 34.0563 79.99C33.3503 79.8391 32.6629 79.8957 32.2355 79.5561C31.065 78.6316 29.8573 78.8769 28.6032 79.141ZM117.554 15.4586L117.591 15.185C117.275 15.0624 116.959 14.9586 116.652 14.8077C116.429 14.704 116.225 14.4304 116.011 14.4304C115.157 14.4304 114.293 14.5153 113.438 14.5719C113.215 14.5908 112.983 14.6191 112.76 14.6379L112.76 15.0058C114.33 15.5246 115.946 15.4775 117.563 15.4492L117.554 15.4586ZM141.159 12.44C141.15 12.2797 141.14 12.1287 141.131 11.9684C138.307 12.0627 135.474 12.1665 132.65 12.2608L132.65 12.4306L141.168 12.4306L141.159 12.44ZM295.306 74.5943L295.343 74.9245C297.349 74.915 299.365 75.415 301.363 74.849L301.363 74.6132L297.517 74.6132L297.517 74.4811C297.758 74.4528 298 74.4339 298.241 74.4056L298.204 74.1415L295.306 74.6037L295.306 74.5943ZM295.045 74.566L294.953 74.0661C293.959 74.1698 292.974 74.283 291.98 74.3679C291.803 74.3868 291.618 74.3019 291.432 74.2924C290.679 74.2924 289.927 74.2924 289.174 74.2924C290.837 74.6132 292.509 74.7735 294.182 74.8773C294.46 74.8962 294.758 74.6792 295.045 74.566ZM320.936 16.2321C319.534 15.9208 318.177 15.8076 316.607 16.2887C317.62 16.5528 318.4 16.7604 319.181 16.9585C319.329 16.9962 319.506 16.9962 319.645 16.9396C320.054 16.7509 320.444 16.5151 320.936 16.2415L320.936 16.2321ZM28.0551 79.9617L28.083 79.6221C27.3584 79.5372 26.6337 79.4617 25.714 79.358C25.8348 79.9617 25.7977 80.622 26.0485 80.8107C26.3922 81.0748 26.9961 81.2352 27.3677 80.5843C27.2283 80.405 27.0982 80.2258 26.8474 79.8862C27.3769 79.9145 27.7114 79.9334 28.0551 79.9523L28.0551 79.9617ZM226.031 9.02527L225.985 9.40259C226.654 9.58182 227.322 9.76105 227.991 9.94027L228.038 9.74218C227.759 9.66671 227.49 9.59125 227.211 9.52522L227.23 9.28939C227.555 9.27053 227.88 9.30826 228.186 9.22336C228.521 9.13846 228.837 8.9498 229.162 8.80831C228.846 8.71398 228.512 8.49702 228.205 8.53475C227.471 8.63851 226.746 8.85547 226.022 9.02527L226.031 9.02527ZM196.787 63.2558C196.852 63.6708 196.88 63.8972 196.917 64.1236C197.186 64.067 197.521 64.0953 197.697 63.9255C197.967 63.6708 197.613 62.7936 197.242 62.8219C196.146 62.8879 195.05 63.0294 193.953 63.152C193.963 63.2841 193.972 63.4067 193.99 63.5388C194.957 63.4445 195.923 63.3501 196.787 63.2652L196.787 63.2558ZM240.653 71.8493C242.586 72.1511 244.518 72.5568 246.441 71.8493L240.653 71.8493ZM155.865 61.8408C155.177 61.3598 154.016 61.4164 153.821 61.9823L154.211 62.5955L152.753 62.5955C153.914 63.0766 155.28 62.7464 155.865 61.8408ZM181.96 61.0579C181.96 61.1805 181.96 61.3032 181.96 61.4258C183.437 61.2466 184.942 61.9257 186.391 61.0579L181.951 61.0579L181.96 61.0579ZM247.073 13.0343C247.063 13.1192 247.054 13.2041 247.045 13.289C247.677 13.4305 248.41 13.3928 248.931 13.7512C249.702 14.2795 250.203 14.1191 250.863 13.289C249.534 12.9211 248.29 13.2607 247.073 13.0343ZM259.196 12.1665C257.607 11.9118 255.972 11.1477 254.458 12.5249C255.155 12.9588 255.276 12.9211 255.564 12.5721C255.731 12.374 256.019 12.1948 256.26 12.1853C257.236 12.1382 258.221 12.1665 259.196 12.1665ZM10.5066 61.6993L10.488 61.4258C10.3115 61.4069 10.1257 61.3786 9.94919 61.388C9.13168 61.4069 8.31418 61.4258 7.50595 61.4635C7.28299 61.4729 7.06003 61.5767 6.83706 61.6333C7.04144 61.7937 7.24582 62.1144 7.43161 62.0955C8.4628 62.0106 9.48468 61.8314 10.5066 61.6899L10.5066 61.6993ZM152.901 67.6044C152.929 67.6988 152.957 67.7931 152.976 67.8874L156.961 67.8874C156.171 67.5667 155.382 67.3875 154.592 67.2743C154.183 67.2177 153.765 67.246 153.357 67.2931C153.199 67.312 153.05 67.4912 152.901 67.6044ZM98.305 9.74217C97.0044 9.43088 95.9547 10.4402 94.8027 9.95913C94.6727 9.90254 94.4497 10.1289 94.2732 10.2233C95.6202 10.3459 96.9765 10.893 98.305 9.73274L98.305 9.74217ZM133.801 13.2513L133.801 13.0532L128.274 13.0532L128.274 13.2513L133.801 13.2513ZM137.174 66.0197C138.502 65.9819 139.691 67.0667 141.066 66.5196C139.821 65.8876 138.484 66.0574 137.174 66.0197ZM226.551 6.72361L226.57 7.1198C227.127 7.1198 227.694 7.15753 228.251 7.10093C228.428 7.08206 228.725 6.79907 228.716 6.65758C228.697 6.38402 228.558 6.04443 228.363 5.8935C228.168 5.74257 227.852 5.78974 227.583 5.75201L227.536 5.9218C227.703 6.04443 227.861 6.15763 228.084 6.32742C227.508 6.47835 227.025 6.60098 226.542 6.72361L226.551 6.72361ZM190.005 61.4164C188.965 60.7938 188.073 60.7466 186.893 61.1617C187.311 61.4352 187.553 61.7276 187.785 61.7182C188.454 61.6899 189.123 61.5484 190.005 61.4164ZM223.895 10.9779C224.684 11.5062 228.159 11.6477 229.459 11.2609C227.583 11.1666 225.817 11.0722 223.895 10.9779ZM93.8923 15.053C94.4311 15.2133 95.0164 15.4397 95.6202 15.5435C96.2612 15.6567 96.9208 15.6473 97.5804 15.685L97.5989 15.3926C96.9115 15.3548 96.224 15.3171 95.5366 15.2794L95.5366 15.0341L95.7967 14.7794C94.812 14.6096 94.1772 14.6977 93.8923 15.0435L93.8923 15.053ZM95.9732 8.31778L95.9361 8.55361C96.6514 8.9498 98.6301 8.8083 99.1504 8.12912C97.9798 8.19516 96.9765 8.25175 95.9732 8.31778ZM98.0913 10.3931L99.5498 10.3931C99.4383 10.2138 99.2897 10.0723 99.3176 10.0157C99.7635 8.9498 100.804 9.70444 101.501 9.25166C100.692 8.33665 99.9864 9.52521 99.4755 9.29882C98.9738 9.69501 98.6115 9.98743 98.0913 10.4025L98.0913 10.3931ZM208.473 14.3266C208.473 14.4304 208.455 14.5436 208.445 14.6474C208.836 14.6474 209.217 14.6474 209.607 14.6474C210.471 14.6568 211.335 14.6945 212.208 14.6757C212.347 14.6757 212.487 14.4304 212.617 14.2983C212.44 14.2417 212.264 14.1191 212.096 14.138C211.725 14.1663 211.353 14.3078 210.982 14.3266C210.146 14.3549 209.309 14.3266 208.473 14.3266ZM216.509 14.4021L216.556 14.204C215.496 14.1285 214.437 14.0531 213.369 13.9776L213.267 14.1851C213.397 14.3361 213.527 14.6191 213.657 14.6191C214.605 14.5813 215.552 14.4776 216.509 14.4021ZM222.789 69.925L222.77 69.708C221.693 69.9721 220.504 69.076 219.51 70.274C220.606 70.1608 221.693 70.0381 222.789 69.925ZM121.771 67.2082L124.205 67.2082C123.332 66.4819 122.338 66.5479 121.771 67.2082ZM144.067 67.8025L144.085 68.0195L146.882 68.0195L146.882 67.8025L144.067 67.8025ZM286.703 4.96907C285.012 4.19556 284.105 4.06035 283.981 4.56344C284.892 4.69551 285.793 4.82757 286.703 4.96907ZM239.817 72.038L239.817 71.9908L236.12 71.9908L236.139 72.3304C237.365 72.236 238.591 72.1417 239.817 72.038ZM261.983 12.5721C261.072 11.8646 259.503 12.1099 259.382 12.7891C260.246 12.7136 261.11 12.6476 261.983 12.5721ZM82.2428 15.5058L82.2428 15.2511C81.2116 15.3831 80.1433 15.0624 79.1586 15.5624C79.1586 15.6378 79.1772 15.7227 79.1772 15.7982C80.1991 15.7039 81.2209 15.6095 82.2428 15.5152L82.2428 15.5058ZM322.562 20.2317C322.608 20.0902 322.655 19.9487 322.701 19.8072C321.652 20.0148 321.094 18.5526 319.952 19.0998C320.825 19.4771 321.698 19.8544 322.562 20.2412L322.562 20.2317ZM158.68 62.0201C159.525 61.9069 160.222 61.8125 160.937 61.7182C160.343 61.0296 159.181 61.1145 158.68 62.0201ZM139.71 63.1898C140.462 63.369 141.206 63.5388 142.042 63.7369C141.726 63.0011 140.667 62.737 139.71 63.1898ZM140.704 61.6899C141.438 62.388 142.2 62.3219 142.71 61.6899L140.704 61.6899ZM199.081 63.6237C200.27 64.4161 200.484 64.3217 200.679 63.086C200.187 63.2558 199.713 63.4162 199.081 63.6237ZM325.526 45.6915L325.498 45.8613C326.083 45.965 326.668 46.0594 327.402 46.1914C327.244 45.7858 327.161 45.5689 327.105 45.4085C326.538 45.5123 326.027 45.5972 325.526 45.6821L325.526 45.6915ZM161.578 61.5673C162.414 61.9446 163.25 62.2748 164.254 61.5673L161.578 61.5673ZM251.68 12.1099C252.637 12.157 253.39 12.1948 254.142 12.2325C253.399 11.5156 252.637 11.7043 251.68 12.1099ZM103.637 15.402L103.637 15.7039C104.343 15.6095 105.049 15.5152 105.746 15.4209L105.709 15.0907C105.022 15.1945 104.325 15.2982 103.637 15.3926L103.637 15.402ZM108.607 15.1473C108.617 15.0341 108.635 14.9209 108.645 14.8171C107.929 14.8549 107.214 14.8926 106.499 14.9398L106.517 15.3171C107.214 15.2605 107.911 15.2039 108.617 15.1567L108.607 15.1473ZM134.099 65.4537C134.554 66.1046 135.604 66.1706 136.263 65.6235C135.483 65.5575 134.879 65.5197 134.099 65.4537ZM311.405 65.0858C312.009 65.0386 312.51 64.9915 313.198 64.9349C312.269 64.1991 312.102 64.218 311.405 65.0858ZM235.776 6.87454L235.758 7.16696C236.51 7.21413 237.272 7.26129 238.024 7.30846L238.043 7.04433C237.29 6.98773 236.529 6.93113 235.776 6.87454ZM99.9493 15.7322L99.9679 15.4303L98.2678 15.4303L98.2678 15.7322L99.9493 15.7322ZM279.94 3.06359L279.922 3.40318C280.47 3.38431 280.99 3.93143 281.547 3.48808C281.547 3.37488 281.557 3.26169 281.566 3.14849L279.949 3.06359L279.94 3.06359ZM295.287 5.95953C295.696 6.71418 296.16 6.60098 296.634 6.41232L296.662 6.0633C296.207 6.02557 295.742 5.99727 295.287 5.95953ZM17.8641 5.05395C18.3936 5.08225 18.9325 5.11998 19.462 5.14828L19.462 4.84642C18.9696 4.35591 18.4215 4.56343 17.8641 5.05395ZM110.846 6.42175L110.846 6.61041C111.747 6.56324 112.667 6.51608 113.587 6.45948L113.568 6.20479L110.846 6.41231L110.846 6.42175ZM151.675 10.6477C151.266 10.8647 150.858 11.0911 150.449 11.3081C150.978 11.3647 151.619 11.7514 151.675 10.6477ZM280.46 3.82767L280.414 4.24272C280.943 4.32762 281.473 4.41252 282.003 4.48798L282.03 4.24272C281.51 4.10123 280.981 3.95973 280.46 3.81823L280.46 3.82767ZM124.27 13.1947C124.261 13.0815 124.242 12.9683 124.233 12.8551C123.471 12.9683 122.7 13.0909 121.938 13.2041L121.957 13.4116C122.728 13.3362 123.499 13.2607 124.27 13.1852L124.27 13.1947ZM132.315 69.0571L132.315 68.5666C131.869 68.6043 131.433 68.6515 130.996 68.6892L131.015 68.9628C131.451 68.9911 131.878 69.0288 132.315 69.0571ZM104.947 8.15742L104.929 7.81783L103.052 7.94046C103.052 8.04423 103.061 8.14799 103.071 8.25175L104.947 8.15742ZM117.489 14.3927C117.516 14.5153 117.544 14.6285 117.581 14.7511C118.139 14.5719 118.705 14.3927 119.263 14.2134L119.179 13.8833C118.613 14.0531 118.055 14.2229 117.489 14.3927ZM65.5211 6.6953L65.5211 6.58211L63.2172 6.58211L63.2172 6.8368C63.9976 6.78963 64.7593 6.74247 65.5211 6.6953ZM149.195 69.7551C149.195 69.8683 149.213 69.991 149.213 70.1042C149.761 70.0759 150.3 70.0476 150.848 70.0193L150.848 69.7551L149.185 69.7551L149.195 69.7551ZM100.739 9.79877L100.72 10.1101C101.315 10.1761 101.909 10.2327 102.495 10.2987L102.523 9.8931C101.928 9.8648 101.333 9.82707 100.739 9.79877ZM317.053 65.2745C316.552 65.548 316.208 65.7272 315.743 65.9725C316.635 66.3593 316.709 66.3215 317.053 65.2745Z" fill="#5FB01C"/>
</svg>
