<svg width="14" height="16" viewBox="0 0 14 16" fill="none" xmlns="http://www.w3.org/2000/svg">
<g id="Group">
<path id="Vector" d="M0.894979 5.76953H1.4995V7.96774H0.894979C0.621843 7.96774 0.400391 7.74626 0.400391 7.47315V6.26415C0.400359 5.99102 0.621843 5.76953 0.894979 5.76953Z" fill="#B5461D"/>
<path id="Vector_2" d="M6.17087 3.29688H5.07176C4.46478 3.29688 3.97266 3.78899 3.97266 4.39598V9.34196H7.26997V4.39598C7.26997 3.78899 6.77785 3.29688 6.17087 3.29688Z" fill="#FFC800"/>
<path id="Vector_3" d="M6.99509 0.550781L4.8315 0.825542C4.80847 0.915312 4.79683 1.00763 4.79688 1.1003V2.19941C4.79688 2.8064 5.28899 3.29851 5.89598 3.29851C6.50297 3.29851 6.99509 2.8064 6.99509 2.19941V1.10033C7.00634 0.917317 7.00634 0.733768 6.99509 0.550781Z" fill="#B5461D"/>
<path id="Vector_4" d="M4.79634 0.824314V1.92342L5.89545 0.824314H6.71976C7.17507 0.824314 7.54407 0.455279 7.54407 0H5.62065C5.16538 0 4.79634 0.369035 4.79634 0.824314ZM7.26931 9.34237H3.972V12.0901L1.49902 13.1892L2.04858 14.2883L4.66938 13.1964C4.86972 13.1129 5.04087 12.972 5.16126 12.7914C5.28165 12.6109 5.3459 12.3987 5.34589 12.1817V10.9617C5.34589 10.6745 5.57863 10.4415 5.86604 10.4415C5.95834 10.4415 6.04898 10.4661 6.12866 10.5127C6.20833 10.5593 6.27417 10.6262 6.31942 10.7067L8.64318 14.8379L9.74228 14.2884L7.26931 9.34237Z" fill="#B5461D"/>
<path id="Vector_5" d="M1.34754 15.6313L0.400391 13.7371L1.4995 13.1875L2.47577 15.14C2.51385 15.2163 2.53368 15.3004 2.53368 15.3857C2.53368 15.471 2.51385 15.5551 2.47577 15.6313C2.43012 15.7226 2.35995 15.7994 2.27313 15.8531C2.18631 15.9068 2.08626 15.9352 1.98418 15.9353H1.8391C1.73701 15.9353 1.63693 15.9069 1.5501 15.8532C1.46327 15.7995 1.39313 15.7227 1.34754 15.6313ZM10.8419 15.1109L9.19321 15.9352L8.64365 14.8361L10.2923 14.0118C10.5959 13.8601 10.965 13.983 11.1166 14.2866C11.2683 14.5902 11.1452 14.9592 10.8419 15.1109Z" fill="#B5461D"/>
<path id="Vector_6" d="M11.0382 5.02444C10.8129 4.72412 10.3864 4.66313 10.0861 4.88842C10.0603 4.90767 10.0361 4.92882 10.0133 4.9516L8.64437 6.32053L7.27051 4.67188V6.87009L7.39059 7.05007C7.83409 7.71474 8.73234 7.89445 9.39729 7.45098C9.47666 7.39809 9.55057 7.33743 9.61793 7.2699L10.975 5.91278C11.2141 5.67346 11.241 5.29511 11.0382 5.02444Z" fill="#B5461D"/>
<path id="Vector_7" d="M1.49902 8.24351C1.49902 8.69882 1.86806 9.06782 2.32334 9.06782H3.14765C3.60296 9.06782 3.97196 8.69879 3.97196 8.24351V7.96875H1.49902V8.24351Z" fill="#B5461D"/>
<path id="Vector_8" d="M3.92528 3.84643C3.86844 3.68563 3.76313 3.54643 3.62385 3.448C3.48457 3.34957 3.3182 3.29677 3.14765 3.29688H2.32334C1.86803 3.29688 1.49902 3.66591 1.49902 4.12119V7.96806H3.972V4.12119L3.92528 3.84643Z" fill="#FFC800"/>
<path id="Vector_9" d="M12.969 15.6074C13.0034 15.7552 12.9114 15.9029 12.7636 15.9373V15.9373C12.6158 15.9716 12.4681 15.8797 12.4337 15.7319L9.80992 4.45133C9.77554 4.30352 9.86749 4.15582 10.0153 4.12144V4.12144C10.1631 4.08706 10.3108 4.17902 10.3452 4.32682L12.969 15.6074Z" fill="#FFC800"/>
<path id="Vector_10" d="M5.84099 4.55318L4.24729 5.5248L6.11578 6.86873C6.43122 7.07974 6.51584 7.50621 6.30483 7.82166C6.29821 7.83154 6.29133 7.84125 6.2842 7.85078C6.06547 8.14176 5.658 8.21156 5.3549 8.01014L3.05476 6.37936C2.91429 6.28543 2.79918 6.1583 2.71961 6.00923C2.64005 5.86017 2.59849 5.69377 2.59863 5.5248C2.59862 5.35577 2.64035 5.18935 2.72011 5.04032C2.79987 4.89129 2.9152 4.76426 3.05585 4.67052L5.08123 3.41177C5.3843 3.21034 5.7918 3.28015 6.01054 3.57113C6.23724 3.87529 6.17459 4.30561 5.87039 4.53256C5.86077 4.53971 5.85089 4.54659 5.84099 4.55318Z" fill="#B5461D"/>
</g>
</svg>
