<svg width="20" height="20" viewBox="0 0 20 20" fill="none" xmlns="http://www.w3.org/2000/svg">
<g id="WHATSAPP">
<g id="Group">
<path id="Vector" d="M0.449219 19.4788L1.79775 14.5815C0.967884 13.1494 0.529376 11.5201 0.529376 9.85799C0.529376 4.64615 4.79186 0.40625 10.021 0.40625C12.5624 0.40625 14.9436 1.39227 16.7353 3.17651C18.5271 4.96074 19.5125 7.33659 19.5125 9.86269C19.5125 15.0745 15.25 19.3144 10.021 19.3144H10.0162C8.42723 19.3144 6.86652 18.9153 5.48027 18.1641L0.449219 19.4788Z" fill="#20CA42"/>
<g id="Group_2">
<path id="Vector_2" d="M0.107422 19.8158L1.5031 14.7449C0.644948 13.2611 0.187579 11.5755 0.192294 9.85231C0.192294 4.45265 4.60566 0.0625 10.0281 0.0625C12.6591 0.0625 15.1299 1.08139 16.9829 2.93136C18.8407 4.78133 19.8639 7.24169 19.8591 9.85701C19.8591 15.2567 15.4458 19.6468 10.0234 19.6468H10.0186C8.37306 19.6468 6.75577 19.2336 5.31765 18.4542L0.107422 19.8158ZM5.56284 16.6793L5.85989 16.8578C7.11412 17.5996 8.55224 17.9894 10.0186 17.9941H10.0234C14.5263 17.9941 18.1947 14.3458 18.1947 9.85701C18.1947 7.68306 17.346 5.64058 15.8041 4.1005C14.2623 2.56043 12.2065 1.71526 10.0234 1.71526C5.51569 1.71526 1.84731 5.36355 1.84731 9.85231C1.84731 11.3877 2.27639 12.8855 3.09682 14.1814L3.29014 14.4913L2.46499 17.4916L5.56284 16.6793Z" fill="#20CA42"/>
<path id="Vector_3" d="M7.56995 5.75535C7.38606 5.3469 7.19274 5.33751 7.01828 5.33282C6.87682 5.32812 6.71179 5.32813 6.54676 5.32813C6.38173 5.32813 6.11768 5.38916 5.89136 5.63329C5.66503 5.87742 5.0332 6.46897 5.0332 7.67554C5.0332 8.87742 5.91493 10.0417 6.03753 10.2061C6.16012 10.3704 7.73969 12.9197 10.234 13.9009C12.3087 14.7178 12.733 14.5535 13.181 14.5112C13.6336 14.469 14.6332 13.9197 14.8407 13.3469C15.0434 12.7741 15.0434 12.2859 14.9821 12.1826C14.9208 12.0793 14.7558 12.0183 14.5106 11.8962C14.2654 11.7741 13.0584 11.1826 12.832 11.0981C12.6057 11.0136 12.4407 10.976 12.2804 11.2201C12.1153 11.4643 11.6438 12.0136 11.5024 12.1779C11.3609 12.3422 11.2147 12.361 10.9696 12.2389C10.7244 12.1169 9.93223 11.8586 8.99392 11.023C8.26307 10.3751 7.76798 9.57225 7.62653 9.32812C7.48508 9.08399 7.61238 8.95254 7.73498 8.83047C7.84343 8.72249 7.98017 8.54409 8.10276 8.40324C8.22535 8.2624 8.26779 8.15911 8.34795 7.99479C8.4281 7.83047 8.39038 7.68963 8.32909 7.56756C8.26779 7.44549 7.78684 6.23892 7.56995 5.75535Z" fill="white"/>
</g>
</g>
</g>
</svg>
