<svg width="14" height="12" viewBox="0 0 14 12" fill="none" xmlns="http://www.w3.org/2000/svg">
<g id="Group">
<path id="Vector" d="M7.034 11.2711C7.93729 11.2711 8.66955 10.5389 8.66955 9.63556C8.66955 8.73226 7.93729 8 7.034 8C6.1307 8 5.39844 8.73226 5.39844 9.63556C5.39844 10.5389 6.1307 11.2711 7.034 11.2711Z" fill="#FFC800"/>
<path id="Vector_2" d="M10.9398 5.69138C10.9155 5.66644 10.8899 5.64419 10.865 5.62127L10.7915 5.55183C10.7794 5.53902 10.7659 5.52958 10.7504 5.51744C9.73561 4.59241 8.40329 4.0942 7.03056 4.12648C5.65784 4.15875 4.3504 4.71901 3.38024 5.69071L3.1436 5.92802L2.81595 6.25567C2.62438 6.44839 2.51707 6.70923 2.51758 6.98097C2.51809 7.25271 2.62636 7.51315 2.81865 7.70516C2.91363 7.80053 3.02648 7.87626 3.15073 7.92801C3.27499 7.97976 3.40823 8.00653 3.54283 8.00678C3.67744 8.00703 3.81077 7.98076 3.93522 7.92947C4.05967 7.87818 4.17279 7.80287 4.26813 7.70785L4.83309 7.14289C5.45094 6.52691 6.28777 6.18096 7.16022 6.18083C8.03267 6.18071 8.8696 6.52642 9.48763 7.14222L9.8955 7.53728C10.0866 7.72716 10.3452 7.83346 10.6145 7.83282C10.8839 7.83219 11.142 7.72469 11.3322 7.53391C11.427 7.43978 11.5022 7.32781 11.5534 7.20446C11.6047 7.0811 11.631 6.94882 11.6308 6.81524C11.6317 6.6821 11.606 6.55012 11.5552 6.42705C11.5043 6.30399 11.4294 6.19232 11.3349 6.09859L10.9398 5.69138Z" fill="#B5461D"/>
<path id="Vector_3" d="M13.7285 3.67223L13.3887 3.33244C13.3873 3.3311 13.3867 3.32907 13.384 3.3284L13.1156 3.05873C13.0691 3.01302 13.018 2.97214 12.9633 2.9367C9.5162 -0.0896877 4.27311 0.00334895 0.935921 3.21379C0.919741 3.22862 0.901538 3.23873 0.885358 3.25491L0.271855 3.86909C0.185302 3.95602 0.11674 4.05917 0.0700931 4.17262C0.0234459 4.28608 -0.000371337 4.40762 4.37673e-06 4.53029C0.00038009 4.65296 0.0249414 4.77435 0.0722827 4.88752C0.119624 5.00069 0.188816 5.10341 0.2759 5.18981C0.362343 5.27685 0.4651 5.34599 0.578292 5.39327C0.691484 5.44055 0.812889 5.46505 0.935559 5.46536C1.05823 5.46568 1.17976 5.4418 1.29319 5.39509C1.40662 5.34839 1.50973 5.27977 1.59662 5.19318L2.21012 4.58035C2.21416 4.57496 2.21754 4.57024 2.22158 4.56687C4.92032 1.95982 9.20135 1.94364 11.9217 4.51361L12.4044 4.99699C12.5801 5.1716 12.818 5.26931 13.0658 5.26868C13.3135 5.26805 13.5509 5.16912 13.7258 4.99362C13.901 4.81857 13.9997 4.58118 14.0002 4.33348C14.0007 4.08579 13.903 3.848 13.7285 3.67223Z" fill="#B5461D"/>
</g>
</svg>
