<svg width="45" height="32" viewBox="0 0 45 32" fill="none" xmlns="http://www.w3.org/2000/svg">
<g id="&#240;&#159;&#166;&#134; icon &#34;youtube&#34;">
<path id="Vector" d="M17.959 22.0302L29.853 15.8768L17.959 9.67188V22.0302Z" fill="white"/>
<path id="Vector_2" opacity="0.12" d="M17.959 9.67188L28.392 16.6331L29.853 15.8768L17.959 9.67188Z" fill="#420000"/>
<path id="Vector_3" d="M44.036 7.5206C44.036 7.5206 43.6065 4.49547 42.2836 3.15479C40.617 1.40159 38.7442 1.40159 37.868 1.29846C31.7343 0.851562 22.5081 0.851562 22.5081 0.851562H22.4909C22.4909 0.851562 13.2646 0.851562 7.09658 1.29846C6.23752 1.40159 4.36478 1.40159 2.68103 3.15479C1.37526 4.49547 0.945733 7.5206 0.945733 7.5206C0.945733 7.5206 0.499023 11.0958 0.499023 14.6537V17.9882C0.499023 21.5462 0.945733 25.1042 0.945733 25.1042C0.945733 25.1042 1.37526 28.1293 2.69821 29.47C4.36478 31.2232 6.56396 31.1716 7.54329 31.3435C11.0654 31.6873 22.4909 31.7904 22.4909 31.7904C22.4909 31.7904 31.7343 31.7732 37.8852 31.3263C38.7442 31.2232 40.617 31.2232 42.3007 29.47C43.6237 28.1293 44.0532 25.1042 44.0532 25.1042C44.0532 25.1042 44.4999 21.5462 44.4999 17.9882V14.6537C44.4827 11.0958 44.036 7.5206 44.036 7.5206ZM17.9551 22.0275V9.66913L29.8444 15.8741L17.9551 22.0275Z" fill="url(#paint0_linear_2256_32412)"/>
</g>
<defs>
<linearGradient id="paint0_linear_2256_32412" x1="5630.41" y1="0.851618" x2="5630.41" y2="5571.52" gradientUnits="userSpaceOnUse">
<stop stop-color="#E52D27"/>
<stop offset="1" stop-color="#BF171D"/>
</linearGradient>
</defs>
</svg>
